<svg width="934" height="233" fill="none" xmlns="http://www.w3.org/2000/svg"><g opacity=".05" clip-path="url(#a)" stroke="#131414" stroke-width="2" stroke-miterlimit="10"><path d="M380.536 297.394c13.944-.877 25.313-8.748 35.833-17.415 11.726-9.681 22.355-20.651 34.218-30.195 9.232-7.432 20.437-15.495 32.765-15.852 14.082-.411 24.465 14.892 31.478 25.094 10.684 15.55 19.478 32.39 28.903 48.708 8.52 14.727 17.478 31.786 30.984 42.674 25.451 20.514 46.874-23.23 56.901-40.809 8.383-14.673 16.191-29.675 25.013-44.073 7.123-11.573 15.862-27.069 28.957-32.718 10.712-4.635 19.506 2.852 26.163 10.75 11.506 13.658 19.561 30.36 27.67 46.13 9.013 17.552 17.424 35.543 27.971 52.273 6.246 9.9 15.342 25.066 28.437 26.136 10.657.878 21.286-6.637 29.094-12.945 10.767-8.721 20.164-19.033 29.916-28.824 9.945-9.983 20.739-21.117 34.081-26.465 10.849-4.334 24.081-2.414 35.532-2.414h79.998"/><path d="M380.536 289.962c13.944-.878 25.313-8.749 35.833-17.415 11.726-9.681 22.355-20.651 34.218-30.195 9.232-7.433 20.437-15.496 32.765-15.852 14.082-.412 24.465 14.892 31.478 25.094 10.684 15.55 19.478 32.389 28.903 48.707 8.52 14.728 17.478 31.787 30.984 42.674 25.451 20.515 46.874-23.229 56.901-40.809 8.383-14.672 16.191-29.674 25.013-44.072 7.123-11.574 15.862-27.069 28.957-32.719 10.712-4.635 19.506 2.853 26.163 10.751 11.506 13.658 19.561 30.36 27.67 46.13 9.013 17.552 17.424 35.543 27.971 52.272 6.246 9.901 15.342 25.067 28.437 26.137 10.657.877 21.286-6.637 29.094-12.945 10.767-8.721 20.164-19.033 29.916-28.824 9.945-9.983 20.739-21.118 34.081-26.466 10.849-4.333 24.081-2.413 35.532-2.413h79.998"/><path d="M380.536 282.53c13.944-.878 25.313-8.749 35.833-17.415 11.726-9.681 22.355-20.652 34.218-30.196 9.232-7.432 20.437-15.495 32.765-15.852 14.082-.411 24.465 14.892 31.478 25.095 10.684 15.55 19.478 32.389 28.903 48.707 8.52 14.728 17.478 31.786 30.984 42.674 25.451 20.514 46.874-23.229 56.901-40.809 8.383-14.672 16.191-29.674 25.013-44.072 7.123-11.574 15.862-27.069 28.957-32.719 10.712-4.635 19.506 2.852 26.163 10.751 11.506 13.658 19.561 30.36 27.67 46.129 9.013 17.553 17.424 35.544 27.971 52.273 6.246 9.901 15.342 25.067 28.437 26.136 10.657.878 21.286-6.636 29.094-12.944 10.767-8.722 20.164-19.034 29.916-28.824 9.945-9.983 20.739-21.118 34.081-26.466 10.849-4.333 24.081-2.413 35.532-2.413h79.998"/><path d="M380.536 275.098c13.944-.878 25.313-8.749 35.833-17.416 11.726-9.708 22.355-20.678 34.218-30.195 9.232-7.432 20.437-15.495 32.765-15.852 14.082-.411 24.465 14.892 31.478 25.094 10.684 15.551 19.478 32.39 28.903 48.708 8.52 14.727 17.478 31.786 30.984 42.674 25.451 20.514 46.874-23.229 56.901-40.809 8.383-14.673 16.191-29.674 25.013-44.073 7.123-11.573 15.862-27.069 28.957-32.718 10.712-4.635 19.506 2.852 26.163 10.75 11.506 13.658 19.561 30.36 27.67 46.13 9.013 17.552 17.424 35.543 27.971 52.273 6.246 9.9 15.342 25.067 28.437 26.136 10.657.878 21.286-6.637 29.094-12.945 10.767-8.721 20.164-19.033 29.916-28.824 9.945-9.983 20.739-21.117 34.081-26.465 10.849-4.333 24.081-2.414 35.532-2.414h79.998"/><path d="M380.536 267.665c13.944-.877 25.313-8.748 35.833-17.415 11.726-9.681 22.355-20.651 34.218-30.195 9.232-7.433 20.437-15.496 32.765-15.852 14.082-.412 24.465 14.892 31.478 25.094 10.684 15.55 19.478 32.389 28.903 48.708 8.52 14.727 17.478 31.786 30.984 42.674 25.451 20.514 46.874-23.23 56.901-40.809 8.383-14.673 16.191-29.675 25.013-44.073 7.123-11.574 15.862-27.069 28.957-32.719 10.712-4.634 19.506 2.853 26.163 10.751 11.506 13.658 19.561 30.36 27.67 46.13 9.013 17.552 17.424 35.543 27.971 52.272 6.246 9.901 15.342 25.067 28.437 26.137 10.657.878 21.286-6.637 29.094-12.945 10.767-8.721 20.164-19.033 29.916-28.824 9.945-9.983 20.739-21.118 34.081-26.465 10.849-4.334 24.081-2.414 35.532-2.414h79.998"/><path d="M380.536 260.206c13.944-.878 25.313-8.749 35.833-17.415 11.726-9.682 22.355-20.652 34.218-30.196 9.232-7.432 20.437-15.495 32.765-15.852 14.082-.411 24.465 14.892 31.478 25.095 10.684 15.55 19.478 32.389 28.903 48.707 8.52 14.728 17.478 31.786 30.984 42.674 25.451 20.514 46.874-23.229 56.901-40.809 8.383-14.673 16.191-29.674 25.013-44.073 7.123-11.573 15.862-27.068 28.957-32.718 10.712-4.635 19.506 2.852 26.163 10.751 11.506 13.658 19.561 30.36 27.67 46.129 9.013 17.552 17.424 35.544 27.971 52.273 6.246 9.901 15.342 25.067 28.437 26.136 10.657.878 21.286-6.637 29.094-12.944 10.767-8.722 20.164-19.034 29.916-28.824 9.945-9.983 20.739-21.118 34.081-26.466 10.849-4.333 24.081-2.413 35.532-2.413h79.998"/><path d="M380.536 252.773c13.944-.877 25.313-8.748 35.833-17.415 11.726-9.681 22.355-20.651 34.218-30.195 9.232-7.432 20.437-15.495 32.765-15.852 14.082-.411 24.465 14.892 31.478 25.094 10.684 15.551 19.478 32.39 28.903 48.708 8.52 14.727 17.478 31.786 30.984 42.674 25.451 20.514 46.874-23.23 56.901-40.809 8.383-14.673 16.191-29.675 25.013-44.073 7.123-11.573 15.862-27.069 28.957-32.718 10.712-4.635 19.506 2.852 26.163 10.75 11.506 13.658 19.561 30.36 27.67 46.13 9.013 17.552 17.424 35.543 27.971 52.273 6.246 9.9 15.342 25.067 28.437 26.136 10.657.878 21.286-6.637 29.094-12.945 10.767-8.721 20.164-19.033 29.916-28.824 9.945-9.983 20.739-21.117 34.081-26.465 10.849-4.333 24.081-2.414 35.532-2.414h79.998"/><path d="M380.536 245.341c13.944-.877 25.313-8.749 35.833-17.415 11.726-9.681 22.355-20.651 34.218-30.195 9.232-7.433 20.437-15.496 32.765-15.852 14.082-.412 24.465 14.892 31.478 25.094 10.684 15.55 19.478 32.389 28.903 48.707 8.52 14.728 17.478 31.787 30.984 42.674 25.451 20.515 46.874-23.229 56.901-40.809 8.383-14.672 16.191-29.674 25.013-44.072 7.123-11.574 15.862-27.069 28.957-32.719 10.712-4.635 19.506 2.853 26.163 10.751 11.506 13.658 19.561 30.36 27.67 46.13 9.013 17.552 17.424 35.543 27.971 52.272 6.246 9.901 15.342 25.067 28.437 26.137 10.657.877 21.286-6.637 29.094-12.945 10.767-8.721 20.164-19.033 29.916-28.824 9.945-9.983 20.739-21.118 34.081-26.466 10.849-4.333 24.081-2.413 35.532-2.413h79.998"/><path d="M380.536 237.909c13.944-.878 25.313-8.749 35.833-17.415 11.726-9.681 22.355-20.652 34.218-30.196 9.232-7.432 20.437-15.495 32.765-15.851 14.082-.412 24.465 14.892 31.478 25.094 10.684 15.55 19.478 32.389 28.903 48.707 8.52 14.728 17.478 31.786 30.984 42.674 25.451 20.514 46.874-23.229 56.901-40.809 8.383-14.672 16.191-29.674 25.013-44.072 7.123-11.574 15.862-27.069 28.957-32.719 10.712-4.635 19.506 2.852 26.163 10.751 11.506 13.658 19.561 30.36 27.67 46.129 9.013 17.553 17.424 35.544 27.971 52.273 6.246 9.901 15.342 25.067 28.437 26.137 10.657.877 21.286-6.637 29.094-12.945 10.767-8.722 20.164-19.033 29.916-28.824 9.945-9.983 20.739-21.118 34.081-26.466 10.849-4.333 24.081-2.413 35.532-2.413h79.998"/><path d="M380.536 230.449c13.944-.878 25.313-8.749 35.833-17.415 11.726-9.681 22.355-20.651 34.218-30.195 9.232-7.433 20.437-15.496 32.765-15.852 14.082-.412 24.465 14.892 31.478 25.094 10.684 15.55 19.478 32.389 28.903 48.707 8.52 14.728 17.478 31.786 30.984 42.674 25.451 20.515 46.874-23.229 56.901-40.809 8.383-14.672 16.191-29.674 25.013-44.072 7.123-11.574 15.862-27.069 28.957-32.719 10.712-4.635 19.506 2.852 26.163 10.751 11.506 13.658 19.561 30.36 27.67 46.13 9.013 17.552 17.424 35.543 27.971 52.272 6.246 9.901 15.342 25.067 28.437 26.137 10.657.877 21.286-6.637 29.094-12.945 10.767-8.721 20.164-19.033 29.916-28.824 9.945-9.983 20.739-21.118 34.081-26.466 10.849-4.333 24.081-2.413 35.532-2.413h79.998"/><path d="M380.536 223.017c13.944-.878 25.313-8.749 35.833-17.415 11.726-9.681 22.355-20.652 34.218-30.196 9.232-7.432 20.437-15.495 32.765-15.852 14.082-.411 24.465 14.892 31.478 25.095 10.684 15.55 19.478 32.389 28.903 48.707 8.52 14.728 17.478 31.786 30.984 42.674 25.451 20.514 46.874-23.229 56.901-40.809 8.383-14.672 16.191-29.674 25.013-44.073 7.123-11.573 15.862-27.068 28.957-32.718 10.712-4.635 19.506 2.852 26.163 10.751 11.506 13.658 19.561 30.36 27.67 46.129 9.013 17.553 17.424 35.544 27.971 52.273 6.246 9.901 15.342 25.067 28.437 26.136 10.657.878 21.286-6.636 29.094-12.944 10.767-8.722 20.164-19.034 29.916-28.824 9.945-9.983 20.739-21.118 34.081-26.466 10.849-4.333 24.081-2.413 35.532-2.413h79.998"/><path d="M380.536 215.585c13.944-.878 25.313-8.749 35.833-17.416 11.726-9.681 22.355-20.651 34.218-30.195 9.232-7.432 20.437-15.495 32.765-15.852 14.054-.411 24.465 14.892 31.478 25.094 10.684 15.551 19.478 32.39 28.903 48.708 8.52 14.727 17.478 31.786 30.984 42.674 25.451 20.514 46.874-23.229 56.901-40.809 8.383-14.673 16.191-29.674 25.013-44.073 7.123-11.573 15.862-27.069 28.957-32.718 10.712-4.635 19.506 2.852 26.163 10.751 11.506 13.657 19.561 30.359 27.67 46.129 9.013 17.552 17.424 35.543 27.971 52.273 6.246 9.9 15.342 25.067 28.437 26.136 10.657.878 21.286-6.637 29.094-12.945 10.767-8.721 20.164-19.033 29.916-28.824 9.945-9.982 20.739-21.117 34.081-26.465 10.849-4.333 24.081-2.414 35.532-2.414h79.998"/><path d="M380.536 208.152c13.944-.877 25.313-8.748 35.833-17.415 11.726-9.681 22.355-20.651 34.218-30.195 9.232-7.432 20.437-15.495 32.765-15.852 14.082-.411 24.465 14.892 31.478 25.094 10.684 15.55 19.478 32.39 28.903 48.708 8.52 14.727 17.478 31.786 30.984 42.674 25.451 20.514 46.874-23.23 56.901-40.809 8.383-14.673 16.191-29.675 25.013-44.073 7.123-11.573 15.862-27.069 28.957-32.718 10.712-4.635 19.506 2.852 26.163 10.75 11.506 13.658 19.561 30.36 27.67 46.13 9.013 17.552 17.424 35.543 27.971 52.273 6.246 9.9 15.342 25.066 28.437 26.136 10.657.878 21.286-6.637 29.094-12.945 10.767-8.721 20.164-19.033 29.916-28.824 9.945-9.983 20.739-21.117 34.081-26.465 10.849-4.334 24.081-2.414 35.532-2.414h79.998"/><path d="M380.536 200.72c13.944-.878 25.313-8.749 35.833-17.415 11.726-9.681 22.355-20.651 34.218-30.195 9.232-7.433 20.437-15.496 32.765-15.852 14.082-.412 24.465 14.892 31.478 25.094 10.684 15.55 19.478 32.389 28.903 48.707 8.52 14.728 17.478 31.786 30.984 42.674 25.451 20.515 46.874-23.229 56.901-40.809 8.383-14.672 16.191-29.674 25.013-44.072 7.123-11.574 15.862-27.069 28.957-32.719 10.712-4.635 19.506 2.852 26.163 10.751 11.506 13.658 19.561 30.36 27.67 46.13 9.013 17.552 17.424 35.543 27.971 52.272 6.246 9.901 15.342 25.067 28.437 26.137 10.657.877 21.286-6.637 29.094-12.945 10.767-8.721 20.164-19.033 29.916-28.824 9.945-9.983 20.739-21.118 34.081-26.466 10.849-4.333 24.081-2.413 35.532-2.413h79.998"/><path d="M380.536 193.26c13.944-.877 25.313-8.748 35.833-17.415 11.726-9.681 22.355-20.651 34.218-30.195 9.232-7.432 20.437-15.495 32.765-15.852 14.082-.411 24.465 14.892 31.478 25.094 10.684 15.55 19.478 32.39 28.903 48.708 8.52 14.727 17.478 31.786 30.984 42.674 25.451 20.514 46.874-23.23 56.901-40.809 8.383-14.673 16.191-29.675 25.013-44.073 7.123-11.573 15.862-27.069 28.957-32.718 10.712-4.635 19.506 2.852 26.163 10.75 11.506 13.658 19.561 30.36 27.67 46.13 9.013 17.552 17.424 35.543 27.971 52.273 6.246 9.9 15.342 25.066 28.437 26.136 10.657.878 21.286-6.637 29.094-12.945 10.767-8.721 20.164-19.033 29.916-28.824 9.945-9.983 20.739-21.117 34.081-26.465 10.849-4.334 24.081-2.414 35.532-2.414h79.998"/><path d="M380.536 185.828c13.944-.878 25.313-8.749 35.833-17.415 11.726-9.681 22.355-20.651 34.218-30.195 9.232-7.433 20.437-15.496 32.765-15.852 14.082-.412 24.465 14.892 31.478 25.094 10.684 15.55 19.478 32.389 28.903 48.707 8.52 14.728 17.478 31.787 30.984 42.674 25.451 20.515 46.874-23.229 56.901-40.809 8.383-14.672 16.191-29.674 25.013-44.072 7.123-11.574 15.862-27.069 28.957-32.719 10.712-4.635 19.506 2.853 26.163 10.751 11.506 13.658 19.561 30.36 27.67 46.13 9.013 17.552 17.424 35.543 27.971 52.272 6.246 9.901 15.342 25.067 28.437 26.137 10.657.877 21.286-6.637 29.094-12.945 10.767-8.721 20.164-19.033 29.916-28.824 9.945-9.983 20.739-21.118 34.081-26.466 10.849-4.333 24.081-2.413 35.532-2.413h79.998"/><path d="M380.536 178.396c13.944-.878 25.313-8.749 35.833-17.415 11.726-9.681 22.355-20.652 34.218-30.196 9.232-7.432 20.437-15.495 32.765-15.852 14.082-.411 24.465 14.892 31.478 25.095 10.684 15.55 19.478 32.389 28.903 48.707 8.52 14.728 17.478 31.786 30.984 42.674 25.451 20.514 46.874-23.229 56.901-40.809 8.383-14.672 16.191-29.674 25.013-44.072 7.123-11.574 15.862-27.069 28.957-32.719 10.712-4.635 19.506 2.852 26.163 10.751 11.506 13.658 19.561 30.36 27.67 46.129 9.013 17.553 17.424 35.544 27.971 52.273 6.246 9.901 15.342 25.067 28.437 26.136 10.657.878 21.286-6.636 29.094-12.944 10.767-8.722 20.164-19.034 29.916-28.824 9.945-9.983 20.739-21.118 34.081-26.466 10.849-4.333 24.081-2.413 35.532-2.413h79.998"/><path d="M380.536 170.964c13.944-.878 25.313-8.749 35.833-17.416 11.726-9.681 22.355-20.651 34.218-30.195 9.232-7.432 20.437-15.495 32.765-15.852 14.082-.411 24.465 14.892 31.478 25.094 10.684 15.551 19.478 32.39 28.903 48.708 8.52 14.727 17.478 31.786 30.984 42.674 25.451 20.514 46.874-23.229 56.901-40.809 8.383-14.673 16.191-29.674 25.013-44.073 7.123-11.573 15.862-27.069 28.957-32.718 10.712-4.635 19.506 2.852 26.163 10.751 11.506 13.657 19.561 30.359 27.67 46.129 9.013 17.552 17.424 35.543 27.971 52.273 6.246 9.9 15.342 25.067 28.437 26.136 10.657.878 21.286-6.637 29.094-12.945 10.767-8.721 20.164-19.033 29.916-28.824 9.945-9.982 20.739-21.117 34.081-26.465 10.849-4.333 24.081-2.414 35.532-2.414h79.998"/><path d="M380.536 163.531c13.944-.877 25.313-8.748 35.833-17.415 11.726-9.681 22.355-20.651 34.218-30.195 9.232-7.432 20.437-15.496 32.765-15.852 14.054-.439 24.465 14.892 31.478 25.094 10.684 15.55 19.478 32.39 28.903 48.708 8.52 14.727 17.478 31.786 30.984 42.674 25.451 20.514 46.874-23.23 56.901-40.809 8.383-14.673 16.191-29.675 25.013-44.073 7.123-11.574 15.862-27.069 28.957-32.719 10.712-4.634 19.506 2.853 26.163 10.751 11.506 13.658 19.561 30.36 27.67 46.13 9.013 17.552 17.424 35.543 27.971 52.273 6.246 9.9 15.342 25.066 28.437 26.136 10.657.878 21.286-6.637 29.094-12.945 10.767-8.721 20.164-19.033 29.916-28.824 9.945-9.983 20.739-21.117 34.081-26.465 10.849-4.334 24.081-2.414 35.532-2.414h79.998"/><path d="M380.536 156.072c13.944-.878 25.313-8.749 35.833-17.416 11.726-9.681 22.355-20.651 34.218-30.195 9.232-7.432 20.437-15.495 32.765-15.852 14.054-.411 24.465 14.892 31.478 25.122 10.684 15.55 19.478 32.389 28.903 48.707 8.52 14.728 17.478 31.786 30.984 42.674 25.451 20.514 46.874-23.229 56.901-40.809 8.383-14.672 16.191-29.674 25.013-44.072 7.123-11.574 15.862-27.07 28.957-32.719 10.712-4.635 19.506 2.852 26.163 10.751 11.506 13.658 19.561 30.36 27.67 46.129 9.013 17.553 17.424 35.544 27.971 52.273 6.246 9.901 15.342 25.067 28.437 26.137 10.657.877 21.286-6.637 29.094-12.945 10.767-8.721 20.164-19.033 29.916-28.824 9.945-9.983 20.739-21.118 34.081-26.466 10.849-4.333 24.081-2.413 35.532-2.413h79.998"/><path d="M380.536 148.639c13.944-.877 25.313-8.748 35.833-17.415 11.726-9.681 22.355-20.651 34.218-30.195 9.232-7.432 20.437-15.496 32.765-15.852 14.054-.412 24.465 14.892 31.478 25.122 10.684 15.55 19.478 32.389 28.903 48.707 8.52 14.728 17.478 31.786 30.984 42.674 25.451 20.514 46.874-23.229 56.901-40.809 8.383-14.673 16.191-29.674 25.013-44.073 7.123-11.573 15.862-27.069 28.957-32.718 10.712-4.635 19.506 2.852 26.163 10.75 11.506 13.658 19.561 30.361 27.67 46.13 9.013 17.552 17.424 35.543 27.971 52.273 6.246 9.901 15.342 25.067 28.437 26.136 10.657.878 21.286-6.637 29.094-12.944 10.767-8.722 20.164-19.034 29.916-28.825 9.945-9.982 20.739-21.117 34.081-26.465 10.849-4.333 24.081-2.413 35.532-2.413h79.998"/><path d="M380.536 141.207c13.944-.878 25.313-8.749 35.833-17.415 11.726-9.681 22.355-20.651 34.218-30.195 9.232-7.433 20.437-15.496 32.765-15.852 14.082-.412 24.465 14.892 31.478 25.094 10.684 15.55 19.478 32.389 28.903 48.707 8.52 14.728 17.478 31.786 30.984 42.674 25.451 20.515 46.874-23.229 56.901-40.809 8.383-14.672 16.191-29.674 25.013-44.072 7.123-11.574 15.862-27.07 28.957-32.719 10.712-4.635 19.506 2.852 26.163 10.751 11.506 13.658 19.561 30.36 27.67 46.13 9.013 17.552 17.424 35.543 27.971 52.272 6.246 9.901 15.342 25.067 28.437 26.137 10.657.877 21.286-6.637 29.094-12.945 10.767-8.721 20.164-19.033 29.916-28.824 9.945-9.983 20.739-21.118 34.081-26.466 10.849-4.333 24.081-2.413 35.532-2.413h79.998"/><path d="M380.536 133.775c13.944-.878 25.313-8.749 35.833-17.415 11.726-9.709 22.355-20.68 34.218-30.196 9.232-7.432 20.437-15.495 32.765-15.852 14.054-.438 24.465 14.892 31.478 25.095 10.684 15.55 19.478 32.389 28.903 48.707 8.52 14.728 17.478 31.786 30.984 42.674 25.451 20.514 46.874-23.229 56.901-40.809 8.383-14.673 16.191-29.674 25.013-44.073 7.123-11.573 15.862-27.068 28.957-32.718 10.712-4.635 19.506 2.852 26.163 10.75 11.506 13.659 19.561 30.361 27.67 46.13 9.013 17.552 17.424 35.544 27.971 52.273 6.246 9.901 15.342 25.067 28.437 26.136 10.657.878 21.286-6.637 29.094-12.944 10.767-8.722 20.164-19.034 29.916-28.824 9.945-9.983 20.739-21.118 34.081-26.466 10.849-4.333 24.081-2.413 35.532-2.413h79.998"/><path d="M380.536 126.342c13.944-.877 25.313-8.748 35.833-17.415 11.726-9.708 22.355-20.678 34.218-30.195 9.232-7.432 20.41-15.495 32.765-15.88 14.054-.41 24.465 14.893 31.478 25.122 10.684 15.551 19.478 32.39 28.903 48.708 8.52 14.727 17.478 31.786 30.984 42.674 25.451 20.514 46.874-23.23 56.901-40.809 8.383-14.673 16.191-29.675 25.013-44.073 7.123-11.573 15.862-27.069 28.957-32.718 10.712-4.635 19.506 2.852 26.163 10.75 11.506 13.658 19.561 30.36 27.67 46.13 9.013 17.552 17.424 35.543 27.971 52.273 6.246 9.9 15.342 25.067 28.437 26.136 10.657.878 21.286-6.637 29.094-12.945 10.767-8.721 20.164-19.033 29.916-28.824 9.945-9.983 20.739-21.117 34.081-26.465 10.849-4.333 24.081-2.414 35.532-2.414h79.998"/><path d="M380.536 118.883c13.944-.878 25.313-8.749 35.833-17.415 11.726-9.681 22.355-20.652 34.218-30.196 9.232-7.432 20.437-15.495 32.765-15.852 14.054-.411 24.465 14.892 31.478 25.122 10.684 15.55 19.478 32.389 28.903 48.708 8.52 14.727 17.478 31.786 30.984 42.673 25.451 20.515 46.874-23.229 56.901-40.809 8.383-14.672 16.191-29.674 25.013-44.072 7.123-11.574 15.862-27.069 28.957-32.719 10.712-4.635 19.506 2.853 26.163 10.751 11.506 13.658 19.561 30.36 27.67 46.13 9.013 17.552 17.424 35.543 27.971 52.272 6.246 9.901 15.342 25.067 28.437 26.137 10.657.877 21.286-6.637 29.094-12.945 10.767-8.721 20.164-19.033 29.916-28.824 9.945-9.983 20.739-21.118 34.081-26.466 10.849-4.333 24.081-2.413 35.532-2.413h79.998"/><path d="M380.536 111.45c13.944-.877 25.313-8.748 35.833-17.415 11.726-9.68 22.355-20.651 34.218-30.195 9.232-7.432 20.437-15.495 32.765-15.852 14.054-.411 24.465 14.892 31.478 25.122 10.684 15.55 19.478 32.389 28.903 48.707 8.52 14.728 17.478 31.786 30.984 42.674 25.451 20.514 46.874-23.229 56.901-40.809 8.383-14.672 16.191-29.674 25.013-44.072 7.123-11.574 15.862-27.07 28.957-32.719 10.712-4.635 19.506 2.852 26.163 10.75 11.506 13.659 19.561 30.36 27.67 46.13 9.013 17.553 17.424 35.544 27.971 52.273 6.246 9.901 15.342 25.067 28.437 26.137 10.657.877 21.286-6.637 29.094-12.945 10.767-8.721 20.164-19.033 29.916-28.824 9.945-9.983 20.739-21.118 34.081-26.466 10.849-4.333 24.081-2.413 35.532-2.413h79.998"/><path d="M380.536 104.018c13.944-.877 25.313-8.749 35.833-17.415 11.726-9.681 22.355-20.651 34.218-30.195 9.232-7.433 20.437-15.496 32.765-15.852 14.054-.439 24.465 14.892 31.478 25.094 10.684 15.55 19.478 32.39 28.903 48.708 8.52 14.727 17.478 31.786 30.984 42.673 25.451 20.515 46.874-23.229 56.901-40.809 8.383-14.645 16.191-29.646 25.013-44.045 7.123-11.573 15.862-27.069 28.957-32.718 10.712-4.635 19.506 2.852 26.163 10.75 11.506 13.658 19.561 30.36 27.67 46.13 9.013 17.552 17.424 35.543 27.971 52.273 6.246 9.9 15.342 25.067 28.437 26.136 10.657.878 21.286-6.637 29.094-12.945 10.767-8.721 20.164-19.033 29.916-28.824 9.945-9.982 20.739-21.117 34.081-26.465 10.849-4.333 24.081-2.414 35.532-2.414h79.998"/><path d="M380.536 96.586c13.944-.878 25.313-8.749 35.833-17.415 11.726-9.709 22.355-20.679 34.218-30.196 9.232-7.432 20.437-15.495 32.765-15.851 14.054-.44 24.465 14.892 31.478 25.094 10.684 15.55 19.478 32.39 28.903 48.707 8.52 14.728 17.478 31.786 30.984 42.674 25.451 20.514 46.874-23.229 56.901-40.809 8.383-14.645 16.191-29.674 25.013-44.072 7.123-11.574 15.862-27.07 28.957-32.719 10.712-4.635 19.506 2.852 26.163 10.75 11.506 13.659 19.561 30.36 27.67 46.13 9.013 17.553 17.424 35.544 27.971 52.273 6.246 9.901 15.342 25.067 28.437 26.137 10.657.877 21.286-6.637 29.094-12.945 10.767-8.721 20.164-19.033 29.916-28.824 9.945-9.983 20.739-21.118 34.081-26.466 10.849-4.333 24.081-2.413 35.532-2.413h79.998"/><path d="M380.536 89.154c13.972-.905 25.341-8.75 35.833-17.443 11.726-9.681 22.355-20.651 34.218-30.168 9.232-7.432 20.437-15.495 32.765-15.852 14.054-.438 24.465 14.865 31.478 25.095 10.684 15.55 19.478 32.389 28.903 48.707 8.52 14.727 17.478 31.786 30.984 42.674 25.451 20.514 46.874-23.229 56.901-40.809 8.383-14.673 16.191-29.674 25.013-44.073 7.123-11.573 15.862-27.069 28.957-32.718 10.712-4.635 19.506 2.852 26.163 10.75 11.506 13.658 19.561 30.36 27.67 46.13 9.013 17.552 17.424 35.543 27.971 52.273 6.246 9.9 15.342 25.067 28.437 26.136 10.657.878 21.286-6.637 29.094-12.945 10.767-8.721 20.164-19.033 29.916-28.824 9.945-9.982 20.739-21.117 34.081-26.465 10.849-4.333 24.081-2.413 35.532-2.413h79.998"/><path d="M380.536 81.694c13.972-.878 25.341-8.749 35.833-17.415 11.726-9.681 22.355-20.651 34.218-30.196 9.232-7.432 20.437-15.495 32.765-15.851 14.082-.412 24.465 14.892 31.478 25.094 10.684 15.55 19.478 32.39 28.903 48.707 8.52 14.728 17.478 31.786 30.984 42.674 25.451 20.514 46.874-23.229 56.901-40.809 8.383-14.645 16.191-29.647 25.013-44.045 7.123-11.574 15.862-27.069 28.957-32.718 10.712-4.635 19.506 2.852 26.163 10.75 11.506 13.658 19.561 30.36 27.67 46.13 9.013 17.552 17.424 35.543 27.971 52.273 6.246 9.9 15.342 25.066 28.437 26.136 10.657.878 21.286-6.637 29.094-12.945 10.767-8.721 20.164-19.033 29.916-28.824 9.945-9.983 20.739-21.117 34.081-26.465 10.849-4.334 24.081-2.414 35.532-2.414h79.998"/><path d="M380.536 74.262c13.972-.878 25.341-8.75 35.833-17.416 11.726-9.68 22.355-20.65 34.218-30.195 9.232-7.432 20.437-15.495 32.765-15.852 14.082-.411 24.465 14.892 31.478 25.095 10.684 15.55 19.478 32.389 28.903 48.707 8.52 14.727 17.478 31.786 30.984 42.674 25.451 20.514 46.874-23.229 56.901-40.81 8.383-14.644 16.191-29.646 25.013-44.044 7.123-11.574 15.862-27.07 28.957-32.719 10.712-4.635 19.506 2.853 26.163 10.751 11.506 13.658 19.561 30.36 27.67 46.13 9.013 17.552 17.424 35.543 27.971 52.272 6.246 9.901 15.342 25.067 28.437 26.137 10.657.877 21.286-6.637 29.094-12.945 10.767-8.721 20.164-19.033 29.916-28.824 9.945-9.983 20.739-21.118 34.081-26.466 10.849-4.333 24.081-2.413 35.532-2.413h79.998"/><path d="M380.536 66.83c13.972-.878 25.341-8.75 35.833-17.416 11.726-9.681 22.355-20.651 34.218-30.195 9.232-7.433 20.437-15.496 32.765-15.852 14.082-.411 24.465 14.892 31.478 25.094 10.684 15.55 19.478 32.39 28.903 48.708 8.52 14.727 17.478 31.786 30.984 42.674 25.451 20.514 46.847-23.202 56.901-40.81 8.383-14.672 16.191-29.674 25.013-44.072 7.123-11.573 15.862-27.069 28.957-32.719 10.712-4.634 19.506 2.853 26.163 10.751 11.506 13.658 19.561 30.36 27.67 46.13 9.013 17.552 17.424 35.543 27.971 52.273 6.246 9.9 15.342 25.066 28.437 26.136 10.657.878 21.286-6.637 29.094-12.945 10.767-8.721 20.164-19.033 29.916-28.824 9.945-9.983 20.739-21.118 34.081-26.465 10.849-4.334 24.081-2.414 35.532-2.414h79.998"/><path d="M380.536 59.397c13.944-.878 25.313-8.749 35.833-17.415 11.726-9.681 22.355-20.651 34.218-30.195 9.232-7.433 20.437-15.496 32.765-15.852 14.082-.412 24.465 14.892 31.478 25.094 10.684 15.55 19.478 32.39 28.903 48.707 8.52 14.728 17.478 31.786 30.984 42.674 25.451 20.514 46.847-23.229 56.901-40.809 8.383-14.672 16.191-29.674 25.013-44.072 7.123-11.574 15.862-27.07 28.957-32.719 10.712-4.635 19.506 2.852 26.163 10.751 11.506 13.658 19.561 30.36 27.67 46.13 9.013 17.552 17.424 35.543 27.971 52.272 6.246 9.901 15.342 25.067 28.437 26.137 10.657.877 21.286-6.637 29.094-12.945 10.767-8.721 20.164-19.033 29.916-28.824 9.945-9.983 20.739-21.118 34.081-26.466 10.849-4.333 24.081-2.413 35.532-2.413h79.998"/><path d="M380.536 51.965c13.944-.878 25.313-8.749 35.833-17.415 11.726-9.682 22.355-20.652 34.218-30.196 9.232-7.432 20.437-15.495 32.765-15.852 14.082-.411 24.465 14.892 31.478 25.095 10.684 15.55 19.478 32.389 28.903 48.707 8.52 14.727 17.478 31.786 30.984 42.674 25.451 20.514 46.874-23.23 56.901-40.809 8.383-14.673 16.191-29.674 25.013-44.073 7.123-11.573 15.862-27.068 28.957-32.718 10.712-4.635 19.506 2.852 26.163 10.75 11.506 13.659 19.561 30.36 27.67 46.13 9.013 17.552 17.424 35.544 27.971 52.273 6.246 9.901 15.342 25.067 28.437 26.136 10.657.878 21.286-6.637 29.094-12.944 10.767-8.722 20.164-19.034 29.916-28.825 9.945-9.982 20.739-21.117 34.081-26.465 10.849-4.333 24.081-2.413 35.532-2.413h79.998"/><path d="M380.536 44.505c13.944-.878 25.313-8.749 35.833-17.415 11.726-9.681 22.355-20.651 34.218-30.195 9.232-7.433 20.437-15.496 32.765-15.852 14.082-.412 24.465 14.892 31.478 25.094 10.684 15.55 19.478 32.39 28.903 48.707 8.52 14.728 17.478 31.786 30.984 42.674 25.451 20.515 46.874-23.229 56.901-40.809 8.383-14.672 16.191-29.674 25.013-44.072 7.123-11.574 15.862-27.07 28.957-32.719 10.712-4.635 19.506 2.852 26.163 10.751 11.506 13.658 19.561 30.36 27.67 46.13 9.013 17.552 17.424 35.543 27.971 52.272 6.246 9.9 15.342 25.067 28.437 26.137 10.657.877 21.286-6.637 29.094-12.945 10.767-8.721 20.164-19.033 29.916-28.824 9.945-9.983 20.739-21.118 34.081-26.466 10.849-4.333 24.081-2.413 35.532-2.413h79.998"/><path d="M380.536 37.073c13.944-.878 25.313-8.749 35.833-17.415 11.726-9.682 22.355-20.652 34.218-30.196 9.232-7.432 20.437-15.495 32.765-15.852 14.082-.411 24.465 14.892 31.478 25.095 10.684 15.55 19.478 32.389 28.903 48.707 8.52 14.728 17.478 31.786 30.984 42.674 25.451 20.514 46.874-23.23 56.901-40.809 8.383-14.672 16.191-29.674 25.013-44.073 7.123-11.573 15.862-27.068 28.957-32.718 10.712-4.635 19.506 2.852 26.163 10.75 11.506 13.659 19.561 30.36 27.67 46.13 9.013 17.553 17.424 35.543 27.971 52.273 6.246 9.9 15.342 25.067 28.437 26.136 10.657.878 21.286-6.637 29.094-12.944 10.767-8.722 20.164-19.034 29.916-28.824 9.945-9.983 20.739-21.118 34.081-26.466 10.849-4.333 24.081-2.413 35.532-2.413h79.998"/><path d="M380.536 29.64c13.944-.877 25.313-8.748 35.833-17.415 11.726-9.68 22.355-20.651 34.218-30.195 9.232-7.432 20.437-15.495 32.765-15.852 14.082-.411 24.465 14.892 31.478 25.094 10.684 15.55 19.478 32.39 28.903 48.708 8.492 14.755 17.478 31.813 30.984 42.674 25.451 20.514 46.874-23.23 56.901-40.81 8.383-14.672 16.191-29.674 25.013-44.072 7.123-11.573 15.862-27.069 28.957-32.718 10.712-4.635 19.506 2.852 26.163 10.75 11.506 13.658 19.561 30.36 27.67 46.13 9.013 17.552 17.424 35.543 27.971 52.273 6.246 9.9 15.342 25.067 28.437 26.136 10.657.878 21.286-6.637 29.094-12.945 10.767-8.72 20.164-19.033 29.916-28.824 9.945-9.983 20.739-21.117 34.081-26.465 10.849-4.333 24.081-2.414 35.532-2.414h79.998"/><path d="M380.536 22.208c13.944-.877 25.313-8.748 35.833-17.415 11.726-9.681 22.355-20.651 34.218-30.195 9.232-7.433 20.437-15.496 32.765-15.852 14.082-.412 24.465 14.892 31.478 25.094 10.684 15.55 19.478 32.39 28.903 48.708 8.492 14.754 17.478 31.786 30.984 42.674 25.451 20.514 46.874-23.23 56.901-40.81 8.383-14.672 16.191-29.674 25.013-44.072 7.123-11.574 15.862-27.069 28.957-32.719 10.712-4.635 19.506 2.853 26.163 10.751 11.506 13.658 19.561 30.36 27.67 46.13 9.013 17.552 17.424 35.543 27.971 52.273 6.246 9.9 15.342 25.066 28.437 26.136 10.657.877 21.286-6.637 29.094-12.945 10.767-8.721 20.164-19.033 29.916-28.824 9.945-9.983 20.739-21.118 34.081-26.466 10.849-4.333 24.081-2.413 35.532-2.413h79.998"/><path d="M380.536 14.748C394.48 13.871 405.849 6 416.369-2.666c11.726-9.68 22.355-20.651 34.218-30.195 9.232-7.432 20.437-15.495 32.765-15.852 14.082-.411 24.465 14.892 31.478 25.094 10.684 15.55 19.478 32.39 28.903 48.708 8.492 14.755 17.478 31.813 30.984 42.701 25.451 20.514 46.874-23.23 56.901-40.809 8.383-14.672 16.191-29.674 25.013-44.072 7.123-11.574 15.862-27.07 28.957-32.719 10.712-4.635 19.506 2.852 26.163 10.75 11.506 13.659 19.561 30.36 27.67 46.13 9.013 17.553 17.424 35.544 27.971 52.273 6.246 9.9 15.342 25.067 28.437 26.137 10.657.877 21.286-6.637 29.094-12.945 10.767-8.722 20.164-19.033 29.916-28.824 9.945-9.983 20.739-21.118 34.081-26.466 10.849-4.333 24.081-2.413 35.532-2.413h79.998"/><path d="M380.536 7.316c13.944-.877 25.313-8.748 35.833-17.415 11.726-9.681 22.355-20.651 34.218-30.195 9.232-7.433 20.437-15.496 32.765-15.852 14.082-.411 24.465 14.892 31.478 25.094 10.684 15.55 19.478 32.39 28.903 48.708 8.492 14.755 17.478 31.813 30.984 42.7 25.451 20.515 46.874-23.228 56.901-40.808 8.383-14.673 16.191-29.674 25.013-44.073 7.123-11.573 15.862-27.069 28.957-32.718 10.712-4.635 19.506 2.852 26.163 10.75 11.506 13.658 19.561 30.36 27.67 46.13 9.013 17.552 17.424 35.543 27.971 52.273 6.246 9.9 15.342 25.067 28.437 26.136 10.657.878 21.286-6.637 29.094-12.945 10.767-8.72 20.164-19.033 29.916-28.824 9.945-9.982 20.739-21.117 34.081-26.465 10.849-4.333 24.081-2.413 35.532-2.413h79.998"/></g><path d="M933.5 0H511.363l-3.775 17h405.409v166H463.096l-3.775 17H933.5V0ZM20.503 183V17h438.034l3.775-17H0v200h410.258l3.787-17H20.503Z" fill="#fff"/><defs><clipPath id="a"><path fill="#fff" transform="translate(407 73)" d="M0 0h470v160H0z"/></clipPath></defs></svg>