<svg width="360" height="361" fill="none" xmlns="http://www.w3.org/2000/svg"><g opacity=".05" clip-path="url(#a)" stroke="#131414" stroke-width="2" stroke-miterlimit="10"><path d="M91.5356 297.395c13.9444-.878 25.3134-8.749 35.8334-17.416 11.726-9.681 22.355-20.651 34.218-30.195 9.232-7.432 20.437-15.495 32.765-15.852 14.082-.411 24.465 14.892 31.478 25.094 10.684 15.551 19.478 32.39 28.903 48.708 8.52 14.727 17.478 31.786 30.984 42.674 25.451 20.514 46.874-23.229 56.901-40.809 8.383-14.673 16.191-29.674 25.013-44.073 7.123-11.573 15.862-27.069 28.957-32.718 10.712-4.635 19.506 2.852 26.163 10.751 11.506 13.657 19.561 30.359 27.67 46.129 9.013 17.552 17.424 35.543 27.971 52.273 6.246 9.9 15.342 25.067 28.437 26.136 10.657.878 21.286-6.637 29.094-12.945 10.767-8.721 20.164-19.033 29.916-28.824 9.945-9.982 20.739-21.117 34.081-26.465 10.849-4.333 24.081-2.414 35.532-2.414h79.996"/><path d="M91.5356 289.962c13.9444-.878 25.3134-8.749 35.8334-17.415 11.726-9.681 22.355-20.651 34.218-30.196 9.232-7.432 20.437-15.495 32.765-15.851 14.082-.412 24.465 14.892 31.478 25.094 10.684 15.55 19.478 32.389 28.903 48.707 8.52 14.728 17.478 31.786 30.984 42.674 25.451 20.514 46.874-23.229 56.901-40.809 8.383-14.672 16.191-29.674 25.013-44.072 7.123-11.574 15.862-27.069 28.957-32.719 10.712-4.635 19.506 2.852 26.163 10.751 11.506 13.658 19.561 30.36 27.67 46.129 9.013 17.553 17.424 35.544 27.971 52.273 6.246 9.901 15.342 25.067 28.437 26.137 10.657.877 21.286-6.637 29.094-12.945 10.767-8.721 20.164-19.033 29.916-28.824 9.945-9.983 20.739-21.118 34.081-26.466 10.849-4.333 24.081-2.413 35.532-2.413h79.996"/><path d="M91.5356 282.53c13.9444-.878 25.3134-8.749 35.8334-17.415 11.726-9.681 22.355-20.652 34.218-30.196 9.232-7.432 20.437-15.495 32.765-15.852 14.082-.411 24.465 14.892 31.478 25.095 10.684 15.55 19.478 32.389 28.903 48.707 8.52 14.728 17.478 31.786 30.984 42.674 25.451 20.514 46.874-23.229 56.901-40.809 8.383-14.672 16.191-29.674 25.013-44.072 7.123-11.574 15.862-27.069 28.957-32.719 10.712-4.635 19.506 2.852 26.163 10.751 11.506 13.658 19.561 30.36 27.67 46.129 9.013 17.553 17.424 35.544 27.971 52.273 6.246 9.901 15.342 25.067 28.437 26.136 10.657.878 21.286-6.636 29.094-12.944 10.767-8.722 20.164-19.034 29.916-28.824 9.945-9.983 20.739-21.118 34.081-26.466 10.849-4.333 24.081-2.413 35.532-2.413h79.996"/><path d="M91.5356 275.098c13.9444-.878 25.3134-8.749 35.8334-17.415 11.726-9.709 22.355-20.679 34.218-30.196 9.232-7.432 20.437-15.495 32.765-15.852 14.082-.411 24.465 14.892 31.478 25.095 10.684 15.55 19.478 32.389 28.903 48.707 8.52 14.728 17.478 31.786 30.984 42.674 25.451 20.514 46.874-23.229 56.901-40.809 8.383-14.673 16.191-29.674 25.013-44.073 7.123-11.573 15.862-27.068 28.957-32.718 10.712-4.635 19.506 2.852 26.163 10.751 11.506 13.658 19.561 30.36 27.67 46.129 9.013 17.552 17.424 35.543 27.971 52.273 6.246 9.901 15.342 25.067 28.437 26.136 10.657.878 21.286-6.637 29.094-12.944 10.767-8.722 20.164-19.034 29.916-28.824 9.945-9.983 20.739-21.118 34.081-26.466 10.849-4.333 24.081-2.413 35.532-2.413h79.996"/><path d="M91.5356 267.665c13.9444-.878 25.3134-8.749 35.8334-17.415 11.726-9.681 22.355-20.651 34.218-30.195 9.232-7.433 20.437-15.496 32.765-15.852 14.082-.412 24.465 14.892 31.478 25.094 10.684 15.55 19.478 32.389 28.903 48.707 8.52 14.728 17.478 31.786 30.984 42.674 25.451 20.515 46.874-23.229 56.901-40.809 8.383-14.672 16.191-29.674 25.013-44.072 7.123-11.574 15.862-27.069 28.957-32.719 10.712-4.635 19.506 2.853 26.163 10.751 11.506 13.658 19.561 30.36 27.67 46.13 9.013 17.552 17.424 35.543 27.971 52.272 6.246 9.901 15.342 25.067 28.437 26.137 10.657.877 21.286-6.637 29.094-12.945 10.767-8.721 20.164-19.033 29.916-28.824 9.945-9.983 20.739-21.118 34.081-26.466 10.849-4.333 24.081-2.413 35.532-2.413h79.996"/><path d="M91.5356 260.206c13.9444-.878 25.3134-8.749 35.8334-17.416 11.726-9.681 22.355-20.651 34.218-30.195 9.232-7.432 20.437-15.495 32.765-15.852 14.082-.411 24.465 14.892 31.478 25.094 10.684 15.551 19.478 32.39 28.903 48.708 8.52 14.727 17.478 31.786 30.984 42.674 25.451 20.514 46.874-23.229 56.901-40.809 8.383-14.673 16.191-29.674 25.013-44.073 7.123-11.573 15.862-27.069 28.957-32.718 10.712-4.635 19.506 2.852 26.163 10.751 11.506 13.657 19.561 30.359 27.67 46.129 9.013 17.552 17.424 35.543 27.971 52.273 6.246 9.9 15.342 25.067 28.437 26.136 10.657.878 21.286-6.637 29.094-12.945 10.767-8.721 20.164-19.033 29.916-28.824 9.945-9.982 20.739-21.117 34.081-26.465 10.849-4.333 24.081-2.414 35.532-2.414h79.996"/><path d="M91.5356 252.773c13.9444-.877 25.3134-8.748 35.8334-17.415 11.726-9.681 22.355-20.651 34.218-30.195 9.232-7.432 20.437-15.495 32.765-15.852 14.082-.411 24.465 14.892 31.478 25.094 10.684 15.551 19.478 32.39 28.903 48.708 8.52 14.727 17.478 31.786 30.984 42.674 25.451 20.514 46.874-23.23 56.901-40.809 8.383-14.673 16.191-29.674 25.013-44.073 7.123-11.573 15.862-27.069 28.957-32.718 10.712-4.635 19.506 2.852 26.163 10.75 11.506 13.658 19.561 30.36 27.67 46.13 9.013 17.552 17.424 35.543 27.971 52.273 6.246 9.9 15.342 25.067 28.437 26.136 10.657.878 21.286-6.637 29.094-12.945 10.767-8.721 20.164-19.033 29.916-28.824 9.945-9.983 20.739-21.117 34.081-26.465 10.849-4.333 24.081-2.414 35.532-2.414h79.996"/><path d="M91.5356 245.341c13.9444-.878 25.3134-8.749 35.8334-17.415 11.726-9.681 22.355-20.652 34.218-30.196 9.232-7.432 20.437-15.495 32.765-15.851 14.082-.412 24.465 14.892 31.478 25.094 10.684 15.55 19.478 32.389 28.903 48.707 8.52 14.728 17.478 31.786 30.984 42.674 25.451 20.514 46.874-23.229 56.901-40.809 8.383-14.672 16.191-29.674 25.013-44.072 7.123-11.574 15.862-27.069 28.957-32.719 10.712-4.635 19.506 2.852 26.163 10.751 11.506 13.658 19.561 30.36 27.67 46.129 9.013 17.553 17.424 35.544 27.971 52.273 6.246 9.901 15.342 25.067 28.437 26.137 10.657.877 21.286-6.637 29.094-12.945 10.767-8.722 20.164-19.033 29.916-28.824 9.945-9.983 20.739-21.118 34.081-26.466 10.849-4.333 24.081-2.413 35.532-2.413h79.996"/><path d="M91.5356 237.909c13.9444-.878 25.3134-8.749 35.8334-17.415 11.726-9.682 22.355-20.652 34.218-30.196 9.232-7.432 20.437-15.495 32.765-15.852 14.082-.411 24.465 14.892 31.478 25.095 10.684 15.55 19.478 32.389 28.903 48.707 8.52 14.728 17.478 31.786 30.984 42.674 25.451 20.514 46.874-23.229 56.901-40.809 8.383-14.673 16.191-29.674 25.013-44.073 7.123-11.573 15.862-27.068 28.957-32.718 10.712-4.635 19.506 2.852 26.163 10.751 11.506 13.658 19.561 30.36 27.67 46.129 9.013 17.552 17.424 35.544 27.971 52.273 6.246 9.901 15.342 25.067 28.437 26.136 10.657.878 21.286-6.637 29.094-12.944 10.767-8.722 20.164-19.034 29.916-28.824 9.945-9.983 20.739-21.118 34.081-26.466 10.849-4.333 24.081-2.413 35.532-2.413h79.996"/><path d="M91.5356 230.449c13.9444-.878 25.3134-8.749 35.8334-17.415 11.726-9.682 22.355-20.652 34.218-30.196 9.232-7.432 20.437-15.495 32.765-15.852 14.082-.411 24.465 14.892 31.478 25.095 10.684 15.55 19.478 32.389 28.903 48.707 8.52 14.728 17.478 31.786 30.984 42.674 25.451 20.514 46.874-23.229 56.901-40.809 8.383-14.673 16.191-29.674 25.013-44.073 7.123-11.573 15.862-27.068 28.957-32.718 10.712-4.635 19.506 2.852 26.163 10.751 11.506 13.658 19.561 30.36 27.67 46.129 9.013 17.553 17.424 35.544 27.971 52.273 6.246 9.901 15.342 25.067 28.437 26.136 10.657.878 21.286-6.636 29.094-12.944 10.767-8.722 20.164-19.034 29.916-28.824 9.945-9.983 20.739-21.118 34.081-26.466 10.849-4.333 24.081-2.413 35.532-2.413h79.996"/><path d="M91.5356 223.017c13.9444-.878 25.3134-8.749 35.8334-17.415 11.726-9.682 22.355-20.652 34.218-30.196 9.232-7.432 20.437-15.495 32.765-15.852 14.082-.411 24.465 14.892 31.478 25.095 10.684 15.55 19.478 32.389 28.903 48.707 8.52 14.727 17.478 31.786 30.984 42.674 25.451 20.514 46.874-23.229 56.901-40.809 8.383-14.673 16.191-29.674 25.013-44.073 7.123-11.573 15.862-27.069 28.957-32.718 10.712-4.635 19.506 2.852 26.163 10.751 11.506 13.657 19.561 30.36 27.67 46.129 9.013 17.552 17.424 35.543 27.971 52.273 6.246 9.9 15.342 25.067 28.437 26.136 10.657.878 21.286-6.637 29.094-12.944 10.767-8.722 20.164-19.034 29.916-28.825 9.945-9.982 20.739-21.117 34.081-26.465 10.849-4.333 24.081-2.413 35.532-2.413h79.996"/><path d="M91.5356 215.585c13.9444-.878 25.3134-8.749 35.8334-17.416 11.726-9.681 22.355-20.651 34.218-30.195 9.232-7.432 20.437-15.495 32.765-15.852 14.054-.411 24.465 14.892 31.478 25.094 10.684 15.551 19.478 32.39 28.903 48.708 8.52 14.727 17.478 31.786 30.984 42.674 25.451 20.514 46.874-23.229 56.901-40.809 8.383-14.673 16.191-29.674 25.013-44.073 7.123-11.573 15.862-27.069 28.957-32.718 10.712-4.635 19.506 2.852 26.163 10.75 11.506 13.658 19.561 30.36 27.67 46.13 9.013 17.552 17.424 35.543 27.971 52.273 6.246 9.9 15.342 25.067 28.437 26.136 10.657.878 21.286-6.637 29.094-12.945 10.767-8.721 20.164-19.033 29.916-28.824 9.945-9.983 20.739-21.117 34.081-26.465 10.849-4.333 24.081-2.414 35.532-2.414h79.996"/><path d="M91.5356 208.152c13.9444-.877 25.3134-8.748 35.8334-17.415 11.726-9.681 22.355-20.651 34.218-30.195 9.232-7.432 20.437-15.495 32.765-15.852 14.082-.411 24.465 14.892 31.478 25.094 10.684 15.55 19.478 32.39 28.903 48.708 8.52 14.727 17.478 31.786 30.984 42.674 25.451 20.514 46.874-23.23 56.901-40.809 8.383-14.673 16.191-29.675 25.013-44.073 7.123-11.573 15.862-27.069 28.957-32.718 10.712-4.635 19.506 2.852 26.163 10.75 11.506 13.658 19.561 30.36 27.67 46.13 9.013 17.552 17.424 35.543 27.971 52.273 6.246 9.9 15.342 25.066 28.437 26.136 10.657.878 21.286-6.637 29.094-12.945 10.767-8.721 20.164-19.033 29.916-28.824 9.945-9.983 20.739-21.117 34.081-26.465 10.849-4.334 24.081-2.414 35.532-2.414h79.996"/><path d="M91.5356 200.72c13.9444-.878 25.3134-8.749 35.8334-17.415 11.726-9.682 22.355-20.652 34.218-30.196 9.232-7.432 20.437-15.495 32.765-15.852 14.082-.411 24.465 14.892 31.478 25.095 10.684 15.55 19.478 32.389 28.903 48.707 8.52 14.728 17.478 31.786 30.984 42.674 25.451 20.514 46.874-23.229 56.901-40.809 8.383-14.672 16.191-29.674 25.013-44.073 7.123-11.573 15.862-27.068 28.957-32.718 10.712-4.635 19.506 2.852 26.163 10.751 11.506 13.658 19.561 30.36 27.67 46.129 9.013 17.552 17.424 35.544 27.971 52.273 6.246 9.901 15.342 25.067 28.437 26.136 10.657.878 21.286-6.637 29.094-12.944 10.767-8.722 20.164-19.034 29.916-28.824 9.945-9.983 20.739-21.118 34.081-26.466 10.849-4.333 24.081-2.413 35.532-2.413h79.996"/><path d="M91.5356 193.26c13.9444-.877 25.3134-8.748 35.8334-17.415 11.726-9.681 22.355-20.651 34.218-30.195 9.232-7.432 20.437-15.496 32.765-15.852 14.082-.411 24.465 14.892 31.478 25.094 10.684 15.55 19.478 32.39 28.903 48.708 8.52 14.727 17.478 31.786 30.984 42.674 25.451 20.514 46.874-23.23 56.901-40.809 8.383-14.673 16.191-29.675 25.013-44.073 7.123-11.574 15.862-27.069 28.957-32.718 10.712-4.635 19.506 2.852 26.163 10.75 11.506 13.658 19.561 30.36 27.67 46.13 9.013 17.552 17.424 35.543 27.971 52.273 6.246 9.9 15.342 25.066 28.437 26.136 10.657.878 21.286-6.637 29.094-12.945 10.767-8.721 20.164-19.033 29.916-28.824 9.945-9.983 20.739-21.117 34.081-26.465 10.849-4.334 24.081-2.414 35.532-2.414h79.996"/><path d="M91.5356 185.828c13.9444-.877 25.3134-8.749 35.8334-17.415 11.726-9.681 22.355-20.651 34.218-30.195 9.232-7.433 20.437-15.496 32.765-15.852 14.082-.412 24.465 14.892 31.478 25.094 10.684 15.55 19.478 32.389 28.903 48.708 8.52 14.727 17.478 31.786 30.984 42.673 25.451 20.515 46.874-23.229 56.901-40.809 8.383-14.672 16.191-29.674 25.013-44.072 7.123-11.574 15.862-27.069 28.957-32.719 10.712-4.635 19.506 2.853 26.163 10.751 11.506 13.658 19.561 30.36 27.67 46.13 9.013 17.552 17.424 35.543 27.971 52.272 6.246 9.901 15.342 25.067 28.437 26.137 10.657.877 21.286-6.637 29.094-12.945 10.767-8.721 20.164-19.033 29.916-28.824 9.945-9.983 20.739-21.118 34.081-26.466 10.849-4.333 24.081-2.413 35.532-2.413h79.996"/><path d="M91.5356 178.396c13.9444-.878 25.3134-8.749 35.8334-17.416 11.726-9.681 22.355-20.651 34.218-30.195 9.232-7.432 20.437-15.495 32.765-15.852 14.082-.411 24.465 14.892 31.478 25.094 10.684 15.551 19.478 32.39 28.903 48.708 8.52 14.727 17.478 31.786 30.984 42.674 25.451 20.514 46.874-23.229 56.901-40.809 8.383-14.673 16.191-29.674 25.013-44.073 7.123-11.573 15.862-27.069 28.957-32.718 10.712-4.635 19.506 2.852 26.163 10.751 11.506 13.657 19.561 30.359 27.67 46.129 9.013 17.552 17.424 35.543 27.971 52.273 6.246 9.9 15.342 25.067 28.437 26.136 10.657.878 21.286-6.637 29.094-12.945 10.767-8.721 20.164-19.033 29.916-28.824 9.945-9.982 20.739-21.117 34.081-26.465 10.849-4.333 24.081-2.414 35.532-2.414h79.996"/><path d="M91.5356 170.963c13.9444-.877 25.3134-8.748 35.8334-17.415 11.726-9.681 22.355-20.651 34.218-30.195 9.232-7.432 20.437-15.495 32.765-15.852 14.082-.411 24.465 14.892 31.478 25.094 10.684 15.551 19.478 32.39 28.903 48.708 8.52 14.727 17.478 31.786 30.984 42.674 25.451 20.514 46.874-23.23 56.901-40.809 8.383-14.673 16.191-29.675 25.013-44.073 7.123-11.573 15.862-27.069 28.957-32.718 10.712-4.635 19.506 2.852 26.163 10.75 11.506 13.658 19.561 30.36 27.67 46.13 9.013 17.552 17.424 35.543 27.971 52.273 6.246 9.9 15.342 25.067 28.437 26.136 10.657.878 21.286-6.637 29.094-12.945 10.767-8.721 20.164-19.033 29.916-28.824 9.945-9.983 20.739-21.117 34.081-26.465 10.849-4.333 24.081-2.414 35.532-2.414h79.996"/><path d="M91.5356 163.531c13.9444-.877 25.3134-8.748 35.8334-17.415 11.726-9.681 22.355-20.651 34.218-30.195 9.232-7.432 20.437-15.496 32.765-15.852 14.054-.4389 24.465 14.892 31.478 25.094 10.684 15.55 19.478 32.39 28.903 48.708 8.52 14.727 17.478 31.786 30.984 42.674 25.451 20.514 46.874-23.23 56.901-40.809 8.383-14.673 16.191-29.675 25.013-44.073 7.123-11.574 15.862-27.069 28.957-32.7185 10.712-4.6349 19.506 2.8525 26.163 10.7505 11.506 13.658 19.561 30.36 27.67 46.13 9.013 17.552 17.424 35.543 27.971 52.273 6.246 9.9 15.342 25.066 28.437 26.136 10.657.878 21.286-6.637 29.094-12.945 10.767-8.721 20.164-19.033 29.916-28.824 9.945-9.983 20.739-21.117 34.081-26.465 10.849-4.334 24.081-2.414 35.532-2.414h79.996"/><path d="M91.5356 156.071c13.9444-.877 25.3134-8.748 35.8334-17.415 11.726-9.681 22.355-20.651 34.218-30.195 9.232-7.433 20.437-15.4956 32.765-15.8521 14.054-.4114 24.465 14.8921 31.478 25.1221 10.684 15.55 19.478 32.389 28.903 48.707 8.52 14.727 17.478 31.786 30.984 42.674 25.451 20.514 46.874-23.229 56.901-40.809 8.383-14.673 16.191-29.674 25.013-44.073 7.123-11.573 15.862-27.0685 28.957-32.7181 10.712-4.6349 19.506 2.8522 26.163 10.7511 11.506 13.657 19.561 30.36 27.67 46.129 9.013 17.552 17.424 35.543 27.971 52.273 6.246 9.901 15.342 25.067 28.437 26.136 10.657.878 21.286-6.637 29.094-12.944 10.767-8.722 20.164-19.034 29.916-28.825 9.945-9.982 20.739-21.117 34.081-26.465 10.849-4.333 24.081-2.413 35.532-2.413h79.996"/><path d="M91.5356 148.639c13.9444-.877 25.3134-8.749 35.8334-17.415 11.726-9.681 22.355-20.651 34.218-30.195 9.232-7.4326 20.437-15.4957 32.765-15.8522 14.054-.4114 24.465 14.8922 31.478 25.1212 10.684 15.551 19.478 32.39 28.903 48.708 8.52 14.727 17.478 31.786 30.984 42.674 25.451 20.514 46.874-23.229 56.901-40.809 8.383-14.673 16.191-29.674 25.013-44.073 7.123-11.573 15.862-27.0686 28.957-32.7182 10.712-4.6349 19.506 2.8522 26.163 10.7507 11.506 13.6575 19.561 30.3595 27.67 46.1295 9.013 17.552 17.424 35.543 27.971 52.273 6.246 9.9 15.342 25.067 28.437 26.136 10.657.878 21.286-6.637 29.094-12.945 10.767-8.721 20.164-19.033 29.916-28.824 9.945-9.982 20.739-21.117 34.081-26.465 10.849-4.333 24.081-2.414 35.532-2.414h79.996"/><path d="M91.5356 141.207c13.9444-.878 25.3134-8.749 35.8334-17.415 11.726-9.681 22.355-20.651 34.218-30.1954 9.232-7.4323 20.437-15.4953 32.765-15.8519 14.082-.4114 24.465 14.892 31.478 25.0943 10.684 15.55 19.478 32.389 28.903 48.707 8.52 14.728 17.478 31.786 30.984 42.674 25.451 20.515 46.874-23.229 56.901-40.809 8.383-14.672 16.191-29.674 25.013-44.072 7.123-11.5737 15.862-27.0691 28.957-32.7187 10.712-4.6349 19.506 2.8522 26.163 10.7507 11.506 13.658 19.561 30.36 27.67 46.13 9.013 17.552 17.424 35.543 27.971 52.272 6.246 9.901 15.342 25.067 28.437 26.137 10.657.877 21.286-6.637 29.094-12.945 10.767-8.721 20.164-19.033 29.916-28.824 9.945-9.983 20.739-21.118 34.081-26.466 10.849-4.333 24.081-2.413 35.532-2.413h79.996"/><path d="M91.5356 133.774c13.9444-.877 25.3134-8.748 35.8334-17.415 11.726-9.708 22.355-20.6784 34.218-30.195 9.232-7.4323 20.437-15.4954 32.765-15.8519 14.054-.4388 24.465 14.892 31.478 25.0942 10.684 15.5507 19.478 32.3897 28.903 48.7077 8.52 14.727 17.478 31.786 30.984 42.674 25.451 20.514 46.874-23.23 56.901-40.809 8.383-14.673 16.191-29.675 25.013-44.073 7.123-11.5734 15.862-27.0687 28.957-32.7183 10.712-4.6349 19.506 2.8522 26.163 10.7507 11.506 13.6579 19.561 30.3596 27.67 46.1296 9.013 17.552 17.424 35.543 27.971 52.273 6.246 9.9 15.342 25.067 28.437 26.136 10.657.878 21.286-6.637 29.094-12.945 10.767-8.721 20.164-19.033 29.916-28.824 9.945-9.983 20.739-21.117 34.081-26.465 10.849-4.333 24.081-2.414 35.532-2.414h79.996"/><path d="M91.5356 126.342c13.9444-.877 25.3134-8.748 35.8334-17.415 11.726-9.7084 22.355-20.6785 34.218-30.1951 9.232-7.4323 20.41-15.4954 32.765-15.8793 14.054-.4114 24.465 14.8919 31.478 25.1216 10.684 15.5498 19.478 32.3898 28.903 48.7078 8.52 14.727 17.478 31.786 30.984 42.674 25.451 20.514 46.874-23.23 56.901-40.809 8.383-14.673 16.191-29.675 25.013-44.073 7.123-11.5735 15.862-27.0688 28.957-32.7185 10.712-4.6349 19.506 2.8523 26.163 10.7508 11.506 13.6578 19.561 30.3597 27.67 46.1297 9.013 17.552 17.424 35.543 27.971 52.273 6.246 9.9 15.342 25.066 28.437 26.136 10.657.878 21.286-6.637 29.094-12.945 10.767-8.721 20.164-19.033 29.916-28.824 9.945-9.983 20.739-21.117 34.081-26.465 10.849-4.334 24.081-2.414 35.532-2.414h79.996"/><path d="M91.5356 118.883c13.9444-.878 25.3134-8.749 35.8334-17.415 11.726-9.6815 22.355-20.6517 34.218-30.1957 9.232-7.4323 20.437-15.4953 32.765-15.8519 14.054-.4114 24.465 14.892 31.478 25.1217 10.684 15.5502 19.478 32.3889 28.903 48.7079 8.52 14.727 17.478 31.786 30.984 42.673 25.451 20.515 46.874-23.229 56.901-40.808 8.383-14.673 16.191-29.675 25.013-44.0731 7.123-11.5735 15.862-27.0689 28.957-32.7185 10.712-4.6349 19.506 2.8522 26.163 10.7508 11.506 13.6578 19.561 30.3599 27.67 46.1298 9.013 17.552 17.424 35.543 27.971 52.272 6.246 9.901 15.342 25.067 28.437 26.137 10.657.877 21.286-6.637 29.094-12.945 10.767-8.721 20.164-19.033 29.916-28.824 9.945-9.983 20.739-21.118 34.081-26.466 10.849-4.333 24.081-2.413 35.532-2.413h79.996"/><path d="M91.5356 111.45c13.9444-.877 25.3134-8.749 35.8334-17.415 11.726-9.6811 22.355-20.6513 34.218-30.1953 9.232-7.4323 20.437-15.4954 32.765-15.8519 14.054-.4114 24.465 14.892 31.478 25.1217 10.684 15.5502 19.478 32.3895 28.903 48.7075 8.52 14.727 17.478 31.786 30.984 42.674 25.451 20.514 46.874-23.229 56.901-40.809 8.383-14.673 16.191-29.6744 25.013-44.0727 7.123-11.5735 15.862-27.0689 28.957-32.7185 10.712-4.6349 19.506 2.8522 26.163 10.7507 11.506 13.6579 19.561 30.36 27.67 46.1295 9.013 17.552 17.424 35.543 27.971 52.273 6.246 9.9 15.342 25.067 28.437 26.136 10.657.878 21.286-6.637 29.094-12.945 10.767-8.721 20.164-19.033 29.916-28.824 9.945-9.982 20.739-21.117 34.081-26.465 10.849-4.333 24.081-2.414 35.532-2.414h79.996"/><path d="M91.5356 104.018c13.9444-.878 25.3134-8.7487 35.8334-17.4151 11.726-9.6811 22.355-20.6513 34.218-30.1953 9.232-7.4323 20.437-15.4954 32.765-15.8519 14.054-.4388 24.465 14.892 31.478 25.0942 10.684 15.5502 19.478 32.3894 28.903 48.7071 8.52 14.728 17.478 31.786 30.984 42.674 25.451 20.515 46.874-23.229 56.901-40.809 8.383-14.645 16.191-29.6465 25.013-44.0448 7.123-11.5736 15.862-27.0689 28.957-32.7185 10.712-4.6349 19.506 2.8522 26.163 10.7507 11.506 13.6579 19.561 30.3599 27.67 46.1295 9.013 17.5521 17.424 35.5431 27.971 52.2731 6.246 9.9 15.342 25.067 28.437 26.136 10.657.878 21.286-6.637 29.094-12.945 10.767-8.721 20.164-19.033 29.916-28.824 9.945-9.983 20.739-21.117 34.081-26.465 10.849-4.333 24.081-2.414 35.532-2.414h79.996"/><path d="M91.5356 96.586c13.9444-.8776 25.3134-8.7487 35.8334-17.4151 11.726-9.7086 22.355-20.6788 34.218-30.1954 9.232-7.4323 20.437-15.4953 32.765-15.8519 14.054-.4388 24.465 14.892 31.478 25.0943 10.684 15.5502 19.478 32.3894 28.903 48.7071 8.52 14.728 17.478 31.786 30.984 42.674 25.451 20.514 46.874-23.229 56.901-40.809 8.383-14.6449 16.191-29.674 25.013-44.0723 7.123-11.5735 15.862-27.0689 28.957-32.7185 10.712-4.6349 19.506 2.8522 26.163 10.7507 11.506 13.6579 19.561 30.36 27.67 46.1296 9.013 17.5525 17.424 35.5435 27.971 52.2725 6.246 9.901 15.342 25.067 28.437 26.137 10.657.877 21.286-6.637 29.094-12.945 10.767-8.721 20.164-19.033 29.916-28.824 9.945-9.983 20.739-21.118 34.081-26.4657 10.849-4.3332 24.081-2.4135 35.532-2.4135h79.996"/><path d="M91.5356 89.1534c13.9724-.9051 25.3414-8.7487 35.8334-17.4426 11.726-9.6811 22.355-20.6513 34.218-30.1679 9.232-7.4323 20.437-15.4954 32.765-15.8519 14.054-.4388 24.465 14.8646 31.478 25.0943 10.684 15.5501 19.478 32.3893 28.903 48.7074 8.52 14.7273 17.478 31.7863 30.984 42.6743 25.451 20.514 46.874-23.23 56.901-40.809 8.383-14.6729 16.191-29.6746 25.013-44.0729 7.123-11.5735 15.862-27.0689 28.957-32.7185 10.712-4.6349 19.506 2.8522 26.163 10.7507 11.506 13.6579 19.561 30.3599 27.67 46.1295 9.013 17.5523 17.424 35.5432 27.971 52.2732 6.246 9.9 15.342 25.066 28.437 26.136 10.657.878 21.286-6.637 29.094-12.945 10.767-8.721 20.164-19.033 29.916-28.824 9.945-9.983 20.739-21.1174 34.081-26.4653 10.849-4.3333 24.081-2.4135 35.532-2.4135h79.996"/><path d="M91.5356 81.6938c13.9724-.8776 25.3414-8.7487 35.8334-17.4151 11.726-9.6812 22.355-20.6513 34.218-30.1954 9.232-7.4322 20.437-15.4953 32.765-15.8518 14.082-.4114 24.465 14.8919 31.478 25.0942 10.684 15.5502 19.478 32.3894 28.903 48.7075 8.52 14.7278 17.478 31.7858 30.984 42.6738 25.451 20.514 46.874-23.229 56.901-40.8089 8.383-14.6451 16.191-29.6468 25.013-44.0452 7.123-11.5735 15.862-27.0688 28.957-32.7185 10.712-4.6348 19.506 2.8523 26.163 10.7508 11.506 13.6578 19.561 30.3599 27.67 46.1295 9.013 17.5523 17.424 35.5433 27.971 52.2733 6.246 9.9 15.342 25.066 28.437 26.136 10.657.878 21.286-6.637 29.094-12.945 10.767-8.721 20.164-19.033 29.916-28.824 9.945-9.983 20.739-21.1175 34.081-26.4655 10.849-4.3332 24.081-2.4134 35.532-2.4134h79.996"/><path d="M91.5356 74.2617c13.9724-.8776 25.3414-8.7487 35.8334-17.4151 11.726-9.6812 22.355-20.6514 34.218-30.1954 9.232-7.4323 20.437-15.4953 32.765-15.8519 14.082-.4114 24.465 14.892 31.478 25.0943 10.684 15.5502 19.478 32.3894 28.903 48.7075 8.52 14.7274 17.478 31.7859 30.984 42.6739 25.451 20.514 46.874-23.229 56.901-40.809 8.383-14.6452 16.191-29.6469 25.013-44.0452 7.123-11.5735 15.862-27.0689 28.957-32.71849 10.712-4.63489 19.506 2.85229 26.163 10.75079 11.506 13.6578 19.561 30.3599 27.67 46.1295 9.013 17.5522 17.424 35.5434 27.971 52.2724 6.246 9.901 15.342 25.067 28.437 26.137 10.657.877 21.286-6.637 29.094-12.945 10.767-8.721 20.164-19.033 29.916-28.824 9.945-9.9829 20.739-21.1176 34.081-26.4656 10.849-4.3332 24.081-2.4134 35.532-2.4134h79.996"/><path d="M91.5356 66.8292c13.9724-.8777 25.3414-8.7487 35.8334-17.4152 11.726-9.6811 22.355-20.6513 34.218-30.1953 9.232-7.4323 20.437-15.49537 32.765-15.8519 14.082-.41138 24.465 14.892 31.478 25.0942 10.684 15.5502 19.478 32.3894 28.903 48.7075 8.52 14.7275 17.478 31.7865 30.984 42.6735 25.451 20.515 46.847-23.2014 56.901-40.8085 8.383-14.6726 16.191-29.6743 25.013-44.0727 7.123-11.5735 15.862-27.06882 28.957-32.71845 10.712-4.63489 19.506 2.85224 26.163 10.75075 11.506 13.6579 19.561 30.3599 27.67 46.1295 9.013 17.5523 17.424 35.5433 27.971 52.2724 6.246 9.901 15.342 25.067 28.437 26.137 10.657.877 21.286-6.637 29.094-12.945 10.767-8.721 20.164-19.033 29.916-28.8241 9.945-9.9828 20.739-21.1175 34.081-26.4655 10.849-4.3332 24.081-2.4134 35.532-2.4134h79.996"/><path d="M91.5356 59.397c13.9444-.8776 25.3134-8.7487 35.8334-17.4151 11.726-9.6812 22.355-20.6513 34.218-30.1954 9.232-7.43224 20.437-15.4953 32.765-15.85183 14.082-.41138 24.465 14.89203 31.478 25.09423 10.684 15.5502 19.478 32.3894 28.903 48.7075 8.52 14.7274 17.478 31.7856 30.984 42.6736 25.451 20.515 46.847-23.229 56.901-40.8087 8.383-14.6726 16.191-29.6742 25.013-44.0726 7.123-11.5735 15.862-27.06884 28.957-32.71848 10.712-4.63489 19.506 2.85225 26.163 10.75076 11.506 13.65782 19.561 30.35992 27.67 46.12952 9.013 17.5522 17.424 35.5433 27.971 52.2725 6.246 9.901 15.342 25.067 28.437 26.137 10.657.877 21.286-6.637 29.094-12.945 10.767-8.721 20.164-19.0333 29.916-28.8242 9.945-9.9828 20.739-21.1175 34.081-26.4655 10.849-4.3332 24.081-2.4134 35.532-2.4134h79.996"/><path d="M91.5356 51.9644c13.9444-.8776 25.3134-8.7487 35.8334-17.4151 11.726-9.6812 22.355-20.6513 34.218-30.19537 9.232-7.43228 20.437-15.49533 32.765-15.85193 14.082-.4113 24.465 14.89204 31.478 25.0943 10.684 15.5502 19.478 32.3894 28.903 48.7075 8.52 14.7274 17.478 31.786 30.984 42.6742 25.451 20.514 46.874-23.2296 56.901-40.8093 8.383-14.6726 16.191-29.6743 25.013-44.0726 7.123-11.57351 15.862-27.06886 28.957-32.7185 10.712-4.6349 19.506 2.85225 26.163 10.75076 11.506 13.65784 19.561 30.35994 27.67 46.12954 9.013 17.5522 17.424 35.5433 27.971 52.2728 6.246 9.9003 15.342 25.0663 28.437 26.1363 10.657.878 21.286-6.637 29.094-12.945 10.767-8.721 20.164-19.0329 29.916-28.8238 9.945-9.9828 20.739-21.1176 34.081-26.4655 10.849-4.3332 24.081-2.4134 35.532-2.4134h79.996"/><path d="M91.5356 44.5049c13.9444-.8776 25.3134-8.7487 35.8334-17.4151 11.726-9.6811 22.355-20.65131 34.218-30.19535 9.232-7.43225 20.437-15.49535 32.765-15.85185 14.082-.4114 24.465 14.89196 31.478 25.09421C236.514 21.687 245.308 38.5262 254.733 54.8443c8.52 14.7274 17.478 31.786 30.984 42.6739 25.451 20.5138 46.874-23.2293 56.901-40.809 8.383-14.6726 16.191-29.6742 25.013-44.0726 7.123-11.57349 15.862-27.0688 28.957-32.7185 10.712-4.6349 19.506 2.8523 26.163 10.75078 11.506 13.65785 19.561 30.35992 27.67 46.12952 9.013 17.5523 17.424 35.5433 27.971 52.2728 6.246 9.9006 15.342 25.0668 28.437 26.1368 10.657.877 21.286-6.637 29.094-12.945 10.767-8.7215 20.164-19.0334 29.916-28.8243 9.945-9.9828 20.739-21.1175 34.081-26.4655 10.849-4.3332 24.081-2.4134 35.532-2.4134h79.996"/><path d="M91.5356 37.0728c13.9444-.8776 25.3134-8.7487 35.8334-17.4151 11.726-9.68118 22.355-20.65134 34.218-30.1954 9.232-7.4323 20.437-15.4953 32.765-15.8519 14.082-.4113 24.465 14.892 31.478 25.09428 10.684 15.55022 19.478 32.38942 28.903 48.70752 8.52 14.7274 17.478 31.786 30.984 42.6739 25.451 20.5139 46.874-23.2293 56.901-40.809 8.383-14.6726 16.191-29.6743 25.013-44.0726 7.123-11.57351 15.862-27.0689 28.957-32.7185 10.712-4.6349 19.506 2.8522 26.163 10.7508 11.506 13.65781 19.561 30.3599 27.67 46.1295 9.013 17.5522 17.424 35.5433 27.971 52.2728 6.246 9.9005 15.342 25.0669 28.437 26.1359 10.657.878 21.286-6.636 29.094-12.9443 10.767-8.7213 20.164-19.0332 29.916-28.8241 9.945-9.9828 20.739-21.1176 34.081-26.4655 10.849-4.3332 24.081-2.4134 35.532-2.4134h79.996"/><path d="M91.5356 29.6402c13.9444-.8776 25.3134-8.7487 35.8334-17.4151 11.726-9.6812 22.355-20.65136 34.218-30.1954 9.232-7.4323 20.437-15.4953 32.765-15.8519 14.082-.4114 24.465 14.892 31.478 25.09427 10.684 15.55019 19.478 32.38943 28.903 48.70753 8.492 14.7548 17.478 31.8134 30.984 42.6739 25.451 20.5145 46.874-23.2293 56.901-40.809 8.383-14.6726 16.191-29.6743 25.013-44.07261 7.123-11.57349 15.862-27.06889 28.957-32.71849 10.712-4.6349 19.506 2.8522 26.163 10.7507 11.506 13.6579 19.561 30.35995 27.67 46.1296 9.013 17.5522 17.424 35.5433 27.971 52.2728 6.246 9.9005 15.342 25.0668 28.437 26.1365 10.657.877 21.286-6.6371 29.094-12.9449 10.767-8.7213 20.164-19.0333 29.916-28.8241 9.945-9.9829 20.739-21.1176 34.081-26.4655 10.849-4.3332 24.081-2.4135 35.532-2.4135h79.996"/><path d="M91.5356 22.2081c13.9444-.8776 25.3134-8.7487 35.8334-17.41516 11.726-9.68116 22.355-20.65134 34.218-30.19534 9.232-7.4323 20.437-15.4954 32.765-15.8519 14.082-.4114 24.465 14.892 31.478 25.0942 10.684 15.55024 19.478 32.3894 28.903 48.7075 8.492 14.7549 17.478 31.7861 30.984 42.674 25.451 20.5141 46.874-23.2294 56.901-40.809 8.383-14.6726 16.191-29.67431 25.013-44.07264 7.123-11.57356 15.862-27.06886 28.957-32.71846 10.712-4.6349 19.506 2.8522 26.163 10.7507 11.506 13.6579 19.561 30.35993 27.67 46.1295 9.013 17.5523 17.424 35.5433 27.971 52.2728 6.246 9.9006 15.342 25.0668 28.437 26.1364 10.657.8776 21.286-6.6369 29.094-12.9448 10.767-8.7212 20.164-19.0332 29.916-28.824 9.945-9.9829 20.739-21.1176 34.081-26.4656 10.849-4.3332 24.081-2.4134 35.532-2.4134h79.996"/><path d="M91.5356 14.7485c13.9444-.8776 25.3134-8.74869 35.8334-17.41512 11.726-9.68118 22.355-20.65128 34.218-30.19538 9.232-7.4323 20.437-15.4953 32.765-15.8519 14.082-.4113 24.465 14.892 31.478 25.0943 10.684 15.55018 19.478 32.38937 28.903 48.7075 8.492 14.7548 17.478 31.8134 30.984 42.7013 25.451 20.5142 46.874-23.2293 56.901-40.809 8.383-14.6726 16.191-29.67425 25.013-44.0726 7.123-11.5735 15.862-27.0688 28.957-32.7185 10.712-4.6349 19.506 2.8523 26.163 10.7508 11.506 13.6578 19.561 30.3599 27.67 46.1295 9.013 17.5522 17.424 35.5433 27.971 52.2728 6.246 9.9006 15.342 25.0668 28.437 26.1364 10.657.8776 21.286-6.6369 29.094-12.9448 10.767-8.7213 20.164-19.0332 29.916-28.8241 9.945-9.9828 20.739-21.1175 34.081-26.4655 10.849-4.3332 24.081-2.4134 35.532-2.4134h79.996"/><path d="M91.5356 7.31638c13.9444-.87761 25.3134-8.7487 35.8334-17.41508 11.726-9.6812 22.355-20.6514 34.218-30.1954 9.232-7.4323 20.437-15.4954 32.765-15.8519 14.082-.4114 24.465 14.892 31.478 25.0943 10.684 15.5502 19.478 32.38934 28.903 48.7075 8.492 14.7548 17.478 31.8134 30.984 42.7013 25.451 20.5142 46.874-23.2293 56.901-40.809 8.383-14.67258 16.191-29.6743 25.013-44.0726 7.123-11.5735 15.862-27.0689 28.957-32.7185 10.712-4.6349 19.506 2.8522 26.163 10.7508 11.506 13.6578 19.561 30.3599 27.67 46.12947 9.013 17.55223 17.424 35.54333 27.971 52.27283 6.246 9.9005 15.342 25.0668 28.437 26.1364 10.657.8776 21.286-6.637 29.094-12.9448 10.767-8.7213 20.164-19.0332 29.916-28.8241 9.945-9.9829 20.739-21.1176 34.081-26.46551 10.849-4.33321 24.081-2.41343 35.532-2.41343h79.996"/></g><path d="M344 0H222.363l-3.775 17h104.909v326H174.096l-3.775 17H344V0ZM38.9997 343.5V17H169.537l3.775-17H17.9966l.0031 360.5H111l3.787-17H38.9997Z" fill="#fff"/><defs><clipPath id="a"><path fill="#fff" transform="translate(118 73)" d="M0 0h360v160H0z"/></clipPath></defs></svg>