<?xml version="1.0" encoding="utf-8"?>
<svg viewBox="0 0 40 36" fill="none" xmlns="http://www.w3.org/2000/svg">
  <defs>
    <clipPath id="clip0_908_4709">
      <rect width="39" height="36" fill="white" transform="translate(0.848633)"/>
    </clipPath>
  </defs>
  <g clip-path="url(#clip0_908_4709)">
    <path d="M30.4805 21.1696H33.3161C33.9892 21.1676 34.6552 21.0368 35.2753 20.7847C35.8954 20.5326 36.4573 20.1643 36.9283 19.7011C37.3994 19.238 37.7701 18.6892 38.019 18.0868C38.2678 17.4845 38.3899 16.8404 38.378 16.1922C38.3781 14.8849 37.8435 13.6303 36.8899 12.7001C35.9364 11.7699 34.6407 11.2392 33.2836 11.2226V11.1131C33.2836 8.47842 32.1976 5.95155 30.2642 4.08782C28.3308 2.2241 25.7083 1.17602 22.973 1.17395C20.9192 1.17617 18.9127 1.7687 17.2105 2.87569C15.5083 3.98269 14.1878 5.55378 13.418 7.38786H13.1661C11.4062 7.38675 9.70743 8.01022 8.39448 9.13919C7.08153 10.2681 6.2464 11.8234 6.04863 13.5079C5.52581 13.5079 5.0081 13.607 4.52507 13.7998C4.04204 13.9925 3.60315 14.275 3.23346 14.6311C2.86377 14.9872 2.57051 15.4099 2.37043 15.8752C2.17036 16.3404 2.06738 16.839 2.06738 17.3426C2.06738 17.8463 2.17036 18.3449 2.37043 18.8102C2.57051 19.2755 2.86377 19.6981 3.23346 20.0542C3.60315 20.4103 4.04204 20.6928 4.52507 20.8855C5.0081 21.0783 5.52581 21.1774 6.04863 21.1774H9.29863" stroke="#C9C9C9" stroke-width="1" stroke-linecap="round" stroke-linejoin="round"/>
    <path d="M15.2132 17.2644V25.2627H9.63135" stroke="#C9C9C9" stroke-width="1" stroke-linecap="round" stroke-linejoin="round"/>
    <path d="M17.9111 17.2174V25.2157H23.5011" stroke="#C9C9C9" stroke-width="1" stroke-linecap="round" stroke-linejoin="round"/>
    <path d="M7.08844 29.2601C8.87496 29.2601 10.3878 27.8559 10.3878 26.0453C10.3878 24.2348 8.87496 22.8306 7.08844 22.8306C5.30191 22.8306 3.78906 24.2348 3.78906 26.0453C3.78906 27.8559 5.30191 29.2601 7.08844 29.2601Z" stroke="#FC0000" stroke-width="1" stroke-linecap="round" stroke-linejoin="round"/>
    <path d="M11.0209 35.3407C11.2865 35.3407 11.5411 35.235 11.7287 35.0471C11.9163 34.8591 12.0214 34.6042 12.0209 34.3386C12.0182 33.0557 11.4875 31.8341 10.5582 30.9388L10.5581 30.9387C9.62987 30.0448 8.37944 29.5476 7.08222 29.545L7.0763 29.5451C5.78051 29.5502 4.5321 30.0479 3.60482 30.941L3.60478 30.9411C2.67634 31.8355 2.1451 33.055 2.13966 34.3364C2.13853 34.6024 2.24338 34.8578 2.43104 35.0463C2.6187 35.2348 2.8737 35.3407 3.13965 35.3407H11.0209Z" stroke="#FC0000" stroke-width="1" stroke-linecap="round" stroke-linejoin="round"/>
    <path d="M13.1904 14.3999V32.8773" stroke="#C9C9C9" stroke-width="1" stroke-linecap="round" stroke-linejoin="round" stroke-dasharray="4 4"/>
    <path d="M32.1055 16.4191V34.8965" stroke="#C9C9C9" stroke-width="1" stroke-linecap="round" stroke-linejoin="round" stroke-dasharray="4 4"/>
    <path d="M20.2266 8.02173V32.8774" stroke="#C9C9C9" stroke-width="1" stroke-linecap="round" stroke-linejoin="round" stroke-dasharray="4 4"/>
    <path d="M 26.724 29.233 C 28.51 29.233 30.023 27.829 30.023 26.018 C 30.023 24.208 28.51 22.804 26.724 22.804 C 24.937 22.804 23.425 24.208 23.425 26.018 C 23.425 27.829 24.937 29.233 26.724 29.233 Z" stroke="#FC0000" stroke-width="1" stroke-linecap="round" stroke-linejoin="round"/>
    <path d="M 30.656 35.314 C 30.922 35.314 31.177 35.208 31.364 35.02 C 31.552 34.832 31.657 34.577 31.656 34.312 C 31.654 33.029 31.123 31.807 30.194 30.912 C 29.265 30.018 28.015 29.521 26.718 29.518 L 26.712 29.518 C 25.416 29.523 24.168 30.021 23.24 30.914 C 22.312 31.808 21.781 33.028 21.775 34.309 C 21.774 34.575 21.879 34.831 22.067 35.019 C 22.254 35.208 22.509 35.314 22.775 35.314 L 30.656 35.314 Z" stroke="#FC0000" stroke-width="1" stroke-linecap="round" stroke-linejoin="round"/>
  </g>
</svg>