<svg width="16" height="17" viewBox="0 0 16 17" fill="none" xmlns="http://www.w3.org/2000/svg">
  <path
    d="M12.229 11.4647C12.116 11.353 11.9759 11.2722 11.8225 11.2308C11.6691 11.1894 11.5076 11.1888 11.3537 11.2285L10.6563 10.5369C11.5054 9.48558 11.9673 8.17408 11.9645 6.82272C11.9768 5.28509 11.3787 3.80543 10.3013 2.70829C9.22393 1.61116 7.75533 0.986357 6.21773 0.970703C4.68013 0.986357 3.21152 1.61116 2.13415 2.70829C1.05677 3.80543 0.458596 5.28509 0.470889 6.82272C0.458596 8.36036 1.05677 9.84002 2.13415 10.9372C3.21152 12.0343 4.68013 12.6596 6.21773 12.6752C7.6251 12.6746 8.98188 12.1502 10.0239 11.2042L10.6977 11.8733C10.6538 12.0308 10.6529 12.1969 10.6949 12.3549C10.737 12.5129 10.8205 12.6572 10.9368 12.7722L14.212 16.0116C14.3839 16.1822 14.6165 16.2774 14.8586 16.2768C14.9802 16.2768 15.1005 16.2529 15.2127 16.206C15.3248 16.1591 15.4265 16.0903 15.5118 16.0038C15.5968 15.918 15.6639 15.8164 15.7095 15.7046C15.755 15.5928 15.7782 15.4733 15.7775 15.3526C15.7768 15.2319 15.7522 15.1123 15.7054 15.001C15.6585 14.8898 15.5902 14.789 15.5043 14.7042L12.229 11.4647ZM1.39041 6.82272C1.37785 5.5288 1.879 4.28255 2.78396 3.35765C3.68893 2.43275 4.92384 1.90454 6.21773 1.8889C7.51162 1.90454 8.74647 2.43275 9.65144 3.35765C10.5564 4.28255 11.0575 5.5288 11.045 6.82272C11.0575 8.11665 10.5564 9.3629 9.65144 10.2878C8.74647 11.2127 7.51162 11.7409 6.21773 11.7565C4.92466 11.7397 3.69096 11.2107 2.78701 10.286C1.88306 9.36119 1.38256 8.11584 1.39512 6.82272H1.39041Z"
    fill="#131414"/>
</svg>
