<svg width="39" height="36" viewBox="0 0 39 36" fill="none" xmlns="http://www.w3.org/2000/svg">
<path d="M29.1123 21.5816H31.8025C32.4411 21.5797 33.0729 21.4525 33.6612 21.2074C34.2495 20.9622 34.7826 20.6042 35.2295 20.1539C35.6763 19.7036 36.0281 19.1701 36.2642 18.5844C36.5003 17.9988 36.616 17.3727 36.6048 16.7424C36.6049 15.4715 36.0977 14.2517 35.193 13.3474C34.2884 12.443 33.0591 11.927 31.7717 11.9109V11.8044C31.7717 9.24293 30.7413 6.78625 28.9071 4.97429C27.0728 3.16234 24.5848 2.14337 21.9898 2.14136C20.0413 2.14351 18.1377 2.71959 16.5228 3.79583C14.9079 4.87208 13.6551 6.39953 12.9248 8.18266H12.6858C11.0161 8.18158 9.4045 8.78773 8.15888 9.88534C6.91326 10.9829 6.12096 12.495 5.93333 14.1327C5.43732 14.1327 4.94616 14.2291 4.48791 14.4165C4.02964 14.6038 3.61326 14.8785 3.26253 15.2247C2.9118 15.5709 2.63357 15.9819 2.44376 16.4342C2.25394 16.8865 2.15625 17.3713 2.15625 17.8609C2.15625 18.3505 2.25394 18.8354 2.44376 19.2877C2.63357 19.74 2.9118 20.151 3.26253 20.4972C3.61326 20.8434 4.02964 21.1181 4.48791 21.3054C4.94616 21.4928 5.43732 21.5892 5.93333 21.5892H9.01667" stroke="#FF0000" stroke-width="3" stroke-linecap="round" stroke-linejoin="round"/>
<path d="M14.6286 18.644V26.4201H9.33301" stroke="#D3D3D3" stroke-width="2" stroke-linecap="round" stroke-linejoin="round"/>
<path d="M17.188 18.5981V26.3742H22.4913" stroke="#D3D3D3" stroke-width="2" stroke-linecap="round" stroke-linejoin="round"/>
<path d="M6.91974 28.4752C8.12452 28.4752 9.1012 27.5112 9.1012 26.322C9.1012 25.1327 8.12452 24.1687 6.91974 24.1687C5.71495 24.1687 4.73828 25.1327 4.73828 26.322C4.73828 27.5112 5.71495 28.4752 6.91974 28.4752Z" stroke="#D3D3D3" stroke-width="2" stroke-linecap="round" stroke-linejoin="round"/>
<path d="M10.6509 34.387C10.6489 33.4089 10.2543 32.4714 9.5537 31.7798C8.853 31.0882 7.90326 30.6988 6.91237 30.6968C5.9221 30.7008 4.97354 31.0908 4.2733 31.782C3.57307 32.4733 3.17788 33.4095 3.17383 34.387H10.6509Z" stroke="#D3D3D3" stroke-width="2" stroke-linecap="round" stroke-linejoin="round"/>
<path d="M24.8109 28.4752C26.0157 28.4752 26.9923 27.5112 26.9923 26.322C26.9923 25.1327 26.0157 24.1687 24.8109 24.1687C23.606 24.1687 22.6294 25.1327 22.6294 26.322C22.6294 27.5112 23.606 28.4752 24.8109 28.4752Z" stroke="#D3D3D3" stroke-width="2" stroke-linecap="round" stroke-linejoin="round"/>
<path d="M28.5421 34.387C28.5401 33.4102 28.1466 32.4739 27.4476 31.7825C26.7486 31.0911 25.8009 30.7008 24.8113 30.6968C23.8204 30.6988 22.8706 31.0882 22.17 31.7798C21.4693 32.4714 21.0748 33.4089 21.0728 34.387H28.5421Z" stroke="#D3D3D3" stroke-width="2" stroke-linecap="round" stroke-linejoin="round"/>
<path d="M12.709 15V32.9641" stroke="#D3D3D3" stroke-width="2" stroke-linecap="round" stroke-linejoin="round" stroke-dasharray="4 4"/>
<path d="M30.6538 16.9631V34.9273" stroke="#D3D3D3" stroke-width="2" stroke-linecap="round" stroke-linejoin="round" stroke-dasharray="4 4"/>
<path d="M19.3843 8.79907V32.9643" stroke="#D3D3D3" stroke-width="2" stroke-linecap="round" stroke-linejoin="round" stroke-dasharray="4 4"/>
</svg>
