<svg width="41" height="39" viewBox="0 0 41 39" fill="none" xmlns="http://www.w3.org/2000/svg">
  <path d="M31.5169 22.346H34.5625C35.2854 22.3439 36.0007 22.2042 36.6667 21.9351C37.3327 21.666 37.9363 21.2728 38.4422 20.7784C38.948 20.2839 39.3462 19.6981 39.6135 19.0551C39.8808 18.412 40.0119 17.7245 39.9992 17.0325C39.9992 15.6369 39.425 14.2976 38.4009 13.3046C37.3767 12.3116 35.9851 11.7449 34.5276 11.7273V11.6103C34.5276 8.79776 33.3611 6.10024 31.2846 4.11065C29.208 2.12107 26.3913 1.00221 23.4535 1C21.2476 1.00237 19.0926 1.63492 17.2644 2.81667C15.4361 3.99843 14.0178 5.67561 13.1911 7.63356H12.9205C11.0303 7.63237 9.20573 8.29794 7.79557 9.50315C6.38541 10.7083 5.48845 12.3686 5.27603 14.1669C4.71449 14.1669 4.15845 14.2727 3.63966 14.4785C3.12087 14.6842 2.64948 14.9858 2.25241 15.3659C1.85535 15.746 1.54038 16.1974 1.32549 16.694C1.1106 17.1906 1 17.723 1 18.2606C1 18.7982 1.1106 19.3306 1.32549 19.8273C1.54038 20.324 1.85535 20.7752 2.25241 21.1553C2.64948 21.5355 3.12087 21.8371 3.63966 22.0427C4.15845 22.2485 4.71449 22.3544 5.27603 22.3544H8.76667" stroke="#C9C9C9" stroke-width="1" stroke-linecap="round" stroke-linejoin="round"/>
  <path d="M15.1192 18.9127V27.4511H9.12402" stroke="#C9C9C9" stroke-width="1" stroke-linecap="round" stroke-linejoin="round"/>
  <path d="M18.0171 18.8625V27.401H24.021" stroke="#C9C9C9" stroke-width="1" stroke-linecap="round" stroke-linejoin="round"/>
  <path d="M6.39297 29.9154C7.7569 29.9154 8.86259 28.8568 8.86259 27.551C8.86259 26.2452 7.7569 25.1866 6.39297 25.1866C5.02903 25.1866 3.92334 26.2452 3.92334 27.551C3.92334 28.8568 5.02903 29.9154 6.39297 29.9154V29.9154Z" stroke="#C9C9C9" stroke-width="1" stroke-linecap="round" stroke-linejoin="round"/>
  <path d="M10.6166 36.4067C10.6144 35.3327 10.1677 34.3034 9.3745 33.5439C8.58124 32.7846 7.50604 32.3569 6.38425 32.3547C5.26317 32.3592 4.18931 32.7874 3.39656 33.5464C2.60383 34.3054 2.15645 35.3334 2.15186 36.4067H10.6166Z" stroke="#C9C9C9" stroke-width="1" stroke-linecap="round" stroke-linejoin="round"/>
  <path d="M26.6474 29.9154C28.0113 29.9154 29.117 28.8568 29.117 27.551C29.117 26.2452 28.0113 25.1866 26.6474 25.1866C25.2834 25.1866 24.1777 26.2452 24.1777 27.551C24.1777 28.8568 25.2834 29.9154 26.6474 29.9154Z" stroke="#C9C9C9" stroke-width="1" stroke-linecap="round" stroke-linejoin="round"/>
  <path d="M30.8711 36.4067C30.8688 35.3342 30.4233 34.3061 29.632 33.5469C28.8407 32.7878 27.7678 32.3592 26.6474 32.3547C25.5256 32.3569 24.4504 32.7846 23.6573 33.5439C22.864 34.3034 22.4174 35.3327 22.415 36.4067H30.8711Z" stroke="#C9C9C9" stroke-width="1" stroke-linecap="round" stroke-linejoin="round"/>
  <path d="M12.9473 15.1193V34.8445" stroke="#FC0000" stroke-width="2" stroke-linecap="round" stroke-linejoin="round" stroke-dasharray="4 4"/>
  <path d="M33.2627 17.2749V37.0001" stroke="#FC0000" stroke-width="2" stroke-linecap="round" stroke-linejoin="round" stroke-dasharray="4 4"/>
  <path d="M20.5039 8.3103V34.8445" stroke="#FC0000" stroke-width="2" stroke-linecap="round" stroke-linejoin="round" stroke-dasharray="4 4"/>
</svg>
