<svg width="327" height="252" fill="none" xmlns="http://www.w3.org/2000/svg"><path d="M56 123.942V120h1.6114c.3085 0 .5717.053.7897.16.2194.105.3863.255.5006.448.1157.193.1735.419.1735.68 0 .262-.0585.487-.1755.675-.117.188-.2865.332-.5085.432-.2207.1-.488.15-.8017.15h-1.079v-.67h.9394c.1648 0 .3018-.022.4108-.066.109-.043.1901-.109.2433-.196.0545-.087.0818-.196.0818-.325 0-.131-.0273-.241-.0818-.331-.0532-.09-.135-.158-.2453-.204-.109-.048-.2466-.072-.4128-.072h-.5824v3.261H56Zm2.2057-1.794 1.0151 1.794h-.9533l-.9931-1.794h.9313ZM60.9544 124c-.3151 0-.5863-.062-.8137-.185-.226-.124-.4002-.3-.5225-.527-.1223-.229-.1835-.499-.1835-.811 0-.304.0612-.571.1835-.8.1223-.23.2945-.409.5166-.537.2233-.129.4852-.193.7857-.193.2021 0 .3902.032.5644.094.1755.062.3284.155.4587.28.1316.124.234.281.3071.469.0731.188.1097.407.1097.659v.225h-2.5866v-.508h1.7869c0-.119-.0266-.223-.0798-.314s-.127-.163-.2214-.214c-.093-.053-.2014-.079-.325-.079-.129 0-.2433.029-.3431.087-.0983.056-.1755.133-.2313.229-.0558.095-.0844.201-.0857.317v.484c0 .146.0279.272.0837.379.0572.106.1376.189.2413.246.1037.058.2267.087.369.087.0944 0 .1808-.013.2592-.039.0785-.025.1456-.064.2015-.115.0558-.051.0983-.114.1276-.189l.7858.05c-.0399.183-.1217.342-.2453.478-.1224.134-.2806.24-.4747.315-.1928.075-.4155.112-.6681.112ZM65.4018 121.829l-.7778.046c-.0133-.064-.0419-.122-.0858-.173-.0438-.053-.1017-.095-.1735-.125-.0704-.033-.1549-.049-.2532-.049-.1317 0-.2427.027-.3331.081-.0904.053-.1356.123-.1356.212 0 .071.0292.13.0877.179.0585.049.1589.088.3012.117l.5544.108c.2978.059.5199.154.6661.285.1462.131.2194.303.2194.516 0 .194-.0592.364-.1775.51-.117.146-.2779.261-.4826.343-.2035.081-.4381.121-.704.121-.4055 0-.7286-.081-.9693-.244-.2393-.165-.3796-.388-.4208-.67l.8356-.043c.0253.12.0865.211.1835.274.0971.061.2214.092.373.092.1489 0 .2685-.028.3589-.083.0918-.056.1383-.129.1396-.217-.0013-.075-.0339-.136-.0977-.183-.0638-.049-.1622-.086-.2951-.112l-.5305-.102c-.2992-.058-.5219-.158-.6681-.3-.1449-.143-.2174-.324-.2174-.545 0-.19.0532-.353.1595-.491.1077-.137.2586-.243.4528-.317.1954-.075.4241-.112.686-.112.3869 0 .6914.079.9134.237.2234.158.3536.373.3909.645ZM67.3288 124c-.3098 0-.5777-.064-.8037-.191-.2247-.128-.3982-.306-.5205-.535-.1223-.229-.1835-.496-.1835-.799 0-.305.0612-.572.1835-.8.1223-.23.2958-.408.5205-.535.226-.129.4939-.193.8037-.193.3098 0 .577.064.8017.193.2261.127.4002.305.5225.535.1224.228.1835.495.1835.8 0 .303-.0611.57-.1835.799-.1223.229-.2964.407-.5225.535-.2247.127-.4919.191-.8017.191Zm.004-.635c.1409 0 .2586-.039.353-.116.0944-.078.1655-.185.2134-.319.0492-.135.0738-.288.0738-.46 0-.172-.0246-.326-.0738-.46-.0479-.135-.119-.242-.2134-.32-.0944-.078-.2121-.117-.353-.117-.1422 0-.2619.039-.359.117-.0957.078-.1682.185-.2173.32-.0479.134-.0718.288-.0718.46 0 .172.0239.325.0718.46.0491.134.1216.241.2173.319.0971.077.2168.116.359.116ZM71.2916 122.683v-1.697h.8495v2.956h-.8156v-.537h-.0319c-.0692.173-.1842.313-.3451.418-.1595.105-.3543.158-.5843.158-.2047 0-.3849-.045-.5404-.135-.1556-.09-.2773-.218-.365-.383-.0864-.166-.1303-.364-.1316-.595v-1.882h.8495v1.736c.0014.174.0499.312.1456.414.0958.101.2241.152.3849.152.1024 0 .1981-.023.2872-.068.0891-.046.1609-.114.2154-.204.0558-.089.0831-.2.0818-.333ZM72.7589 123.942v-2.956h.8237v.515h.0319c.0558-.183.1496-.322.2812-.415.1316-.095.2832-.143.4547-.143.0425 0 .0884.003.1376.008.0492.005.0924.012.1296.021v.728c-.0399-.012-.095-.022-.1655-.031-.0705-.009-.135-.014-.1935-.014-.1249 0-.2366.027-.335.079-.0971.052-.1742.124-.2313.216-.0559.092-.0838.199-.0838.319v1.673h-.8496ZM76.2366 124c-.3138 0-.5837-.064-.8097-.192-.2247-.13-.3976-.31-.5186-.539-.1196-.23-.1794-.495-.1794-.794 0-.302.0604-.568.1814-.796.1224-.23.2959-.409.5206-.538.2246-.129.4919-.194.8017-.194.2672 0 .5012.047.702.141.2007.093.3596.225.4766.394.117.17.1815.368.1935.597h-.8018c-.0226-.148-.0824-.266-.1795-.356-.0957-.091-.2213-.137-.3769-.137-.1316 0-.2466.035-.345.104-.097.068-.1728.168-.2273.298-.0546.131-.0818.29-.0818.476 0 .189.0266.349.0798.481.0545.132.1309.233.2293.302.0984.07.2134.104.345.104.0971 0 .1842-.019.2613-.057.0784-.039.1429-.095.1934-.168.0519-.074.0858-.164.1017-.267h.8018c-.0133.225-.0772.424-.1915.596-.113.171-.2692.304-.4687.401-.1994.096-.4354.144-.7079.144ZM79.4828 124c-.3151 0-.5863-.062-.8136-.185-.2261-.124-.4002-.3-.5225-.527-.1224-.229-.1835-.499-.1835-.811 0-.304.0611-.571.1835-.8.1223-.23.2944-.409.5165-.537.2233-.129.4853-.193.7857-.193.2021 0 .3903.032.5644.094.1755.062.3284.155.4587.28.1316.124.234.281.3071.469.0732.188.1097.407.1097.659v.225h-2.5866v-.508h1.7869c0-.119-.0266-.223-.0798-.314-.0531-.091-.1269-.163-.2213-.214-.0931-.053-.2015-.079-.3251-.079-.129 0-.2433.029-.343.087-.0984.056-.1755.133-.2314.229-.0558.095-.0844.201-.0857.317v.484c0 .146.0279.272.0837.379.0572.106.1376.189.2414.246.1037.058.2266.087.3689.087.0944 0 .1808-.013.2593-.039.0784-.025.1455-.064.2014-.115.0558-.051.0984-.114.1276-.189l.7858.05c-.0399.183-.1217.342-.2453.478-.1223.134-.2806.24-.4747.315-.1927.075-.4154.112-.6681.112ZM83.9302 121.829l-.7778.046c-.0133-.064-.0419-.122-.0857-.173-.0439-.053-.1017-.095-.1735-.125-.0705-.033-.1549-.049-.2533-.049-.1316 0-.2427.027-.3331.081-.0904.053-.1356.123-.1356.212 0 .071.0293.13.0878.179.0585.049.1588.088.3011.117l.5544.108c.2978.059.5199.154.6661.285.1463.131.2194.303.2194.516 0 .194-.0592.364-.1775.51-.117.146-.2779.261-.4826.343-.2034.081-.4381.121-.704.121-.4055 0-.7286-.081-.9692-.244-.2394-.165-.3796-.388-.4208-.67l.8356-.043c.0252.12.0864.211.1834.274.0971.061.2214.092.373.092.1489 0 .2686-.028.359-.083.0917-.056.1382-.129.1396-.217-.0014-.075-.0339-.136-.0978-.183-.0638-.049-.1622-.086-.2951-.112l-.5305-.102c-.2992-.058-.5218-.158-.6681-.3-.1449-.143-.2174-.324-.2174-.545 0-.19.0532-.353.1596-.491.1077-.137.2586-.243.4527-.317.1954-.075.4241-.112.686-.112.3869 0 .6914.079.9134.237.2234.158.3537.373.3909.645Z" fill="#131414"/><path d="M126 0 34 49.3681V168l92-49.368V0Z" fill="#fff"/><path fill-rule="evenodd" clip-rule="evenodd" d="M34.769 49.8285V166.714l90.462-48.542V1.2857L34.769 49.8285ZM34 49.3681V168l92-49.368V0L34 49.3681Z" fill="silver"/><path d="m61.524 93.6803-2.4683-6.1093 2.4103-.9738c.4614-.1864.8885-.2629 1.2813-.2296.394.0305.7372.1613 1.0296.3925.2935.2284.5219.5444.685.9481.1639.4057.2174.7901.1605 1.1532-.0577.361-.2213.6862-.4907.9755-.2675.2885-.6359.5275-1.1052.7172l-1.6138.652-.4195-1.0381 1.4051-.5677c.2466-.0996.4377-.2162.5735-.3497.1358-.1335.2161-.2839.241-.4513.0269-.1681-.0002-.3527-.0814-.5535-.0819-.2029-.1918-.3574-.3296-.4637-.1358-.1071-.3007-.163-.4947-.168-.1928-.0076-.4135.0387-.6621.1392l-.871.3519 2.0417 5.0532-1.2917.5219Zm2.176-4.1132 2.6417 2.1668-1.4259.5761-2.6089-2.18 1.3931-.5629ZM68.9709 90.7757c-.4713.1904-.9156.2589-1.3328.2054-.416-.0564-.7866-.2235-1.1118-.5016-.326-.2801-.5866-.6618-.7818-1.145-.1904-.4713-.2661-.9219-.227-1.3518.0392-.4299.1846-.8114.4364-1.1444.2537-.3339.6054-.5916 1.0548-.7732.3023-.1221.6034-.1871.9033-.1949.301-.0106.588.0412.8608.1553.2749.1134.526.2941.7535.5423.2267.2461.4188.5641.5763.9539l.141.349-3.8691 1.5632-.3181-.7875 2.6728-1.0799c-.0739-.183-.1792-.329-.3158-.438-.1366-.1091-.2916-.1749-.4649-.1974-.1721-.0253-.3507-.0006-.5357.0742-.1929.0779-.3458.1917-.4588.3415-.1118.147-.1794.3119-.2026.4948-.0241.1809-.0006.3622.0706.544l.3025.7488c.0916.2267.2125.4057.3627.537.1522.1305.324.2092.5152.236.1913.0268.3934-.0028.6061-.0887.1412-.0571.2625-.1292.3637-.2164.1013-.0872.1776-.1874.229-.3007.0514-.1133.0757-.2364.0728-.3695l1.2067-.3973c.0544.3065.0317.6026-.068.8881-.0986.2827-.2694.5414-.5123.776-.2418.2319-.5516.4241-.9295.5768ZM74.2637 84.7232l-1.1344.5416c-.0601-.0914-.139-.1636-.2368-.2167-.0985-.055-.2112-.0847-.3378-.089-.1255-.0071-.2619.019-.409.0785-.1969.0795-.3461.1884-.4476.3266-.1023.1361-.1257.2728-.0703.41.0442.1094.1254.1842.2434.2244.118.0402.2927.0402.524 0l.8967-.168c.4825-.0885.874-.0755 1.1748.039.3007.1144.5177.3367.6511.6668.1213.3003.1393.5996.0539.8978-.0834.2974-.2525.5716-.5074.8226-.2536.2483-.5793.4527-.9771.6134-.6065.2451-1.1408.314-1.6028.2069-.4608-.1099-.8104-.3712-1.0489-.7838l1.2234-.5706c.1126.1697.2611.2739.4456.3127.1838.0368.389.0094.6157-.0822.2228-.09.3845-.205.4851-.3452.1019-.1429.1261-.2834.0727-.4214-.0486-.1146-.1355-.1894-.2607-.2244-.126-.037-.2965-.0352-.5114.0054l-.8574.1625c-.4836.0913-.8794.0707-1.1873-.0616-.306-.1332-.5281-.3708-.6663-.7129-.1189-.2943-.1418-.58-.0687-.8571.0752-.2778.2346-.5331.4783-.7657.2458-.2335.5645-.4294.9563-.5876.5787-.2339 1.0836-.2956 1.5145-.1851.4329.1096.7624.364.9884.7631ZM78.5057 86.9235c-.4634.1872-.9038.2506-1.3215.1903-.4164-.063-.7876-.2346-1.1136-.5147-.3268-.282-.585-.6577-.7746-1.1271-.1913-.4733-.2669-.9239-.227-1.3518.0392-.4299.187-.8112.4435-1.1438.2578-.3355.6183-.5968 1.0817-.784.4634-.1872.9033-.2493 1.3197-.1862.4176.0603.7899.2314 1.1166.5135.326.2801.5846.6567.7759 1.1301.1896.4693.2648.9189.2257 1.3488-.0399.4279-.1888.8096-.4465 1.145-.2566.3327-.6165.5927-1.0799.7799Zm-.3917-.9868c.2108-.0852.3627-.216.4556-.3924.0922-.1783.1319-.3864.1192-.6241-.0108-.2385-.07-.4911-.1777-.7575-.1077-.2665-.2405-.4893-.3984-.6684-.156-.1799-.3291-.302-.5193-.3662-.1902-.0643-.3907-.0538-.6015.0313-.2128.086-.3673.219-.4635.3989-.0941.1792-.1358.3881-.125.6266.0127.2377.0729.4898.1806.7563.1077.2665.2395.4897.3955.6696.1579.1791.333.3003.5252.3638.1934.0607.3965.048.6093-.0379ZM83.6088 82.4883l-1.0631-2.6311 1.2708-.5134 1.8513 4.5819-1.2201.493-.3363-.8323-.0477.0193c.0051.3103-.0798.5955-.2545.8558-.1728.2595-.4312.4588-.7752.5978-.3063.1237-.6039.163-.8928.1178-.2889-.0452-.5508-.1696-.7858-.3731-.2329-.2043-.4226-.4851-.5693-.8422l-1.1787-2.9174 1.2708-.5135 1.0871 2.6907c.1113.2697.2703.4542.4769.5534.2067.0993.4303.1003.671.0031.1531-.0619.2822-.1546.3874-.278.1043-.1254.1691-.2742.1944-.4464.0272-.1729-.0015-.3614-.0862-.5654ZM86.5919 83.5524l-1.8513-4.5819 1.232-.4978.323.7995.0477-.0193c-.0313-.3182.0221-.5896.1603-.8143.1375-.2267.3344-.3919.591-.4955.0636-.0257.1338-.0495.2106-.0713.0768-.0217.1459-.0369.2072-.0455l.4556 1.1276c-.0669.0062-.1559.0236-.2669.0523-.111.0287-.2103.0607-.2978.096-.1869.0756-.3375.1838-.4517.3248-.1131.1382-.1834.2962-.2111.4739-.0257.1769-.0007.3589.0748.5458l1.0473 2.5923-1.2707.5134ZM91.8298 81.5403c-.4693.1896-.9132.2533-1.3316.191-.4173-.0651-.7883-.2391-1.1131-.5219-.3228-.2837-.5778-.6572-.765-1.1206-.1897-.4693-.2655-.9175-.2275-1.3446.0391-.4299.1865-.8122.4423-1.1468.2549-.3367.6141-.5986 1.0774-.7858.3998-.1615.7791-.2303 1.1381-.2065.3589.0239.6789.1317.96.3235s.5021.4611.663.8078l-1.1992.4845c-.1262-.215-.29-.3628-.4915-.4434-.2002-.0833-.4167-.078-.6493.016-.1969.0796-.3473.2028-.451.3696-.1026.1641-.1537.364-.1533.5998.0004.2358.0589.4978.1754.7862.1181.2923.2583.5248.4206.6975.1643.1719.3418.2818.5323.3298.1906.0479.3843.0321.5812-.0474.1451-.0587.2634-.1412.3546-.2474.0932-.1071.1547-.2326.1845-.3764.031-.1467.0258-.3054-.0154-.4762l1.1992-.4845c.1215.3581.1506.7049.0873 1.0405-.0622.3328-.2123.634-.4504.9037-.238.2697-.5609.4869-.9686.6516ZM96.6856 79.5784c-.4713.1905-.9156.2589-1.3328.2054-.416-.0563-.7866-.2235-1.1118-.5016-.326-.2801-.5866-.6617-.7819-1.145-.1904-.4713-.266-.9219-.2269-1.3518.0391-.4299.1846-.8114.4363-1.1444.2538-.3339.6054-.5916 1.0549-.7732.3022-.1221.6033-.1871.9032-.1949.3011-.0106.5881.0412.8609.1554.2748.1133.526.2941.7535.5422.2267.2462.4187.5642.5762.9539l.141.3491-3.869 1.5631-.3182-.7875 2.6728-1.0799c-.0739-.1829-.1791-.3289-.3157-.438-.1366-.1091-.2916-.1748-.4649-.1973-.1722-.0253-.3507-.0006-.5357.0741-.1929.0779-.3458.1918-.4588.3415-.1119.147-.1794.3119-.2027.4948-.024.1809-.0005.3623.0706.544l.3026.7488c.0916.2267.2125.4057.3627.537.1522.1305.3239.2092.5152.236.1913.0268.3933-.0027.6061-.0887.1412-.057.2624-.1292.3637-.2163.1013-.0872.1776-.1875.229-.3007.0514-.1133.0756-.2365.0728-.3695l1.2066-.3973c.0545.3065.0318.6025-.068.888-.0986.2827-.2693.5414-.5123.7761-.2417.2318-.5516.4241-.9294.5767ZM101.978 73.5259l-1.134.5416c-.06-.0914-.139-.1636-.237-.2166-.098-.055-.211-.0847-.338-.0891-.125-.0071-.262.0191-.4087.0785-.1969.0796-.346.1884-.4475.3266-.1023.1362-.1257.2729-.0703.4101.0442.1094.1253.1842.2433.2244.1181.0402.2927.0402.5242-.0001l.897-.1679c.482-.0886.874-.0756 1.174.0389.301.1145.518.3368.651.6669.122.3003.14.5995.054.8977-.083.2975-.252.5717-.507.8227-.254.2482-.579.4527-.977.6134-.607.245-1.141.314-1.6029.2069-.4609-.11-.8105-.3712-1.0489-.7838l1.2234-.5707c.1124.1697.2614.274.4454.3128.184.0368.389.0094.616-.0822.223-.09.384-.2051.485-.3452.102-.143.126-.2835.073-.4215-.049-.1145-.136-.1893-.261-.2243-.126-.037-.297-.0352-.511.0053l-.8578.1625c-.4836.0913-.8794.0708-1.1874-.0616-.3059-.1332-.528-.3708-.6662-.7128-.1189-.2943-.1418-.58-.0687-.8571.0751-.2779.2345-.5331.4783-.7658.2457-.2335.5645-.4293.9563-.5876.5785-.2338 1.0835-.2955 1.5145-.1851.433.1096.762.364.988.7631Z" fill="#3D3D3D"/><path d="m212 0-93 49.3681V168l93-49.368V0Z" fill="#fff"/><path fill-rule="evenodd" clip-rule="evenodd" d="M119.777 49.8285V166.714l91.446-48.542V1.28572L119.777 49.8285Zm-.777-.4604V168l93-49.368V0l-93 49.3681Z" fill="silver"/><path d="m150.248 92.3817-1.384.5592-.36-6.9613 1.665-.6725 4.574 5.2583-1.384.5592-3.434-4.0949-.048.0193.371 5.3327Zm-1.057-2.3664 3.269-1.3209.408 1.0082-3.27 1.321-.407-1.0083ZM157.255 89.6546c-.469.1896-.913.2532-1.331.191-.418-.0651-.789-.2391-1.113-.5219-.323-.2837-.578-.6572-.765-1.1206-.19-.4693-.266-.9175-.228-1.3446.039-.4299.187-.8122.442-1.1468.255-.3367.615-.5986 1.078-.7858.4-.1615.779-.2303 1.138-.2065.359.0239.679.1317.96.3235.281.1918.502.4611.663.8078l-1.199.4845c-.126-.215-.29-.3628-.492-.4434-.2-.0833-.416-.078-.649.016-.197.0796-.347.2028-.451.3696-.103.1641-.154.364-.153.5998 0 .2358.059.4978.175.7862.118.2923.258.5248.421.6975.164.1719.341.2818.532.3298.191.0479.384.0321.581-.0475.145-.0586.263-.1411.355-.2473.093-.1071.154-.2326.184-.3765.031-.1466.026-.3053-.015-.4761l1.199-.4845c.122.3581.151.7049.087 1.0405-.062.3328-.212.634-.45.9037-.238.2696-.561.4868-.969.6516ZM160.573 82.8803l.385.9546-2.759 1.1148-.386-.9546 2.76-1.1148Zm-2.577-.236 1.271-.5134 1.726 4.2716c.047.1174.102.2016.165.2528.061.0492.129.0738.203.074.076-.0007.157-.0183.242-.0528.06-.0242.118-.0532.173-.0873.055-.036.097-.0634.127-.0823l.582.8649c-.056.0456-.136.1046-.241.1771-.104.0744-.238.148-.4.2206-.302.1357-.587.2034-.855.2031-.267-.001-.503-.0743-.71-.2198-.207-.1454-.37-.3687-.489-.6698l-1.794-4.4387ZM163.159 87.1651l-1.851-4.5819 1.271-.5134 1.851 4.5819-1.271.5134Zm-1.451-5.4305c-.189.0764-.377.0792-.562.0086-.185-.0735-.313-.1987-.385-.3757-.07-.175-.064-.3521.018-.5312.084-.1819.22-.311.409-.3873.189-.0764.376-.0778.561-.0044.186.0707.314.1935.385.3685.071.177.065.3565-.019.5384-.083.1791-.218.3068-.407.3831ZM167.776 79.97l.249 5.2291-1.431.5785-3.454-3.9347 1.343-.5424 2.276 2.8939.048-.0193-.376-3.6616 1.345-.5435ZM170.185 84.3265l-1.851-4.582 1.271-.5134 1.851 4.5819-1.271.5135Zm-1.451-5.4305c-.189.0763-.377.0792-.562.0085-.185-.0734-.313-.1986-.385-.3756-.07-.175-.064-.3521.018-.5312.084-.1819.22-.3111.409-.3874.189-.0763.376-.0778.561-.0043.185.0706.314.1935.384.3685.072.177.066.3564-.018.5383-.083.1791-.218.3069-.407.3832ZM172.967 77.8725l.386.9546-2.759 1.1148-.386-.9546 2.759-1.1148Zm-2.576-.236 1.271-.5134 1.726 4.2717c.047.1173.102.2015.164.2527.062.0492.13.0738.204.074.076-.0007.156-.0183.242-.0528.06-.0241.117-.0532.173-.0873.055-.036.097-.0634.126-.0823l.582.8649c-.055.0456-.136.1046-.241.1771-.104.0744-.237.148-.4.2206-.301.1357-.586.2034-.854.2031-.267-.001-.504-.0743-.71-.2197-.207-.1455-.37-.3688-.49-.6699l-1.793-4.4387ZM175.554 82.1573l-1.851-4.5819 1.271-.5134 1.851 4.5819-1.271.5134Zm-1.451-5.4305c-.189.0764-.377.0792-.563.0086-.184-.0735-.312-.1987-.384-.3757-.071-.175-.065-.3521.018-.5312.084-.1819.22-.311.409-.3873.189-.0764.376-.0778.56-.0044.186.0707.315.1935.385.3685.072.177.066.3565-.018.5384-.083.1791-.219.3068-.407.3831ZM179.875 80.5158c-.472.1904-.916.2589-1.333.2053-.416-.0563-.787-.2235-1.112-.5015-.326-.2801-.587-.6618-.782-1.145-.19-.4713-.266-.9219-.227-1.3518.039-.4299.185-.8114.437-1.1444.253-.3339.605-.5916 1.054-.7732.303-.1221.604-.1871.904-.1949.301-.0106.588.0412.861.1553.274.1134.525.2941.753.5423.227.2461.419.5641.576.9539l.141.349-3.869 1.5632-.318-.7875 2.673-1.0799c-.074-.183-.179-.329-.316-.438-.137-.1091-.291-.1749-.465-.1974-.172-.0253-.35-.0006-.535.0742-.193.0779-.346.1917-.459.3415-.112.147-.18.3119-.203.4948-.024.1809 0 .3622.071.544l.302.7487c.092.2268.213.4058.363.5371.152.1305.324.2092.515.236.191.0268.393-.0028.606-.0888.141-.057.263-.1291.364-.2163.101-.0872.177-.1874.229-.3007.051-.1133.076-.2365.073-.3695l1.206-.3973c.055.3065.032.6025-.068.8881-.098.2827-.269.5414-.512.776-.242.2319-.552.4241-.929.5768ZM185.167 74.4633l-1.134.5416c-.06-.0914-.139-.1636-.237-.2167-.098-.055-.211-.0847-.338-.089-.125-.0071-.262.019-.409.0785-.197.0795-.346.1884-.447.3266-.103.1361-.126.2728-.071.41.045.1094.126.1842.244.2244.118.0402.292.0402.524 0l.897-.168c.482-.0885.874-.0755 1.174.039.301.1144.518.3367.651.6668.122.3003.14.5996.054.8978-.083.2974-.252.5716-.507.8226-.254.2482-.579.4527-.977.6134-.607.2451-1.141.314-1.603.2069-.461-.1099-.81-.3712-1.049-.7838l1.224-.5706c.112.1697.261.2739.445.3127.184.0368.389.0094.616-.0822.223-.09.384-.205.485-.3452.102-.1429.126-.2834.073-.4214-.049-.1146-.136-.1894-.261-.2244-.126-.037-.297-.0352-.512.0054l-.857.1625c-.483.0913-.879.0707-1.187-.0616-.306-.1332-.528-.3708-.666-.7129-.119-.2943-.142-.58-.069-.857.075-.2779.234-.5332.478-.7658.246-.2335.565-.4294.956-.5876.579-.2339 1.084-.2955 1.515-.1851.433.1096.762.364.988.7631Z" fill="#3D3D3D"/><path d="m296 4-92 49.9559V174l92-49.956V4Z" fill="#fff"/><path fill-rule="evenodd" clip-rule="evenodd" d="M204.769 54.4217V172.699l90.462-49.121V5.30102L204.769 54.4217Zm-.769-.4658V174l92-49.956V4l-92 49.9559Z" fill="silver"/><path d="M242.722 92.1602c.359.6223.547 1.2198.563 1.7925.018.5716-.109 1.0895-.381 1.5536-.271.4612-.658.8371-1.162 1.1277-.507.2928-1.029.4404-1.565.4428-.536.0024-1.047-.1471-1.533-.4485s-.908-.7623-1.266-1.3827c-.359-.6223-.548-1.2192-.566-1.7909-.018-.5716.109-1.088.38-1.5492.27-.4631.658-.841 1.166-1.1337.503-.2907 1.023-.4372 1.559-.4396.537-.0053 1.048.1428 1.534.4441.488.3004.912.7616 1.271 1.3839Zm-1.223.7062c-.233-.4031-.49-.7081-.77-.9152-.279-.2081-.568-.321-.868-.3385-.3-.0176-.596.0578-.887.2262-.292.1684-.505.3868-.64.6553s-.182.576-.143.9225c.04.3454.177.7196.41 1.1227.233.4031.488.7087.767.9168.281.2071.571.3194.871.3369.3.0176.595-.0578.887-.2262.292-.1684.505-.3868.64-.6553.134-.2685.181-.5755.14-.9209-.039-.3464-.175-.7212-.407-1.1243ZM246.847 91.1533l-1.419-2.4574 1.187-.6853 2.471 4.2797-1.14.6579-.449-.7774-.044.0258c.048.3065.004.6008-.133.8829-.135.281-.363.5143-.685.6998-.286.1651-.575.2454-.867.2409-.293-.0046-.569-.0912-.83-.2601-.26-.1699-.487-.4215-.681-.7548l-1.574-2.7249 1.187-.6853 1.451 2.5132c.148.2515.331.4121.55.4816.218.0695.44.0394.664-.0903.143-.0826.258-.1923.345-.3292.086-.1387.13-.2951.131-.4691.003-.1751-.052-.3577-.164-.548ZM249.754 86.198l.515.8916-2.577 1.488-.515-.8916 2.577-1.488Zm-2.584.1248 1.187-.6852 2.304 3.9899c.063.1096.129.1854.198.2274.068.0401.138.0551.211.0449.076-.0112.153-.0399.233-.086.056-.0322.109-.069.159-.1105.05-.0433.087-.0763.114-.0991l.697.7755c-.049.0529-.12.1225-.214.2089-.093.0882-.215.1796-.366.2742-.279.1763-.552.283-.818.3201-.264.036-.509-.0036-.734-.1189-.225-.1153-.417-.3137-.577-.5952l-2.394-4.146ZM253.839 91.686l-3.398-5.8846 1.17-.6756.415.7188.053-.0305c-.014-.1452-.007-.3057.023-.4814.031-.1786.103-.354.217-.5261.114-.175.291-.3317.531-.4701.312-.1801.647-.2646 1.005-.2535.357.0094.709.1319 1.056.3677.345.2339.659.596.943 1.0864.275.4774.431.925.466 1.3427.037.4149-.028.783-.194 1.1043-.166.3184-.411.5714-.736.7591-.23.133-.448.2081-.654.2252-.203.0161-.39-.004-.558-.0602-.17-.058-.316-.1309-.439-.2187l-.036.0209 1.323 2.2903-1.187.6853Zm-1.001-4.4155c.147.2544.311.456.491.6048.18.1487.367.2374.562.266.194.0268.386-.015.578-.1255.193-.1115.326-.2588.398-.4419.072-.185.087-.392.047-.6211-.04-.2321-.132-.4726-.276-.7215-.142-.2471-.302-.4446-.479-.5925-.177-.1479-.363-.2362-.558-.2649-.195-.0286-.39.0133-.585.1259-.193.1116-.327.257-.402.4364-.073.1783-.09.3816-.053.61.038.2284.13.4698.277.7243ZM259.483 83.8576l-1.419-2.4575 1.187-.6852 2.471 4.2796-1.139.658-.449-.7774-.045.0257c.048.3066.004.6009-.133.883-.135.281-.363.5142-.684.6998-.286.1651-.575.2454-.868.2409-.292-.0046-.569-.0913-.83-.2601-.259-.1699-.486-.4215-.681-.7548l-1.573-2.7249 1.187-.6853 1.451 2.5132c.148.2515.331.4121.549.4816.219.0695.44.0394.665-.0904.143-.0825.258-.1923.345-.3291.086-.1388.129-.2951.13-.4691.003-.1751-.051-.3577-.164-.548ZM262.391 78.9023l.515.8916-2.578 1.488-.514-.8916 2.577-1.488Zm-2.584.1248 1.187-.6853 2.303 3.9899c.063.1096.129.1854.198.2274.068.0402.139.0551.212.045.075-.0113.153-.0399.233-.0861.055-.0321.108-.0689.159-.1104.049-.0433.087-.0764.114-.0991l.696.7755c-.049.0529-.12.1225-.214.2088-.092.0882-.214.1796-.365.2742-.28.1763-.553.283-.818.3201-.264.0361-.509-.0036-.734-.1188-.225-.1153-.418-.3137-.578-.5952l-2.393-4.146ZM267.289 77.7012l-1.048.6942c-.072-.0821-.16-.1426-.264-.1816-.105-.0407-.221-.0544-.347-.0411-.125.0104-.257.0553-.394.1346-.184.1062-.317.2348-.398.3857-.082.1491-.086.2877-.012.4159.059.1021.149.1649.272.1883.122.0234.295-.0009.519-.0729l.864-.2912c.466-.1548.855-.1964 1.169-.1249.314.0715.56.2614.738.5697.161.2805.221.5744.178.8816-.041.3061-.171.6012-.388.8852-.217.2811-.511.5289-.882.7434-.567.3271-1.086.4697-1.559.428-.471-.0448-.854-.2548-1.147-.6302l1.132-.7354c.135.1524.296.235.484.2477.187.0109.387-.0448.599-.1671.208-.1201.352-.2565.432-.4093.081-.1558.085-.2983.013-.4275-.064-.1067-.16-.1686-.289-.1859-.13-.0191-.299.0064-.506.0765l-.826.2802c-.466.1577-.861.1925-1.184.1043-.322-.0893-.575-.2937-.759-.6132-.159-.2749-.222-.5546-.188-.8392.036-.2856.158-.5606.367-.8249.211-.2654.5-.5037.865-.715.541-.312 1.032-.4434 1.474-.394.444.0483.806.2543 1.085.6181Z" fill="#3D3D3D"/><path fill-rule="evenodd" clip-rule="evenodd" d="M.22642 245.028c-.3019-.292-.3019-.764 0-1.056l4.91966-4.753c.30189-.292.79136-.292 1.09326 0 .30189.291.30189.764 0 1.056l-3.59998 3.478h.45836v1.494h-.45836l3.59998 3.478c.30189.292.30189.765 0 1.056-.3019.292-.79137.292-1.09326 0l-4.91966-4.753Zm321.62758-5.809 4.92 4.753c.301.292.301.764 0 1.056l-4.92 4.753c-.302.292-.791.292-1.093 0-.302-.291-.302-.764 0-1.056l3.6-3.478h-.459v-1.494h.459l-3.6-3.478c-.302-.292-.302-.765 0-1.056.302-.292.791-.292 1.093 0Zm-309.4576 6.028H7.74706v-1.494h4.64934v1.494Zm9.2987 0h-4.6494v-1.494h4.6494v1.494Zm9.2987 0h-4.6494v-1.494h4.6494v1.494Zm9.2987 0h-4.6494v-1.494h4.6494v1.494Zm9.2986 0h-4.6493v-1.494h4.6493v1.494Zm9.2987 0h-4.6493v-1.494h4.6493v1.494Zm9.2987 0h-4.6493v-1.494h4.6493v1.494Zm9.2987 0h-4.6494v-1.494h4.6494v1.494Zm9.2986 0h-4.6493v-1.494h4.6493v1.494Zm9.2987 0h-4.6493v-1.494h4.6493v1.494Zm9.2985 0h-4.649v-1.494h4.649v1.494Zm9.299 0h-4.649v-1.494h4.649v1.494Zm9.299 0h-4.65v-1.494h4.65v1.494Zm9.298 0h-4.649v-1.494h4.649v1.494Zm9.299 0h-4.649v-1.494h4.649v1.494Zm9.299 0h-4.65v-1.494h4.65v1.494Zm9.298 0h-4.649v-1.494h4.649v1.494Zm9.299 0h-4.649v-1.494h4.649v1.494Zm9.299 0h-4.65v-1.494h4.65v1.494Zm9.298 0h-4.649v-1.494h4.649v1.494Zm9.299 0h-4.649v-1.494h4.649v1.494Zm9.299 0h-4.65v-1.494h4.65v1.494Zm9.298 0h-4.649v-1.494h4.649v1.494Zm9.299 0h-4.649v-1.494h4.649v1.494Zm9.299 0h-4.65v-1.494h4.65v1.494Zm9.298 0h-4.649v-1.494h4.649v1.494Zm9.299 0h-4.649v-1.494h4.649v1.494Zm9.299 0h-4.65v-1.494h4.65v1.494Zm9.298 0h-4.649v-1.494h4.649v1.494Zm9.299 0h-4.649v-1.494h4.649v1.494Zm9.299 0h-4.65v-1.494h4.65v1.494Zm9.298 0h-4.649v-1.494h4.649v1.494Zm9.299 0h-4.649v-1.494h4.649v1.494Zm9.299 0h-4.65v-1.494h4.65v1.494Z" fill="silver"/><path d="M62 234h203v18H62v-18Z" fill="#fff"/><path d="M71 247.869v-7.65h4.8102v.939h-3.6644v2.383h3.3402v.918h-3.3402v2.47h3.6644v.94H71ZM76.6133 247.869l1.9024-2.711-1.9024-2.71h1.2214l1.4377 2.077 1.4269-2.077h1.2323l-1.9025 2.71 1.9025 2.711h-1.2323l-1.4269-2.077-1.4377 2.077h-1.2214ZM85.108 248c-.526 0-.9944-.117-1.4052-.35-.4036-.24-.7206-.572-.9512-.994-.2306-.423-.3459-.915-.3459-1.476 0-.568.1117-1.067.3351-1.497.2306-.43.5476-.765.9512-1.005.4108-.241.8864-.361 1.4268-.361.5261 0 .9837.12 1.3729.361.3891.233.6918.546.908.939.2161.394.3242.827.3242 1.301 0 .073-.0036.153-.0108.24 0 .081-.0036.172-.0108.274h-4.1725c.0361.524.2054.925.5081 1.202.3099.269.6666.404 1.0701.404.3243 0 .5946-.073.8108-.218.2233-.153.3891-.357.4972-.612h1.1458c-.1441.51-.4324.936-.8648 1.278-.4251.343-.9548.514-1.589.514Zm0-4.732c-.3819 0-.7206.116-1.0161.349-.2954.226-.4756.569-.5404 1.028h3.0266c-.0216-.423-.1693-.758-.4432-1.006-.2738-.247-.6161-.371-1.0269-.371ZM91.4531 248c-.5261 0-.9981-.12-1.4161-.361-.4107-.24-.735-.572-.9728-.994-.2306-.43-.3459-.926-.3459-1.487s.1153-1.052.3459-1.475c.2378-.43.5621-.765.9728-1.005.418-.241.89-.361 1.4161-.361.6629 0 1.2178.175 1.6646.525.454.349.7459.823.8756 1.42h-1.1999c-.072-.298-.2306-.532-.4756-.699-.245-.168-.5332-.252-.8647-.252-.2811 0-.5405.073-.7783.219-.2378.138-.4288.346-.5729.623-.1442.27-.2162.605-.2162 1.005 0 .401.072.74.2162 1.017.1441.269.3351.477.5729.623.2378.146.4972.218.7783.218.3315 0 .6197-.083.8647-.251.245-.168.4036-.404.4756-.71h1.1999c-.1225.583-.4108 1.052-.8648 1.409s-1.0125.536-1.6754.536ZM97.3788 247.869c-.5261 0-.944-.128-1.2539-.383-.3099-.262-.4648-.725-.4648-1.388v-2.677h-.9188v-.973h.9188l.1405-1.377h1.0053v1.377h1.5133v.973h-1.5133v2.677c0 .299.0612.507.1838.623.1297.11.3495.164.6593.164h.6162v.984h-.8864ZM101.479 248c-.649 0-1.16-.204-1.5351-.612-.3676-.408-.5513-1.016-.5513-1.825v-3.115h1.1454v2.995c0 1.049.426 1.573 1.276 1.573.425 0 .775-.153 1.048-.459.274-.306.411-.743.411-1.311v-2.798h1.146v5.421h-1.016l-.087-.951c-.165.335-.41.601-.735.798-.317.189-.684.284-1.102.284ZM108.125 247.869c-.526 0-.944-.128-1.254-.383-.31-.262-.465-.725-.465-1.388v-2.677h-.919v-.973h.919l.141-1.377h1.005v1.377h1.513v.973h-1.513v2.677c0 .299.061.507.184.623.13.11.349.164.659.164h.616v.984h-.886ZM110.895 241.421c-.216 0-.396-.066-.54-.197-.137-.138-.205-.31-.205-.514 0-.204.068-.371.205-.502.144-.139.324-.208.54-.208.217 0 .393.069.53.208.144.131.216.298.216.502 0 .204-.072.376-.216.514-.137.131-.313.197-.53.197Zm-.572 6.448v-5.421h1.145v5.421h-1.145ZM115.489 248c-.512 0-.973-.117-1.384-.35-.403-.24-.724-.572-.962-.994-.238-.43-.357-.929-.357-1.498 0-.568.119-1.063.357-1.486.245-.43.573-.761.984-.994.41-.241.868-.361 1.373-.361.511 0 .969.12 1.372.361.411.233.735.564.973.994.245.423.368.918.368 1.486 0 .569-.123 1.068-.368 1.498-.238.422-.562.754-.973.994-.41.233-.872.35-1.383.35Zm0-.995c.274 0 .526-.069.756-.207.238-.139.429-.343.573-.612.144-.277.216-.62.216-1.028 0-.408-.072-.746-.216-1.016-.137-.277-.324-.484-.562-.623-.23-.138-.483-.208-.756-.208-.274 0-.53.07-.768.208-.231.139-.418.346-.562.623-.144.27-.216.608-.216 1.016 0 .408.072.751.216 1.028.144.269.331.473.562.612.231.138.483.207.757.207ZM119.452 247.869v-5.421h1.016l.086.951c.166-.335.408-.598.725-.787.324-.197.695-.295 1.113-.295.649 0 1.157.204 1.524.612.375.408.562 1.016.562 1.825v3.115h-1.135v-2.995c0-1.049-.425-1.573-1.275-1.573-.425 0-.779.153-1.06.459-.273.306-.41.743-.41 1.311v2.798h-1.146ZM130.8 247.869c-.526 0-.944-.128-1.254-.383-.31-.262-.465-.725-.465-1.388v-2.677h-.919v-.973h.919l.14-1.377h1.006v1.377h1.513v.973h-1.513v2.677c0 .299.061.507.184.623.129.11.349.164.659.164h.616v.984h-.886ZM135.292 248c-.526 0-.994-.117-1.405-.35-.404-.24-.721-.572-.951-.994-.231-.423-.346-.915-.346-1.476 0-.568.111-1.067.335-1.497.23-.43.548-.765.951-1.005.411-.241.886-.361 1.427-.361.526 0 .984.12 1.373.361.389.233.692.546.908.939.216.394.324.827.324 1.301 0 .073-.004.153-.011.24 0 .081-.003.172-.011.274h-4.172c.036.524.205.925.508 1.202.31.269.667.404 1.07.404.324 0 .595-.073.811-.218.223-.153.389-.357.497-.612h1.146c-.144.51-.433.936-.865 1.278-.425.343-.955.514-1.589.514Zm0-4.732c-.382 0-.721.116-1.016.349-.295.226-.476.569-.54 1.028h3.026c-.021-.423-.169-.758-.443-1.006-.274-.247-.616-.371-1.027-.371ZM140.913 248c-.454 0-.829-.077-1.124-.23-.296-.153-.516-.353-.66-.601-.144-.255-.216-.531-.216-.83 0-.525.202-.94.605-1.246.404-.306.981-.459 1.73-.459h1.405v-.098c0-.423-.115-.74-.346-.951-.223-.212-.515-.317-.875-.317-.317 0-.595.08-.833.24-.23.153-.371.383-.421.689h-1.146c.036-.394.166-.729.389-1.006.231-.284.519-.499.865-.645.353-.153.739-.229 1.157-.229.749 0 1.329.2 1.74.601.411.393.616.933.616 1.618v3.333h-.994l-.098-.929c-.151.299-.371.55-.659.754-.288.204-.667.306-1.135.306Zm.227-.94c.31 0 .569-.073.778-.218.216-.153.382-.354.497-.602.123-.247.199-.521.227-.819h-1.275c-.454 0-.778.08-.973.24-.187.16-.281.361-.281.601 0 .248.09.445.27.59.188.139.44.208.757.208ZM145.135 247.869v-5.421h1.016l.097.765c.173-.277.4-.495.681-.656.289-.16.62-.24.995-.24.85 0 1.441.339 1.773 1.016.194-.313.454-.561.778-.743.331-.182.688-.273 1.07-.273.67 0 1.196.204 1.578.612.382.408.573 1.016.573 1.825v3.115h-1.146v-2.995c0-1.049-.396-1.573-1.189-1.573-.403 0-.735.153-.994.459-.252.306-.378.743-.378 1.311v2.798h-1.146v-2.995c0-1.049-.4-1.573-1.2-1.573-.397 0-.724.153-.984.459-.252.306-.378.743-.378 1.311v2.798h-1.146ZM157.177 248c-.677 0-1.236-.168-1.675-.503-.44-.335-.692-.779-.757-1.333h1.156c.058.248.195.463.411.645.216.175.501.262.854.262.346 0 .598-.073.757-.219.158-.145.238-.313.238-.502 0-.277-.112-.463-.335-.558-.217-.102-.519-.193-.908-.273-.303-.065-.606-.153-.908-.262-.296-.109-.544-.262-.746-.459-.195-.204-.292-.477-.292-.82 0-.473.18-.867.54-1.18.361-.321.865-.481 1.514-.481.598 0 1.081.146 1.448.437.375.292.595.703.66 1.235h-1.103c-.036-.233-.144-.415-.324-.546-.173-.132-.407-.197-.703-.197-.288 0-.512.062-.67.186-.159.116-.238.269-.238.459 0 .189.108.339.324.448.224.109.516.207.876.295.36.08.692.175.994.284.31.102.559.255.746.459.188.204.281.503.281.896.008.496-.183.907-.573 1.235-.382.328-.904.492-1.567.492ZM165.54 247.869c-.526 0-.944-.128-1.254-.383-.31-.262-.465-.725-.465-1.388v-2.677h-.918v-.973h.918l.141-1.377h1.005v1.377h1.513v.973h-1.513v2.677c0 .299.061.507.184.623.13.11.349.164.659.164h.616v.984h-.886ZM170.033 248c-.527 0-.995-.117-1.406-.35-.403-.24-.72-.572-.951-.994-.231-.423-.346-.915-.346-1.476 0-.568.112-1.067.335-1.497.231-.43.548-.765.951-1.005.411-.241.887-.361 1.427-.361.526 0 .984.12 1.373.361.389.233.692.546.908.939.216.394.324.827.324 1.301 0 .073-.003.153-.01.24 0 .081-.004.172-.011.274h-4.173c.036.524.206.925.508 1.202.31.269.667.404 1.071.404.324 0 .594-.073.81-.218.224-.153.389-.357.497-.612h1.146c-.144.51-.432.936-.865 1.278-.425.343-.954.514-1.588.514Zm0-4.732c-.382 0-.721.116-1.017.349-.295.226-.475.569-.54 1.028h3.027c-.022-.423-.17-.758-.444-1.006-.273-.247-.616-.371-1.026-.371ZM173.837 247.869v-5.421h1.016l.087.951c.166-.335.407-.598.724-.787.324-.197.696-.295 1.113-.295.649 0 1.157.204 1.525.612.374.408.562 1.016.562 1.825v3.115h-1.135v-2.995c0-1.049-.425-1.573-1.276-1.573-.425 0-.778.153-1.059.459-.274.306-.411.743-.411 1.311v2.798h-1.146ZM182.656 248c-.519 0-.976-.124-1.373-.372-.396-.247-.706-.586-.929-1.016-.224-.43-.335-.918-.335-1.464 0-.547.111-1.031.335-1.454.223-.43.533-.765.929-1.005.404-.248.865-.372 1.384-.372.425 0 .796.084 1.113.251.325.168.577.405.757.711V240h1.146v7.869h-1.027l-.119-.842c-.173.255-.411.481-.713.678-.303.197-.692.295-1.168.295Zm.206-1.005c.49 0 .89-.172 1.199-.514.317-.343.476-.783.476-1.323 0-.546-.159-.987-.476-1.322-.309-.342-.709-.514-1.199-.514-.49 0-.894.172-1.211.514-.317.335-.476.776-.476 1.322 0 .357.072.674.216.951.145.277.343.496.595.656.259.153.551.23.876.23ZM192.099 247.869c-.526 0-.944-.128-1.254-.383-.309-.262-.464-.725-.464-1.388v-2.677h-.919v-.973h.919l.14-1.377h1.005v1.377h1.514v.973h-1.514v2.677c0 .299.062.507.184.623.13.11.35.164.66.164h.616v.984h-.887ZM196.592 248c-.512 0-.973-.117-1.384-.35-.403-.24-.724-.572-.962-.994-.238-.43-.357-.929-.357-1.498 0-.568.119-1.063.357-1.486.245-.43.573-.761.984-.994.411-.241.868-.361 1.373-.361.511 0 .969.12 1.372.361.411.233.736.564.973.994.245.423.368.918.368 1.486 0 .569-.123 1.068-.368 1.498-.237.422-.562.754-.973.994-.41.233-.872.35-1.383.35Zm0-.995c.274 0 .526-.069.757-.207.237-.139.428-.343.572-.612.145-.277.217-.62.217-1.028 0-.408-.072-.746-.217-1.016-.137-.277-.324-.484-.562-.623-.23-.138-.483-.208-.756-.208-.274 0-.53.07-.768.208-.23.139-.418.346-.562.623-.144.27-.216.608-.216 1.016 0 .408.072.751.216 1.028.144.269.332.473.562.612.231.138.483.207.757.207ZM203.549 247.869v-4.448h-.768v-.973h.768v-.787c0-.59.144-1.013.432-1.268.296-.262.71-.393 1.243-.393h.562v.984h-.389c-.252 0-.432.054-.54.164-.108.102-.162.276-.162.524v.776h1.232v.973h-1.232v4.448h-1.146ZM209.312 248c-.512 0-.973-.117-1.384-.35-.403-.24-.724-.572-.962-.994-.237-.43-.356-.929-.356-1.498 0-.568.119-1.063.356-1.486.245-.43.573-.761.984-.994.411-.241.868-.361 1.373-.361.511 0 .969.12 1.373.361.41.233.735.564.973.994.245.423.367.918.367 1.486 0 .569-.122 1.068-.367 1.498-.238.422-.563.754-.973.994-.411.233-.872.35-1.384.35Zm0-.995c.274 0 .526-.069.757-.207.238-.139.428-.343.573-.612.144-.277.216-.62.216-1.028 0-.408-.072-.746-.216-1.016-.137-.277-.325-.484-.562-.623-.231-.138-.483-.208-.757-.208s-.53.07-.768.208c-.23.139-.418.346-.562.623-.144.27-.216.608-.216 1.016 0 .408.072.751.216 1.028.144.269.332.473.562.612.231.138.483.207.757.207ZM215.815 248c-.526 0-.998-.12-1.416-.361-.41-.24-.735-.572-.973-.994-.23-.43-.345-.926-.345-1.487s.115-1.052.345-1.475c.238-.43.563-.765.973-1.005.418-.241.89-.361 1.416-.361.663 0 1.218.175 1.665.525.454.349.746.823.876 1.42h-1.2c-.072-.298-.231-.532-.476-.699-.245-.168-.533-.252-.865-.252-.281 0-.54.073-.778.219-.238.138-.429.346-.573.623-.144.27-.216.605-.216 1.005 0 .401.072.74.216 1.017.144.269.335.477.573.623.238.146.497.218.778.218.332 0 .62-.083.865-.251.245-.168.404-.404.476-.71h1.2c-.123.583-.411 1.052-.865 1.409s-1.013.536-1.676.536ZM221.576 248c-.648 0-1.16-.204-1.534-.612-.368-.408-.552-1.016-.552-1.825v-3.115h1.146v2.995c0 1.049.425 1.573 1.276 1.573.425 0 .774-.153 1.048-.459.274-.306.411-.743.411-1.311v-2.798h1.146v5.421h-1.016l-.087-.951c-.166.335-.411.601-.735.798-.317.189-.685.284-1.103.284ZM228.115 248c-.678 0-1.236-.168-1.676-.503-.44-.335-.692-.779-.757-1.333h1.157c.058.248.195.463.411.645.216.175.501.262.854.262.346 0 .598-.073.756-.219.159-.145.238-.313.238-.502 0-.277-.111-.463-.335-.558-.216-.102-.519-.193-.908-.273-.303-.065-.605-.153-.908-.262-.295-.109-.544-.262-.746-.459-.194-.204-.292-.477-.292-.82 0-.473.181-.867.541-1.18.36-.321.865-.481 1.513-.481.598 0 1.081.146 1.449.437.374.292.594.703.659 1.235h-1.103c-.036-.233-.144-.415-.324-.546-.173-.132-.407-.197-.702-.197-.289 0-.512.062-.671.186-.158.116-.237.269-.237.459 0 .189.108.339.324.448.223.109.515.207.875.295.361.08.692.175.995.284.31.102.558.255.746.459.187.204.281.503.281.896.007.496-.184.907-.573 1.235-.382.328-.904.492-1.567.492ZM234.229 247.869V240h1.146v3.322c.18-.313.429-.557.746-.732.324-.182.681-.273 1.07-.273.641 0 1.146.204 1.513.612.368.408.552 1.016.552 1.825v3.115h-1.135v-2.995c0-1.049-.415-1.573-1.243-1.573-.433 0-.793.153-1.081.459-.281.306-.422.743-.422 1.311v2.798h-1.146ZM243.113 248c-.526 0-.995-.117-1.405-.35-.404-.24-.721-.572-.952-.994-.23-.423-.345-.915-.345-1.476 0-.568.111-1.067.335-1.497.23-.43.547-.765.951-1.005.411-.241.886-.361 1.427-.361.526 0 .983.12 1.373.361.389.233.691.546.908.939.216.394.324.827.324 1.301 0 .073-.004.153-.011.24 0 .081-.004.172-.011.274h-4.172c.036.524.205.925.508 1.202.31.269.666.404 1.07.404.324 0 .594-.073.811-.218.223-.153.389-.357.497-.612h1.146c-.144.51-.433.936-.865 1.278-.425.343-.955.514-1.589.514Zm0-4.732c-.382 0-.721.116-1.016.349-.296.226-.476.569-.541 1.028h3.027c-.022-.423-.169-.758-.443-1.006-.274-.247-.616-.371-1.027-.371ZM246.918 247.869v-5.421h1.027l.097 1.027c.187-.357.447-.637.778-.841.339-.211.746-.317 1.222-.317v1.213h-.314c-.317 0-.602.055-.854.164-.245.102-.443.28-.594.536-.144.247-.216.593-.216 1.038v2.601h-1.146ZM253.384 248c-.526 0-.994-.117-1.405-.35-.404-.24-.721-.572-.951-.994-.231-.423-.346-.915-.346-1.476 0-.568.111-1.067.335-1.497.23-.43.547-.765.951-1.005.411-.241.886-.361 1.427-.361.526 0 .984.12 1.373.361.389.233.692.546.908.939.216.394.324.827.324 1.301 0 .073-.004.153-.011.24 0 .081-.003.172-.011.274h-4.172c.036.524.205.925.508 1.202.31.269.667.404 1.07.404.324 0 .595-.073.811-.218.223-.153.389-.357.497-.612h1.146c-.144.51-.433.936-.865 1.278-.425.343-.955.514-1.589.514Zm0-4.732c-.382 0-.721.116-1.016.349-.295.226-.476.569-.54 1.028h3.026c-.021-.423-.169-.758-.443-1.006-.274-.247-.616-.371-1.027-.371Z" fill="#3D3D3D"/></svg>