<svg viewBox="0 0 1025 415" fill="none" xmlns="http://www.w3.org/2000/svg"><path d="M1024.35 405.354c.2-.196.2-.512 0-.708l-3.18-3.182a.504.504 0 0 0-.71 0 .511.511 0 0 0 0 .708l2.83 2.828-2.83 2.828a.511.511 0 0 0 0 .708c.2.195.52.195.71 0l3.18-3.182Zm-270.704-.708a.502.502 0 0 0 0 .708l3.182 3.182a.502.502 0 0 0 .708-.708L754.707 405l2.829-2.828a.502.502 0 0 0-.708-.708l-3.182 3.182Zm.354.854h2.935v-1H754v1Zm8.804 0h5.87v-1h-5.87v1Zm11.739 0h5.87v-1h-5.87v1Zm11.74 0h5.869v-1h-5.869v1Zm11.739 0h5.869v-1h-5.869v1Zm11.739 0h5.869v-1h-5.869v1Zm11.739 0h5.87v-1h-5.87v1Zm11.739 0h5.87v-1h-5.87v1Zm11.739 0h5.87v-1h-5.87v1Zm11.739 0h5.87v-1h-5.87v1Zm11.74 0h5.869v-1h-5.869v1Zm11.739 0h5.869v-1h-5.869v1Zm11.739 0h5.869v-1h-5.869v1Zm11.739 0h5.87v-1h-5.87v1Zm11.739 0h5.87v-1h-5.87v1Zm11.739 0h5.87v-1h-5.87v1Zm11.739 0h5.87v-1h-5.87v1Zm11.739 0h5.87v-1h-5.87v1Zm11.74 0h5.869v-1h-5.869v1Zm11.739 0h5.869v-1h-5.869v1Zm11.739 0h5.869v-1h-5.869v1Zm11.739 0h5.873v-1h-5.873v1Zm11.743 0h5.87v-1h-5.87v1Zm11.74 0h2.93v-1h-2.93v1Zm3.64.207a1 1 0 0 0 0-1.414l-6.37-6.364a.994.994 0 0 0-1.41 0 1 1 0 0 0 0 1.414l5.66 5.657-5.66 5.657a1 1 0 0 0 0 1.414.994.994 0 0 0 1.41 0l6.37-6.364Zm-271.417-1.414a.999.999 0 0 0 0 1.414l6.364 6.364a.999.999 0 1 0 1.414-1.414L755.414 405l5.657-5.657a.999.999 0 1 0-1.414-1.414l-6.364 6.364ZM754 406h2.935v-2H754v2Zm8.804 0h5.87v-2h-5.87v2Zm11.739 0h5.87v-2h-5.87v2Zm11.74 0h5.869v-2h-5.869v2Zm11.739 0h5.869v-2h-5.869v2Zm11.739 0h5.869v-2h-5.869v2Zm11.739 0h5.87v-2h-5.87v2Zm11.739 0h5.87v-2h-5.87v2Zm11.739 0h5.87v-2h-5.87v2Zm11.739 0h5.87v-2h-5.87v2Zm11.74 0h5.869v-2h-5.869v2Zm11.739 0h5.869v-2h-5.869v2Zm11.739 0h5.869v-2h-5.869v2Zm11.739 0h5.87v-2h-5.87v2Zm11.739 0h5.87v-2h-5.87v2Zm11.739 0h5.87v-2h-5.87v2Zm11.739 0h5.87v-2h-5.87v2Zm11.739 0h5.87v-2h-5.87v2Zm11.74 0h5.869v-2h-5.869v2Zm11.739 0h5.869v-2h-5.869v2Zm11.739 0h5.869v-2h-5.869v2Zm11.739 0h5.873v-2h-5.873v2Zm11.743 0h5.87v-2h-5.87v2Zm11.74 0h2.93v-2h-2.93v2Z" fill="silver"/><path d="M72.601 249.168v-5.177h2.043c.391 0 .725.07 1.001.21.278.138.49.334.635.589.146.252.22.55.22.892 0 .344-.075.64-.223.887a1.448 1.448 0 0 1-.645.567c-.28.131-.618.197-1.016.197H73.25v-.88h1.19c.21 0 .383-.029.521-.086a.616.616 0 0 0 .309-.258.813.813 0 0 0 .103-.427.848.848 0 0 0-.103-.435.637.637 0 0 0-.312-.268 1.282 1.282 0 0 0-.523-.093h-.738v4.282h-1.095Zm2.796-2.356 1.287 2.356h-1.208l-1.26-2.356h1.181Zm3.485 2.432c-.4 0-.744-.081-1.032-.243a1.66 1.66 0 0 1-.662-.692c-.155-.3-.233-.655-.233-1.065 0-.399.078-.75.233-1.051.155-.302.373-.537.655-.706.283-.168.615-.252.996-.252.256 0 .494.041.715.123a1.596 1.596 0 0 1 .971.984c.093.246.139.534.139.864v.296h-3.279v-.667h2.265a.823.823 0 0 0-.1-.412.727.727 0 0 0-.281-.281.802.802 0 0 0-.413-.104.827.827 0 0 0-.434.114.8.8 0 0 0-.294.301.851.851 0 0 0-.108.417v.635c0 .192.035.358.106.498a.77.77 0 0 0 .306.323.918.918 0 0 0 .468.114c.12 0 .229-.017.328-.05a.662.662 0 0 0 .417-.4l.996.066c-.05.239-.154.448-.31.627a1.555 1.555 0 0 1-.602.414 2.264 2.264 0 0 1-.847.147Zm5.637-2.852-.986.061a.508.508 0 0 0-.108-.227.576.576 0 0 0-.22-.165.75.75 0 0 0-.321-.063.787.787 0 0 0-.422.106c-.115.069-.172.162-.172.278 0 .093.037.171.11.235.075.064.202.116.383.155l.702.141c.378.078.66.202.845.374a.881.881 0 0 1 .278.678c0 .254-.075.478-.225.67a1.463 1.463 0 0 1-.612.45 2.333 2.333 0 0 1-.892.159c-.514 0-.924-.107-1.229-.321a1.252 1.252 0 0 1-.533-.88l1.059-.055c.032.156.11.276.233.359.122.08.28.121.472.121.189 0 .34-.036.455-.109.117-.074.176-.169.177-.285a.299.299 0 0 0-.124-.241.882.882 0 0 0-.374-.146l-.672-.134c-.38-.076-.662-.208-.847-.395a.977.977 0 0 1-.276-.715c0-.249.068-.464.203-.645.136-.18.327-.319.573-.417.248-.098.538-.146.87-.146.49 0 .876.103 1.158.31.283.208.448.49.495.847Zm2.443 2.852c-.392 0-.732-.083-1.019-.25a1.716 1.716 0 0 1-.66-.703 2.263 2.263 0 0 1-.232-1.049c0-.401.078-.752.233-1.052.155-.302.375-.536.66-.703.286-.168.626-.252 1.018-.252.393 0 .732.084 1.016.252.287.167.508.401.663.703.155.3.232.651.232 1.052 0 .398-.077.747-.232 1.049a1.71 1.71 0 0 1-.663.703c-.284.167-.623.25-1.016.25Zm.005-.834a.67.67 0 0 0 .448-.152.942.942 0 0 0 .27-.42 1.81 1.81 0 0 0 .094-.604 1.81 1.81 0 0 0-.094-.604.942.942 0 0 0-.27-.42.666.666 0 0 0-.448-.154.69.69 0 0 0-.455.154.95.95 0 0 0-.275.42c-.061.177-.091.378-.091.604 0 .226.03.427.09.604a.95.95 0 0 0 .276.42.694.694 0 0 0 .455.152Zm5.019-.895v-2.23h1.076v3.883h-1.034v-.705h-.04c-.088.227-.233.41-.437.548-.203.139-.45.208-.741.208-.26 0-.488-.059-.685-.177a1.22 1.22 0 0 1-.463-.503 1.744 1.744 0 0 1-.167-.781v-2.473h1.077v2.28c.002.23.063.411.185.544.121.133.284.2.488.2.13 0 .25-.03.364-.089a.69.69 0 0 0 .273-.268.82.82 0 0 0 .103-.437Zm1.86 1.653v-3.883h1.044v.678h.04c.07-.241.19-.423.357-.546a.936.936 0 0 1 .576-.188 1.575 1.575 0 0 1 .339.038v.956a1.339 1.339 0 0 0-.21-.04 1.853 1.853 0 0 0-.245-.018c-.159 0-.3.034-.425.104a.756.756 0 0 0-.293.283.816.816 0 0 0-.106.419v2.197h-1.077Zm4.408.076c-.398 0-.74-.084-1.026-.253a1.706 1.706 0 0 1-.658-.708 2.283 2.283 0 0 1-.227-1.041c0-.398.076-.747.23-1.047a1.71 1.71 0 0 1 .66-.705c.284-.17.623-.255 1.016-.255.339 0 .635.061.89.184.254.123.456.296.604.518.148.223.23.484.245.784h-1.016a.785.785 0 0 0-.228-.468.653.653 0 0 0-.477-.179.722.722 0 0 0-.438.136.872.872 0 0 0-.288.392c-.069.172-.104.38-.104.625 0 .247.034.458.102.632a.88.88 0 0 0 .29.397c.125.091.27.136.438.136a.705.705 0 0 0 .33-.076c.1-.05.182-.124.246-.22a.84.84 0 0 0 .129-.351h1.016a1.59 1.59 0 0 1-.242.784 1.461 1.461 0 0 1-.595.525c-.252.127-.551.19-.897.19Zm4.115 0c-.399 0-.743-.081-1.031-.243a1.658 1.658 0 0 1-.663-.692c-.155-.3-.232-.655-.232-1.065 0-.399.077-.75.232-1.051.155-.302.374-.537.655-.706.283-.168.615-.252.996-.252.256 0 .495.041.716.123a1.596 1.596 0 0 1 .97.984c.093.246.139.534.139.864v.296h-3.279v-.667h2.266a.827.827 0 0 0-.101-.412.73.73 0 0 0-.281-.281.8.8 0 0 0-.412-.104.826.826 0 0 0-.435.114.799.799 0 0 0-.293.301.852.852 0 0 0-.109.417v.635c0 .192.035.358.106.498.073.14.175.248.306.323a.92.92 0 0 0 .468.114c.119 0 .229-.017.328-.05a.692.692 0 0 0 .256-.152.672.672 0 0 0 .162-.248l.996.066a1.375 1.375 0 0 1-.311.627 1.556 1.556 0 0 1-.602.414 2.263 2.263 0 0 1-.847.147Zm5.638-2.852-.986.061a.505.505 0 0 0-.109-.227.578.578 0 0 0-.22-.165.747.747 0 0 0-.321-.063.787.787 0 0 0-.422.106c-.115.069-.172.162-.172.278 0 .093.037.171.111.235.074.064.202.116.382.155l.703.141c.377.078.659.202.844.374.186.172.278.398.278.678 0 .254-.075.478-.225.67a1.458 1.458 0 0 1-.612.45 2.328 2.328 0 0 1-.892.159c-.514 0-.924-.107-1.229-.321a1.251 1.251 0 0 1-.533-.88l1.059-.055c.032.156.11.276.233.359.123.08.28.121.473.121a.84.84 0 0 0 .455-.109c.116-.074.175-.169.177-.285a.3.3 0 0 0-.124-.241.885.885 0 0 0-.374-.146l-.673-.134c-.379-.076-.661-.208-.847-.395a.976.976 0 0 1-.275-.715c0-.249.067-.464.202-.645.136-.18.328-.319.574-.417a2.35 2.35 0 0 1 .869-.146c.491 0 .877.103 1.158.31.283.208.449.49.496.847Z" fill="#131414"/><path d="M44.5 306.534V153.469l118.63-63.633V242.9L44.5 306.534Z" fill="#fff" stroke="silver"/><path d="m79.59 210.188-3.194-7.903 3.119-1.26c.597-.241 1.149-.34 1.657-.297.51.04.954.209 1.332.508.38.296.675.704.886 1.227.212.524.281 1.022.208 1.491a2.374 2.374 0 0 1-.635 1.262c-.346.374-.822.683-1.43.928l-2.087.844-.543-1.343 1.818-.735c.319-.129.566-.279.742-.452a1.02 1.02 0 0 0 .311-.584c.035-.217 0-.456-.105-.716a1.402 1.402 0 0 0-.426-.6 1.047 1.047 0 0 0-.64-.217c-.25-.01-.535.05-.857.18l-1.127.455 2.642 6.537-1.671.675Zm2.815-5.321 3.417 2.803-1.845.746-3.374-2.82 1.802-.729ZM89.223 206.431c-.61.246-1.184.335-1.724.266a2.744 2.744 0 0 1-1.438-.649c-.422-.363-.759-.856-1.012-1.482-.246-.609-.344-1.192-.293-1.748.05-.556.239-1.05.564-1.481.329-.432.784-.765 1.365-1 .391-.158.78-.242 1.168-.252.39-.014.761.053 1.114.201.356.146.68.38.975.701.293.319.542.73.745 1.234l.183.452-5.005 2.022-.412-1.019 3.458-1.397a1.36 1.36 0 0 0-.409-.566 1.193 1.193 0 0 0-.601-.256c-.223-.032-.454 0-.693.096-.25.101-.448.248-.594.442-.145.19-.232.404-.262.64-.031.234 0 .469.091.704l.392.969c.118.293.275.524.469.694.197.169.419.271.666.306.248.034.51-.004.785-.115.182-.074.34-.167.47-.28a1.087 1.087 0 0 0 .39-.867l1.562-.514c.07.396.04.779-.089 1.149-.127.366-.348.7-.662 1.004-.313.3-.714.548-1.203.746ZM96.07 198.601l-1.467.701a.838.838 0 0 0-.306-.281.957.957 0 0 0-.438-.115 1.233 1.233 0 0 0-.529.102 1.297 1.297 0 0 0-.579.422c-.132.176-.162.353-.09.531a.493.493 0 0 0 .314.29c.153.052.379.052.678 0l1.16-.217c.624-.115 1.13-.098 1.52.05.389.148.67.436.842.863.157.388.18.775.07 1.161-.108.385-.327.74-.656 1.064-.329.321-.75.586-1.264.794-.785.317-1.476.406-2.074.267a2.06 2.06 0 0 1-1.357-1.013l1.583-.739c.145.22.338.355.576.405.238.047.504.012.797-.106.288-.117.497-.266.627-.447.132-.185.163-.367.094-.545a.489.489 0 0 0-.337-.29c-.163-.048-.383-.046-.661.006l-1.11.211c-.625.118-1.137.091-1.536-.08-.395-.172-.683-.48-.862-.922a1.724 1.724 0 0 1-.088-1.109c.097-.359.303-.69.618-.991.318-.302.73-.555 1.237-.76.75-.302 1.402-.382 1.96-.239.56.142.986.471 1.278.987ZM101.558 201.447c-.599.243-1.169.325-1.71.247a2.826 2.826 0 0 1-1.44-.666c-.423-.365-.757-.851-1.002-1.458-.248-.613-.346-1.195-.294-1.749a2.79 2.79 0 0 1 .574-1.48c.333-.434.8-.772 1.4-1.014.599-.242 1.168-.322 1.706-.241.541.078 1.022.3 1.445.664.422.363.756.85 1.004 1.462.245.608.342 1.189.292 1.745a2.82 2.82 0 0 1-.578 1.482c-.332.43-.797.766-1.397 1.008Zm-.507-1.276c.273-.11.469-.28.59-.508.119-.23.17-.5.154-.807a2.991 2.991 0 0 0-.23-.98 2.987 2.987 0 0 0-.515-.865 1.554 1.554 0 0 0-.672-.473 1.087 1.087 0 0 0-.778.04 1.127 1.127 0 0 0-.6.516 1.563 1.563 0 0 0-.162.811c.017.307.095.633.234.978.14.345.31.634.512.866.204.232.43.389.679.471.25.078.513.062.788-.049ZM108.16 195.71l-1.376-3.404 1.644-.664 2.395 5.927-1.578.638-.435-1.077-.062.025c.007.402-.103.771-.329 1.108-.224.335-.558.593-1.003.773a2.15 2.15 0 0 1-1.155.152 1.998 1.998 0 0 1-1.016-.482c-.302-.265-.547-.628-.737-1.09l-1.525-3.774 1.644-.664 1.407 3.481c.144.348.349.587.617.715.267.129.556.13.867.004.199-.08.366-.2.502-.359.135-.162.218-.355.251-.578.035-.223-.002-.467-.111-.731ZM112.019 197.086l-2.395-5.927 1.594-.644.417 1.034.062-.025c-.04-.411.029-.762.208-1.053.177-.293.432-.507.764-.641a2.636 2.636 0 0 1 .541-.151l.589 1.459a3.258 3.258 0 0 0-.731.191 1.423 1.423 0 0 0-.584.421 1.257 1.257 0 0 0-.273.613c-.033.229-.001.464.097.706l1.355 3.353-1.644.664ZM118.795 194.483c-.607.246-1.182.328-1.723.248a2.82 2.82 0 0 1-1.44-.676c-.417-.367-.747-.85-.99-1.449-.245-.607-.343-1.187-.294-1.74.051-.556.242-1.05.572-1.483.33-.436.795-.775 1.394-1.017.517-.209 1.008-.298 1.472-.267.465.031.879.17 1.242.419a2.5 2.5 0 0 1 .858 1.045l-1.551.626c-.164-.278-.375-.469-.636-.573-.259-.108-.539-.101-.84.02a1.193 1.193 0 0 0-.584.479c-.132.212-.198.47-.198.775.001.305.076.645.227 1.018.153.378.334.679.544.902.213.222.442.364.689.426.246.063.497.042.752-.061.187-.076.34-.182.458-.32.121-.138.201-.301.239-.487.04-.19.034-.395-.02-.616l1.552-.627c.157.464.194.912.112 1.346a2.41 2.41 0 0 1-.582 1.17c-.308.348-.726.629-1.253.842ZM125.076 191.946c-.609.246-1.184.334-1.724.265a2.737 2.737 0 0 1-1.438-.649c-.422-.362-.759-.856-1.011-1.481-.247-.61-.345-1.193-.294-1.749a2.838 2.838 0 0 1 .564-1.48c.329-.432.784-.765 1.365-1a3.36 3.36 0 0 1 1.169-.253c.389-.013.76.054 1.113.201.356.147.681.381.975.702.293.318.542.73.745 1.234l.183.451-5.005 2.023-.412-1.019 3.458-1.397a1.358 1.358 0 0 0-.409-.567 1.189 1.189 0 0 0-.601-.255 1.311 1.311 0 0 0-.693.096c-.25.101-.448.248-.594.442-.144.19-.232.403-.262.64-.031.234-.001.468.091.704l.392.968c.118.293.275.525.469.695.197.169.419.271.667.305.247.035.508-.003.784-.115.182-.073.339-.167.47-.279a1.09 1.09 0 0 0 .391-.867l1.561-.514c.07.396.041.779-.088 1.148a2.574 2.574 0 0 1-.663 1.004c-.313.3-.714.549-1.203.747ZM131.924 184.116l-1.468.7a.85.85 0 0 0-.306-.28.949.949 0 0 0-.437-.115 1.235 1.235 0 0 0-.53.101 1.306 1.306 0 0 0-.579.423c-.132.176-.162.353-.09.53a.492.492 0 0 0 .314.291c.153.052.379.052.678 0l1.16-.218c.624-.114 1.131-.097 1.52.051s.67.435.842.862c.157.389.181.776.07 1.162-.108.385-.327.739-.656 1.064-.328.321-.75.586-1.264.793-.785.318-1.476.407-2.074.268a2.06 2.06 0 0 1-1.357-1.014l1.583-.738a.9.9 0 0 0 .576.405c.238.047.504.012.797-.107.288-.116.497-.265.628-.446.131-.185.163-.367.093-.546a.489.489 0 0 0-.337-.29c-.163-.048-.383-.045-.661.007l-1.109.21c-.626.118-1.138.092-1.536-.079-.396-.173-.684-.48-.862-.922a1.72 1.72 0 0 1-.089-1.109c.097-.36.303-.69.619-.991.317-.302.73-.555 1.237-.76.748-.303 1.401-.382 1.959-.24.56.142.986.471 1.279.988Z" fill="#3D3D3D"/><path d="M154.5 306.533V153.469l118.628-63.633V242.9L154.5 306.533Z" fill="#fff" stroke="silver"/><path d="m194.368 208.51-1.791.723-.465-9.006 2.154-.87 5.917 6.803-1.79.723-4.443-5.297-.062.025.48 6.899Zm-1.367-3.062 4.229-1.709.527 1.305-4.229 1.709-.527-1.305ZM203.433 204.982c-.607.245-1.181.327-1.723.247a2.827 2.827 0 0 1-1.439-.675c-.418-.367-.748-.851-.99-1.45-.245-.607-.344-1.187-.294-1.74.05-.556.241-1.05.572-1.483.33-.436.794-.775 1.394-1.017.517-.209 1.007-.298 1.472-.267.464.031.878.171 1.242.419.363.248.649.596.857 1.045l-1.551.626a1.288 1.288 0 0 0-.636-.573c-.259-.108-.539-.101-.84.021a1.184 1.184 0 0 0-.583.478c-.133.212-.199.471-.198.776 0 .305.076.644.226 1.017.153.378.335.679.545.902.212.222.442.365.688.427.247.062.497.041.752-.062.188-.076.341-.182.459-.32.12-.138.2-.301.238-.487.04-.189.034-.395-.02-.616l1.552-.626c.157.463.195.911.113 1.346-.081.43-.275.82-.583 1.169-.308.348-.726.629-1.253.843ZM207.725 196.218l.498 1.235-3.569 1.442-.499-1.235 3.57-1.442Zm-3.333-.305 1.644-.664 2.232 5.526c.062.151.132.26.213.327.08.063.167.095.263.095a.856.856 0 0 0 .314-.068c.077-.031.152-.069.223-.113l.164-.106.753 1.118a5.01 5.01 0 0 1-.312.23 3.008 3.008 0 0 1-.517.285c-.39.175-.759.263-1.106.263a1.57 1.57 0 0 1-.919-.285c-.267-.188-.478-.477-.632-.866l-2.32-5.742ZM211.071 201.761l-2.395-5.927 1.644-.665 2.395 5.928-1.644.664Zm-1.878-7.025a.963.963 0 0 1-.727.011.848.848 0 0 1-.497-.486.83.83 0 0 1 .023-.687.953.953 0 0 1 .529-.501.94.94 0 0 1 .725-.006.847.847 0 0 1 .474 1.173.951.951 0 0 1-.527.496ZM217.043 192.453l.323 6.765-1.853.748-4.467-5.09 1.737-.702 2.944 3.744.062-.025-.486-4.737 1.74-.703ZM220.16 198.089l-2.395-5.928 1.644-.664 2.395 5.928-1.644.664Zm-1.878-7.025a.968.968 0 0 1-.727.011.848.848 0 0 1-.497-.486.83.83 0 0 1 .023-.687.95.95 0 0 1 .529-.501.94.94 0 0 1 .725-.006.847.847 0 0 1 .474 1.173.951.951 0 0 1-.527.496ZM223.759 189.74l.499 1.235-3.57 1.442-.499-1.235 3.57-1.442Zm-3.333-.306 1.644-.664 2.233 5.526a.798.798 0 0 0 .213.327.408.408 0 0 0 .263.096.872.872 0 0 0 .313-.068 1.62 1.62 0 0 0 .224-.113l.163-.107.753 1.119a5.319 5.319 0 0 1-.311.229 2.952 2.952 0 0 1-.518.286c-.39.175-.758.263-1.106.262a1.566 1.566 0 0 1-.918-.284c-.268-.188-.479-.477-.633-.866l-2.32-5.743ZM227.105 195.283l-2.395-5.928 1.644-.664 2.395 5.928-1.644.664Zm-1.878-7.025a.968.968 0 0 1-.727.011.851.851 0 0 1-.497-.486.836.836 0 0 1 .023-.688.96.96 0 0 1 .529-.501.944.944 0 0 1 .725-.005c.241.091.407.25.498.476a.842.842 0 0 1-.024.697.948.948 0 0 1-.527.496ZM232.694 193.159c-.609.247-1.184.335-1.724.266a2.737 2.737 0 0 1-1.438-.649c-.422-.362-.759-.856-1.011-1.481-.247-.61-.345-1.193-.294-1.749.051-.556.239-1.05.565-1.48.328-.432.783-.766 1.364-1.001a3.335 3.335 0 0 1 1.169-.252c.389-.014.76.053 1.113.201.356.147.681.381.975.702.293.318.542.729.745 1.234l.183.451-5.005 2.022-.412-1.018 3.458-1.397a1.358 1.358 0 0 0-.409-.567 1.189 1.189 0 0 0-.601-.255 1.311 1.311 0 0 0-.693.096c-.25.1-.448.248-.594.441a1.324 1.324 0 0 0-.262.64 1.4 1.4 0 0 0 .092.704l.391.969c.118.293.275.525.469.695.197.168.419.27.667.305.247.035.508-.004.784-.115.182-.074.339-.167.47-.28a1.087 1.087 0 0 0 .391-.867l1.561-.514c.07.397.041.78-.088 1.149-.128.366-.349.7-.663 1.004-.313.3-.714.549-1.203.746ZM239.541 185.329l-1.467.701a.84.84 0 0 0-.306-.28.95.95 0 0 0-.438-.115 1.219 1.219 0 0 0-.529.101 1.306 1.306 0 0 0-.579.423c-.132.176-.162.353-.09.53a.49.49 0 0 0 .314.29c.153.052.379.052.678 0l1.16-.217c.624-.115 1.131-.098 1.52.05.389.148.67.436.842.863.157.389.18.776.07 1.161-.108.385-.327.74-.656 1.065-.329.321-.75.585-1.264.793-.785.317-1.476.406-2.074.268a2.06 2.06 0 0 1-1.357-1.014l1.583-.738a.896.896 0 0 0 .576.404c.238.048.504.012.797-.106.288-.117.497-.265.627-.447.132-.185.164-.366.094-.545a.489.489 0 0 0-.337-.29c-.163-.048-.383-.046-.661.007l-1.11.21c-.625.118-1.137.092-1.536-.08-.395-.172-.683-.479-.861-.922a1.72 1.72 0 0 1-.089-1.109c.097-.359.303-.689.618-.99.318-.302.731-.556 1.238-.76.748-.303 1.401-.383 1.959-.24.56.142.986.471 1.278.987Z" fill="#3D3D3D"/><path d="M264.5 312.164V159.1l118.628-63.633V248.53L264.5 312.164Z" fill="#fff" stroke="silver"/><path d="M313.998 208.223c.464.805.707 1.578.728 2.318.023.74-.141 1.41-.493 2.01-.351.597-.852 1.083-1.503 1.459-.656.379-1.331.57-2.024.573a3.669 3.669 0 0 1-1.983-.58c-.629-.39-1.175-.986-1.639-1.789-.465-.805-.709-1.577-.732-2.317-.023-.739.141-1.407.492-2.004.349-.599.852-1.088 1.508-1.467.651-.376 1.323-.565 2.017-.568a3.637 3.637 0 0 1 1.985.574c.631.389 1.179.986 1.644 1.791Zm-1.583.913c-.301-.521-.633-.916-.996-1.184-.36-.269-.734-.415-1.122-.438a2.031 2.031 0 0 0-1.148.293c-.378.218-.653.5-.828.848-.174.347-.236.745-.185 1.193.053.447.23.931.531 1.452.301.522.631.917.992 1.186.363.268.738.414 1.126.436a2.03 2.03 0 0 0 1.148-.292c.377-.218.653-.501.827-.848.175-.347.236-.745.183-1.191-.051-.449-.227-.933-.528-1.455ZM319.334 206.92l-1.836-3.179 1.536-.887 3.196 5.537-1.474.851-.581-1.006-.057.034a1.89 1.89 0 0 1-.172 1.142c-.175.363-.47.665-.886.905a2.15 2.15 0 0 1-1.122.312 1.997 1.997 0 0 1-1.074-.337c-.335-.22-.629-.545-.881-.976l-2.035-3.525 1.535-.887 1.877 3.251c.191.326.428.534.711.623.282.09.569.051.86-.116.185-.107.334-.249.446-.426.111-.18.167-.382.169-.607.004-.227-.067-.463-.212-.709ZM323.095 200.51l.666 1.153-3.334 1.925-.666-1.153 3.334-1.925Zm-3.343.161 1.535-.886 2.981 5.161c.081.142.167.24.256.294a.407.407 0 0 0 .274.058.848.848 0 0 0 .301-.111c.072-.042.14-.089.206-.143.063-.056.112-.099.147-.128l.901 1.003a4.407 4.407 0 0 1-.277.27 2.9 2.9 0 0 1-.473.355c-.361.228-.714.366-1.058.414a1.558 1.558 0 0 1-.949-.154c-.291-.149-.54-.405-.747-.77l-3.097-5.363ZM328.379 207.609l-4.395-7.612 1.513-.874.537.929.069-.039a2.32 2.32 0 0 1 .03-.623 1.76 1.76 0 0 1 .279-.68c.148-.227.377-.43.687-.609a2.401 2.401 0 0 1 1.301-.327c.462.012.917.17 1.365.475.448.303.854.771 1.22 1.406.357.617.558 1.196.604 1.737.048.536-.036 1.012-.251 1.428a2.398 2.398 0 0 1-.952.982c-.298.172-.58.269-.846.291a1.823 1.823 0 0 1-.722-.077 2.2 2.2 0 0 1-.568-.283l-.046.027 1.71 2.963-1.535.886Zm-1.294-5.712c.19.329.401.59.634.782.233.193.475.307.728.345.25.034.499-.02.747-.163.25-.144.422-.335.516-.572.092-.239.112-.507.06-.803a2.85 2.85 0 0 0-.357-.933 2.822 2.822 0 0 0-.62-.767 1.453 1.453 0 0 0-.722-.342 1.146 1.146 0 0 0-.756.162c-.25.145-.424.333-.52.565a1.428 1.428 0 0 0-.068.789c.048.295.168.608.358.937ZM335.681 197.482l-1.836-3.179 1.536-.887 3.196 5.537-1.474.851-.58-1.006-.058.034a1.89 1.89 0 0 1-.172 1.142c-.175.363-.47.665-.886.905a2.15 2.15 0 0 1-1.122.312 2.002 2.002 0 0 1-1.074-.337c-.335-.22-.629-.545-.881-.976l-2.035-3.525 1.536-.887 1.877 3.251c.191.326.428.533.71.623.283.09.569.051.86-.117.185-.106.334-.248.446-.425.111-.18.168-.382.169-.607.004-.227-.067-.463-.212-.709ZM339.442 191.071l.666 1.154-3.334 1.925-.666-1.154 3.334-1.925Zm-3.343.162 1.536-.887 2.98 5.162c.082.142.167.24.256.294a.414.414 0 0 0 .274.058.84.84 0 0 0 .301-.111c.072-.042.141-.089.206-.143l.147-.128.901 1.003a4.63 4.63 0 0 1-.276.27c-.12.114-.278.233-.473.355-.362.228-.715.366-1.059.414a1.567 1.567 0 0 1-.949-.154c-.291-.149-.54-.405-.747-.77l-3.097-5.363ZM345.779 189.518l-1.355.898a.844.844 0 0 0-.343-.235.934.934 0 0 0-.448-.053 1.216 1.216 0 0 0-.51.174c-.238.137-.41.303-.515.499-.106.193-.112.372-.016.538a.492.492 0 0 0 .352.243c.159.031.382-.001.671-.094l1.119-.377c.602-.2 1.106-.254 1.512-.161.406.092.724.338.954.737.209.363.286.743.231 1.14-.054.396-.221.778-.502 1.145-.28.364-.661.685-1.141.962-.733.423-1.405.608-2.016.554a2.057 2.057 0 0 1-1.485-.816l1.464-.951a.9.9 0 0 0 .627.321c.242.014.5-.058.774-.217.269-.155.456-.331.56-.529.104-.202.11-.386.017-.553a.492.492 0 0 0-.375-.241c-.168-.024-.386.009-.654.099l-1.069.363c-.603.204-1.114.249-1.532.135-.416-.116-.743-.38-.982-.794a1.72 1.72 0 0 1-.242-1.085c.046-.37.204-.725.475-1.067.273-.344.646-.652 1.119-.925.699-.404 1.335-.574 1.907-.51a1.977 1.977 0 0 1 1.403.8Z" fill="#3D3D3D"/><path d="M661.328 39 507 121.783V320.71l154.328-82.783V39Z" fill="url(#a)"/><path d="M547.557 197.211c.944 1.636 1.437 3.206 1.48 4.712.047 1.502-.287 2.863-1.002 4.083-.712 1.212-1.73 2.2-3.053 2.964-1.333.77-2.704 1.158-4.113 1.164-1.409.006-2.752-.387-4.03-1.179-1.278-.792-2.387-2.004-3.329-3.634-.944-1.636-1.44-3.205-1.487-4.707-.047-1.503.286-2.86.998-4.072.71-1.217 1.732-2.211 3.065-2.98 1.323-.764 2.689-1.149 4.098-1.155 1.411-.014 2.755.375 4.033 1.167 1.282.789 2.395 2.002 3.34 3.637Zm-3.215 1.856c-.612-1.059-1.286-1.861-2.024-2.405-.732-.547-1.493-.844-2.281-.89-.788-.046-1.566.152-2.332.595-.767.442-1.327 1.016-1.681 1.722-.354.706-.48 1.514-.377 2.425.107.908.467 1.891 1.078 2.951.612 1.059 1.284 1.862 2.017 2.409.737.545 1.5.84 2.288.886.788.046 1.566-.152 2.332-.595.767-.442 1.327-1.016 1.681-1.722.354-.706.478-1.513.37-2.42-.102-.911-.46-1.896-1.071-2.956ZM558.398 194.565l-3.729-6.459 3.12-1.802 6.494 11.249-2.995 1.729-1.18-2.043-.117.068c.127.805.01 1.579-.349 2.32-.355.739-.955 1.352-1.8 1.84-.751.434-1.512.645-2.28.633-.769-.012-1.496-.24-2.182-.684-.681-.446-1.277-1.107-1.789-1.983l-4.136-7.163 3.12-1.801 3.814 6.606c.388.661.869 1.083 1.444 1.266.574.182 1.156.103 1.747-.238.376-.217.678-.505.907-.865.225-.365.339-.776.342-1.233.008-.46-.136-.94-.431-1.44ZM566.04 181.54l1.353 2.344-6.774 3.911-1.353-2.344 6.774-3.911Zm-6.792.328 3.12-1.801 6.055 10.487c.166.288.34.487.52.598a.843.843 0 0 0 .557.118c.198-.03.402-.105.611-.226a3.13 3.13 0 0 0 .419-.29c.129-.114.229-.201.299-.261l1.831 2.038c-.129.139-.316.322-.562.549a6.123 6.123 0 0 1-.961.721c-.735.463-1.452.744-2.151.841a3.184 3.184 0 0 1-1.928-.312c-.591-.303-1.098-.824-1.518-1.564l-6.292-10.898ZM579.429 189.102c-1.153.665-2.285.993-3.397.984a5.719 5.719 0 0 1-3.087-.951c-.944-.62-1.745-1.499-2.402-2.637-.665-1.152-1.026-2.291-1.084-3.417a5.719 5.719 0 0 1 .732-3.146c.541-.97 1.38-1.783 2.517-2.44.981-.566 1.944-.884 2.887-.953.943-.07 1.815.094 2.617.49.801.397 1.475 1.017 2.021 1.861l-2.944 1.699c-.407-.513-.888-.838-1.442-.974-.551-.144-1.113-.051-1.684.279a2.424 2.424 0 0 0-1.039 1.127c-.207.465-.266 1.004-.179 1.617.087.614.335 1.274.744 1.982.414.718.864 1.272 1.35 1.662.491.387.993.609 1.506.664.514.055 1.012-.057 1.495-.336.357-.206.634-.464.833-.774.203-.313.317-.662.342-1.047a2.812 2.812 0 0 0-.214-1.234l2.944-1.7c.447.888.65 1.78.608 2.677-.04.889-.321 1.727-.842 2.516-.521.789-1.282 1.473-2.282 2.051ZM591.305 182.245c-1.137.656-2.26.983-3.37.979a5.728 5.728 0 0 1-3.086-.933c-.954-.614-1.764-1.498-2.429-2.65-.671-1.162-1.032-2.307-1.085-3.435a5.666 5.666 0 0 1 .736-3.14c.548-.967 1.391-1.779 2.529-2.436 1.137-.657 2.259-.979 3.366-.968a5.647 5.647 0 0 1 3.094.929c.951.609 1.762 1.495 2.433 2.657.665 1.152 1.026 2.295 1.081 3.428a5.708 5.708 0 0 1-.743 3.144c-.546.96-1.388 1.768-2.526 2.425Zm-1.38-2.426c.517-.298.865-.694 1.042-1.187.175-.498.202-1.054.082-1.668-.115-.617-.362-1.253-.74-1.907-.377-.654-.804-1.186-1.281-1.594-.472-.411-.967-.666-1.486-.763-.518-.098-1.036.003-1.554.301-.522.302-.875.705-1.06 1.208-.18.501-.212 1.06-.096 1.677.12.614.369 1.248.747 1.902.377.654.802 1.187 1.274 1.598.476.409.976.66 1.5.755.525.087 1.049-.02 1.572-.322ZM598.517 177.788l-6.495-11.248 2.974-1.717 1.145 1.985.132-.077c-.146-.794-.056-1.539.271-2.236.327-.696.872-1.265 1.633-1.704.772-.446 1.54-.632 2.304-.559a3.144 3.144 0 0 1 1.98.927l.118-.068c-.143-.777-.025-1.532.352-2.264.38-.74.983-1.348 1.808-1.825 1.05-.606 2.095-.763 3.135-.472 1.042.283 1.916 1.035 2.621 2.256l4.367 7.565-3.112 1.797-4.013-6.95c-.36-.625-.797-.998-1.309-1.118-.513-.121-1.018-.038-1.516.25-.566.327-.904.762-1.013 1.307-.111.54.002 1.102.341 1.688l3.965 6.869-3.024 1.747-4.051-7.016c-.318-.552-.73-.9-1.237-1.043-.501-.147-1.008-.073-1.521.223a1.998 1.998 0 0 0-.785.805 2.093 2.093 0 0 0-.233 1.102c.016.4.145.808.384 1.223l3.898 6.752-3.119 1.801ZM622.353 164.319c-1.157.668-2.288 1.009-3.394 1.022a5.556 5.556 0 0 1-3.077-.899c-.951-.609-1.769-1.507-2.454-2.694-.668-1.157-1.03-2.302-1.085-3.435a5.756 5.756 0 0 1 .717-3.138c.538-.962 1.359-1.762 2.463-2.399a6.785 6.785 0 0 1 2.279-.837 5.312 5.312 0 0 1 2.298.089c.757.195 1.476.573 2.159 1.136.68.558 1.297 1.315 1.849 2.272l.495.857-9.499 5.484-1.116-1.934 6.562-3.788a2.763 2.763 0 0 0-.982-1.025 2.422 2.422 0 0 0-1.282-.343c-.458-.003-.913.126-1.367.389-.474.273-.83.625-1.07 1.056a2.667 2.667 0 0 0-.346 1.362c.003.48.131.943.383 1.39l1.061 1.839c.321.556.701.978 1.14 1.265.444.284.92.426 1.428.425.507 0 1.022-.151 1.545-.452a3.4 3.4 0 0 0 .867-.696 2.196 2.196 0 0 0 .541-1.855l2.995-1.475c.254.777.303 1.556.148 2.336-.154.772-.503 1.507-1.05 2.207-.544.692-1.28 1.306-2.208 1.841ZM633.915 146.63l-2.755 1.824a1.703 1.703 0 0 0-.695-.477 1.934 1.934 0 0 0-.912-.108c-.329.027-.675.145-1.036.354-.483.279-.832.617-1.045 1.014-.217.391-.228.756-.033 1.093.155.268.393.433.715.495.322.061.777-.003 1.364-.192l2.273-.765c1.223-.407 2.247-.517 3.071-.329.825.188 1.471.687 1.939 1.498.426.737.582 1.509.469 2.317-.108.804-.448 1.58-1.02 2.327-.569.738-1.342 1.39-2.319 1.953-1.489.86-2.854 1.235-4.096 1.125-1.239-.117-2.245-.669-3.016-1.656l2.975-1.933c.355.401.78.618 1.274.651.492.029 1.016-.118 1.573-.439.547-.316.925-.674 1.136-1.076.213-.409.225-.784.035-1.123a.992.992 0 0 0-.761-.489c-.341-.05-.784.017-1.329.201l-2.172.737c-1.225.414-2.263.505-3.113.274-.845-.235-1.51-.772-1.994-1.612-.418-.723-.582-1.458-.493-2.206.094-.751.416-1.473.965-2.168.554-.697 1.312-1.324 2.274-1.879 1.421-.82 2.712-1.166 3.874-1.036 1.167.127 2.118.669 2.852 1.625Z" fill="#F2F2F2"/><path fill="#fff" d="M795 392h189v23H795z"/><path d="M820.228 407.168c-.719 0-1.349-.126-1.89-.378a3.009 3.009 0 0 1-1.274-1.078c-.299-.467-.453-1.022-.462-1.666h1.568c.009.523.191.966.546 1.33.355.364.854.546 1.498.546.569 0 1.013-.135 1.33-.406.327-.28.49-.635.49-1.064 0-.345-.079-.625-.238-.84a1.69 1.69 0 0 0-.63-.532 5.57 5.57 0 0 0-.91-.378 73.453 73.453 0 0 1-1.092-.364c-.756-.252-1.325-.579-1.708-.98-.373-.401-.56-.929-.56-1.582-.009-.551.117-1.031.378-1.442a2.667 2.667 0 0 1 1.12-.952c.485-.233 1.05-.35 1.694-.35.635 0 1.19.117 1.666.35.485.233.863.56 1.134.98.271.411.411.891.42 1.442h-1.568c0-.252-.065-.49-.196-.714a1.542 1.542 0 0 0-.574-.574c-.252-.149-.56-.224-.924-.224-.467-.009-.854.107-1.162.35-.299.243-.448.579-.448 1.008 0 .383.112.677.336.882.224.205.532.378.924.518.392.131.84.285 1.344.462.485.159.919.35 1.302.574.383.224.686.518.91.882.233.364.35.826.35 1.386 0 .495-.126.957-.378 1.386-.252.42-.63.765-1.134 1.036-.504.261-1.125.392-1.862.392Zm4.94-.168v-6.944h1.33l.126 1.316a2.742 2.742 0 0 1 1.008-1.078c.439-.271.966-.406 1.582-.406v1.554h-.406c-.41 0-.779.07-1.106.21a1.604 1.604 0 0 0-.77.686c-.186.317-.28.761-.28 1.33V407h-1.484Zm5.346.084a.978.978 0 0 1-.7-.266.926.926 0 0 1-.266-.658c0-.261.089-.481.266-.658a.949.949 0 0 1 .7-.28c.28 0 .509.093.686.28a.891.891 0 0 1 .266.658.922.922 0 0 1-.266.658.93.93 0 0 1-.686.266Zm6.031-.084v-9.8h1.484v8.624h4.452V407h-5.936Zm10.424.168c-.681 0-1.288-.149-1.82-.448a3.309 3.309 0 0 1-1.232-1.274c-.298-.541-.448-1.171-.448-1.89 0-.728.145-1.367.434-1.918.299-.551.71-.98 1.232-1.288.532-.308 1.148-.462 1.848-.462.682 0 1.274.154 1.778.462.504.299.896.7 1.176 1.204.28.504.42 1.059.42 1.666 0 .093-.004.196-.014.308 0 .103-.004.219-.014.35h-5.404c.047.672.266 1.185.658 1.54.402.345.864.518 1.386.518.42 0 .77-.093 1.05-.28.29-.196.504-.457.644-.784h1.484a3.136 3.136 0 0 1-1.12 1.638c-.55.439-1.236.658-2.058.658Zm0-6.062a2.08 2.08 0 0 0-1.316.448c-.382.289-.616.728-.7 1.316h3.92c-.028-.541-.219-.971-.574-1.288-.354-.317-.798-.476-1.33-.476Zm7.28 6.062c-.588 0-1.073-.098-1.456-.294-.383-.196-.667-.453-.854-.77a2.105 2.105 0 0 1-.28-1.064c0-.672.261-1.204.784-1.596.523-.392 1.269-.588 2.24-.588h1.82v-.126c0-.541-.149-.947-.448-1.218-.289-.271-.667-.406-1.134-.406a1.9 1.9 0 0 0-1.078.308c-.299.196-.481.49-.546.882h-1.484c.047-.504.215-.933.504-1.288a2.84 2.84 0 0 1 1.12-.826 3.763 3.763 0 0 1 1.498-.294c.971 0 1.722.257 2.254.77.532.504.798 1.195.798 2.072V407h-1.288l-.126-1.19a2.636 2.636 0 0 1-.854.966c-.373.261-.863.392-1.47.392Zm.294-1.204c.401 0 .737-.093 1.008-.28a1.92 1.92 0 0 0 .644-.77c.159-.317.257-.667.294-1.05h-1.652c-.588 0-1.008.103-1.26.308a.966.966 0 0 0-.364.77.92.92 0 0 0 .35.756c.243.177.569.266.98.266Zm8.338 1.204c-.672 0-1.264-.159-1.778-.476a3.31 3.31 0 0 1-1.204-1.302c-.289-.551-.434-1.176-.434-1.876s.145-1.321.434-1.862c.29-.551.691-.98 1.204-1.288.523-.317 1.12-.476 1.792-.476.551 0 1.032.107 1.442.322.42.215.747.518.98.91v-4.2h1.484V407h-1.33l-.154-1.078a3.183 3.183 0 0 1-.924.868c-.392.252-.896.378-1.512.378Zm.266-1.288c.635 0 1.153-.219 1.554-.658.411-.439.616-1.003.616-1.694 0-.7-.205-1.265-.616-1.694-.401-.439-.919-.658-1.554-.658-.634 0-1.157.219-1.568.658-.41.429-.616.994-.616 1.694 0 .457.094.863.28 1.218.187.355.444.635.77.84.336.196.714.294 1.134.294Zm8.773 1.288c-.681 0-1.288-.149-1.82-.448a3.309 3.309 0 0 1-1.232-1.274c-.298-.541-.448-1.171-.448-1.89 0-.728.145-1.367.434-1.918.299-.551.71-.98 1.232-1.288.532-.308 1.148-.462 1.848-.462.682 0 1.274.154 1.778.462.504.299.896.7 1.176 1.204.28.504.42 1.059.42 1.666 0 .093-.004.196-.014.308 0 .103-.004.219-.014.35h-5.404c.047.672.266 1.185.658 1.54.402.345.864.518 1.386.518.42 0 .77-.093 1.05-.28.29-.196.504-.457.644-.784h1.484a3.136 3.136 0 0 1-1.12 1.638c-.55.439-1.236.658-2.058.658Zm0-6.062a2.08 2.08 0 0 0-1.316.448c-.382.289-.616.728-.7 1.316h3.92c-.028-.541-.219-.971-.574-1.288-.354-.317-.798-.476-1.33-.476Zm4.928 5.894v-6.944h1.33l.126 1.316a2.742 2.742 0 0 1 1.008-1.078c.439-.271.966-.406 1.582-.406v1.554h-.406c-.411 0-.779.07-1.106.21a1.604 1.604 0 0 0-.77.686c-.187.317-.28.761-.28 1.33V407h-1.484Zm8.091.168c-.878 0-1.601-.215-2.17-.644a2.41 2.41 0 0 1-.98-1.708h1.498c.074.317.252.593.532.826.28.224.648.336 1.106.336.448 0 .774-.093.98-.28.205-.187.308-.401.308-.644 0-.355-.145-.593-.434-.714-.28-.131-.672-.247-1.176-.35a9.27 9.27 0 0 1-1.176-.336 2.707 2.707 0 0 1-.966-.588c-.252-.261-.378-.611-.378-1.05 0-.607.233-1.111.7-1.512.466-.411 1.12-.616 1.96-.616.774 0 1.4.187 1.876.56.485.373.77.901.854 1.582h-1.428a1.021 1.021 0 0 0-.42-.7c-.224-.168-.528-.252-.91-.252-.374 0-.663.079-.868.238a.692.692 0 0 0-.308.588c0 .243.14.434.42.574.289.14.667.266 1.134.378.466.103.896.224 1.288.364.401.131.723.327.966.588.242.261.364.644.364 1.148.009.635-.238 1.162-.742 1.582-.495.42-1.172.63-2.03.63Zm8.269-.168v-5.698h-.994v-1.246h.994v-1.008c0-.756.187-1.297.56-1.624.383-.336.919-.504 1.61-.504h.728v1.26h-.504c-.327 0-.56.07-.7.21-.14.131-.21.355-.21.672v.994h1.596v1.246h-1.596V407h-1.484Zm7.464.168c-.662 0-1.26-.149-1.792-.448a3.41 3.41 0 0 1-1.246-1.274c-.308-.551-.462-1.19-.462-1.918s.154-1.363.462-1.904a3.345 3.345 0 0 1 1.274-1.274 3.485 3.485 0 0 1 1.778-.462c.663 0 1.256.154 1.778.462.532.299.952.723 1.26 1.274.318.541.476 1.176.476 1.904s-.158 1.367-.476 1.918a3.373 3.373 0 0 1-1.26 1.274 3.592 3.592 0 0 1-1.792.448Zm0-1.274a1.94 1.94 0 0 0 1.722-1.05c.187-.355.28-.793.28-1.316s-.093-.957-.28-1.302a1.834 1.834 0 0 0-.728-.798 1.885 1.885 0 0 0-.98-.266c-.354 0-.686.089-.994.266a1.96 1.96 0 0 0-.728.798c-.186.345-.28.779-.28 1.302s.094.961.28 1.316c.187.345.43.607.728.784.299.177.626.266.98.266Zm8.423 1.274c-.681 0-1.292-.154-1.834-.462a3.373 3.373 0 0 1-1.26-1.274c-.298-.551-.448-1.185-.448-1.904 0-.719.15-1.349.448-1.89a3.34 3.34 0 0 1 1.26-1.288c.542-.308 1.153-.462 1.834-.462.859 0 1.578.224 2.156.672.588.448.966 1.055 1.134 1.82h-1.554a1.457 1.457 0 0 0-.616-.896c-.317-.215-.69-.322-1.12-.322-.364 0-.7.093-1.008.28a1.924 1.924 0 0 0-.742.798c-.186.345-.28.775-.28 1.288s.094.947.28 1.302c.187.345.434.611.742.798.308.187.644.28 1.008.28.43 0 .803-.107 1.12-.322.318-.215.523-.518.616-.91h1.554a3.002 3.002 0 0 1-1.12 1.806c-.588.457-1.311.686-2.17.686Zm7.462 0c-.84 0-1.503-.261-1.988-.784-.476-.523-.714-1.302-.714-2.338v-3.99h1.484v3.836c0 1.344.55 2.016 1.652 2.016.55 0 1.003-.196 1.358-.588.354-.392.532-.952.532-1.68v-3.584h1.484V407h-1.316l-.112-1.218c-.215.429-.532.77-.952 1.022-.411.243-.887.364-1.428.364Zm8.467 0c-.877 0-1.6-.215-2.17-.644a2.413 2.413 0 0 1-.98-1.708h1.498c.075.317.252.593.532.826.28.224.649.336 1.106.336.448 0 .775-.093.98-.28.206-.187.308-.401.308-.644 0-.355-.144-.593-.434-.714-.28-.131-.672-.247-1.176-.35a9.27 9.27 0 0 1-1.176-.336 2.724 2.724 0 0 1-.966-.588c-.252-.261-.378-.611-.378-1.05 0-.607.234-1.111.7-1.512.467-.411 1.12-.616 1.96-.616.775 0 1.4.187 1.876.56.486.373.77.901.854 1.582h-1.428a1.014 1.014 0 0 0-.42-.7c-.224-.168-.527-.252-.91-.252-.373 0-.662.079-.868.238a.694.694 0 0 0-.308.588c0 .243.14.434.42.574.29.14.668.266 1.134.378.467.103.896.224 1.288.364.402.131.724.327.966.588.243.261.364.644.364 1.148.01.635-.238 1.162-.742 1.582-.494.42-1.171.63-2.03.63Zm7.92-.168v-10.08h1.484v4.256c.233-.401.555-.714.966-.938a2.81 2.81 0 0 1 1.386-.35c.831 0 1.484.261 1.96.784s.714 1.302.714 2.338V407h-1.47v-3.836c0-1.344-.537-2.016-1.61-2.016-.56 0-1.027.196-1.4.588-.364.392-.546.952-.546 1.68V407h-1.484Zm11.506.168c-.682 0-1.288-.149-1.82-.448a3.295 3.295 0 0 1-1.232-1.274c-.299-.541-.448-1.171-.448-1.89 0-.728.144-1.367.434-1.918.298-.551.709-.98 1.232-1.288.532-.308 1.148-.462 1.848-.462.681 0 1.274.154 1.778.462.504.299.896.7 1.176 1.204.28.504.42 1.059.42 1.666 0 .093-.005.196-.014.308 0 .103-.005.219-.014.35h-5.404c.046.672.266 1.185.658 1.54.401.345.863.518 1.386.518.42 0 .77-.093 1.05-.28.289-.196.504-.457.644-.784h1.484a3.141 3.141 0 0 1-1.12 1.638c-.551.439-1.237.658-2.058.658Zm0-6.062c-.495 0-.934.149-1.316.448-.383.289-.616.728-.7 1.316h3.92c-.028-.541-.22-.971-.574-1.288-.355-.317-.798-.476-1.33-.476Zm4.927 5.894v-6.944h1.33l.126 1.316a2.742 2.742 0 0 1 1.008-1.078c.439-.271.966-.406 1.582-.406v1.554h-.406c-.41 0-.779.07-1.106.21a1.604 1.604 0 0 0-.77.686c-.186.317-.28.761-.28 1.33V407h-1.484Zm8.375.168c-.681 0-1.288-.149-1.82-.448a3.309 3.309 0 0 1-1.232-1.274c-.298-.541-.448-1.171-.448-1.89 0-.728.145-1.367.434-1.918.299-.551.71-.98 1.232-1.288.532-.308 1.148-.462 1.848-.462.682 0 1.274.154 1.778.462.504.299.896.7 1.176 1.204.28.504.42 1.059.42 1.666 0 .093-.004.196-.014.308 0 .103-.004.219-.014.35h-5.404c.047.672.266 1.185.658 1.54.402.345.864.518 1.386.518.42 0 .77-.093 1.05-.28.29-.196.504-.457.644-.784h1.484a3.136 3.136 0 0 1-1.12 1.638c-.55.439-1.236.658-2.058.658Zm0-6.062a2.08 2.08 0 0 0-1.316.448c-.382.289-.616.728-.7 1.316h3.92c-.028-.541-.219-.971-.574-1.288-.354-.317-.798-.476-1.33-.476Z" fill="#3D3D3D"/><path d="M422.354 405.354a.502.502 0 0 0 0-.708l-3.182-3.182a.502.502 0 0 0-.708.708l2.829 2.828-2.829 2.828a.502.502 0 0 0 .708.708l3.182-3.182ZM.646 404.646a.501.501 0 0 0 0 .708l3.182 3.182a.5.5 0 0 0 .708-.708L1.707 405l2.829-2.828a.501.501 0 0 0-.708-.708l-3.182 3.182ZM1 405.5h3.007v-1H1v1Zm9.021 0h6.015v-1H10.02v1Zm12.029 0h6.014v-1H22.05v1Zm12.029 0h6.014v-1h-6.014v1Zm12.028 0h6.014v-1h-6.014v1Zm12.029 0h6.014v-1h-6.014v1Zm12.028 0h6.015v-1h-6.015v1Zm12.029 0h6.014v-1h-6.014v1Zm12.028 0h6.015v-1h-6.015v1Zm12.029 0h6.014v-1h-6.014v1Zm12.029 0h6.014v-1h-6.014v1Zm12.028 0h6.014v-1h-6.014v1Zm12.029 0h6.014v-1h-6.014v1Zm12.028 0h6.015v-1h-6.015v1Zm12.029 0h6.014v-1h-6.014v1Zm12.028 0h6.015v-1h-6.015v1Zm12.029 0h6.014v-1h-6.014v1Zm12.029 0h6.014v-1h-6.014v1Zm12.028 0h6.014v-1h-6.014v1Zm12.029 0h6.014v-1h-6.014v1Zm12.028 0h6.014v-1h-6.014v1Zm12.029 0h6.014v-1h-6.014v1Zm12.028 0h6.015v-1h-6.015v1Zm12.029 0h6.014v-1h-6.014v1Zm12.028 0h6.015v-1h-6.015v1Zm12.029 0h6.014v-1h-6.014v1Zm12.029 0h6.014v-1h-6.014v1Zm12.028 0h6.014v-1h-6.014v1Zm12.029 0h6.014v-1h-6.014v1Zm12.028 0h6.015v-1h-6.015v1Zm12.029 0h6.014v-1h-6.014v1Zm12.028 0h6.015v-1h-6.015v1Zm12.029 0h6.014v-1h-6.014v1Zm12.029 0h6.014v-1h-6.014v1Zm12.028 0h6.014v-1h-6.014v1Zm12.029 0H422v-1h-3.007v1Zm3.714.207a.999.999 0 0 0 0-1.414l-6.364-6.364a.999.999 0 1 0-1.414 1.414l5.657 5.657-5.657 5.657a.999.999 0 1 0 1.414 1.414l6.364-6.364ZM.293 404.293a1 1 0 0 0 0 1.414l6.364 6.364a1 1 0 1 0 1.414-1.414L2.414 405l5.657-5.657a1 1 0 1 0-1.414-1.414l-6.364 6.364ZM1 406h3.007v-2H1v2Zm9.021 0h6.015v-2H10.02v2Zm12.029 0h6.014v-2H22.05v2Zm12.029 0h6.014v-2h-6.014v2Zm12.028 0h6.014v-2h-6.014v2Zm12.029 0h6.014v-2h-6.014v2Zm12.028 0h6.015v-2h-6.015v2Zm12.029 0h6.014v-2h-6.014v2Zm12.028 0h6.015v-2h-6.015v2Zm12.029 0h6.014v-2h-6.014v2Zm12.029 0h6.014v-2h-6.014v2Zm12.028 0h6.014v-2h-6.014v2Zm12.029 0h6.014v-2h-6.014v2Zm12.028 0h6.015v-2h-6.015v2Zm12.029 0h6.014v-2h-6.014v2Zm12.028 0h6.015v-2h-6.015v2Zm12.029 0h6.014v-2h-6.014v2Zm12.029 0h6.014v-2h-6.014v2Zm12.028 0h6.014v-2h-6.014v2Zm12.029 0h6.014v-2h-6.014v2Zm12.028 0h6.014v-2h-6.014v2Zm12.029 0h6.014v-2h-6.014v2Zm12.028 0h6.015v-2h-6.015v2Zm12.029 0h6.014v-2h-6.014v2Zm12.028 0h6.015v-2h-6.015v2Zm12.029 0h6.014v-2h-6.014v2Zm12.029 0h6.014v-2h-6.014v2Zm12.028 0h6.014v-2h-6.014v2Zm12.029 0h6.014v-2h-6.014v2Zm12.028 0h6.015v-2h-6.015v2Zm12.029 0h6.014v-2h-6.014v2Zm12.028 0h6.015v-2h-6.015v2Zm12.029 0h6.014v-2h-6.014v2Zm12.029 0h6.014v-2h-6.014v2Zm12.028 0h6.014v-2h-6.014v2Zm12.029 0H422v-2h-3.007v2Z" fill="silver"/><path d="M730.354 405.354a.502.502 0 0 0 0-.708l-3.182-3.182a.502.502 0 0 0-.708.708l2.829 2.828-2.829 2.828a.502.502 0 0 0 .708.708l3.182-3.182Zm-284.708-.708a.502.502 0 0 0 0 .708l3.182 3.182a.502.502 0 0 0 .708-.708L446.707 405l2.829-2.828a.502.502 0 0 0-.708-.708l-3.182 3.182Zm.354.854h2.958v-1H446v1Zm8.875 0h5.917v-1h-5.917v1Zm11.833 0h5.917v-1h-5.917v1Zm11.834 0h5.916v-1h-5.916v1Zm11.833 0h5.917v-1h-5.917v1Zm11.833 0h5.917v-1h-5.917v1Zm11.834 0h5.916v-1h-5.916v1Zm11.833 0h5.917v-1h-5.917v1Zm11.833 0h5.917v-1h-5.917v1Zm11.834 0h5.916v-1h-5.916v1Zm11.833 0h5.917v-1h-5.917v1Zm11.833 0h5.917v-1h-5.917v1Zm11.834 0h5.916v-1h-5.916v1Zm11.833 0h5.917v-1h-5.917v1Zm11.833 0h5.917v-1h-5.917v1Zm11.834 0h5.916v-1h-5.916v1Zm11.833 0h5.917v-1h-5.917v1Zm11.833 0h5.917v-1h-5.917v1Zm11.834 0h5.916v-1h-5.916v1Zm11.833 0h5.917v-1h-5.917v1Zm11.833 0h5.917v-1h-5.917v1Zm11.834 0h5.916v-1h-5.916v1Zm11.833 0h5.917v-1h-5.917v1Zm11.833 0h5.917v-1h-5.917v1Zm11.834 0H730v-1h-2.958v1Zm3.665.207a.999.999 0 0 0 0-1.414l-6.364-6.364a.999.999 0 1 0-1.414 1.414l5.657 5.657-5.657 5.657a.999.999 0 1 0 1.414 1.414l6.364-6.364Zm-285.414-1.414a.999.999 0 0 0 0 1.414l6.364 6.364a.999.999 0 1 0 1.414-1.414L447.414 405l5.657-5.657a.999.999 0 1 0-1.414-1.414l-6.364 6.364ZM446 406h2.958v-2H446v2Zm8.875 0h5.917v-2h-5.917v2Zm11.833 0h5.917v-2h-5.917v2Zm11.834 0h5.916v-2h-5.916v2Zm11.833 0h5.917v-2h-5.917v2Zm11.833 0h5.917v-2h-5.917v2Zm11.834 0h5.916v-2h-5.916v2Zm11.833 0h5.917v-2h-5.917v2Zm11.833 0h5.917v-2h-5.917v2Zm11.834 0h5.916v-2h-5.916v2Zm11.833 0h5.917v-2h-5.917v2Zm11.833 0h5.917v-2h-5.917v2Zm11.834 0h5.916v-2h-5.916v2Zm11.833 0h5.917v-2h-5.917v2Zm11.833 0h5.917v-2h-5.917v2Zm11.834 0h5.916v-2h-5.916v2Zm11.833 0h5.917v-2h-5.917v2Zm11.833 0h5.917v-2h-5.917v2Zm11.834 0h5.916v-2h-5.916v2Zm11.833 0h5.917v-2h-5.917v2Zm11.833 0h5.917v-2h-5.917v2Zm11.834 0h5.916v-2h-5.916v2Zm11.833 0h5.917v-2h-5.917v2Zm11.833 0h5.917v-2h-5.917v2Zm11.834 0H730v-2h-2.958v2Z" fill="#FC0000"/><path fill="#fff" d="M80 392h264v23H80z"/><path d="M91.994 407v-9.8h6.23v1.204h-4.746v3.052h4.326v1.176h-4.326v3.164h4.746V407h-6.23Zm7.27 0 2.464-3.472-2.464-3.472h1.582l1.862 2.66 1.848-2.66h1.596l-2.464 3.472 2.464 3.472h-1.596l-1.848-2.66-1.862 2.66h-1.582Zm11.002.168c-.681 0-1.288-.149-1.82-.448a3.302 3.302 0 0 1-1.232-1.274c-.299-.541-.448-1.171-.448-1.89 0-.728.145-1.367.434-1.918.299-.551.709-.98 1.232-1.288.532-.308 1.148-.462 1.848-.462.681 0 1.274.154 1.778.462.504.299.896.7 1.176 1.204.28.504.42 1.059.42 1.666 0 .093-.005.196-.014.308 0 .103-.005.219-.014.35h-5.404c.047.672.266 1.185.658 1.54.401.345.863.518 1.386.518.42 0 .77-.093 1.05-.28.289-.196.504-.457.644-.784h1.484a3.141 3.141 0 0 1-1.12 1.638c-.551.439-1.237.658-2.058.658Zm0-6.062c-.495 0-.933.149-1.316.448-.383.289-.616.728-.7 1.316h3.92c-.028-.541-.219-.971-.574-1.288-.355-.317-.798-.476-1.33-.476Zm8.218 6.062c-.681 0-1.293-.154-1.834-.462a3.373 3.373 0 0 1-1.26-1.274c-.299-.551-.448-1.185-.448-1.904 0-.719.149-1.349.448-1.89a3.34 3.34 0 0 1 1.26-1.288c.541-.308 1.153-.462 1.834-.462.859 0 1.577.224 2.156.672.588.448.966 1.055 1.134 1.82h-1.554a1.461 1.461 0 0 0-.616-.896 1.948 1.948 0 0 0-1.12-.322c-.364 0-.7.093-1.008.28a1.924 1.924 0 0 0-.742.798c-.187.345-.28.775-.28 1.288s.093.947.28 1.302c.187.345.434.611.742.798.308.187.644.28 1.008.28.429 0 .803-.107 1.12-.322.317-.215.523-.518.616-.91h1.554a3.006 3.006 0 0 1-1.12 1.806c-.588.457-1.311.686-2.17.686Zm7.675-.168c-.682 0-1.223-.163-1.624-.49-.402-.336-.602-.929-.602-1.778v-3.43h-1.19v-1.246h1.19l.182-1.764h1.302v1.764h1.96v1.246h-1.96v3.43c0 .383.079.649.238.798.168.14.452.21.854.21h.798V407h-1.148Zm5.31.168c-.84 0-1.503-.261-1.988-.784-.476-.523-.714-1.302-.714-2.338v-3.99h1.484v3.836c0 1.344.55 2.016 1.652 2.016.55 0 1.003-.196 1.358-.588.354-.392.532-.952.532-1.68v-3.584h1.484V407h-1.316l-.112-1.218c-.215.429-.532.77-.952 1.022-.411.243-.887.364-1.428.364Zm8.608-.168c-.682 0-1.223-.163-1.624-.49-.402-.336-.602-.929-.602-1.778v-3.43h-1.19v-1.246h1.19l.182-1.764h1.302v1.764h1.96v1.246h-1.96v3.43c0 .383.079.649.238.798.168.14.452.21.854.21h.798V407h-1.148Zm3.588-8.26c-.28 0-.514-.084-.7-.252a.891.891 0 0 1-.266-.658c0-.261.088-.476.266-.644a.977.977 0 0 1 .7-.266.93.93 0 0 1 .686.266.83.83 0 0 1 .28.644.874.874 0 0 1-.28.658c-.178.168-.406.252-.686.252Zm-.742 8.26v-6.944h1.484V407h-1.484Zm6.691.168c-.663 0-1.26-.149-1.792-.448a3.402 3.402 0 0 1-1.246-1.274c-.308-.551-.462-1.19-.462-1.918s.154-1.363.462-1.904a3.338 3.338 0 0 1 1.274-1.274 3.482 3.482 0 0 1 1.778-.462c.662 0 1.255.154 1.778.462.532.299.952.723 1.26 1.274.317.541.476 1.176.476 1.904s-.159 1.367-.476 1.918a3.373 3.373 0 0 1-1.26 1.274 3.595 3.595 0 0 1-1.792.448Zm0-1.274c.354 0 .681-.089.98-.266.308-.177.555-.439.742-.784.186-.355.28-.793.28-1.316s-.094-.957-.28-1.302a1.84 1.84 0 0 0-.728-.798 1.89 1.89 0 0 0-.98-.266c-.355 0-.686.089-.994.266a1.947 1.947 0 0 0-.728.798c-.187.345-.28.779-.28 1.302s.093.961.28 1.316c.186.345.429.607.728.784.298.177.625.266.98.266Zm5.133 1.106v-6.944h1.316l.112 1.218c.214-.429.527-.765.938-1.008.42-.252.9-.378 1.442-.378.84 0 1.498.261 1.974.784.485.523.728 1.302.728 2.338V407h-1.47v-3.836c0-1.344-.551-2.016-1.652-2.016-.551 0-1.008.196-1.372.588-.355.392-.532.952-.532 1.68V407h-1.484Zm14.697 0c-.682 0-1.223-.163-1.624-.49-.402-.336-.602-.929-.602-1.778v-3.43h-1.19v-1.246h1.19l.182-1.764h1.302v1.764h1.96v1.246h-1.96v3.43c0 .383.079.649.238.798.168.14.452.21.854.21h.798V407h-1.148Zm5.818.168c-.681 0-1.288-.149-1.82-.448a3.309 3.309 0 0 1-1.232-1.274c-.298-.541-.448-1.171-.448-1.89 0-.728.145-1.367.434-1.918.299-.551.71-.98 1.232-1.288.532-.308 1.148-.462 1.848-.462.682 0 1.274.154 1.778.462.504.299.896.7 1.176 1.204.28.504.42 1.059.42 1.666 0 .093-.004.196-.014.308 0 .103-.004.219-.014.35h-5.404c.047.672.266 1.185.658 1.54.402.345.864.518 1.386.518.42 0 .77-.093 1.05-.28.29-.196.504-.457.644-.784h1.484a3.136 3.136 0 0 1-1.12 1.638c-.55.439-1.236.658-2.058.658Zm0-6.062a2.08 2.08 0 0 0-1.316.448c-.382.289-.616.728-.7 1.316h3.92c-.028-.541-.219-.971-.574-1.288-.354-.317-.798-.476-1.33-.476Zm7.28 6.062c-.588 0-1.073-.098-1.456-.294-.383-.196-.667-.453-.854-.77a2.105 2.105 0 0 1-.28-1.064c0-.672.261-1.204.784-1.596.523-.392 1.269-.588 2.24-.588h1.82v-.126c0-.541-.149-.947-.448-1.218-.289-.271-.667-.406-1.134-.406a1.9 1.9 0 0 0-1.078.308c-.299.196-.481.49-.546.882h-1.484c.047-.504.215-.933.504-1.288a2.84 2.84 0 0 1 1.12-.826 3.763 3.763 0 0 1 1.498-.294c.971 0 1.722.257 2.254.77.532.504.798 1.195.798 2.072V407h-1.288l-.126-1.19a2.636 2.636 0 0 1-.854.966c-.373.261-.863.392-1.47.392Zm.294-1.204c.401 0 .737-.093 1.008-.28a1.92 1.92 0 0 0 .644-.77c.159-.317.257-.667.294-1.05h-1.652c-.588 0-1.008.103-1.26.308a.966.966 0 0 0-.364.77.92.92 0 0 0 .35.756c.243.177.569.266.98.266ZM188.01 407v-6.944h1.316l.126.98c.224-.355.518-.635.882-.84a2.635 2.635 0 0 1 1.288-.308c1.102 0 1.867.434 2.296 1.302a2.743 2.743 0 0 1 1.008-.952c.43-.233.892-.35 1.386-.35.868 0 1.55.261 2.044.784.495.523.742 1.302.742 2.338V407h-1.484v-3.836c0-1.344-.513-2.016-1.54-2.016-.522 0-.952.196-1.288.588-.326.392-.49.952-.49 1.68V407h-1.484v-3.836c0-1.344-.518-2.016-1.554-2.016-.513 0-.938.196-1.274.588-.326.392-.49.952-.49 1.68V407h-1.484Zm15.596.168c-.877 0-1.6-.215-2.17-.644a2.413 2.413 0 0 1-.98-1.708h1.498c.075.317.252.593.532.826.28.224.649.336 1.106.336.448 0 .775-.093.98-.28.206-.187.308-.401.308-.644 0-.355-.144-.593-.434-.714-.28-.131-.672-.247-1.176-.35a9.27 9.27 0 0 1-1.176-.336 2.724 2.724 0 0 1-.966-.588c-.252-.261-.378-.611-.378-1.05 0-.607.234-1.111.7-1.512.467-.411 1.12-.616 1.96-.616.775 0 1.4.187 1.876.56.486.373.77.901.854 1.582h-1.428a1.014 1.014 0 0 0-.42-.7c-.224-.168-.527-.252-.91-.252-.373 0-.662.079-.868.238a.694.694 0 0 0-.308.588c0 .243.14.434.42.574.29.14.668.266 1.134.378.467.103.896.224 1.288.364.402.131.724.327.966.588.243.261.364.644.364 1.148.01.635-.238 1.162-.742 1.582-.494.42-1.171.63-2.03.63Zm10.832-.168c-.681 0-1.223-.163-1.624-.49-.401-.336-.602-.929-.602-1.778v-3.43h-1.19v-1.246h1.19l.182-1.764h1.302v1.764h1.96v1.246h-1.96v3.43c0 .383.079.649.238.798.168.14.453.21.854.21h.798V407h-1.148Zm5.818.168c-.681 0-1.288-.149-1.82-.448a3.309 3.309 0 0 1-1.232-1.274c-.298-.541-.448-1.171-.448-1.89 0-.728.145-1.367.434-1.918.299-.551.71-.98 1.232-1.288.532-.308 1.148-.462 1.848-.462.682 0 1.274.154 1.778.462.504.299.896.7 1.176 1.204.28.504.42 1.059.42 1.666 0 .093-.004.196-.014.308 0 .103-.004.219-.014.35h-5.404c.047.672.266 1.185.658 1.54.402.345.864.518 1.386.518.42 0 .77-.093 1.05-.28.29-.196.504-.457.644-.784h1.484a3.136 3.136 0 0 1-1.12 1.638c-.55.439-1.236.658-2.058.658Zm0-6.062a2.08 2.08 0 0 0-1.316.448c-.382.289-.616.728-.7 1.316h3.92c-.028-.541-.219-.971-.574-1.288-.354-.317-.798-.476-1.33-.476Zm4.928 5.894v-6.944h1.316l.112 1.218a2.39 2.39 0 0 1 .938-1.008c.42-.252.901-.378 1.442-.378.84 0 1.498.261 1.974.784.485.523.728 1.302.728 2.338V407h-1.47v-3.836c0-1.344-.551-2.016-1.652-2.016-.551 0-1.008.196-1.372.588-.355.392-.532.952-.532 1.68V407h-1.484Zm11.422.168c-.672 0-1.265-.159-1.778-.476a3.303 3.303 0 0 1-1.204-1.302c-.289-.551-.434-1.176-.434-1.876s.145-1.321.434-1.862c.289-.551.691-.98 1.204-1.288.523-.317 1.12-.476 1.792-.476.551 0 1.031.107 1.442.322.42.215.747.518.98.91v-4.2h1.484V407h-1.33l-.154-1.078a3.183 3.183 0 0 1-.924.868c-.392.252-.896.378-1.512.378Zm.266-1.288c.635 0 1.153-.219 1.554-.658.411-.439.616-1.003.616-1.694 0-.7-.205-1.265-.616-1.694-.401-.439-.919-.658-1.554-.658s-1.157.219-1.568.658c-.411.429-.616.994-.616 1.694 0 .457.093.863.28 1.218.187.355.443.635.77.84.336.196.714.294 1.134.294Zm11.964 1.12c-.681 0-1.222-.163-1.624-.49-.401-.336-.602-.929-.602-1.778v-3.43h-1.19v-1.246h1.19l.182-1.764h1.302v1.764h1.96v1.246h-1.96v3.43c0 .383.08.649.238.798.168.14.453.21.854.21h.798V407h-1.148Zm5.819.168c-.663 0-1.26-.149-1.792-.448a3.402 3.402 0 0 1-1.246-1.274c-.308-.551-.462-1.19-.462-1.918s.154-1.363.462-1.904a3.338 3.338 0 0 1 1.274-1.274 3.482 3.482 0 0 1 1.778-.462c.662 0 1.255.154 1.778.462.532.299.952.723 1.26 1.274.317.541.476 1.176.476 1.904s-.159 1.367-.476 1.918a3.373 3.373 0 0 1-1.26 1.274 3.595 3.595 0 0 1-1.792.448Zm0-1.274c.354 0 .681-.089.98-.266.308-.177.555-.439.742-.784.186-.355.28-.793.28-1.316s-.094-.957-.28-1.302a1.84 1.84 0 0 0-.728-.798 1.89 1.89 0 0 0-.98-.266c-.355 0-.686.089-.994.266a1.947 1.947 0 0 0-.728.798c-.187.345-.28.779-.28 1.302s.093.961.28 1.316c.186.345.429.607.728.784.298.177.625.266.98.266Zm9.01 1.106v-5.698h-.994v-1.246h.994v-1.008c0-.756.187-1.297.56-1.624.383-.336.919-.504 1.61-.504h.728v1.26h-.504c-.327 0-.56.07-.7.21-.14.131-.21.355-.21.672v.994h1.596v1.246h-1.596V407h-1.484Zm7.464.168c-.662 0-1.26-.149-1.792-.448a3.41 3.41 0 0 1-1.246-1.274c-.308-.551-.462-1.19-.462-1.918s.154-1.363.462-1.904a3.345 3.345 0 0 1 1.274-1.274 3.485 3.485 0 0 1 1.778-.462c.663 0 1.256.154 1.778.462.532.299.952.723 1.26 1.274.318.541.476 1.176.476 1.904s-.158 1.367-.476 1.918a3.373 3.373 0 0 1-1.26 1.274 3.592 3.592 0 0 1-1.792.448Zm0-1.274a1.94 1.94 0 0 0 1.722-1.05c.187-.355.28-.793.28-1.316s-.093-.957-.28-1.302a1.834 1.834 0 0 0-.728-.798 1.885 1.885 0 0 0-.98-.266c-.354 0-.686.089-.994.266a1.96 1.96 0 0 0-.728.798c-.186.345-.28.779-.28 1.302s.094.961.28 1.316c.187.345.43.607.728.784.299.177.626.266.98.266Zm8.423 1.274c-.681 0-1.292-.154-1.834-.462a3.373 3.373 0 0 1-1.26-1.274c-.298-.551-.448-1.185-.448-1.904 0-.719.15-1.349.448-1.89a3.34 3.34 0 0 1 1.26-1.288c.542-.308 1.153-.462 1.834-.462.859 0 1.578.224 2.156.672.588.448.966 1.055 1.134 1.82h-1.554a1.457 1.457 0 0 0-.616-.896c-.317-.215-.69-.322-1.12-.322-.364 0-.7.093-1.008.28a1.924 1.924 0 0 0-.742.798c-.186.345-.28.775-.28 1.288s.094.947.28 1.302c.187.345.434.611.742.798.308.187.644.28 1.008.28.43 0 .803-.107 1.12-.322.318-.215.523-.518.616-.91h1.554a3.002 3.002 0 0 1-1.12 1.806c-.588.457-1.311.686-2.17.686Zm7.462 0c-.84 0-1.503-.261-1.988-.784-.476-.523-.714-1.302-.714-2.338v-3.99h1.484v3.836c0 1.344.55 2.016 1.652 2.016.55 0 1.003-.196 1.358-.588.354-.392.532-.952.532-1.68v-3.584h1.484V407h-1.316l-.112-1.218c-.215.429-.532.77-.952 1.022-.411.243-.887.364-1.428.364Zm8.467 0c-.877 0-1.6-.215-2.17-.644a2.413 2.413 0 0 1-.98-1.708h1.498c.075.317.252.593.532.826.28.224.649.336 1.106.336.448 0 .775-.093.98-.28.206-.187.308-.401.308-.644 0-.355-.144-.593-.434-.714-.28-.131-.672-.247-1.176-.35a9.27 9.27 0 0 1-1.176-.336 2.724 2.724 0 0 1-.966-.588c-.252-.261-.378-.611-.378-1.05 0-.607.234-1.111.7-1.512.467-.411 1.12-.616 1.96-.616.775 0 1.4.187 1.876.56.486.373.77.901.854 1.582h-1.428a1.014 1.014 0 0 0-.42-.7c-.224-.168-.527-.252-.91-.252-.373 0-.662.079-.868.238a.694.694 0 0 0-.308.588c0 .243.14.434.42.574.29.14.668.266 1.134.378.467.103.896.224 1.288.364.402.131.724.327.966.588.243.261.364.644.364 1.148.01.635-.238 1.162-.742 1.582-.494.42-1.171.63-2.03.63Zm7.92-.168v-10.08h1.484v4.256c.233-.401.555-.714.966-.938a2.81 2.81 0 0 1 1.386-.35c.831 0 1.484.261 1.96.784s.714 1.302.714 2.338V407h-1.47v-3.836c0-1.344-.537-2.016-1.61-2.016-.56 0-1.027.196-1.4.588-.364.392-.546.952-.546 1.68V407h-1.484Zm11.506.168c-.682 0-1.288-.149-1.82-.448a3.295 3.295 0 0 1-1.232-1.274c-.299-.541-.448-1.171-.448-1.89 0-.728.144-1.367.434-1.918.298-.551.709-.98 1.232-1.288.532-.308 1.148-.462 1.848-.462.681 0 1.274.154 1.778.462.504.299.896.7 1.176 1.204.28.504.42 1.059.42 1.666 0 .093-.005.196-.014.308 0 .103-.005.219-.014.35h-5.404c.046.672.266 1.185.658 1.54.401.345.863.518 1.386.518.42 0 .77-.093 1.05-.28.289-.196.504-.457.644-.784h1.484a3.141 3.141 0 0 1-1.12 1.638c-.551.439-1.237.658-2.058.658Zm0-6.062c-.495 0-.934.149-1.316.448-.383.289-.616.728-.7 1.316h3.92c-.028-.541-.22-.971-.574-1.288-.355-.317-.798-.476-1.33-.476Zm4.927 5.894v-6.944h1.33l.126 1.316a2.742 2.742 0 0 1 1.008-1.078c.439-.271.966-.406 1.582-.406v1.554h-.406c-.41 0-.779.07-1.106.21a1.604 1.604 0 0 0-.77.686c-.186.317-.28.761-.28 1.33V407h-1.484Zm8.375.168c-.681 0-1.288-.149-1.82-.448a3.309 3.309 0 0 1-1.232-1.274c-.298-.541-.448-1.171-.448-1.89 0-.728.145-1.367.434-1.918.299-.551.71-.98 1.232-1.288.532-.308 1.148-.462 1.848-.462.682 0 1.274.154 1.778.462.504.299.896.7 1.176 1.204.28.504.42 1.059.42 1.666 0 .093-.004.196-.014.308 0 .103-.004.219-.014.35h-5.404c.047.672.266 1.185.658 1.54.402.345.864.518 1.386.518.42 0 .77-.093 1.05-.28.29-.196.504-.457.644-.784h1.484a3.136 3.136 0 0 1-1.12 1.638c-.55.439-1.236.658-2.058.658Zm0-6.062a2.08 2.08 0 0 0-1.316.448c-.382.289-.616.728-.7 1.316h3.92c-.028-.541-.219-.971-.574-1.288-.354-.317-.798-.476-1.33-.476Z" fill="#3D3D3D"/><path fill="#fff" d="M490 392h183v23H490z"/><path d="M505.278 409v-12.6h4.338c.996 0 1.812.168 2.448.504.648.336 1.128.792 1.44 1.368.312.564.468 1.194.468 1.89 0 .78-.21 1.488-.63 2.124-.408.636-1.05 1.092-1.926 1.368l2.682 5.346h-2.214l-2.448-5.076h-2.25V409h-1.908Zm1.908-6.516h2.322c.864 0 1.494-.21 1.89-.63.408-.42.612-.966.612-1.638 0-.672-.198-1.206-.594-1.602-.396-.408-1.038-.612-1.926-.612h-2.304v4.482Zm10.051-4.104c-.36 0-.66-.108-.9-.324a1.15 1.15 0 0 1-.342-.846c0-.336.114-.612.342-.828.24-.228.54-.342.9-.342s.654.114.882.342c.24.216.36.492.36.828 0 .336-.12.618-.36.846-.228.216-.522.324-.882.324Zm-.954 10.62v-8.928h1.908V409h-1.908Zm7.991.216c-1.128 0-2.058-.276-2.79-.828a3.101 3.101 0 0 1-1.26-2.196h1.926c.096.408.324.762.684 1.062.36.288.834.432 1.422.432.576 0 .996-.12 1.26-.36s.396-.516.396-.828c0-.456-.186-.762-.558-.918-.36-.168-.864-.318-1.512-.45a11.918 11.918 0 0 1-1.512-.432 3.488 3.488 0 0 1-1.242-.756c-.324-.336-.486-.786-.486-1.35 0-.78.3-1.428.9-1.944.6-.528 1.44-.792 2.52-.792.996 0 1.8.24 2.412.72.624.48.99 1.158 1.098 2.034h-1.836a1.311 1.311 0 0 0-.54-.9c-.288-.216-.678-.324-1.17-.324-.48 0-.852.102-1.116.306a.893.893 0 0 0-.396.756c0 .312.18.558.54.738.372.18.858.342 1.458.486.6.132 1.152.288 1.656.468.516.168.93.42 1.242.756.312.336.468.828.468 1.476.012.816-.306 1.494-.954 2.034-.636.54-1.506.81-2.61.81Zm9.823 0c-.876 0-1.656-.192-2.34-.576a4.242 4.242 0 0 1-1.584-1.638c-.384-.696-.576-1.506-.576-2.43 0-.936.186-1.758.558-2.466a4.21 4.21 0 0 1 1.584-1.656c.684-.396 1.476-.594 2.376-.594.876 0 1.638.198 2.286.594a4.07 4.07 0 0 1 1.512 1.548c.36.648.54 1.362.54 2.142 0 .12-.006.252-.018.396 0 .132-.006.282-.018.45h-6.948c.06.864.342 1.524.846 1.98.516.444 1.11.666 1.782.666.54 0 .99-.12 1.35-.36.372-.252.648-.588.828-1.008h1.908c-.24.84-.72 1.542-1.44 2.106-.708.564-1.59.846-2.646.846Zm0-7.794c-.636 0-1.2.192-1.692.576-.492.372-.792.936-.9 1.692h5.04c-.036-.696-.282-1.248-.738-1.656-.456-.408-1.026-.612-1.71-.612Zm10.71 7.794c-.84 0-1.602-.15-2.286-.45a4.136 4.136 0 0 1-1.62-1.296c-.396-.552-.594-1.2-.594-1.944 0-.756.21-1.434.63-2.034a3.206 3.206 0 0 1 1.71-1.224c-.636-.252-1.128-.618-1.476-1.098a2.745 2.745 0 0 1-.522-1.62c0-.612.162-1.17.486-1.674.324-.516.792-.924 1.404-1.224.624-.312 1.38-.468 2.268-.468.888 0 1.638.156 2.25.468.624.3 1.098.708 1.422 1.224.324.504.486 1.062.486 1.674 0 .576-.18 1.116-.54 1.62-.348.492-.84.858-1.476 1.098a3.21 3.21 0 0 1 1.692 1.242c.432.588.648 1.26.648 2.016 0 .744-.198 1.392-.594 1.944-.396.552-.936.984-1.62 1.296-.672.3-1.428.45-2.268.45Zm0-7.56c.696 0 1.242-.18 1.638-.54.408-.36.612-.822.612-1.386 0-.636-.198-1.122-.594-1.458-.396-.336-.948-.504-1.656-.504s-1.26.168-1.656.504c-.396.336-.594.822-.594 1.458 0 .564.198 1.026.594 1.386.396.36.948.54 1.656.54Zm0 5.94c.864 0 1.512-.204 1.944-.612.432-.42.648-.954.648-1.602 0-.72-.234-1.272-.702-1.656-.456-.396-1.086-.594-1.89-.594-.804 0-1.44.198-1.908.594-.468.384-.702.936-.702 1.656 0 .648.216 1.182.648 1.602.444.408 1.098.612 1.962.612ZM556.58 409v-7.326h-1.278v-1.602h1.278v-1.296c0-.972.24-1.668.72-2.088.492-.432 1.182-.648 2.07-.648h.936v1.62h-.648c-.42 0-.72.09-.9.27-.18.168-.27.456-.27.864v1.278h2.052v1.602h-2.052V409h-1.908Zm9.597.216c-.852 0-1.62-.192-2.304-.576a4.375 4.375 0 0 1-1.602-1.638c-.396-.708-.594-1.53-.594-2.466 0-.936.198-1.752.594-2.448a4.295 4.295 0 0 1 1.638-1.638 4.48 4.48 0 0 1 2.286-.594c.852 0 1.614.198 2.286.594a4.17 4.17 0 0 1 1.62 1.638c.408.696.612 1.512.612 2.448 0 .936-.204 1.758-.612 2.466a4.333 4.333 0 0 1-1.62 1.638c-.684.384-1.452.576-2.304.576Zm0-1.638c.456 0 .876-.114 1.26-.342a2.5 2.5 0 0 0 .954-1.008c.24-.456.36-1.02.36-1.692 0-.672-.12-1.23-.36-1.674-.228-.456-.54-.798-.936-1.026a2.423 2.423 0 0 0-1.26-.342c-.456 0-.882.114-1.278.342-.384.228-.696.57-.936 1.026-.24.444-.36 1.002-.36 1.674 0 .672.12 1.236.36 1.692.24.444.552.78.936 1.008.384.228.804.342 1.26.342Zm10.829 1.638c-.876 0-1.662-.198-2.358-.594a4.333 4.333 0 0 1-1.62-1.638c-.384-.708-.576-1.524-.576-2.448 0-.924.192-1.734.576-2.43a4.298 4.298 0 0 1 1.62-1.656c.696-.396 1.482-.594 2.358-.594 1.104 0 2.028.288 2.772.864.756.576 1.242 1.356 1.458 2.34h-1.998a1.878 1.878 0 0 0-.792-1.152c-.408-.276-.888-.414-1.44-.414-.468 0-.9.12-1.296.36-.396.228-.714.57-.954 1.026-.24.444-.36.996-.36 1.656 0 .66.12 1.218.36 1.674.24.444.558.786.954 1.026.396.24.828.36 1.296.36.552 0 1.032-.138 1.44-.414.408-.276.672-.666.792-1.17h1.998c-.204.96-.684 1.734-1.44 2.322-.756.588-1.686.882-2.79.882Zm9.594 0c-1.08 0-1.932-.336-2.556-1.008-.612-.672-.918-1.674-.918-3.006v-5.13h1.908v4.932c0 1.728.708 2.592 2.124 2.592.708 0 1.29-.252 1.746-.756.456-.504.684-1.224.684-2.16v-4.608h1.908V409h-1.692l-.144-1.566c-.276.552-.684.99-1.224 1.314-.528.312-1.14.468-1.836.468Zm10.887 0c-1.128 0-2.058-.276-2.79-.828a3.101 3.101 0 0 1-1.26-2.196h1.926c.096.408.324.762.684 1.062.36.288.834.432 1.422.432.576 0 .996-.12 1.26-.36s.396-.516.396-.828c0-.456-.186-.762-.558-.918-.36-.168-.864-.318-1.512-.45a11.918 11.918 0 0 1-1.512-.432 3.488 3.488 0 0 1-1.242-.756c-.324-.336-.486-.786-.486-1.35 0-.78.3-1.428.9-1.944.6-.528 1.44-.792 2.52-.792.996 0 1.8.24 2.412.72.624.48.99 1.158 1.098 2.034h-1.836a1.311 1.311 0 0 0-.54-.9c-.288-.216-.678-.324-1.17-.324-.48 0-.852.102-1.116.306a.893.893 0 0 0-.396.756c0 .312.18.558.54.738.372.18.858.342 1.458.486.6.132 1.152.288 1.656.468.516.168.93.42 1.242.756.312.336.468.828.468 1.476.012.816-.306 1.494-.954 2.034-.636.54-1.506.81-2.61.81Zm9.823 0c-.876 0-1.656-.192-2.34-.576a4.242 4.242 0 0 1-1.584-1.638c-.384-.696-.576-1.506-.576-2.43 0-.936.186-1.758.558-2.466a4.21 4.21 0 0 1 1.584-1.656c.684-.396 1.476-.594 2.376-.594.876 0 1.638.198 2.286.594a4.07 4.07 0 0 1 1.512 1.548c.36.648.54 1.362.54 2.142 0 .12-.006.252-.018.396 0 .132-.006.282-.018.45h-6.948c.06.864.342 1.524.846 1.98.516.444 1.11.666 1.782.666.54 0 .99-.12 1.35-.36.372-.252.648-.588.828-1.008h1.908c-.24.84-.72 1.542-1.44 2.106-.708.564-1.59.846-2.646.846Zm0-7.794c-.636 0-1.2.192-1.692.576-.492.372-.792.936-.9 1.692h5.04c-.036-.696-.282-1.248-.738-1.656-.456-.408-1.026-.612-1.71-.612Zm9.899 7.794c-1.128 0-2.058-.276-2.79-.828a3.101 3.101 0 0 1-1.26-2.196h1.926c.096.408.324.762.684 1.062.36.288.834.432 1.422.432.576 0 .996-.12 1.26-.36s.396-.516.396-.828c0-.456-.186-.762-.558-.918-.36-.168-.864-.318-1.512-.45a11.918 11.918 0 0 1-1.512-.432 3.488 3.488 0 0 1-1.242-.756c-.324-.336-.486-.786-.486-1.35 0-.78.3-1.428.9-1.944.6-.528 1.44-.792 2.52-.792.996 0 1.8.24 2.412.72.624.48.99 1.158 1.098 2.034h-1.836a1.311 1.311 0 0 0-.54-.9c-.288-.216-.678-.324-1.17-.324-.48 0-.852.102-1.116.306a.893.893 0 0 0-.396.756c0 .312.18.558.54.738.372.18.858.342 1.458.486.6.132 1.152.288 1.656.468.516.168.93.42 1.242.756.312.336.468.828.468 1.476.012.816-.306 1.494-.954 2.034-.636.54-1.506.81-2.61.81Zm10.183-.216v-12.96h1.908v5.472c.3-.516.714-.918 1.242-1.206.54-.3 1.134-.45 1.782-.45 1.068 0 1.908.336 2.52 1.008.612.672.918 1.674.918 3.006V409h-1.89v-4.932c0-1.728-.69-2.592-2.07-2.592-.72 0-1.32.252-1.8.756-.468.504-.702 1.224-.702 2.16V409h-1.908Zm14.793.216c-.876 0-1.656-.192-2.34-.576a4.242 4.242 0 0 1-1.584-1.638c-.384-.696-.576-1.506-.576-2.43 0-.936.186-1.758.558-2.466a4.21 4.21 0 0 1 1.584-1.656c.684-.396 1.476-.594 2.376-.594.876 0 1.638.198 2.286.594a4.07 4.07 0 0 1 1.512 1.548c.36.648.54 1.362.54 2.142 0 .12-.006.252-.018.396 0 .132-.006.282-.018.45h-6.948c.06.864.342 1.524.846 1.98.516.444 1.11.666 1.782.666.54 0 .99-.12 1.35-.36.372-.252.648-.588.828-1.008h1.908c-.24.84-.72 1.542-1.44 2.106-.708.564-1.59.846-2.646.846Zm0-7.794c-.636 0-1.2.192-1.692.576-.492.372-.792.936-.9 1.692h5.04c-.036-.696-.282-1.248-.738-1.656-.456-.408-1.026-.612-1.71-.612ZM648.52 409v-8.928h1.71l.162 1.692a3.52 3.52 0 0 1 1.296-1.386c.564-.348 1.242-.522 2.034-.522v1.998h-.522c-.528 0-1.002.09-1.422.27-.408.168-.738.462-.99.882-.24.408-.36.978-.36 1.71V409h-1.908Zm10.768.216c-.876 0-1.656-.192-2.34-.576a4.242 4.242 0 0 1-1.584-1.638c-.384-.696-.576-1.506-.576-2.43 0-.936.186-1.758.558-2.466a4.21 4.21 0 0 1 1.584-1.656c.684-.396 1.476-.594 2.376-.594.876 0 1.638.198 2.286.594a4.07 4.07 0 0 1 1.512 1.548c.36.648.54 1.362.54 2.142 0 .12-.006.252-.018.396 0 .132-.006.282-.018.45h-6.948c.06.864.342 1.524.846 1.98.516.444 1.11.666 1.782.666.54 0 .99-.12 1.35-.36.372-.252.648-.588.828-1.008h1.908c-.24.84-.72 1.542-1.44 2.106-.708.564-1.59.846-2.646.846Zm0-7.794c-.636 0-1.2.192-1.692.576-.492.372-.792.936-.9 1.692h5.04c-.036-.696-.282-1.248-.738-1.656-.456-.408-1.026-.612-1.71-.612Z" fill="#FC0000"/><path opacity=".05" d="M976 0 661 39l.5 199 314.5 9.5V0Z" fill="url(#b)"/><path d="M1000.85 239.792h-6.3v-.756h2.853l-2.853-2.628v-.954l2.511 2.34 3.789-2.376v.918l-3.204 1.998.747.702h2.457v.756Zm.11-6.901c0 .426-.1.804-.29 1.134-.2.33-.47.591-.819.783-.348.186-.759.279-1.233.279-.468 0-.876-.093-1.224-.279a2 2 0 0 1-.819-.774 2.244 2.244 0 0 1-.297-1.161c0-.432.099-.804.297-1.116a1.94 1.94 0 0 1 .765-.729 2.164 2.164 0 0 1 1.224-.243h.225v3.555c.342-.018.627-.096.855-.234.222-.144.386-.321.506-.531.11-.216.17-.444.17-.684 0-.312-.07-.573-.22-.783a1.214 1.214 0 0 0-.582-.459v-.747c.414.12.762.351 1.032.693.27.336.41.768.41 1.296Zm-4.043 0c0 .36.111.681.333.963.216.276.534.435.954.477v-2.808c-.402.018-.717.156-.945.414a1.389 1.389 0 0 0-.342.954Zm3.933-3.117h-6.48v-.756h6.48v.756Zm0-1.996h-6.48v-.756h6.48v.756Zm.11-4.029c0 .42-.1.798-.29 1.134-.19.336-.46.603-.81.801-.354.192-.768.288-1.242.288s-.885-.099-1.233-.297a2.104 2.104 0 0 1-.819-.801 2.294 2.294 0 0 1-.288-1.143c0-.42.096-.798.288-1.134.192-.336.465-.6.819-.792.348-.198.759-.297 1.233-.297.474 0 .888.099 1.242.297.35.198.62.468.81.81.19.336.29.714.29 1.134Zm-.65 0a1.396 1.396 0 0 0-.756-1.26c-.252-.138-.564-.207-.936-.207-.372 0-.684.069-.936.207a1.352 1.352 0 0 0-.567.531 1.418 1.418 0 0 0-.189.711c0 .258.063.498.189.72.126.222.315.402.567.54.252.138.564.207.936.207.372 0 .684-.069.936-.207.252-.138.441-.315.566-.531.13-.222.19-.459.19-.711Zm-.864-4.863c0 .252-.033.483-.099.693l.423.45c.048-.066.09-.147.126-.243.03-.102.06-.246.09-.432.024-.186.054-.447.084-.783.04-.6.18-1.029.41-1.287.24-.258.54-.387.92-.387.26 0 .5.072.74.216.23.138.42.354.57.648.15.288.23.66.23 1.116 0 .402-.06.759-.16 1.071-.11.312-.26.555-.48.729-.21.174-.48.261-.8.261-.17 0-.35-.045-.55-.135-.19-.09-.38-.258-.55-.504-.05.132-.11.246-.17.342-.07.09-.14.174-.22.252h-.204l-.756-.765c-.3.354-.696.531-1.188.531-.294 0-.561-.069-.801-.207a1.451 1.451 0 0 1-.567-.603c-.144-.264-.216-.585-.216-.963 0-.258.036-.492.108-.702v-1.647h.567l.036.837c.252-.174.543-.261.873-.261.294 0 .561.072.801.216.24.138.432.339.576.603.138.258.207.576.207.954Zm-.621 0c0-.318-.081-.57-.243-.756-.168-.192-.408-.288-.72-.288-.306 0-.54.096-.702.288-.168.186-.252.438-.252.756 0 .324.084.582.252.774.162.186.396.279.702.279.312 0 .552-.093.72-.279.162-.192.243-.45.243-.774Zm2.605 1.314c.3 0 .52-.126.66-.378.15-.252.23-.567.23-.945 0-.372-.08-.669-.25-.891a.741.741 0 0 0-.64-.342c-.2 0-.36.078-.51.234-.14.156-.22.444-.24.864-.02.33-.05.615-.09.855.13.246.27.408.42.486.16.078.3.117.42.117Zm-1.984-6.279c0 .252-.033.483-.099.693l.423.45c.048-.066.09-.147.126-.243.03-.102.06-.246.09-.432.024-.186.054-.447.084-.783.04-.6.18-1.029.41-1.287.24-.258.54-.387.92-.387.26 0 .5.072.74.216.23.138.42.354.57.648.15.288.23.66.23 1.116 0 .402-.06.759-.16 1.071-.11.312-.26.555-.48.729-.21.174-.48.261-.8.261-.17 0-.35-.045-.55-.135-.19-.09-.38-.258-.55-.504-.05.132-.11.246-.17.342-.07.09-.14.174-.22.252h-.204l-.756-.765c-.3.354-.696.531-1.188.531-.294 0-.561-.069-.801-.207a1.451 1.451 0 0 1-.567-.603c-.144-.264-.216-.585-.216-.963 0-.258.036-.492.108-.702v-1.647h.567l.036.837c.252-.174.543-.261.873-.261.294 0 .561.072.801.216.24.138.432.339.576.603.138.258.207.576.207.954Zm-.621 0c0-.318-.081-.57-.243-.756-.168-.192-.408-.288-.72-.288-.306 0-.54.096-.702.288-.168.186-.252.438-.252.756 0 .324.084.582.252.774.162.186.396.279.702.279.312 0 .552-.093.72-.279.162-.192.243-.45.243-.774Zm2.605 1.314c.3 0 .52-.126.66-.378.15-.252.23-.567.23-.945 0-.372-.08-.669-.25-.891a.741.741 0 0 0-.64-.342c-.2 0-.36.078-.51.234-.14.156-.22.444-.24.864-.02.33-.05.615-.09.855.13.246.27.408.42.486.16.078.3.117.42.117Zm-.58-6.943h-6.3v-3.834h.621v3.078h2.214v-2.619h.612v2.619h2.853v.756Zm.11-6.603c0 .42-.1.798-.29 1.134-.19.336-.46.603-.81.801-.354.192-.768.288-1.242.288s-.885-.099-1.233-.297a2.104 2.104 0 0 1-.819-.801 2.294 2.294 0 0 1-.288-1.143c0-.42.096-.798.288-1.134.192-.336.465-.6.819-.792.348-.198.759-.297 1.233-.297.474 0 .888.099 1.242.297.35.198.62.468.81.81.19.336.29.714.29 1.134Zm-.65 0a1.396 1.396 0 0 0-.756-1.26c-.252-.138-.564-.207-.936-.207-.372 0-.684.069-.936.207a1.352 1.352 0 0 0-.567.531 1.418 1.418 0 0 0-.189.711c0 .258.063.498.189.72.126.222.315.402.567.54.252.138.564.207.936.207.372 0 .684-.069.936-.207.252-.138.441-.315.566-.531.13-.222.19-.459.19-.711Zm.65-4.921c0 .528-.16.948-.48 1.26-.32.312-.818.468-1.484.468h-2.61v-.756h2.529c.93 0 1.395-.381 1.395-1.143 0-.39-.14-.711-.414-.963-.282-.258-.681-.387-1.197-.387h-2.313v-.756h4.464v.684l-.8.054c.28.138.5.345.67.621.16.27.24.576.24.918Zm-.11-3.522h-4.464v-.684l.801-.045a1.621 1.621 0 0 1-.666-.621 1.75 1.75 0 0 1-.243-.918c0-.528.162-.948.486-1.26.318-.318.81-.477 1.476-.477h2.61v.756h-2.529c-.93 0-1.395.384-1.395 1.152 0 .384.141.705.423.963.276.252.672.378 1.188.378h2.313v.756Zm.11-7.175c0 .444-.1.834-.31 1.17-.2.33-.48.588-.835.774-.354.18-.756.27-1.206.27a2.5 2.5 0 0 1-1.197-.279 2.062 2.062 0 0 1-.828-.774c-.204-.33-.306-.72-.306-1.17 0-.366.075-.69.225-.972.15-.282.36-.501.63-.657h-2.763v-.756h6.48v.684l-.74.072c.22.144.41.351.59.621.17.27.26.609.26 1.017Zm-.66-.081c0-.3-.07-.564-.21-.792a1.402 1.402 0 0 0-.59-.54 1.875 1.875 0 0 0-.882-.198c-.336 0-.63.066-.882.198a1.378 1.378 0 0 0-.585.54 1.451 1.451 0 0 0-.216.792c0 .294.072.558.216.792.138.228.333.408.585.54.252.126.546.189.882.189.336 0 .63-.063.882-.189.252-.132.45-.312.59-.54.14-.234.21-.498.21-.792Zm.66-5.031c0 .372-.06.681-.19.927s-.29.429-.5.549c-.21.12-.443.18-.689.18-.456 0-.807-.174-1.053-.522-.246-.348-.369-.822-.369-1.422v-1.206h-.054c-.39 0-.684.102-.882.306-.204.204-.306.477-.306.819 0 .294.075.549.225.765.144.21.357.342.639.396v.774a1.45 1.45 0 0 1-.819-.324 1.833 1.833 0 0 1-.504-.711 2.274 2.274 0 0 1-.18-.9c0-.624.168-1.092.504-1.404.33-.318.771-.477 1.323-.477h2.745v.675l-.8.045c.25.126.47.312.65.558.17.24.26.564.26.972Zm-.64-.117c0-.288-.08-.534-.23-.738a1.386 1.386 0 0 0-.581-.477 1.822 1.822 0 0 0-.756-.162h-.009v1.143c0 .444.078.759.234.945.15.18.339.27.567.27a.704.704 0 0 0 .565-.252c.14-.174.21-.417.21-.729Zm.53-4.908c0 .408-.1.729-.3.963-.19.234-.552.351-1.068.351h-2.457v.774h-.639v-.774l-1.071-.099v-.657h1.071v-1.314h.639v1.314h2.457c.282 0 .474-.057.578-.171.09-.114.14-.315.14-.603v-.468h.65v.684Zm-5.454-2.175a.53.53 0 0 1-.144.378.53.53 0 0 1-.378.144.488.488 0 0 1-.36-.144.53.53 0 0 1-.144-.378.52.52 0 0 1 .144-.369.474.474 0 0 1 .36-.153c.15 0 .276.051.378.153a.52.52 0 0 1 .144.369Zm5.454.378h-4.464v-.756h4.464v.756Zm.11-4.106c0 .42-.1.798-.29 1.134-.19.336-.46.603-.81.801-.354.192-.768.288-1.242.288s-.885-.099-1.233-.297a2.104 2.104 0 0 1-.819-.801 2.294 2.294 0 0 1-.288-1.143c0-.42.096-.798.288-1.134.192-.336.465-.6.819-.792.348-.198.759-.297 1.233-.297.474 0 .888.099 1.242.297.35.198.62.468.81.81.19.336.29.714.29 1.134Zm-.65 0a1.396 1.396 0 0 0-.756-1.26c-.252-.138-.564-.207-.936-.207-.372 0-.684.069-.936.207a1.352 1.352 0 0 0-.567.531 1.418 1.418 0 0 0-.189.711c0 .258.063.498.189.72.126.222.315.402.567.54.252.138.564.207.936.207.372 0 .684-.069.936-.207.252-.138.441-.315.566-.531.13-.222.19-.459.19-.711Zm.54-3.293h-4.464v-.684l.801-.045a1.621 1.621 0 0 1-.666-.621 1.75 1.75 0 0 1-.243-.918c0-.528.162-.948.486-1.26.318-.318.81-.477 1.476-.477h2.61v.756h-2.529c-.93 0-1.395.384-1.395 1.152 0 .384.141.705.423.963.276.252.672.378 1.188.378h2.313v.756Zm.86-4.781-7.736-2.259v-.747l7.736 2.259v.747Zm-.75-4.973c0 .57-.16 1.017-.48 1.341-.32.324-.758.486-1.322.486v-.765c.318 0 .585-.078.801-.234.221-.156.321-.429.321-.819 0-.378-.1-.639-.312-.783-.21-.15-.471-.225-.783-.225h-4.635v-.756h4.635c.558 0 .995.156 1.305.468.31.306.47.735.47 1.287Zm0-5.077c0 .42-.1.798-.29 1.134-.19.336-.46.603-.81.801-.354.192-.768.288-1.242.288s-.885-.099-1.233-.297a2.104 2.104 0 0 1-.819-.801 2.294 2.294 0 0 1-.288-1.143c0-.42.096-.798.288-1.134.192-.336.465-.6.819-.792.348-.198.759-.297 1.233-.297.474 0 .888.099 1.242.297.35.198.62.468.81.81.19.336.29.714.29 1.134Zm-.65 0a1.396 1.396 0 0 0-.756-1.26c-.252-.138-.564-.207-.936-.207-.372 0-.684.069-.936.207a1.352 1.352 0 0 0-.567.531 1.418 1.418 0 0 0-.189.711c0 .258.063.498.189.72.126.222.315.402.567.54.252.138.564.207.936.207.372 0 .684-.069.936-.207.252-.138.441-.315.566-.531.13-.222.19-.459.19-.711Zm.65-5.002c0 .534-.14.978-.41 1.332-.27.354-.633.561-1.095.621v-.774c.234-.048.438-.171.615-.369.17-.204.25-.477.25-.819 0-.318-.07-.552-.2-.702a.637.637 0 0 0-.485-.225c-.27 0-.45.099-.54.297-.09.192-.171.465-.243.819-.048.24-.117.48-.207.72-.09.24-.216.441-.378.603-.168.162-.387.243-.657.243-.39 0-.708-.144-.954-.432-.252-.294-.378-.69-.378-1.188 0-.474.12-.861.36-1.161.234-.306.57-.483 1.008-.531v.747a.756.756 0 0 0-.531.297c-.132.162-.198.381-.198.657 0 .27.057.48.171.63a.546.546 0 0 0 .45.216c.18 0 .321-.093.423-.279.102-.192.189-.45.261-.774.06-.276.135-.537.225-.783.084-.252.213-.456.387-.612.168-.162.414-.243.738-.243a1.22 1.22 0 0 1 .998.459c.26.306.39.723.39 1.251Zm-.11-2.79h-6.48v-.756h2.781a1.561 1.561 0 0 1-.639-.639 1.798 1.798 0 0 1-.234-.9c0-.516.162-.93.486-1.242.318-.312.81-.468 1.476-.468h2.61v.747h-2.529c-.93 0-1.395.375-1.395 1.125 0 .39.141.717.423.981.276.264.672.396 1.188.396h2.313v.756Zm.11-9.584c0 .462-.09.864-.25 1.206-.17.342-.41.606-.71.792a1.917 1.917 0 0 1-1.04.279v-.792c.246 0 .474-.057.684-.171.204-.114.366-.279.496-.495.12-.222.18-.495.18-.819 0-.426-.1-.756-.31-.99a.963.963 0 0 0-.762-.351c-.252 0-.453.054-.603.162a1.185 1.185 0 0 0-.378.441c-.096.18-.18.39-.252.63-.072.234-.153.48-.243.738-.168.486-.375.846-.621 1.08-.252.234-.579.351-.981.351a1.585 1.585 0 0 1-.891-.234 1.615 1.615 0 0 1-.612-.684c-.15-.3-.225-.654-.225-1.062 0-.402.075-.75.225-1.044a1.699 1.699 0 0 1 1.521-.954v.792c-.174 0-.345.045-.513.135-.174.09-.315.228-.423.414-.108.18-.162.408-.162.684-.006.342.081.624.261.846.18.216.429.324.747.324.27 0 .477-.075.621-.225.144-.156.264-.372.36-.648.09-.276.195-.594.315-.954.108-.3.234-.57.378-.81.144-.24.33-.426.558-.558.228-.138.519-.207.873-.207.3 0 .585.078.857.234.26.156.48.393.65.711.16.312.25.705.25 1.179Zm0-5.158c0 .426-.1.804-.29 1.134-.2.33-.47.591-.819.783-.348.186-.759.279-1.233.279-.468 0-.876-.093-1.224-.279a2 2 0 0 1-.819-.774 2.244 2.244 0 0 1-.297-1.161c0-.432.099-.804.297-1.116a1.94 1.94 0 0 1 .765-.729 2.164 2.164 0 0 1 1.224-.243h.225v3.555c.342-.018.627-.096.855-.234.222-.144.386-.321.506-.531.11-.216.17-.444.17-.684 0-.312-.07-.573-.22-.783a1.214 1.214 0 0 0-.582-.459v-.747c.414.12.762.351 1.032.693.27.336.41.768.41 1.296Zm-4.043 0c0 .36.111.681.333.963.216.276.534.435.954.477v-2.808c-.402.018-.717.156-.945.414a1.389 1.389 0 0 0-.342.954Zm-1.521-3.576a.53.53 0 0 1-.144.378.53.53 0 0 1-.378.144.488.488 0 0 1-.36-.144.53.53 0 0 1-.144-.378.52.52 0 0 1 .144-.369.474.474 0 0 1 .36-.153c.15 0 .276.051.378.153a.52.52 0 0 1 .144.369Zm5.454.378h-4.464v-.756h4.464v.756Zm.11-4.097c0 .444-.1.834-.31 1.17-.2.33-.48.588-.835.774-.354.18-.756.27-1.206.27a2.5 2.5 0 0 1-1.197-.279 2.062 2.062 0 0 1-.828-.774c-.204-.33-.306-.72-.306-1.17 0-.366.075-.69.225-.972.15-.282.36-.501.63-.657h-2.763v-.756h6.48v.684l-.74.072c.22.144.41.351.59.621.17.27.26.609.26 1.017Zm-.66-.081c0-.3-.07-.564-.21-.792a1.402 1.402 0 0 0-.59-.54 1.875 1.875 0 0 0-.882-.198c-.336 0-.63.066-.882.198a1.378 1.378 0 0 0-.585.54 1.451 1.451 0 0 0-.216.792c0 .294.072.558.216.792.138.228.333.408.585.54.252.126.546.189.882.189.336 0 .63-.063.882-.189.252-.132.45-.312.59-.54.14-.234.21-.498.21-.792Zm.66-5.553c0 .426-.1.804-.29 1.134-.2.33-.47.591-.819.783-.348.186-.759.279-1.233.279-.468 0-.876-.093-1.224-.279a2 2 0 0 1-.819-.774 2.244 2.244 0 0 1-.297-1.161c0-.432.099-.804.297-1.116a1.94 1.94 0 0 1 .765-.729 2.164 2.164 0 0 1 1.224-.243h.225v3.555c.342-.018.627-.096.855-.234.222-.144.386-.321.506-.531.11-.216.17-.444.17-.684 0-.312-.07-.573-.22-.783a1.214 1.214 0 0 0-.582-.459v-.747c.414.12.762.351 1.032.693.27.336.41.768.41 1.296Zm-4.043 0c0 .36.111.681.333.963.216.276.534.435.954.477v-2.808c-.402.018-.717.156-.945.414a1.389 1.389 0 0 0-.342.954Zm3.933-3.117h-4.464v-.684l.801-.045a1.621 1.621 0 0 1-.666-.621 1.75 1.75 0 0 1-.243-.918c0-.528.162-.948.486-1.26.318-.318.81-.477 1.476-.477h2.61v.756h-2.529c-.93 0-1.395.384-1.395 1.152 0 .384.141.705.423.963.276.252.672.378 1.188.378h2.313v.756Z" fill="#000"/><path d="M975.791 2.95h.5v5.902h-.5v5.902h.5v5.901h-.5v5.902h.5v5.901h-.5v5.901h.5v5.902h-.5v5.901h.5v5.902h-.5v5.901h.5v5.902h-.5v5.901h.5v5.902h-.5v5.901h.5v5.902h-.5v5.901h.5v5.902h-.5v5.901h.5v5.902h-.5v5.901h.5v5.901h-.5v5.902h.5v5.901h-.5v5.902h.5v5.901h-.5v5.902h.5v5.901h-.5v5.902h.5v5.901h-.5v5.902h.5v5.901h-.5v5.902h.5v5.901h-.5v5.901h.5v5.902h-.5v5.901h.5v5.902h-.5v5.901h.5v5.902h-.5v5.901h.5v5.902h-.5v2.663l-2.282 1.325.252.432-5.061 2.94-.251-.432-5.06 2.94.251.432-5.06 2.94-.251-.433-5.061 2.94.251.432-5.06 2.94-.251-.432-5.06 2.94.251.432-5.06 2.94-.252-.433-5.06 2.94.251.433-5.06 2.939-.251-.432-5.06 2.94.251.432-5.061 2.94-.251-.432-5.06 2.939.251.433-5.06 2.939-.251-.432-5.061 2.94.252.432-5.061 2.94-.251-.432-5.06 2.939.251.433-5.06 2.94-.251-.433-5.061 2.94.251.432-5.06 2.94-.251-.432-5.06 2.94.251.432-5.06 2.94-.252-.433-5.06 2.94.251.432-5.06 2.94-.251-.432-5.06 2.94.251.432-5.06 2.94-.252-.433-5.06 2.94.251.433-5.06 2.939-.251-.432-5.061 2.94.252.432-5.061 2.94-.251-.432-5.06 2.939.251.433-5.06 2.939-.251-.432-5.061 2.94.252.432-5.061 2.94-.251-.432-5.06 2.939.251.433-5.06 2.94-.251-.433-5.061 2.94.251.432-5.06 2.94-.251-.432-1.779 1.033v-2.184h-.5v-6.105h.5v-6.105h-.5v-6.106h.5v-6.105h-.5v-6.106h.5v-6.105h-.5v-6.105h.5v-6.106h-.5v-6.105h.5v-6.106h-.5v-6.105h.5v-6.105h-.5v-6.106h.5v-6.105h-.5v-6.106h.5v-6.105h-.5v-6.105h.5v-6.106h-.5v-6.105h.5v-6.106h-.5v-6.105h.5v-6.105h-.5v-6.106h.5v-6.105h-.5v-6.106h.5v-6.105h-.5v-6.105h.5v-6.106h-.5v-6.105h.5v-6.105h-.5v-6.106h.5v-6.105h-.5v-6.106h.5v-6.105h-.5v-6.105h.5v-6.106h-.5v-6.105h.5v-6.106h-.5v-6.105h.5v-6.105h-.5v-6.106h.5v-2.753l2.407-1.292-.236-.44 5.341-2.865.237.44 5.341-2.865-.236-.44 5.341-2.866.236.44 5.342-2.864-.237-.44 5.342-2.866.236.44 5.342-2.865-.237-.44 5.342-2.865.236.44 5.341-2.865-.236-.44 5.341-2.866.237.44 5.341-2.864-.236-.44 5.341-2.866.237.44 5.341-2.865-.236-.44 5.341-2.865.236.44 5.342-2.865-.237-.44 5.342-2.866.236.44 5.342-2.864-.237-.441 5.342-2.865.236.44 5.341-2.865-.236-.44 5.341-2.865.237.44 5.341-2.865-.236-.44 5.341-2.866.237.44 5.341-2.864-.236-.441 5.341-2.865.236.44 5.342-2.865-.237-.44 5.342-2.866.236.441 5.342-2.865-.237-.44 5.342-2.866.236.44 5.341-2.864-.236-.441 5.342-2.865.236.44 5.341-2.865-.236-.44 5.341-2.866.237.44 5.341-2.864-.236-.44 5.341-2.866.236.44 5.342-2.865-.236-.44 5.341-2.865.236.44 1.935-1.037V2.95Z" fill="#fff" stroke="silver" stroke-dasharray="6 6"/><g opacity=".5" fill="#3D3D3D"><path d="m851.9 176.611 5.133 12.704-2.686 1.085-5.133-12.703 2.686-1.086ZM859.001 188.52l-3.85-9.528 2.519-1.017.679 1.681.112-.045a2.851 2.851 0 0 1 .458-1.723c.333-.509.822-.894 1.467-1.155.654-.264 1.276-.325 1.867-.184a2.49 2.49 0 0 1 1.449.944l.099-.04a2.732 2.732 0 0 1 .526-1.735c.379-.538.918-.948 1.617-1.231.889-.359 1.725-.367 2.508-.024.786.336 1.387 1.022 1.805 2.056l2.589 6.407-2.636 1.065-2.379-5.886c-.214-.53-.515-.87-.903-1.021-.388-.151-.793-.141-1.215.029-.479.194-.792.498-.937.913-.147.41-.12.864.081 1.36l2.35 5.818-2.561 1.035-2.401-5.942c-.189-.467-.474-.785-.855-.954-.376-.17-.782-.167-1.216.008a1.58 1.58 0 0 0-.704.544 1.664 1.664 0 0 0-.304.838c-.031.315.025.649.167 1l2.31 5.719-2.642 1.068ZM876.185 185.733l-5.293-13.1 2.605-1.053.646 1.601.118-.048c.012-.303.075-.631.187-.985.115-.359.314-.699.598-1.02.286-.328.696-.599 1.229-.815a3.876 3.876 0 0 1 2.144-.231c.732.123 1.421.477 2.067 1.063.644.581 1.186 1.418 1.627 2.51.43 1.063.621 2.029.573 2.9-.045.865-.285 1.604-.72 2.218a3.856 3.856 0 0 1-1.735 1.35c-.512.207-.983.298-1.411.274a2.932 2.932 0 0 1-1.133-.285 3.484 3.484 0 0 1-.839-.578l-.081.033 2.06 5.099-2.642 1.067Zm-.782-9.381c.229.566.507 1.029.835 1.387.327.358.687.595 1.08.71.392.112.8.081 1.226-.091.43-.173.747-.438.949-.794.201-.361.293-.782.275-1.266-.015-.489-.134-1.011-.358-1.565-.222-.55-.494-1.003-.816-1.359-.322-.356-.679-.592-1.072-.707-.393-.115-.807-.085-1.241.09-.43.174-.748.435-.954.782-.201.346-.296.76-.285 1.241.012.481.132 1.005.361 1.572ZM888.392 176.854c-.608.246-1.192.359-1.753.341a2.83 2.83 0 0 1-1.512-.493c-.444-.312-.792-.782-1.046-1.41-.214-.53-.296-1.014-.247-1.452.049-.438.196-.835.443-1.189.246-.355.56-.674.941-.957a9.333 9.333 0 0 1 1.257-.782c.53-.282.955-.516 1.274-.703.318-.191.532-.369.643-.534a.56.56 0 0 0 .044-.552l-.015-.037c-.159-.393-.405-.647-.74-.761-.331-.117-.722-.084-1.173.098-.475.192-.811.451-1.007.775-.198.32-.279.656-.243 1.007l-2.524.789a3.575 3.575 0 0 1 .126-1.797c.191-.573.529-1.089 1.012-1.549.485-.465 1.108-.852 1.869-1.159a6.546 6.546 0 0 1 1.595-.428 4.305 4.305 0 0 1 1.53.053c.485.107.92.321 1.305.642.383.316.689.758.918 1.324l2.596 6.427-2.506 1.012-.534-1.321-.074.03c-.033.36-.131.705-.296 1.036a3.067 3.067 0 0 1-.711.901c-.31.269-.7.499-1.172.689Zm.02-2.129c.389-.157.701-.372.937-.646.234-.277.383-.582.445-.915a1.753 1.753 0 0 0-.109-1.003l-.408-1.011a1.545 1.545 0 0 1-.281.287 6.716 6.716 0 0 1-.43.311c-.165.105-.33.208-.496.308l-.456.264a3.51 3.51 0 0 0-.725.546 1.392 1.392 0 0 0-.377.621c-.061.217-.042.45.058.698.146.36.387.582.724.667.34.079.713.037 1.118-.127ZM899.923 172.203c-.976.394-1.899.527-2.769.397a4.517 4.517 0 0 1-2.314-1.085c-.672-.59-1.202-1.367-1.591-2.33-.395-.976-.552-1.908-.473-2.796a4.526 4.526 0 0 1 .919-2.385c.531-.7 1.277-1.245 2.241-1.634.831-.336 1.62-.479 2.366-.429a3.931 3.931 0 0 1 1.997.672c.584.399 1.044.959 1.378 1.68l-2.493 1.008c-.263-.448-.604-.755-1.022-.922-.417-.174-.867-.163-1.351.033a1.904 1.904 0 0 0-.937.768c-.214.341-.32.757-.319 1.248.001.49.122 1.035.365 1.634.245.608.537 1.092.874 1.451.342.357.711.586 1.107.686.396.099.799.066 1.208-.099.302-.122.548-.293.738-.514.194-.223.322-.484.384-.783a2.244 2.244 0 0 0-.032-.99l2.493-1.008c.253.745.313 1.466.182 2.164a3.887 3.887 0 0 1-.937 1.879c-.495.561-1.166 1.012-2.014 1.355ZM906.821 158.116l.802 1.985-5.738 2.318-.802-1.984 5.738-2.319Zm-5.357-.49 2.642-1.068 3.589 8.883c.099.244.213.419.342.525a.664.664 0 0 0 .423.154c.158-.001.326-.038.504-.11.124-.05.244-.11.36-.181.114-.075.201-.132.263-.171l1.21 1.798a7.872 7.872 0 0 1-.501.368 4.8 4.8 0 0 1-.832.459c-.627.282-1.219.423-1.777.422a2.516 2.516 0 0 1-1.477-.457c-.43-.302-.769-.766-1.017-1.392l-3.729-9.23ZM917.256 157.061l-2.359 1.126a1.348 1.348 0 0 0-.492-.45 1.52 1.52 0 0 0-.703-.186 1.984 1.984 0 0 0-.85.164c-.41.165-.72.391-.931.679-.213.283-.261.567-.146.852a.793.793 0 0 0 .506.467c.245.084.609.084 1.09 0l1.864-.349c1.003-.184 1.818-.157 2.443.081s1.077.7 1.354 1.386c.252.625.29 1.247.112 1.867-.173.619-.525 1.189-1.055 1.711-.527.516-1.205.941-2.032 1.275-1.261.51-2.372.653-3.333.43-.958-.228-1.685-.771-2.181-1.629l2.544-1.187c.234.353.543.57.927.65.382.077.809.02 1.28-.171.463-.187.799-.426 1.009-.717.212-.298.262-.59.151-.877a.787.787 0 0 0-.542-.466c-.262-.077-.617-.074-1.064.011l-1.782.338c-1.006.19-1.829.147-2.469-.128-.637-.277-1.098-.771-1.386-1.483-.247-.612-.295-1.206-.143-1.782.157-.578.488-1.108.995-1.592.511-.486 1.174-.893 1.988-1.222 1.204-.486 2.254-.615 3.15-.385.9.228 1.585.757 2.055 1.587Z"/></g><path opacity=".1" d="M784 103.5 507 122v198.5l277 39v-256Z" fill="url(#c)"/><defs><linearGradient id="a" x1="584.164" y1="39" x2="584.164" y2="320.71" gradientUnits="userSpaceOnUse"><stop stop-color="#800031"/><stop offset="1" stop-color="#FC0000"/></linearGradient><linearGradient id="b" x1="818.5" y1="0" x2="818.5" y2="247.5" gradientUnits="userSpaceOnUse"><stop stop-color="#800031"/><stop offset="1" stop-color="#FC0000"/></linearGradient><linearGradient id="c" x1="645.5" y1="103.5" x2="645.5" y2="359.5" gradientUnits="userSpaceOnUse"><stop stop-color="#800031"/><stop offset="1" stop-color="#FC0000"/></linearGradient></defs></svg>