<svg width="327" height="234" fill="none" xmlns="http://www.w3.org/2000/svg"><path fill-rule="evenodd" clip-rule="evenodd" d="M173.635 228.717c-.22-.229-.22-.601 0-.83l3.592-3.733c.221-.229.578-.229.798 0 .221.229.221.6 0 .829l-2.628 2.732h.294v1.174h-.294l2.628 2.732c.221.229.221.6 0 .829-.22.229-.577.229-.798 0l-3.592-3.733Zm149.608-4.563 3.592 3.733c.22.229.22.601 0 .83l-3.592 3.733c-.221.229-.578.229-.799 0-.22-.229-.22-.6 0-.829l2.629-2.732h-.294v-1.174h.294l-2.629-2.732c-.22-.229-.22-.6 0-.829.221-.229.578-.229.799 0Zm-140.926 4.735h-3.313v-1.174h3.313v1.174Zm6.626 0h-3.313v-1.174h3.313v1.174Zm6.626 0h-3.313v-1.174h3.313v1.174Zm6.626 0h-3.313v-1.174h3.313v1.174Zm6.626 0h-3.313v-1.174h3.313v1.174Zm6.627 0h-3.313v-1.174h3.313v1.174Zm6.626 0h-3.313v-1.174h3.313v1.174Zm6.626 0h-3.313v-1.174h3.313v1.174Zm6.626 0h-3.313v-1.174h3.313v1.174Zm6.626 0h-3.313v-1.174h3.313v1.174Zm6.626 0h-3.313v-1.174h3.313v1.174Zm6.627 0h-3.313v-1.174h3.313v1.174Zm6.626 0h-3.313v-1.174h3.313v1.174Zm6.626 0h-3.313v-1.174h3.313v1.174Zm6.626 0h-3.313v-1.174h3.313v1.174Zm6.626 0h-3.313v-1.174h3.313v1.174Zm6.626 0h-3.313v-1.174h3.313v1.174Zm6.627 0h-3.314v-1.174h3.314v1.174Zm6.626 0h-3.313v-1.174h3.313v1.174Zm6.626 0h-3.313v-1.174h3.313v1.174Zm6.626 0h-3.313v-1.174h3.313v1.174Zm6.626 0h-3.313v-1.174h3.313v1.174Z" fill="silver"/><path d="M122 22 35 68.7234V181l87-46.723V22Z" fill="url(#a)"/><path d="M57.815 111.176c.5323.922.8105 1.807.8343 2.656.0267.847-.1615 1.614-.5645 2.302-.4017.683-.9756 1.24-1.7215 1.671-.7513.434-1.5242.652-2.3185.656-.7942.004-1.5515-.218-2.2717-.665-.7202-.446-1.3457-1.129-1.8764-2.048-.5324-.922-.8118-1.807-.8385-2.654-.0266-.847.161-1.612.5628-2.295.4002-.687.976-1.246 1.7273-1.68.7459-.431 1.516-.648 2.3103-.652.7954-.007 1.5533.212 2.2735.658.7229.445 1.3506 1.129 1.8829 2.051Zm-1.8124 1.046c-.3448-.597-.725-1.049-1.1407-1.356-.4129-.308-.8416-.475-1.2859-.501-.4444-.026-.8826.085-1.3148.335-.4321.249-.748.573-.9476.971-.1997.398-.2706.853-.2127 1.367.0606.512.2633 1.066.6082 1.663.3448.598.7236 1.05 1.1366 1.359.4156.307.8456.473 1.29.499.4444.026.8826-.086 1.3147-.335.4322-.25.748-.573.9477-.971s.2692-.853.2086-1.365c-.0579-.513-.2592-1.068-.6041-1.666ZM63.9267 109.684l-2.1023-3.641 1.7588-1.016 3.6611 6.342-1.6885.975-.665-1.152-.0661.038c.0714.454.0057.89-.197 1.308-.2.416-.538.762-1.0142 1.037-.4238.245-.8524.364-1.2856.357-.4333-.007-.8432-.135-1.2299-.385-.3838-.252-.7202-.625-1.0089-1.119l-2.3312-4.037 1.7587-1.016 2.15 3.724c.2189.373.4902.611.8139.714.3237.103.652.058.985-.134.212-.123.3823-.285.5111-.488.1272-.205.1916-.437.1932-.695.0044-.259-.0766-.53-.2431-.812ZM68.235 102.342l.7627 1.321-3.8188 2.205-.7627-1.322 3.8188-2.204Zm-3.829.185 1.7587-1.016 3.4133 5.912c.0937.163.1916.275.2936.337.1004.06.2049.082.3137.067.1114-.017.2264-.059.3447-.128.0826-.047.1612-.102.2358-.163.073-.065.1292-.114.1684-.147l1.0322 1.149c-.0721.078-.1777.181-.3167.309-.1374.131-.3179.266-.5416.407-.4143.261-.8184.419-1.2124.474-.3912.053-.7535-.005-1.087-.176-.3334-.171-.6188-.465-.856-.882l-3.5467-6.143ZM75.7824 106.604c-.6495.375-1.2877.56-1.9145.555-.6256-.009-1.2059-.188-1.7408-.536-.5321-.35-.9833-.845-1.3536-1.486-.375-.65-.5787-1.292-.6111-1.926-.0312-.639.1063-1.231.4125-1.774.3047-.547.7777-1.005 1.4189-1.376.5533-.319 1.0957-.4982 1.6273-.5372.5316-.0391 1.0233.0532 1.4753.2766.4519.2236.8317.5726 1.1393 1.0486l-1.6596.958c-.2295-.289-.5004-.472-.8125-.549-.311-.081-.6275-.029-.9495.157-.2725.158-.4677.369-.5855.636-.1167.262-.1504.565-.1012.911.0492.346.189.719.4195 1.118.2335.404.4872.717.761.937.2765.218.5595.343.849.374.2895.031.5704-.033.8429-.19.2009-.116.3574-.261.4693-.436.1147-.176.1791-.373.1931-.59.0152-.222-.0251-.454-.1207-.696l1.6596-.958c.2521.5.3663 1.003.3426 1.509-.0226.501-.1808.974-.4744 1.419-.2937.444-.7227.83-1.2869 1.155ZM82.4778 102.739c-.6413.37-1.2745.554-1.8997.552-.624-.007-1.2041-.182-1.7402-.526-.5376-.346-.9939-.844-1.369-1.494-.3781-.655-.5821-1.3006-.6117-1.9367-.0312-.6389.1071-1.2288.4149-1.7698.309-.5454.7841-1.0032 1.4254-1.3735.6413-.3702 1.2739-.552 1.898-.5453.6252.0023 1.2066.1767 1.7443.5232.536.3437.9932.8431 1.3714 1.4982.375.6495.5781 1.2937.6093 1.9326.0296.6363-.11 1.2263-.419 1.7723-.3078.541-.7824.997-1.4237 1.367Zm-.7783-1.367c.2918-.169.4877-.392.5877-.67.0985-.281.1139-.594.0461-.9403-.065-.3478-.204-.7061-.4169-1.0749s-.4538-.6683-.7224-.8985c-.266-.2318-.5451-.3753-.8375-.4303-.2923-.0551-.5843.0016-.8761.17-.2945.1701-.4937.397-.5977.6809-.1012.2823-.1193.5973-.0543.9451.0677.3462.2081.7037.421 1.073.2129.368.4524.669.7183.9.2687.231.5506.372.8457.426.2962.049.5916-.011.8861-.181ZM86.5431 100.227l-3.6611-6.3418 1.6761-.9677.646 1.1188.0743-.0429c-.0824-.4478-.0315-.8681.1528-1.2607.1844-.3927.4912-.7129.9205-.9608.4349-.2511.8679-.3561 1.2989-.3151.4294.0383.8016.2125 1.1163.5225l.0661-.0381c-.0804-.438-.0141-.8635.1989-1.2763.2141-.4173.5538-.7602 1.0189-1.0287.5918-.3416 1.1809-.4304 1.7674-.2663.5877.1598 1.0801.5838 1.4774 1.2718l2.4622 4.2647-1.7546 1.013-2.262-3.9179c-.2034-.3523-.4495-.5625-.7383-.6305-.2889-.0681-.5737-.0211-.8544.1409-.3193.1844-.5096.43-.5709.737-.0629.3042.001.6214.1917.9517l2.2358 3.8725-1.7051.9844-2.2834-3.9551c-.1796-.311-.4121-.507-.6974-.5882-.2826-.0827-.5684-.0406-.8574.1263-.1954.1128-.343.264-.4427.4537-.0985.1853-.1423.3922-.1314.6208.0093.2259.0814.4558.2165.6897l2.1976 3.8064-1.7587 1.0159ZM99.9806 92.6335c-.6523.3767-1.2901.5687-1.9133.5762-.622.0032-1.2002-.1657-1.7347-.5067-.5361-.3437-.9972-.85-1.3833-1.5188-.3766-.6523-.5805-1.2978-.6117-1.9367-.0313-.6388.1035-1.2286.4042-1.7692.3035-.5422.7662-.9928 1.3883-1.3519.4183-.2416.8467-.399 1.2851-.4723.4396-.0776.8713-.0608 1.2952.0504.4266.1097.8324.3231 1.2173.6403.3833.3144.7313.7414 1.0423 1.2808l.279.483-5.3547 3.0915-.6293-1.0899 3.6991-2.1357c-.1462-.2532-.3308-.4457-.5537-.5776-.2229-.1318-.4638-.1964-.7228-.1936-.2578-.0016-.5147.0714-.7707.2192-.2669.1542-.4679.3527-.6028.5958-.1338.2387-.1988.4946-.1953.7677.002.2705.074.5317.2158.7837l.5983 1.0363c.1811.3137.3955.5515.6429.7132.2503.1601.5185.2401.8047.24.2862-.0001.5765-.0852.871-.2552.1954-.1128.3584-.2436.489-.3924.1306-.1488.222-.3116.2735-.4885.053-.1768.063-.3625.031-.5571l1.689-.8318c.143.4385.171.8775.083 1.3171-.086.4351-.284.8499-.592 1.2443-.307.39-.721.736-1.2444 1.0379ZM106.498 82.6613l-1.552 1.0286c-.107-.1217-.238-.2114-.392-.269-.156-.0604-.328-.0808-.515-.061-.185.0154-.38.0819-.583.1995-.273.1573-.469.3478-.59.5714-.122.2209-.128.4263-.018.6163.087.1513.221.2444.403.279.181.0347.438-.0013.769-.1081l1.281-.4314c.69-.2293 1.267-.291 1.732-.1851.464.106.829.3874 1.093.8442.239.4156.328.851.264 1.3062-.061.4536-.253.8908-.575 1.3117-.321.4165-.757.7837-1.307 1.1015-.84.4846-1.609.696-2.309.6341-.699-.0663-1.266-.3775-1.701-.9338l1.677-1.0895c.2.2257.44.3481.719.3669.277.0161.572-.0664.886-.2475.308-.178.522-.3802.641-.6066.12-.2307.126-.4419.019-.6334-.095-.158-.237-.2498-.428-.2754-.193-.0283-.443.0095-.75.1134l-1.224.4152c-.691.2337-1.276.2851-1.755.1544-.476-.1323-.851-.4351-1.124-.9085-.236-.4074-.328-.8218-.278-1.2435.053-.4232.234-.8306.544-1.2222.312-.3932.74-.7464 1.282-1.0594.801-.4624 1.529-.657 2.184-.5839.658.0716 1.194.3769 1.607.9159Z" fill="#F2F2F2"/><path d="M197.396 220.659h106.342v13.292H197.396v-13.292Z" fill="#fff"/><path d="M211.411 229.299c-.407 0-.763-.065-1.069-.196-.306-.131-.547-.317-.721-.559-.169-.243-.256-.531-.261-.865h.887c.005.271.108.501.309.69.2.189.483.284.847.284.322 0 .573-.071.752-.211.185-.145.277-.329.277-.552 0-.179-.045-.325-.134-.436-.085-.111-.204-.203-.357-.276-.148-.073-.319-.138-.514-.196-.196-.058-.402-.121-.618-.189-.428-.131-.75-.3-.966-.508-.211-.209-.317-.482-.317-.821-.005-.286.066-.535.214-.748.153-.213.364-.378.633-.494.275-.121.594-.182.959-.182.358 0 .673.061.942.182.274.121.488.29.641.508.153.213.232.463.238.748h-.887c0-.13-.037-.254-.111-.37-.074-.121-.182-.221-.325-.298-.142-.077-.316-.116-.522-.116-.264-.005-.483.055-.657.181-.169.126-.254.301-.254.523 0 .199.064.351.19.458.127.107.301.196.523.269.222.068.475.147.76.239.274.083.52.182.736.298.217.116.388.269.515.458.132.189.198.428.198.719 0 .257-.071.496-.214.719-.142.218-.356.397-.641.538-.285.135-.636.203-1.053.203ZM214.205 229.212v-3.603h.752l.072.683c.137-.237.327-.424.57-.56.248-.14.546-.21.894-.21v.806h-.229c-.233 0-.441.036-.626.109-.179.068-.324.187-.435.356-.106.165-.159.395-.159.69v1.729h-.839ZM217.229 229.255c-.159 0-.291-.046-.396-.138-.101-.096-.151-.21-.151-.341 0-.136.05-.249.151-.341.105-.097.237-.146.396-.146.158 0 .287.049.388.146.1.092.15.205.15.341 0 .131-.05.245-.15.341-.101.092-.23.138-.388.138ZM220.639 229.212v-5.085h.84v4.475h2.518v.61h-3.358ZM226.535 229.299c-.385 0-.728-.077-1.029-.232-.296-.16-.528-.381-.697-.661-.169-.281-.253-.608-.253-.981 0-.378.082-.709.245-.995.169-.286.401-.509.697-.668.301-.16.649-.24 1.045-.24.386 0 .721.08 1.006.24.285.155.507.363.665.624.158.262.238.55.238.865 0 .048-.003.101-.008.159 0 .054-.003.114-.008.182h-3.057c.027.349.151.615.372.799.227.179.489.269.784.269.238 0 .436-.049.594-.145.164-.102.285-.238.364-.407h.84c-.106.339-.317.622-.634.85-.311.227-.699.341-1.164.341Zm0-3.145c-.279 0-.528.077-.744.232-.216.15-.348.378-.396.683h2.217c-.016-.281-.124-.504-.324-.668-.201-.165-.452-.247-.753-.247ZM230.653 229.299c-.333 0-.607-.051-.824-.153-.216-.101-.377-.234-.483-.399-.105-.17-.158-.354-.158-.552 0-.349.148-.625.443-.828.296-.204.718-.305 1.267-.305h1.03v-.066c0-.28-.085-.491-.254-.632-.163-.14-.377-.21-.641-.21-.232 0-.436.053-.61.16-.169.101-.272.254-.309.457h-.839c.026-.261.121-.484.285-.668.169-.189.38-.332.633-.429.259-.101.542-.152.848-.152.549 0 .974.133 1.275.399.3.262.451.62.451 1.075v2.216h-.729l-.071-.618c-.111.199-.272.366-.483.502-.211.135-.488.203-.831.203Zm.166-.625c.227 0 .417-.048.57-.145.159-.102.28-.235.364-.399.09-.165.146-.347.167-.545h-.935c-.332 0-.57.053-.712.16-.138.106-.206.239-.206.399 0 .165.066.295.198.392.137.092.322.138.554.138ZM235.535 229.299c-.38 0-.715-.082-1.005-.247-.291-.165-.518-.39-.681-.675-.164-.286-.246-.611-.246-.974s.082-.685.246-.966c.163-.286.39-.508.681-.668.295-.165.633-.247 1.013-.247.312 0 .583.056.816.167.237.111.422.269.554.472v-2.179h.839v5.23H237l-.087-.559c-.127.169-.301.319-.523.45-.221.131-.506.196-.855.196Zm.151-.668c.359 0 .652-.114.879-.342.232-.227.348-.52.348-.879 0-.363-.116-.656-.348-.878-.227-.228-.52-.342-.879-.342s-.655.114-.887.342c-.233.222-.349.515-.349.878 0 .238.053.448.159.632.105.184.25.33.435.436.19.102.404.153.642.153ZM240.648 229.299c-.386 0-.729-.077-1.03-.232-.295-.16-.528-.381-.697-.661-.169-.281-.253-.608-.253-.981 0-.378.082-.709.245-.995.169-.286.402-.509.697-.668.301-.16.65-.24 1.046-.24.385 0 .72.08 1.005.24.285.155.507.363.665.624.159.262.238.55.238.865 0 .048-.003.101-.008.159 0 .054-.003.114-.008.182h-3.056c.026.349.15.615.372.799.227.179.488.269.784.269.237 0 .435-.049.593-.145.164-.102.286-.238.365-.407h.839c-.106.339-.317.622-.633.85-.312.227-.7.341-1.164.341Zm0-3.145c-.28 0-.528.077-.745.232-.216.15-.348.378-.396.683h2.217c-.015-.281-.124-.504-.324-.668-.201-.165-.452-.247-.752-.247ZM243.435 229.212v-3.603h.752l.071.683c.137-.237.327-.424.57-.56.248-.14.547-.21.895-.21v.806h-.23c-.232 0-.44.036-.625.109-.18.068-.325.187-.436.356-.105.165-.158.395-.158.69v1.729h-.839ZM248.011 229.299c-.497 0-.906-.111-1.228-.334-.322-.223-.507-.518-.554-.886h.847c.042.164.143.307.301.428.158.116.367.175.626.175.253 0 .438-.049.554-.146.116-.097.174-.208.174-.334 0-.184-.082-.307-.245-.37-.159-.068-.38-.129-.665-.182-.222-.043-.444-.102-.666-.174-.216-.073-.398-.175-.546-.305-.143-.136-.214-.317-.214-.545 0-.315.132-.576.396-.785.264-.213.634-.319 1.109-.319.438 0 .792.097 1.061.29.274.194.435.468.483.821h-.808c-.026-.155-.105-.276-.237-.363-.127-.087-.299-.131-.515-.131-.211 0-.375.041-.491.124-.116.077-.174.179-.174.305s.079.225.237.298c.164.072.378.138.642.196.264.053.506.116.728.189.227.067.409.169.547.305.137.135.205.334.205.595.006.33-.134.603-.419.821-.28.218-.663.327-1.148.327ZM252.688 229.212v-2.957h-.563v-.646h.563v-.523c0-.392.105-.673.316-.843.217-.174.52-.261.911-.261h.412v.654h-.285c-.185 0-.317.036-.396.109-.079.067-.119.184-.119.348v.516h.903v.646h-.903v2.957h-.839ZM256.91 229.299c-.375 0-.713-.077-1.014-.232-.296-.16-.531-.381-.705-.661-.174-.286-.261-.618-.261-.996 0-.377.087-.707.261-.987.18-.286.42-.506.721-.661.301-.16.636-.24 1.005-.24.375 0 .71.08 1.006.24.301.155.538.375.713.661.179.28.269.61.269.987 0 .378-.09.71-.269.996-.175.28-.412.501-.713.661-.301.155-.639.232-1.013.232Zm0-.661c.2 0 .385-.046.554-.138.174-.092.314-.228.419-.407.106-.184.159-.411.159-.683 0-.271-.053-.496-.159-.675-.1-.184-.237-.322-.411-.414-.169-.092-.354-.138-.555-.138-.2 0-.388.046-.562.138-.169.092-.306.23-.412.414-.105.179-.158.404-.158.675 0 .272.053.499.158.683.106.179.243.315.412.407.169.092.354.138.555.138ZM261.673 229.299c-.385 0-.731-.08-1.037-.24-.301-.16-.538-.38-.713-.661-.168-.285-.253-.615-.253-.988 0-.372.085-.699.253-.98.175-.286.412-.509.713-.668.306-.16.652-.24 1.037-.24.486 0 .893.116 1.22.349.332.232.546.547.641.944h-.879c-.052-.199-.169-.354-.348-.465-.18-.111-.391-.167-.634-.167-.205 0-.395.048-.57.145-.174.092-.314.23-.419.414-.106.179-.159.402-.159.668 0 .267.053.492.159.676.105.179.245.317.419.414.175.097.365.145.57.145.243 0 .454-.055.634-.167.179-.111.296-.269.348-.472h.879c-.09.387-.301.7-.633.937-.333.237-.742.356-1.228.356ZM265.894 229.299c-.476 0-.85-.136-1.125-.407-.269-.271-.404-.675-.404-1.213v-2.07h.84v1.99c0 .698.311 1.046.934 1.046.311 0 .568-.101.768-.305.201-.203.301-.494.301-.871v-1.86h.839v3.603h-.744l-.063-.632c-.122.223-.301.399-.539.53-.232.126-.501.189-.807.189ZM270.683 229.299c-.496 0-.905-.111-1.227-.334-.322-.223-.507-.518-.555-.886h.848c.042.164.142.307.3.428.159.116.367.175.626.175.253 0 .438-.049.554-.146.116-.097.174-.208.174-.334 0-.184-.081-.307-.245-.37-.158-.068-.38-.129-.665-.182-.222-.043-.444-.102-.665-.174-.217-.073-.399-.175-.547-.305-.142-.136-.213-.317-.213-.545 0-.315.132-.576.395-.785.264-.213.634-.319 1.109-.319.438 0 .792.097 1.061.29.275.194.436.468.483.821h-.808c-.026-.155-.105-.276-.237-.363-.127-.087-.298-.131-.515-.131-.211 0-.375.041-.491.124-.116.077-.174.179-.174.305s.079.225.238.298c.163.072.377.138.641.196.264.053.507.116.728.189.227.067.41.169.547.305.137.135.206.334.206.595.005.33-.135.603-.42.821-.28.218-.662.327-1.148.327ZM275.162 229.212v-5.23h.839v2.208c.132-.208.315-.37.547-.487.237-.121.499-.181.784-.181.47 0 .839.135 1.108.407.269.271.404.675.404 1.213v2.07h-.831v-1.99c0-.698-.304-1.046-.911-1.046-.317 0-.581.101-.792.305-.206.203-.309.494-.309.871v1.86h-.839ZM281.67 229.299c-.386 0-.729-.077-1.03-.232-.295-.16-.528-.381-.697-.661-.168-.281-.253-.608-.253-.981 0-.378.082-.709.246-.995.169-.286.401-.509.696-.668.301-.16.65-.24 1.046-.24.385 0 .72.08 1.005.24.285.155.507.363.665.624.159.262.238.55.238.865 0 .048-.003.101-.008.159 0 .054-.003.114-.008.182h-3.056c.026.349.15.615.372.799.227.179.488.269.784.269.237 0 .435-.049.594-.145.163-.102.285-.238.364-.407h.839c-.105.339-.317.622-.633.85-.312.227-.7.341-1.164.341Zm0-3.145c-.28 0-.528.077-.745.232-.216.15-.348.378-.396.683h2.218c-.016-.281-.124-.504-.325-.668-.201-.165-.451-.247-.752-.247ZM284.457 229.212v-3.603h.752l.071.683c.138-.237.328-.424.57-.56.249-.14.547-.21.895-.21v.806h-.229c-.233 0-.441.036-.626.109-.179.068-.325.187-.435.356-.106.165-.159.395-.159.69v1.729h-.839ZM289.194 229.299c-.386 0-.729-.077-1.03-.232-.295-.16-.528-.381-.697-.661-.168-.281-.253-.608-.253-.981 0-.378.082-.709.246-.995.168-.286.401-.509.696-.668.301-.16.65-.24 1.046-.24.385 0 .72.08 1.005.24.285.155.507.363.665.624.159.262.238.55.238.865 0 .048-.003.101-.008.159 0 .054-.003.114-.008.182h-3.056c.026.349.15.615.372.799.227.179.488.269.784.269.237 0 .435-.049.594-.145.163-.102.285-.238.364-.407h.839c-.105.339-.317.622-.633.85-.312.227-.7.341-1.164.341Zm0-3.145c-.28 0-.528.077-.745.232-.216.15-.348.378-.396.683h2.218c-.016-.281-.125-.504-.325-.668-.201-.165-.451-.247-.752-.247Z" fill="#3D3D3D"/><path fill-rule="evenodd" clip-rule="evenodd" d="M.1654 228.717c-.22053-.229-.22053-.601 0-.83l3.59377-3.733c.22053-.229.57808-.229.79862 0 .22053.229.22053.6 0 .829l-2.62976 2.732h.30727v1.174h-.30727l2.62976 2.732c.22053.229.22053.6 0 .829-.22054.229-.57809.229-.79862 0L.1654 228.717Zm157.5816-4.563 3.594 3.733c.22.229.22.601 0 .83l-3.594 3.733c-.221.229-.578.229-.799 0-.22-.229-.22-.6 0-.829l2.63-2.732h-.307v-1.174h.307l-2.63-2.732c-.22-.229-.22-.6 0-.829.221-.229.578-.229.799 0ZM8.91766 228.889H5.57648v-1.174h3.34118v1.174Zm6.68234 0h-3.3412v-1.174H15.6v1.174Zm6.6824 0h-3.3412v-1.174h3.3412v1.174Zm6.6823 0h-3.3411v-1.174h3.3411v1.174Zm6.6824 0h-3.3412v-1.174h3.3412v1.174Zm6.6824 0h-3.3412v-1.174h3.3412v1.174Zm6.6823 0h-3.3411v-1.174h3.3411v1.174Zm6.6824 0H52.353v-1.174h3.3412v1.174Zm6.6824 0h-3.3412v-1.174h3.3412v1.174Zm6.6823 0h-3.3412v-1.174h3.3412v1.174Zm6.6824 0h-3.3412v-1.174h3.3412v1.174Zm6.6823 0h-3.3411v-1.174h3.3411v1.174Zm6.6824 0h-3.3412v-1.174h3.3412v1.174Zm6.6824 0h-3.3412v-1.174h3.3412v1.174Zm6.6826 0h-3.3414v-1.174h3.3414v1.174Zm6.682 0h-3.341v-1.174h3.341v1.174Zm6.682 0h-3.341v-1.174h3.341v1.174Zm6.683 0h-3.341v-1.174h3.341v1.174Zm6.682 0h-3.341v-1.174h3.341v1.174Zm6.683 0h-3.342v-1.174h3.342v1.174Zm6.682 0h-3.341v-1.174h3.341v1.174Zm6.682 0h-3.341v-1.174h3.341v1.174Zm6.683 0h-3.342v-1.174h3.342v1.174Z" fill="#FC0000"/><path d="M25.2559 220.659H128.274v13.292H25.2559v-13.292Z" fill="#fff"/><path d="M33.8965 230.509v-6.992h2.4396c.5601 0 1.019.093 1.3767.28.3644.186.6343.439.8098.759.1754.313.2632.662.2632 1.049 0 .432-.1181.825-.3543 1.178-.2295.353-.5905.606-1.0832.759l1.5083 2.967h-1.2451l-1.3767-2.817h-1.2653v2.817h-1.073Zm1.073-3.616h1.3058c.4859 0 .8402-.117 1.0629-.35.2295-.233.3442-.536.3442-.908 0-.373-.1114-.67-.3341-.889-.2227-.227-.5837-.34-1.0831-.34h-1.2957v2.487ZM40.622 224.616c-.2024 0-.3712-.06-.5061-.18-.1283-.127-.1924-.283-.1924-.469 0-.187.0641-.34.1924-.46.1349-.126.3037-.19.5061-.19.2025 0 .3678.064.496.19.135.12.2025.273.2025.46 0 .186-.0675.342-.2025.469-.1282.12-.2935.18-.496.18Zm-.5365 5.893v-4.954h1.073v4.954h-1.073ZM44.5793 230.628c-.6344 0-1.1574-.153-1.569-.459-.4117-.306-.6479-.713-.7086-1.219h1.0831c.054.227.1822.423.3847.59.2024.16.469.239.7997.239.3239 0 .5601-.066.7085-.199.1485-.134.2227-.287.2227-.46 0-.253-.1046-.423-.3138-.509-.2024-.093-.4859-.177-.8503-.25-.2834-.06-.5668-.14-.8503-.24-.2767-.099-.5095-.239-.6984-.419-.1823-.186-.2734-.436-.2734-.749 0-.433.1688-.792.5062-1.079.3374-.293.8098-.439 1.4172-.439.5601 0 1.0122.133 1.3564.399.3509.267.5568.643.6175 1.129H45.379c-.0338-.213-.135-.38-.3037-.5-.162-.119-.3813-.179-.658-.179-.2699 0-.4791.056-.6276.17-.1485.106-.2227.246-.2227.419s.1012.31.3037.409c.2092.1.4825.19.8199.27.3375.073.6479.16.9313.26.2902.093.523.233.6985.419.1754.187.2632.46.2632.819.0067.453-.1721.829-.5365 1.129-.3577.3-.847.449-1.4678.449ZM50.1034 230.628c-.4926 0-.9313-.106-1.3159-.319-.3779-.22-.6749-.523-.8908-.909-.216-.386-.3239-.836-.3239-1.348 0-.52.1046-.976.3138-1.369.2159-.393.5128-.699.8908-.919.3846-.219.83-.329 1.3362-.329.4926 0 .9211.11 1.2855.329.3645.213.6479.5.8504.859.2024.36.3036.756.3036 1.189 0 .066-.0033.14-.0101.22 0 .073-.0034.156-.0101.249h-3.9074c.0338.48.1924.846.4758 1.099.2902.246.6242.369 1.0021.369.3037 0 .5568-.066.7592-.199.2092-.14.3645-.327.4657-.56h1.073c-.135.466-.4049.856-.8098 1.169-.3982.313-.8942.469-1.4881.469Zm0-4.324c-.3576 0-.6748.106-.9515.319-.2767.207-.4454.52-.5061.939h2.8343c-.0202-.386-.1586-.692-.415-.919-.2564-.226-.577-.339-.9617-.339ZM56.1263 230.628c-.4724 0-.9009-.083-1.2856-.249-.3779-.173-.6816-.413-.911-.719-.2227-.307-.3341-.666-.3341-1.079 0-.42.1181-.796.3543-1.129.243-.333.5635-.559.9617-.679-.3577-.14-.6344-.343-.8301-.609-.1957-.273-.2936-.573-.2936-.899 0-.34.0912-.649.2734-.929.1822-.286.4454-.513.7895-.679.351-.173.7761-.26 1.2755-.26.4994 0 .9212.087 1.2653.26.351.166.6175.393.7997.679.1822.28.2733.589.2733.929 0 .32-.1012.619-.3036.899-.1957.273-.4724.476-.8301.609.3982.127.7153.356.9515.689.243.327.3645.699.3645 1.119 0 .413-.1114.772-.3341 1.079-.2227.306-.5264.546-.911.719-.378.166-.8031.249-1.2755.249Zm0-4.194c.3914 0 .6985-.1.9212-.3.2294-.2.3441-.456.3441-.769 0-.353-.1113-.623-.334-.809-.2227-.187-.5331-.28-.9313-.28s-.7086.093-.9313.28c-.2227.186-.334.456-.334.809 0 .313.1113.569.334.769.2227.2.5331.3.9313.3Zm0 3.295c.4859 0 .8503-.113 1.0933-.339.2429-.233.3644-.529.3644-.889 0-.4-.1316-.706-.3948-.919-.2565-.22-.6108-.329-1.0629-.329-.4522 0-.8098.109-1.073.329-.2632.213-.3948.519-.3948.919 0 .36.1215.656.3644.889.2497.226.6175.339 1.1034.339ZM62.7473 230.509v-4.065h-.7187v-.889h.7187v-.719c0-.54.1349-.926.4049-1.159.2767-.24.6647-.36 1.1641-.36h.5264v.899h-.3644c-.2362 0-.405.05-.5062.15-.1012.093-.1518.253-.1518.479v.71h1.154v.889h-1.154v4.065h-1.073ZM68.1444 230.628c-.4791 0-.911-.106-1.2957-.319-.3779-.22-.6782-.523-.9009-.909-.2227-.393-.3341-.849-.3341-1.368 0-.52.1114-.973.3341-1.359.2294-.393.5365-.696.9212-.909.3846-.219.8131-.329 1.2855-.329.4792 0 .9077.11 1.2856.329.3847.213.6884.516.9111.909.2294.386.3441.839.3441 1.359 0 .519-.1147.975-.3441 1.368-.2227.386-.5264.689-.9111.909-.3846.213-.8165.319-1.2957.319Zm0-.909c.2565 0 .4927-.063.7086-.189.2227-.127.4015-.313.5365-.56.135-.253.2025-.566.2025-.938 0-.373-.0675-.683-.2025-.929-.1282-.253-.3037-.443-.5264-.57-.2159-.126-.4521-.189-.7086-.189-.2564 0-.496.063-.7187.189-.2159.127-.3914.317-.5264.57-.1349.246-.2024.556-.2024.929 0 .372.0675.685.2024.938.135.247.3105.433.5264.56.216.126.4522.189.7086.189ZM74.2346 230.628c-.4927 0-.9347-.11-1.3261-.329-.3847-.22-.6883-.523-.911-.909-.216-.393-.324-.846-.324-1.358 0-.513.108-.963.324-1.349.2227-.393.5263-.699.911-.919.3914-.219.8334-.329 1.3261-.329.6208 0 1.1405.16 1.5589.479.4251.32.6984.753.8199 1.299h-1.1236c-.0675-.273-.216-.486-.4454-.64-.2295-.153-.4994-.229-.8098-.229-.2632 0-.5062.066-.7289.199-.2227.127-.4015.317-.5365.57-.1349.246-.2024.552-.2024.919 0 .366.0675.675.2024.928.135.247.3138.437.5365.57.2227.133.4657.199.7289.199.3104 0 .5803-.076.8098-.229.2294-.153.3779-.37.4454-.649h1.1236c-.1147.532-.3846.962-.8098 1.288-.4252.326-.9482.489-1.569.489ZM79.6296 230.628c-.6074 0-1.0865-.186-1.4374-.559-.3442-.373-.5163-.929-.5163-1.668v-2.846h1.073v2.736c0 .959.3982 1.438 1.1945 1.438.3982 0 .7255-.139.9819-.419.2564-.28.3847-.679.3847-1.199v-2.556h1.073v4.954h-.9516l-.0809-.869c-.1553.306-.3847.549-.6884.729-.2969.173-.6411.259-1.0325.259ZM85.7523 230.628c-.6344 0-1.1574-.153-1.5691-.459-.4116-.306-.6478-.713-.7086-1.219h1.0832c.054.227.1822.423.3846.59.2025.16.4691.239.7997.239.324 0 .5602-.066.7086-.199.1485-.134.2227-.287.2227-.46 0-.253-.1046-.423-.3138-.509-.2024-.093-.4859-.177-.8503-.25-.2834-.06-.5669-.14-.8503-.24-.2767-.099-.5095-.239-.6985-.419-.1822-.186-.2733-.436-.2733-.749 0-.433.1687-.792.5062-1.079.3374-.293.8098-.439 1.4171-.439.5602 0 1.0123.133 1.3565.399.3509.267.5567.643.6175 1.129H86.552c-.0338-.213-.135-.38-.3037-.5-.162-.119-.3813-.179-.658-.179-.2699 0-.4791.056-.6276.17-.1485.106-.2227.246-.2227.419s.1012.31.3037.409c.2092.1.4825.19.8199.27.3374.073.6479.16.9313.26.2902.093.523.233.6985.419.1754.187.2632.46.2632.819.0067.453-.1721.829-.5365 1.129-.3577.3-.847.449-1.4678.449ZM91.2764 230.628c-.4926 0-.9313-.106-1.3159-.319-.3779-.22-.6749-.523-.8908-.909-.216-.386-.324-.836-.324-1.348 0-.52.1046-.976.3138-1.369.216-.393.5129-.699.8908-.919.3847-.219.8301-.329 1.3362-.329.4927 0 .9212.11 1.2856.329.3644.213.6479.5.8503.859.2025.36.3037.756.3037 1.189 0 .066-.0034.14-.0101.22 0 .073-.0034.156-.0101.249h-3.9074c.0337.48.1923.846.4758 1.099.2902.246.6242.369 1.0021.369.3037 0 .5568-.066.7592-.199.2092-.14.3644-.327.4657-.56h1.073c-.135.466-.4049.856-.8098 1.169-.3982.313-.8942.469-1.4881.469Zm0-4.324c-.3576 0-.6748.106-.9515.319-.2767.207-.4454.52-.5062.939h2.8344c-.0202-.386-.1586-.692-.415-.919-.2565-.226-.577-.339-.9617-.339ZM96.8438 230.628c-.6344 0-1.1574-.153-1.5691-.459-.4116-.306-.6478-.713-.7086-1.219h1.0832c.054.227.1822.423.3846.59.2025.16.4691.239.7997.239.324 0 .5602-.066.7086-.199.1485-.134.2227-.287.2227-.46 0-.253-.1046-.423-.3138-.509-.2024-.093-.4859-.177-.8503-.25-.2834-.06-.5669-.14-.8503-.24-.2767-.099-.5095-.239-.6985-.419-.1822-.186-.2733-.436-.2733-.749 0-.433.1687-.792.5062-1.079.3374-.293.8098-.439 1.4171-.439.5602 0 1.0123.133 1.3565.399.3509.267.5567.643.6175 1.129h-1.0325c-.0338-.213-.135-.38-.3037-.5-.162-.119-.3813-.179-.658-.179-.2699 0-.4792.056-.6276.17-.1485.106-.2227.246-.2227.419s.1012.31.3037.409c.2092.1.4825.19.8199.27.3374.073.6479.16.9313.26.2902.093.523.233.6985.419.1754.187.2632.46.2632.819.0067.453-.1721.829-.5366 1.129-.3576.3-.8469.449-1.4677.449ZM102.57 230.509v-7.192h1.073v3.037c.169-.287.401-.51.698-.67.304-.166.638-.249 1.003-.249.6 0 1.073.186 1.417.559.344.373.516.929.516 1.668v2.847h-1.063v-2.737c0-.959-.388-1.438-1.164-1.438-.405 0-.742.139-1.012.419-.264.28-.395.679-.395 1.199v2.557h-1.073ZM110.889 230.628c-.492 0-.931-.106-1.316-.319-.378-.22-.675-.523-.891-.909-.216-.386-.323-.836-.323-1.348 0-.52.104-.976.313-1.369.216-.393.513-.699.891-.919.385-.219.83-.329 1.336-.329.493 0 .921.11 1.286.329.364.213.648.5.85.859.203.36.304.756.304 1.189 0 .066-.003.14-.01.22 0 .073-.004.156-.01.249h-3.908c.034.48.193.846.476 1.099.29.246.624.369 1.002.369.304 0 .557-.066.759-.199.21-.14.365-.327.466-.56h1.073c-.135.466-.405.856-.81 1.169-.398.313-.894.469-1.488.469Zm0-4.324c-.357 0-.675.106-.951.319-.277.207-.446.52-.506.939h2.834c-.02-.386-.159-.692-.415-.919-.257-.226-.577-.339-.962-.339ZM114.452 230.509v-4.954h.962l.091.938c.175-.326.418-.582.729-.769.317-.193.698-.289 1.144-.289v1.108h-.294c-.297 0-.563.05-.8.15-.229.093-.415.257-.556.49-.135.226-.203.542-.203.948v2.378h-1.073ZM120.508 230.628c-.493 0-.932-.106-1.316-.319-.378-.22-.675-.523-.891-.909-.216-.386-.324-.836-.324-1.348 0-.52.105-.976.314-1.369.216-.393.513-.699.891-.919.384-.219.83-.329 1.336-.329.493 0 .921.11 1.285.329.365.213.648.5.851.859.202.36.303.756.303 1.189 0 .066-.003.14-.01.22 0 .073-.003.156-.01.249h-3.907c.034.48.192.846.476 1.099.29.246.624.369 1.002.369.303 0 .556-.066.759-.199.209-.14.364-.327.466-.56h1.073c-.135.466-.405.856-.81 1.169-.398.313-.894.469-1.488.469Zm0-4.324c-.358 0-.675.106-.952.319-.276.207-.445.52-.506.939h2.834c-.02-.386-.158-.692-.415-.919-.256-.226-.577-.339-.961-.339Z" fill="#FC0000"/><path opacity=".05" d="M299.085 0 121.628 21.9933l.282 112.2227 177.175 5.357V0Z" fill="url(#b)"/><path d="M313.288 134.921h-3.269v-.424h1.48l-1.48-1.472v-.535l1.303 1.311 1.966-1.331v.514l-1.662 1.12.387.393h1.275v.424ZM313.345 131.054c0 .238-.05.45-.15.635-.103.185-.244.331-.425.439-.181.104-.394.156-.64.156-.243 0-.455-.052-.635-.156-.184-.104-.326-.249-.425-.434-.103-.188-.154-.405-.154-.65 0-.243.051-.451.154-.626.099-.178.232-.314.397-.408.165-.094.342-.142.532-.142.034 0 .069.002.103.006h.117v1.992c.177-.011.325-.054.444-.132.115-.08.202-.179.261-.297.059-.121.089-.249.089-.383 0-.175-.037-.321-.112-.439-.075-.118-.176-.204-.304-.257v-.419c.215.067.394.197.537.388.14.189.211.431.211.727Zm-2.098 0c0 .201.058.381.173.539.112.155.277.244.495.268v-1.574c-.208.01-.372.087-.49.232-.119.145-.178.323-.178.535ZM313.288 129.307h-3.363v-.424h3.363v.424ZM313.288 128.189h-3.363v-.424h3.363v.424ZM313.345 125.931c0 .236-.05.447-.15.636-.1.188-.24.338-.42.449-.184.107-.399.161-.645.161s-.459-.056-.64-.167c-.184-.11-.325-.26-.425-.448-.1-.192-.149-.405-.149-.641 0-.235.049-.447.149-.635.1-.189.241-.337.425-.444.181-.111.394-.167.64-.167s.461.056.645.167c.18.111.32.262.42.454.1.188.15.4.15.635Zm-.337 0c0-.144-.032-.279-.098-.403-.065-.125-.163-.225-.294-.303-.131-.077-.293-.116-.486-.116s-.355.039-.486.116c-.131.074-.229.173-.294.298-.065.124-.098.257-.098.398 0 .145.033.279.098.404.065.124.163.225.294.302.131.078.293.116.486.116s.355-.038.486-.116c.131-.077.229-.176.294-.297.066-.125.098-.258.098-.399ZM312.56 123.206c0 .142-.017.271-.052.389l.22.252c.025-.037.047-.083.065-.136.016-.058.031-.138.047-.242.012-.105.027-.251.042-.439.022-.336.093-.577.215-.721.121-.145.28-.217.476-.217.134 0 .262.04.383.121.122.077.222.198.299.363.078.161.117.37.117.625 0 .226-.028.426-.084.6-.053.175-.135.311-.247.409-.109.097-.248.146-.416.146-.087 0-.182-.025-.285-.075-.1-.051-.195-.145-.285-.283-.028.074-.058.138-.089.192-.034.05-.071.097-.112.141h-.107l-.393-.429c-.155.199-.361.298-.616.298-.153 0-.292-.039-.416-.116-.125-.077-.223-.19-.294-.338-.075-.148-.112-.328-.112-.54 0-.144.018-.275.056-.393v-.923h.294l.019.469c.13-.097.281-.146.453-.146.152 0 .291.04.415.121.125.077.225.19.299.338.072.144.108.323.108.534Zm-.323 0c0-.178-.042-.319-.126-.423-.087-.108-.211-.162-.373-.162-.159 0-.281.054-.365.162-.087.104-.13.245-.13.423 0 .182.043.326.13.434.084.104.206.156.365.156.162 0 .286-.052.373-.156.084-.108.126-.252.126-.434Zm1.35.737c.156 0 .271-.071.346-.212.078-.141.117-.318.117-.53 0-.208-.042-.375-.126-.499-.084-.128-.196-.192-.337-.192-.099 0-.186.044-.261.131-.072.088-.114.249-.126.485-.013.185-.028.344-.047.479.069.138.142.228.22.272.081.044.152.066.214.066ZM312.56 120.424c0 .141-.017.27-.052.388l.22.252c.025-.037.047-.082.065-.136.016-.057.031-.138.047-.242.012-.104.027-.251.042-.439.022-.336.093-.576.215-.721.121-.145.28-.217.476-.217.134 0 .262.04.383.121.122.078.222.199.299.363.078.162.117.37.117.626 0 .225-.028.425-.084.6-.053.175-.135.311-.247.408-.109.098-.248.147-.416.147-.087 0-.182-.026-.285-.076-.1-.051-.195-.145-.285-.283-.028.074-.058.138-.089.192-.034.051-.071.098-.112.141h-.107l-.393-.428c-.155.198-.361.297-.616.297-.153 0-.292-.038-.416-.116-.125-.077-.223-.19-.294-.338-.075-.148-.112-.327-.112-.539 0-.145.018-.276.056-.394v-.923h.294l.019.469c.13-.097.281-.146.453-.146.152 0 .291.041.415.121.125.078.225.19.299.338.072.145.108.323.108.535Zm-.323 0c0-.179-.042-.32-.126-.424-.087-.108-.211-.161-.373-.161-.159 0-.281.053-.365.161-.087.104-.13.245-.13.424 0 .181.043.326.13.433.084.105.206.157.365.157.162 0 .286-.052.373-.157.084-.107.126-.252.126-.433Zm1.35.736c.156 0 .271-.071.346-.212.078-.141.117-.318.117-.529 0-.209-.042-.375-.126-.5-.084-.127-.196-.191-.337-.191-.099 0-.186.043-.261.131-.072.087-.114.249-.126.484-.013.185-.028.345-.047.479.069.138.142.229.22.272.081.044.152.066.214.066ZM313.288 117.27h-3.269v-2.149h.322v1.725h1.149v-1.468h.318v1.468h1.48v.424ZM313.345 113.569c0 .236-.05.448-.15.636-.1.188-.24.338-.42.449-.184.107-.399.161-.645.161s-.459-.055-.64-.166c-.184-.111-.325-.261-.425-.449-.1-.192-.149-.405-.149-.641 0-.235.049-.447.149-.635.1-.188.241-.336.425-.444.181-.111.394-.166.64-.166s.461.055.645.166c.18.111.32.262.42.454.1.188.15.4.15.635Zm-.337 0c0-.144-.032-.279-.098-.403-.065-.124-.163-.225-.294-.303-.131-.077-.293-.116-.486-.116s-.355.039-.486.116c-.131.074-.229.174-.294.298-.065.124-.098.257-.098.398 0 .145.033.279.098.404.065.124.163.225.294.302.131.078.293.116.486.116s.355-.038.486-.116c.131-.077.229-.176.294-.297.066-.125.098-.257.098-.399ZM313.345 110.812c0 .296-.083.531-.248.706-.168.175-.425.262-.771.262h-1.354v-.424h1.312c.483 0 .724-.213.724-.64 0-.219-.071-.398-.215-.54-.146-.144-.353-.216-.621-.216h-1.2v-.424h2.316v.383l-.415.03c.146.078.261.194.345.348.084.152.127.323.127.515ZM313.288 108.839h-2.316v-.384l.415-.025c-.146-.081-.261-.197-.345-.348-.084-.151-.126-.323-.126-.514 0-.296.084-.532.252-.706.165-.179.42-.268.766-.268h1.354v.424h-1.312c-.483 0-.724.215-.724.646 0 .215.073.395.219.539.144.141.349.212.617.212h1.2v.424ZM313.345 104.818c0 .249-.053.467-.159.655-.106.185-.251.33-.435.434-.183.101-.392.151-.626.151-.233 0-.44-.052-.621-.156-.184-.104-.327-.249-.43-.434-.106-.185-.158-.403-.158-.655 0-.205.038-.387.116-.545.078-.158.187-.281.327-.368h-1.434v-.424h3.363v.384l-.383.04c.113.081.214.197.304.348.09.151.136.341.136.57Zm-.341-.046c0-.168-.036-.316-.108-.443-.075-.132-.177-.232-.308-.303-.131-.074-.284-.111-.458-.111-.174 0-.327.037-.458.111-.131.071-.232.171-.303.303-.075.127-.112.275-.112.443 0 .165.037.313.112.444.071.128.172.229.303.303.131.07.284.106.458.106.174 0 .327-.036.458-.106.131-.074.233-.175.308-.303.072-.131.108-.279.108-.444ZM313.345 101.954c0 .208-.033.381-.099.519-.065.138-.152.24-.261.308-.109.067-.227.101-.355.101-.237 0-.419-.098-.547-.293-.127-.195-.191-.461-.191-.797v-.676h-.028c-.203 0-.355.058-.458.172-.106.114-.159.267-.159.459 0 .165.039.307.117.429.075.117.185.191.332.221v.434c-.169-.017-.31-.077-.425-.181-.116-.108-.203-.241-.262-.399-.062-.158-.093-.326-.093-.504 0-.35.087-.612.261-.787.171-.178.4-.267.687-.267h1.424v.378l-.415.025c.131.071.243.175.336.313.09.134.136.316.136.545Zm-.332-.066c0-.161-.039-.299-.117-.414-.078-.117-.179-.206-.304-.267-.124-.06-.255-.091-.392-.091h-.005v.641c0 .249.041.425.122.529.078.101.176.152.294.152.122 0 .22-.047.294-.141.072-.098.108-.234.108-.409ZM313.288 99.1378c0 .2286-.051.4085-.154.5396-.102.1311-.288.1967-.556.1967h-1.275v.4339h-.331v-.4339l-.556-.0555v-.3682h.556v-.7363h.331v.7363h1.275c.147 0 .246-.0319.299-.0958.05-.0639.075-.1765.075-.3379v-.2622h.336v.3833ZM310.458 97.9187c0 .0841-.025.1547-.075.2118-.053.0538-.118.0807-.196.0807-.075 0-.137-.0269-.187-.0807-.05-.0571-.075-.1277-.075-.2118 0-.0807.025-.1496.075-.2068.05-.0571.112-.0857.187-.0857.078 0 .143.0286.196.0857.05.0572.075.1261.075.2068Zm2.83.2118h-2.316v-.4236h2.316v.4236ZM313.345 95.8295c0 .2354-.05.4472-.15.6355-.1.1882-.24.3379-.42.4488-.184.1076-.399.1614-.645.1614s-.459-.0555-.64-.1664c-.184-.111-.325-.2606-.425-.4489-.1-.1916-.149-.4051-.149-.6405 0-.2353.049-.4471.149-.6354.1-.1883.241-.3362.425-.4438.181-.111.394-.1664.64-.1664s.461.0554.645.1664c.18.1109.32.2622.42.4539.1.1883.15.4001.15.6354Zm-.337 0c0-.1446-.032-.279-.098-.4034-.065-.1244-.163-.2253-.294-.3026-.131-.0774-.293-.116-.486-.116s-.355.0386-.486.116c-.131.0739-.229.1731-.294.2975-.065.1244-.098.2572-.098.3984 0 .1446.033.2791.098.4035.065.1244.163.2253.294.3026.131.0773.293.116.486.116s.355-.0387.486-.116c.131-.0773.229-.1765.294-.2976.066-.1244.098-.2572.098-.3984ZM313.288 93.9847h-2.316v-.3833l.415-.0252c-.146-.0807-.261-.1967-.345-.348-.084-.1513-.126-.3227-.126-.5144 0-.2958.084-.5312.252-.706.165-.1782.42-.2673.766-.2673h1.354v.4236h-1.312c-.483 0-.724.2152-.724.6456 0 .2151.073.395.219.5396.144.1412.349.2118.617.2118h1.2v.4236ZM313.732 91.3054l-4.012-1.2658v-.4186l4.012 1.2658v.4186ZM313.345 88.5186c0 .3194-.083.5699-.248.7515-.165.1815-.394.2723-.687.2723v-.4287c.165 0 .304-.0437.416-.1311.112-.0874.168-.2404.168-.4589 0-.2118-.054-.3581-.163-.4388-.109-.084-.245-.1261-.407-.1261h-2.405v-.4236h2.405c.29 0 .516.0874.678.2622.162.1715.243.4119.243.7212ZM313.345 85.6741c0 .2354-.05.4472-.15.6355-.1.1883-.24.3379-.42.4488-.184.1076-.399.1614-.645.1614s-.459-.0555-.64-.1664c-.184-.111-.325-.2606-.425-.4489-.1-.1916-.149-.4051-.149-.6405 0-.2353.049-.4471.149-.6354.1-.1883.241-.3362.425-.4438.181-.111.394-.1664.64-.1664s.461.0554.645.1664c.18.1109.32.2622.42.4539.1.1883.15.4001.15.6354Zm-.337 0c0-.1445-.032-.279-.098-.4034-.065-.1244-.163-.2253-.294-.3026-.131-.0774-.293-.116-.486-.116s-.355.0386-.486.116c-.131.0739-.229.1731-.294.2975-.065.1244-.098.2572-.098.3984 0 .1446.033.2791.098.4035.065.1244.163.2253.294.3026.131.0773.293.116.486.116s.355-.0387.486-.116c.131-.0773.229-.1765.294-.2976.066-.1244.098-.2572.098-.3984ZM313.345 82.8711c0 .2993-.071.5481-.211.7464-.14.1984-.33.3144-.57.348v-.4337c.122-.0269.228-.0958.318-.2068.087-.1143.131-.2673.131-.4589 0-.1782-.034-.3093-.103-.3934-.072-.084-.156-.1261-.252-.1261-.14 0-.234.0555-.28.1665-.047.1075-.089.2605-.127.4589-.024.1345-.06.269-.107.4034-.047.1345-.112.2472-.196.3379-.087.0908-.201.1362-.341.1362-.203 0-.368-.0807-.495-.2421-.131-.1647-.196-.3866-.196-.6657 0-.2656.062-.4824.186-.6505.122-.1715.296-.2707.524-.2976v.4186c-.119.0168-.211.0723-.276.1664-.069.0908-.103.2135-.103.3682 0 .1513.03.2689.089.353.059.0807.137.121.233.121.094 0 .167-.0521.22-.1563.053-.1076.098-.2522.135-.4337.032-.1547.071-.3009.117-.4388.044-.1412.111-.2555.201-.3429.087-.0908.215-.1362.383-.1362.209-.0034.382.0824.519.2572.134.1715.201.4052.201.701ZM313.288 81.3077h-3.363v-.4236h1.444c-.144-.0841-.254-.2034-.332-.3581-.081-.1546-.121-.3227-.121-.5043 0-.2891.084-.5211.252-.696.165-.1748.42-.2622.766-.2622h1.354v.4186h-1.312c-.483 0-.724.2101-.724.6304 0 .2185.073.4018.219.5497.144.1479.349.2219.617.2219h1.2v.4236ZM313.345 75.9371c0 .2589-.044.4842-.131.6758-.087.1917-.209.3396-.365.4438-.155.1042-.336.1564-.541.1564v-.4438c.127 0 .246-.032.355-.0959.105-.0638.191-.1563.256-.2773.063-.1244.094-.2774.094-.459 0-.2387-.053-.4236-.159-.5547-.106-.1312-.238-.1967-.397-.1967-.131 0-.235.0303-.313.0908-.081.0605-.146.1429-.196.2471-.05.1008-.094.2185-.131.353-.037.1311-.079.269-.126.4136-.087.2723-.195.474-.322.6051-.131.1312-.301.1967-.51.1967-.174.0034-.328-.0403-.462-.1311-.137-.0908-.243-.2185-.318-.3833-.077-.1681-.116-.3665-.116-.5951 0-.2252.039-.4203.116-.585.078-.1681.186-.2975.323-.3883.137-.0942.292-.1429.467-.1463v.4438c-.09 0-.179.0252-.266.0757-.091.0504-.164.1277-.22.232-.056.1008-.084.2286-.084.3832-.003.1917.042.3497.135.4741.094.121.223.1816.388.1816.14 0 .248-.0421.322-.1261.075-.0874.137-.2085.187-.3631.047-.1547.101-.3329.164-.5346.056-.1681.121-.3194.196-.4539.075-.1345.171-.2387.29-.3127.118-.0773.269-.116.453-.116.155 0 .303.0437.443.1311.137.0875.25.2203.337.3985.087.1748.131.395.131.6606ZM313.345 73.0467c0 .2387-.05.4506-.15.6355-.103.1849-.244.3312-.425.4387-.181.1043-.394.1564-.64.1564-.243 0-.455-.0521-.635-.1564-.184-.1042-.326-.2488-.425-.4337-.103-.1883-.154-.4051-.154-.6506 0-.242.051-.4505.154-.6253.099-.1782.232-.3144.397-.4085.165-.0942.342-.1412.532-.1412.034 0 .069.0017.103.005h.117v1.9921c.177-.0101.325-.0538.444-.1311.115-.0807.202-.1799.261-.2976.059-.121.089-.2488.089-.3833 0-.1748-.037-.3211-.112-.4387-.075-.1177-.176-.2034-.304-.2572v-.4186c.215.0672.394.1967.537.3883.14.1883.211.4304.211.7262Zm-2.098 0c0 .2018.058.3816.173.5397.112.1546.277.2437.495.2672v-1.5734c-.208.01-.372.0874-.49.2319-.119.1446-.178.3228-.178.5346ZM310.458 71.0429c0 .084-.025.1546-.075.2118-.053.0538-.118.0807-.196.0807-.075 0-.137-.0269-.187-.0807-.05-.0572-.075-.1278-.075-.2118 0-.0807.025-.1496.075-.2068.05-.0571.112-.0857.187-.0857.078 0 .143.0286.196.0857.05.0572.075.1261.075.2068Zm2.83.2118h-2.316v-.4236h2.316v.4236ZM313.345 68.9587c0 .2488-.053.4674-.159.6556-.106.185-.251.3295-.435.4338-.183.1008-.392.1513-.626.1513-.233 0-.44-.0522-.621-.1564-.184-.1042-.327-.2488-.43-.4337-.106-.1849-.158-.4035-.158-.6556 0-.2051.038-.3867.116-.5447.078-.158.187-.2807.327-.3681h-1.434v-.4237h3.363v.3833l-.383.0404c.113.0807.214.1966.304.3479s.136.3413.136.5699Zm-.341-.0454c0-.1681-.036-.316-.108-.4438-.075-.1311-.177-.232-.308-.3026-.131-.0739-.284-.1109-.458-.1109-.174 0-.327.037-.458.1109-.131.0706-.232.1715-.303.3026-.075.1278-.112.2757-.112.4438 0 .1648.037.3127.112.4438.071.1278.172.2287.303.3026.131.0706.284.1059.458.1059.174 0 .327-.0353.458-.1059.131-.0739.233-.1748.308-.3026.072-.1311.108-.279.108-.4438ZM313.345 65.802c0 .2387-.05.4506-.15.6355-.103.1849-.244.3311-.425.4387-.181.1043-.394.1564-.64.1564-.243 0-.455-.0521-.635-.1564-.184-.1042-.326-.2488-.425-.4337-.103-.1883-.154-.4051-.154-.6506 0-.242.051-.4505.154-.6253.099-.1782.232-.3144.397-.4085.165-.0942.342-.1412.532-.1412.034 0 .069.0017.103.005h.117v1.9921c.177-.0101.325-.0538.444-.1311.115-.0807.202-.1799.261-.2976.059-.121.089-.2488.089-.3833 0-.1748-.037-.3211-.112-.4387-.075-.1177-.176-.2034-.304-.2572v-.4186c.215.0672.394.1967.537.3883.14.1883.211.4304.211.7262Zm-2.098 0c0 .2018.058.3816.173.5397.112.1546.277.2437.495.2672v-1.5734c-.208.01-.372.0874-.49.2319-.119.1446-.178.3228-.178.5346ZM313.288 64.0554h-2.316v-.3833l.415-.0252c-.146-.0807-.261-.1967-.345-.348-.084-.1513-.126-.3228-.126-.5144 0-.2959.084-.5312.252-.7061.165-.1782.42-.2673.766-.2673h1.354v.4237h-1.312c-.483 0-.724.2152-.724.6455 0 .2152.073.3951.219.5396.144.1412.349.2119.617.2119h1.2v.4236Z" fill="#000"/><path d="M300 0 191 58.2322V203l109-63.068V0Z" fill="#fff"/><path fill-rule="evenodd" clip-rule="evenodd" d="m192.514 57.4234-1.514.8088v1.7235h.567V58.57l1.215-.6491-.268-.4975Zm2.789 143.0866-.285-.488 2.868-1.659.285.488-2.868 1.659Zm5.736-3.319 2.869-1.66-.285-.488-2.868 1.66.284.488Zm5.737-3.319-.284-.488 2.868-1.66.285.488-2.869 1.66Zm5.737-3.32-.285-.488 2.869-1.659.285.488-2.869 1.659Zm5.737-3.319-.285-.488 2.869-1.66.284.488-2.868 1.66Zm5.737-3.319-.285-.488 2.869-1.66.284.488-2.868 1.66Zm5.737-3.32-.285-.488 2.868-1.659.285.488-2.868 1.659Zm5.737-3.319-.285-.488 2.868-1.66.285.488-2.868 1.66Zm5.736-3.319-.284-.489 2.868-1.659.285.488-2.869 1.66Zm5.737-3.32-.285-.488 2.869-1.66.285.489-2.869 1.659Zm5.737-3.319 2.868-1.66-.284-.488-2.869 1.66.285.488Zm5.737-3.319-.285-.489 2.869-1.659.284.488-2.868 1.66Zm5.737-3.32-.285-.488 2.868-1.66.285.489-2.868 1.659Zm5.737-3.319-.285-.488 2.868-1.66.285.488-2.868 1.66Zm5.736-3.319-.284-.489 2.868-1.659.285.488-2.869 1.66Zm5.737-3.32-.284-.488 2.868-1.66.285.488-2.869 1.66Zm5.737-3.319-.285-.488 2.869-1.66.285.488-2.869 1.66Zm5.737-3.32-.285-.488 2.869-1.659.284.488-2.868 1.659ZM300 1.6659h-.567V.94348l-.679.3628-.268-.4975L300 0v1.6659Zm-4.542.76044.268.49751-3.027 1.61756-.268-.4975 3.027-1.61757Zm-6.055 3.23513.268.4975-3.028 1.61756-.268-.4975 3.028-1.61756Zm-6.056 3.23512.268.4975-3.028 1.61761-.268-.4975 3.028-1.61761Zm-6.055 3.23511.268.4975-3.028 1.6176-.268-.4975 3.028-1.6176Zm-6.056 3.2351.268.4975-3.028 1.6176-.268-.4975 3.028-1.6176Zm-6.055 3.2352.268.4975-3.028 1.6175-.268-.4975 3.028-1.6175Zm-6.056 3.2351.268.4975-3.028 1.6175-.268-.4975 3.028-1.6175Zm-6.056 3.2351.268.4975-3.027 1.6176-.268-.4975 3.027-1.6176Zm-6.055 3.2351.268.4975-3.028 1.6176-.268-.4975 3.028-1.6176Zm-6.056 3.2352.268.4975-3.027 1.6175-.268-.4975 3.027-1.6175Zm-6.055 3.2351.268.4975-3.028 1.6175-.268-.4975 3.028-1.6175Zm-6.056 3.2351.268.4975-3.028 1.6176-.268-.4975 3.028-1.6176Zm-6.055 3.2351.268.4975-3.028 1.6176-.268-.4975 3.028-1.6176Zm-6.056 3.2351.268.4975-3.028 1.6176-.268-.4975 3.028-1.6176Zm-6.055 3.2352.268.4975-3.028 1.6175-.268-.4975 3.028-1.6175Zm-6.056 3.2351.268.4975-3.028 1.6175-.268-.4975 3.028-1.6175Zm-6.056 3.2351.268.4975-3.027 1.6176-.268-.4975 3.027-1.6176ZM300 4.99761h-.567v3.33172H300V4.99761Zm0 6.66339h-.567v3.3318H300V11.661Zm0 6.6635h-.567v3.3317H300v-3.3317Zm0 6.6634h-.567v3.3317H300v-3.3317Zm0 6.6635h-.567v3.3317H300v-3.3317Zm0 6.6634h-.567v3.3317H300v-3.3317Zm0 6.6634h-.567V48.31H300v-3.3318Zm0 6.6635h-.567v3.3317H300v-3.3317Zm0 6.6634h-.567v3.3317H300v-3.3317Zm0 6.6634h-.567v3.3318H300v-3.3318Zm0 6.6635h-.567v3.3317H300V71.632Zm0 6.6634h-.567v3.3318H300v-3.3318Zm0 6.6635h-.567v3.3317H300v-3.3317Zm0 6.6634h-.567v3.3317H300v-3.3317Zm0 6.6635h-.567v3.3322H300v-3.3322Zm0 6.6632h-.567v3.332H300v-3.332Zm0 6.664h-.567v3.331H300v-3.331Zm0 6.663h-.567v3.332H300v-3.332Zm0 6.664h-.567v3.331H300v-3.331Zm0 6.663h-.567v3.332H300v-3.332Zm0 6.663h-.567v1.341l-1.152.667.285.488 1.434-.83v-1.666ZM192.434 202.17l-.285-.488-.582.337v-.742H191V203l1.434-.83ZM191 197.83h.567v-3.447H191v3.447Zm0-6.894h.567v-3.447H191v3.447Zm0-6.894h.567v-3.447H191v3.447Zm0-6.893h.567v-3.447H191v3.447Zm0-6.894h.567v-3.447H191v3.447Zm0-6.894h.567v-3.447H191v3.447Zm0-6.894h.567v-3.446H191v3.446Zm0-6.893h.567v-3.447H191v3.447Zm0-6.894h.567v-3.447H191v3.447Zm0-6.894h.567v-3.446H191v3.446Zm0-6.893h.567v-3.447H191v3.447Zm0-6.894h.567v-3.447H191v3.447Zm0-6.894h.567v-3.447H191v3.447Zm0-6.893h.567v-3.447H191v3.447Zm0-6.894h.567v-3.447H191v3.447Zm0-6.8938h.567v-3.4469H191v3.4469Zm0-6.8937h.567v-3.4469H191v3.4469Zm0-6.8937h.567v-3.4469H191v3.4469Zm0-6.8937h.567v-3.4469H191v3.4469Zm0-6.8937h.567v-3.4469H191v3.4469Z" fill="silver"/><g opacity=".5" fill="#3D3D3D"><path d="m229.922 102.29 3.905 6.664-1.409.826-3.905-6.664 1.409-.826ZM234.859 108.349l-2.929-4.998 1.321-.774.517.882.059-.034c-.068-.354-.03-.687.114-.999.144-.311.385-.566.724-.764.342-.201.684-.287 1.026-.256.339.028.635.164.885.407l.052-.03c-.065-.346-.015-.683.151-1.011.168-.331.435-.604.801-.8189.467-.2733.932-.3465 1.397-.2196.466.1234.857.4565 1.175.9985l1.97 3.361-1.383.811-1.809-3.088c-.163-.278-.359-.443-.588-.495-.229-.053-.454-.014-.675.116-.252.147-.401.342-.448.586-.048.24.004.491.157.751l1.788 3.053-1.344.787-1.826-3.117c-.144-.245-.329-.399-.555-.462-.224-.064-.45-.029-.678.104-.154.091-.27.211-.348.362-.077.147-.11.311-.101.491.009.179.067.36.175.545l1.758 3-1.386.812ZM244.214 105.385l-4.027-6.8722 1.367-.8008.492.8395.062-.0362c-.018-.1701-.011-.3582.023-.5645.035-.2096.118-.4157.25-.6183.133-.2061.339-.3911.619-.5551.364-.2135.756-.3151 1.176-.3047.419.0082.832.1492 1.24.423.407.2716.778.6937 1.114 1.2664.327.5575.513 1.081.557 1.5705.046.4864-.027.9184-.219 1.2964-.192.374-.477.672-.857.895-.269.158-.524.247-.765.269-.238.02-.457-.002-.655-.067-.199-.066-.371-.151-.515-.253l-.043.025 1.568 2.675-1.387.812Zm-1.205-5.168c.174.297.367.532.579.705.212.173.432.276.661.308.227.03.453-.021.676-.152.226-.132.381-.306.464-.521.083-.217.099-.46.05-.7283-.049-.2718-.158-.553-.328-.8437-.169-.2885-.358-.5188-.567-.6909-.209-.172-.427-.2741-.656-.3063-.228-.0321-.457.0186-.684.1521-.226.1322-.382.3037-.468.5145-.084.2096-.103.4481-.058.7155.046.2674.156.5497.331.8471ZM250.294 99.4314c-.318.1869-.635.2981-.949.3336-.316.0334-.611-.0169-.884-.1508-.273-.1374-.506-.3709-.699-.7007-.163-.2776-.249-.5407-.257-.7892-.009-.2485.041-.4817.149-.6996.109-.218.257-.4217.446-.6112.192-.1907.404-.3705.637-.5393.273-.2007.491-.3662.654-.4964.161-.1325.266-.2493.314-.3506.049-.1013.042-.205-.02-.3113l-.012-.0196c-.121-.206-.279-.3274-.475-.3639-.194-.0378-.41.0126-.646.1511-.25.1462-.416.3178-.498.5149-.084.1949-.102.3888-.053.5816l-1.343.6471c-.113-.3418-.139-.6793-.078-1.0124.06-.3353.206-.651.438-.947.232-.2994.548-.5661.947-.8.278-.1627.563-.2859.855-.3695.294-.0849.58-.1169.857-.0959.28.0197.54.1033.781.2507.239.1452.446.3664.62.6636l1.976 3.3711-1.315.7703-.406-.693-.039.0228c.011.2033-.015.4039-.08.6021-.066.1959-.173.3828-.323.5606-.15.1757-.349.336-.597.4809Zm-.163-1.1893c.204-.1195.36-.2651.469-.4369.108-.1739.166-.3564.174-.5474.007-.1909-.04-.3742-.143-.55l-.311-.5304c-.027.0537-.071.1147-.133.183-.061.0649-.133.1345-.215.2087-.083.072-.167.1429-.251.2127-.086.0677-.163.1292-.233.1846-.149.1192-.268.2404-.359.3636-.091.1233-.144.2491-.16.3774-.016.1262.014.2544.09.3845.111.1888.264.293.459.3127.196.0163.4-.0379.613-.1625ZM256.344 95.891c-.512.3-1.016.4495-1.512.4487-.495-.0043-.955-.1427-1.38-.4154-.423-.2739-.782-.6635-1.078-1.169-.3-.512-.465-1.0188-.493-1.5207-.028-.5052.077-.9737.317-1.4055.238-.4339.61-.7989 1.115-1.0951.436-.2555.865-.4001 1.285-.4337.42-.0335.81.0369 1.169.2114.358.1745.66.4491.906.8238l-1.308.7665c-.183-.2279-.398-.3713-.645-.4304-.247-.0625-.497-.0194-.751.1293-.215.1259-.368.2944-.46.5056-.091.2078-.116.4484-.075.7218.04.2733.153.5673.337.8819.187.3189.389.5646.607.7372.22.1713.445.2685.674.2916.229.0231.451-.0283.666-.1542.158-.0928.281-.2086.369-.3474.09-.14.139-.2961.149-.468.011-.1754-.022-.3586-.099-.5496l1.308-.7665c.202.3946.295.7918.279 1.1918-.015.3966-.138.7716-.368 1.1249-.23.3534-.567.6604-1.012.921ZM259.035 87.4684l.611 1.0413-3.01 1.7637-.61-1.0413 3.009-1.7637Zm-3.028.1659 1.386-.8123 2.731 4.6597c.075.128.153.2163.234.265.08.0466.162.0636.248.0511.088-.0137.179-.0479.272-.1026.065-.0381.127-.0817.186-.1306.058-.0512.102-.0902.133-.117l.822.9037c-.057.0624-.14.1445-.249.2465-.108.1041-.25.2121-.426.3241-.327.2088-.646.3359-.957.3814-.309.0443-.596-.0003-.861-.1337-.265-.1335-.492-.3646-.682-.6934l-2.837-4.8419ZM264.769 86.0235l-1.224.8217c-.085-.0957-.189-.166-.311-.2108-.124-.047-.259-.0622-.407-.0457-.147.0132-.301.0668-.461.1608-.215.1259-.369.2776-.463.4551-.096.1754-.1.3379-.012.4876.07.1193.177.1923.321.2188.143.0265.346-.0033.607-.0895l1.012-.3478c.544-.185 1-.2367 1.369-.1553.368.0815.658.3022.869.6624.192.3275.263.6715.215 1.032-.046.3591-.195.706-.448 1.0406-.252.3311-.594.6238-1.028.8781-.662.3877-1.27.5588-1.824.5134-.553-.0489-1.003-.2922-1.35-.7301l1.321-.8705c.16.1776.35.2732.571.2867.219.0113.452-.0555.7-.2004.243-.1424.41-.3034.503-.4831.094-.1832.098-.3503.013-.5012-.076-.1246-.19-.1965-.341-.2157-.152-.0214-.35.0097-.592.0935l-.967.3347c-.545.1884-1.008.2321-1.387.1311-.378-.1022-.676-.3399-.895-.713-.188-.3211-.263-.6485-.225-.9823.039-.3351.181-.6584.424-.9698.245-.3126.581-.5942 1.008-.8446.632-.3699 1.207-.5276 1.725-.4731.521.0533.946.2921 1.277.7164Z"/></g><path opacity=".1" d="M191.415 58.4878 35.2256 68.9103V180.742l156.1894 21.971V58.4878Z" fill="url(#c)"/><defs><linearGradient id="a" x1="78.5" y1="22" x2="78.5" y2="181" gradientUnits="userSpaceOnUse"><stop stop-color="#800031"/><stop offset="1" stop-color="#FC0000"/></linearGradient><linearGradient id="b" x1="210.357" y1="0" x2="210.357" y2="139.573" gradientUnits="userSpaceOnUse"><stop stop-color="#800031"/><stop offset="1" stop-color="#FC0000"/></linearGradient><linearGradient id="c" x1="113.32" y1="58.4878" x2="113.32" y2="202.713" gradientUnits="userSpaceOnUse"><stop stop-color="#800031"/><stop offset="1" stop-color="#FC0000"/></linearGradient></defs></svg>