<svg viewBox="0 0 33 64" fill="none" xmlns="http://www.w3.org/2000/svg"><path d="M9.445 17.35c.03-2.425 1.08-4.742 2.926-6.447s4.337-2.661 6.933-2.66H31.08L33 0H19.194C14.265.027 9.547 1.868 6.063 5.124 2.578 8.379.608 12.787.579 17.39c.01 2.56.646 5.083 1.857 7.38 1.212 2.295 2.968 4.302 5.134 5.87a19.067 19.067 0 0 0-5.421 6.228 17.78 17.78 0 0 0-2.136 7.777c-.103 2.706.423 5.4 1.54 7.898a18.804 18.804 0 0 0 4.937 6.573 23.774 23.774 0 0 0 6.352 3.709A20.35 20.35 0 0 0 18.289 64l1.875-8.14a11.765 11.765 0 0 1-2.404-.267 17.035 17.035 0 0 1-6.352-3.668c-1.664-1.836-2.571-4.167-2.558-6.573-.006-2.827 1.184-5.542 3.312-7.553 2.127-2.011 5.02-3.155 8.046-3.182h4.764l1.94-8.428h-7.608c-1.269.028-2.53-.18-3.712-.61a9.722 9.722 0 0 1-3.176-1.896 9 9 0 0 1-2.152-2.892 8.486 8.486 0 0 1-.797-3.441h-.022Z" fill="#fff"/></svg>