<svg width="356" height="63" viewBox="0 0 356 63" fill="none" xmlns="http://www.w3.org/2000/svg">
  <path d="M329.347 21.2684V14.6208L356 28.164V34.0867L329.347 47.6602V40.9878L348.363 31.1267L329.347 21.2684Z" fill="#131414"/>
  <path d="M34.1562 62.8707L46.0485 0H54.2946L42.6007 62.868L34.1562 62.8707Z" fill="url(#paint0_linear_1204_5503)"/>
  <path d="M26.6426 40.9876V47.66L0 34.0975V28.161L26.6564 14.6289V21.2682L7.65904 31.1265L26.6426 40.9876Z" fill="#131414"/>
  <path d="M65.3184 57.0498V17.5834H71.6021L72.3738 21.4969C73.2557 20.2843 74.4133 19.2186 75.8464 18.2999C77.3163 17.3813 79.2088 16.9219 81.5239 16.9219C84.0962 16.9219 86.3928 17.5466 88.4139 18.796C90.435 20.0454 92.0335 21.7542 93.2094 23.9223C94.3854 26.0903 94.9733 28.5524 94.9733 31.3084C94.9733 34.0645 94.3854 36.5265 93.2094 38.6946C92.0335 40.8259 90.435 42.5163 88.4139 43.7657C86.3928 44.9784 84.0962 45.5847 81.5239 45.5847C79.466 45.5847 77.6654 45.1989 76.122 44.4272C74.5786 43.6555 73.3292 42.5714 72.3738 41.175V57.0498H65.3184ZM80.0356 39.4112C82.2772 39.4112 84.1329 38.6579 85.6028 37.1512C87.0727 35.6446 87.8076 33.697 87.8076 31.3084C87.8076 28.9199 87.0727 26.9539 85.6028 25.4105C84.1329 23.8671 82.2772 23.0954 80.0356 23.0954C77.7573 23.0954 75.8832 23.8671 74.4133 25.4105C72.9801 26.9171 72.2636 28.8647 72.2636 31.2533C72.2636 33.6419 72.9801 35.6078 74.4133 37.1512C75.8832 38.6579 77.7573 39.4112 80.0356 39.4112Z" fill="black"/>
  <path d="M100.449 44.9232V17.5834H106.733L107.394 22.7096C108.387 20.9457 109.728 19.5493 111.418 18.5204C113.145 17.4548 115.166 16.9219 117.482 16.9219V24.3632H115.497C113.954 24.3632 112.576 24.6021 111.363 25.0798C110.15 25.5575 109.195 26.3843 108.497 27.5602C107.835 28.7361 107.505 30.3714 107.505 32.466V44.9232H100.449Z" fill="black"/>
  <path d="M134.111 45.5847C131.465 45.5847 129.077 44.9784 126.945 43.7657C124.851 42.5531 123.179 40.8811 121.929 38.7497C120.717 36.5816 120.111 34.0828 120.111 31.2533C120.111 28.4238 120.735 25.9433 121.985 23.812C123.234 21.6439 124.906 19.9536 127.001 18.7409C129.132 17.5282 131.521 16.9219 134.166 16.9219C136.775 16.9219 139.127 17.5282 141.222 18.7409C143.353 19.9536 145.025 21.6439 146.238 23.812C147.487 25.9433 148.112 28.4238 148.112 31.2533C148.112 34.0828 147.487 36.5816 146.238 38.7497C145.025 40.8811 143.353 42.5531 141.222 43.7657C139.09 44.9784 136.72 45.5847 134.111 45.5847ZM134.111 39.4663C135.949 39.4663 137.547 38.7865 138.907 37.4268C140.266 36.0304 140.946 33.9726 140.946 31.2533C140.946 28.534 140.266 26.4946 138.907 25.1349C137.547 23.7385 135.967 23.0403 134.166 23.0403C132.292 23.0403 130.675 23.7385 129.316 25.1349C127.993 26.4946 127.331 28.534 127.331 31.2533C127.331 33.9726 127.993 36.0304 129.316 37.4268C130.675 38.7865 132.274 39.4663 134.111 39.4663Z" fill="black"/>
  <path d="M166.161 45.5847C163.589 45.5847 161.292 44.96 159.271 43.7106C157.25 42.4612 155.651 40.7525 154.475 38.5844C153.299 36.4163 152.711 33.9542 152.711 31.1982C152.711 28.4422 153.299 25.9985 154.475 23.8671C155.651 21.6991 157.25 20.0087 159.271 18.796C161.292 17.5466 163.589 16.9219 166.161 16.9219C168.219 16.9219 170.019 17.3078 171.563 18.0795C173.106 18.8511 174.355 19.9352 175.311 21.3316V5.23633H182.366V44.9232H176.083L175.311 41.0097C174.429 42.2223 173.253 43.288 171.783 44.2067C170.35 45.1254 168.476 45.5847 166.161 45.5847ZM167.649 39.4112C169.927 39.4112 171.783 38.6579 173.216 37.1512C174.686 35.6078 175.421 33.6419 175.421 31.2533C175.421 28.8647 174.686 26.9171 173.216 25.4105C171.783 23.8671 169.927 23.0954 167.649 23.0954C165.408 23.0954 163.552 23.8488 162.082 25.3554C160.612 26.862 159.877 28.8096 159.877 31.1982C159.877 33.5868 160.612 35.5527 162.082 37.0961C163.552 38.6395 165.408 39.4112 167.649 39.4112Z" fill="black"/>
  <path d="M198.15 45.5847C195.798 45.5847 193.869 45.2172 192.362 44.4823C190.856 43.7106 189.735 42.7 189 41.4506C188.265 40.2012 187.897 38.8232 187.897 37.3166C187.897 34.781 188.89 32.7232 190.874 31.1431C192.858 29.5629 195.835 28.7729 199.803 28.7729H206.749V28.1114C206.749 26.2373 206.216 24.8593 205.15 23.9774C204.084 23.0954 202.762 22.6545 201.181 22.6545C199.748 22.6545 198.499 23.0036 197.433 23.7018C196.368 24.3632 195.706 25.3554 195.449 26.6783H188.559C188.743 24.6939 189.404 22.9668 190.543 21.4969C191.719 20.0271 193.226 18.9063 195.063 18.1346C196.9 17.3261 198.958 16.9219 201.237 16.9219C205.132 16.9219 208.2 17.8957 210.442 19.8433C212.683 21.7909 213.804 24.547 213.804 28.1114V44.9232H207.796L207.134 40.5136C206.326 41.9835 205.187 43.1961 203.717 44.1516C202.284 45.107 200.428 45.5847 198.15 45.5847ZM199.748 40.0726C201.769 40.0726 203.331 39.4112 204.434 38.0883C205.573 36.7654 206.289 35.1301 206.583 33.1825H200.575C198.701 33.1825 197.36 33.5316 196.551 34.2298C195.743 34.8913 195.339 35.7181 195.339 36.7103C195.339 37.7759 195.743 38.6027 196.551 39.1907C197.36 39.7786 198.425 40.0726 199.748 40.0726Z" fill="black"/>
  <path d="M233.105 45.5847C230.312 45.5847 227.85 44.9784 225.718 43.7657C223.587 42.5531 221.897 40.8627 220.647 38.6946C219.435 36.5265 218.828 34.0461 218.828 31.2533C218.828 28.4605 219.435 25.9801 220.647 23.812C221.897 21.6439 223.587 19.9536 225.718 18.7409C227.85 17.5282 230.312 16.9219 233.105 16.9219C236.596 16.9219 239.535 17.8406 241.924 19.678C244.312 21.4786 245.837 23.9774 246.499 27.1744H239.058C238.69 25.8515 237.955 24.8226 236.853 24.0876C235.787 23.3159 234.519 22.9301 233.049 22.9301C231.102 22.9301 229.448 23.665 228.089 25.1349C226.729 26.6048 226.049 28.6443 226.049 31.2533C226.049 33.8624 226.729 35.9018 228.089 37.3717C229.448 38.8416 231.102 39.5765 233.049 39.5765C234.519 39.5765 235.787 39.2091 236.853 38.4741C237.955 37.7392 238.69 36.6919 239.058 35.3322H246.499C245.837 38.419 244.312 40.8994 241.924 42.7735C239.535 44.6476 236.596 45.5847 233.105 45.5847Z" fill="black"/>
  <path d="M255.738 13.3391C254.451 13.3391 253.386 12.9532 252.541 12.1815C251.732 11.4098 251.328 10.4361 251.328 9.26014C251.328 8.08423 251.732 7.12881 252.541 6.39386C253.386 5.62217 254.451 5.23633 255.738 5.23633C257.024 5.23633 258.071 5.62217 258.88 6.39386C259.725 7.12881 260.147 8.08423 260.147 9.26014C260.147 10.4361 259.725 11.4098 258.88 12.1815C258.071 12.9532 257.024 13.3391 255.738 13.3391ZM252.21 44.9232V17.5834H259.265V44.9232H252.21Z" fill="black"/>
  <path d="M277.984 44.9232C275.118 44.9232 272.821 44.2251 271.094 42.8287C269.367 41.4323 268.504 38.9518 268.504 35.3874V23.4813H263.818V17.5834H268.504L269.33 10.2523H275.559V17.5834H282.945V23.4813H275.559V35.4425C275.559 36.7654 275.835 37.6841 276.386 38.1985C276.974 38.6762 277.966 38.9151 279.362 38.9151H282.78V44.9232H277.984Z" fill="black"/>
  <path d="M291.594 57.0498L297.933 43.1043H296.279L285.641 17.5834H293.302L300.964 36.8205L308.957 17.5834H316.453L299.09 57.0498H291.594Z" fill="black"/>
  <defs>
    <linearGradient id="paint0_linear_1204_5503" x1="44.2296" y1="0.00275604" x2="44.2296" y2="62.8707" gradientUnits="userSpaceOnUse">
      <stop stop-color="#801334"/>
      <stop offset="1" stop-color="#E5231E"/>
    </linearGradient>
  </defs>
</svg>
