<svg width="208" height="56" fill="none" xmlns="http://www.w3.org/2000/svg"><path d="M191.604 12.3493V8.45935l15.709 7.92495v3.4658l-15.709 7.9427v-3.9044l11.208-5.7704-11.208-5.7687Z" fill="#F2F2F2"/><path d="M20.0229 36.2504 27.1586.00012h4.9478L25.0898 36.2488l-5.0669.0016Z" fill="url(#a)"/><path d="M16.3879 23.8874v3.9054L.6875 19.8546v-3.4747L16.396 8.45935v3.88605L5.20093 18.1156l11.18697 5.7718ZM38.144 33.8342V10.8243h3.6584l.4493 2.2817c.5135-.707 1.1874-1.3284 2.0217-1.864.8558-.5356 1.9576-.8034 3.3054-.8034 1.4976 0 2.8347.3642 4.0114 1.0927 1.1767.7284 2.1073 1.7246 2.7919 2.9887.6846 1.264 1.0269 2.6995 1.0269 4.3063 0 1.6069-.3423 3.0423-1.0269 4.3063-.6846 1.2427-1.6152 2.2282-2.7919 2.9566-1.1767.707-2.5138 1.0605-4.0114 1.0605-1.1981 0-2.2464-.2249-3.1449-.6748-.8986-.4499-1.626-1.082-2.1822-1.8961v9.2554H38.144Zm8.5684-10.2838c1.305 0 2.3854-.4392 3.2411-1.3176.8558-.8784 1.2837-2.0139 1.2837-3.4065 0-1.3926-.4279-2.5388-1.2837-3.4386-.8557-.8999-1.9361-1.3498-3.2411-1.3498-1.3265 0-2.4176.4499-3.2733 1.3498-.8344.8784-1.2516 2.0139-1.2516 3.4065 0 1.3926.4172 2.5388 1.2516 3.4386.8557.8784 1.9468 1.3176 3.2733 1.3176ZM58.5971 26.7641V10.8243h3.6583l.3851 2.9887c.5777-1.0284 1.3586-1.8425 2.3427-2.4424 1.0055-.6213 2.1822-.932 3.53-.932v4.3385h-1.1553c-.8985 0-1.7008.1392-2.4068.4178-.706.2785-1.2623.7605-1.6687 1.4461-.3851.6856-.5777 1.639-.5777 2.8602v7.2629h-4.1076ZM78.1949 27.1497c-1.5403 0-2.931-.3535-4.1718-1.0605-1.2195-.707-2.1929-1.6818-2.9203-2.9244-.706-1.2641-1.059-2.7209-1.059-4.3706 0-1.6497.3637-3.0959 1.0911-4.3385.7274-1.264 1.7008-2.2496 2.9203-2.9566 1.2408-.707 2.6314-1.0605 4.1718-1.0605 1.519 0 2.8882.3535 4.1077 1.0605 1.2408.707 2.2143 1.6926 2.9203 2.9566.7273 1.2426 1.091 2.6888 1.091 4.3385 0 1.6497-.3637 3.1065-1.091 4.3706-.706 1.2426-1.6795 2.2174-2.9203 2.9244-1.2409.707-2.6208 1.0605-4.1398 1.0605Zm0-3.5671c1.0697 0 2.0004-.3964 2.7919-1.1891.7916-.8141 1.1874-2.0139 1.1874-3.5993s-.3958-2.7745-1.1874-3.5672c-.7915-.8141-1.7115-1.2212-2.7598-1.2212-1.0911 0-2.0324.4071-2.824 1.2212-.7702.7927-1.1553 1.9818-1.1553 3.5672 0 1.5854.3851 2.7852 1.1553 3.5993.7916.7927 1.7222 1.1891 2.7919 1.1891ZM96.8541 27.1497c-1.4976 0-2.8347-.3642-4.0114-1.0926-1.1766-.7284-2.1073-1.7247-2.7919-2.9887-.6846-1.2641-1.0269-2.6995-1.0269-4.3064 0-1.6068.3423-3.0315 1.0269-4.2742.6846-1.264 1.6153-2.2495 2.7919-2.9565 1.1767-.7285 2.5138-1.0927 4.0114-1.0927 1.1981 0 2.2464.225 3.1449.6749.899.4499 1.626 1.0819 2.182 1.8961V3.62561h4.108V26.7641h-3.659l-.449-2.2817c-.513.707-1.198 1.3283-2.054 1.8639-.834.5356-1.9251.8034-3.2729.8034Zm.8665-3.5993c1.3264 0 2.4064-.4392 3.2414-1.3176.856-.8998 1.283-2.046 1.283-3.4386 0-1.3926-.427-2.5281-1.283-3.4065-.835-.8999-1.915-1.3498-3.2414-1.3498-1.3051 0-2.3855.4392-3.2412 1.3176-.8558.8784-1.2837 2.0139-1.2837 3.4065 0 1.3926.4279 2.5388 1.2837 3.4387.8557.8998 1.9361 1.3497 3.2412 1.3497ZM115.478 27.1497c-1.369 0-2.492-.2142-3.37-.6427-.877-.4499-1.529-1.0391-1.957-1.7675-.428-.7285-.642-1.5319-.642-2.4103 0-1.4783.578-2.678 1.733-3.5993 1.155-.9213 2.888-1.3819 5.199-1.3819h4.043v-.3856c0-1.0927-.31-1.8961-.93-2.4103-.621-.5142-1.391-.7713-2.311-.7713-.834 0-1.562.2036-2.182.6106-.621.3857-1.006.9641-1.156 1.7354h-4.011c.107-1.1569.492-2.1639 1.155-3.0208.685-.857 1.562-1.5105 2.632-1.9604 1.07-.4713 2.268-.707 3.594-.707 2.268 0 4.054.5678 5.359 1.7033 1.305 1.1355 1.958 2.7423 1.958 4.8205v9.8017h-3.498l-.385-2.5709c-.471.8569-1.134 1.5639-1.99 2.121-.834.557-1.915.8355-3.241.8355Zm.931-3.2136c1.176 0 2.086-.3857 2.727-1.157.664-.7712 1.081-1.7246 1.252-2.8601h-3.498c-1.091 0-1.872.2035-2.343.6106-.47.3856-.706.8677-.706 1.4461 0 .6213.236 1.1034.706 1.4462.471.3428 1.091.5142 1.862.5142ZM135.828 27.1497c-1.626 0-3.059-.3535-4.3-1.0605-1.241-.707-2.225-1.6925-2.952-2.9566-.706-1.264-1.059-2.7102-1.059-4.3384 0-1.6283.353-3.0744 1.059-4.3385.727-1.264 1.711-2.2496 2.952-2.9566 1.241-.707 2.674-1.0605 4.3-1.0605 2.033 0 3.744.5356 5.135 1.6068 1.391 1.0499 2.278 2.5067 2.664 4.3707h-4.333c-.214-.7713-.642-1.3712-1.283-1.7997-.621-.4499-1.359-.6749-2.215-.6749-1.134 0-2.096.4285-2.888 1.2855-.791.857-1.187 2.046-1.187 3.5672 0 1.5211.396 2.7102 1.187 3.5672.792.8569 1.754 1.2854 2.888 1.2854.856 0 1.594-.2142 2.215-.6427.641-.4285 1.069-1.0391 1.283-1.8318h4.333c-.386 1.7997-1.273 3.2458-2.664 4.3385-1.391 1.0926-3.102 1.6389-5.135 1.6389ZM149.005 8.34972c-.748 0-1.369-.22496-1.861-.67487-.471-.44992-.706-1.01767-.706-1.70325 0-.68559.235-1.24263.706-1.67112.492-.44991 1.113-.67487 1.861-.67487.749 0 1.359.22496 1.83.67487.492.42849.738.98553.738 1.67112 0 .68558-.246 1.25333-.738 1.70325-.471.44991-1.081.67487-1.83.67487Zm-2.054 18.41438V10.8243h4.108v15.9398h-4.108ZM161.957 26.7641c-1.668 0-3.006-.4071-4.011-1.2212-1.006-.8141-1.508-2.2603-1.508-4.3385v-6.9415h-2.728v-3.4386h2.728l.481-4.27424h3.626v4.27424h4.301v3.4386h-4.301v6.9737c0 .7713.161 1.3069.482 1.6068.342.2785.92.4178 1.733.4178h1.989v3.5029h-2.792ZM169.881 33.8342l3.69-8.1306h-.963l-6.193-14.8793h4.46l4.461 11.2157 4.653-11.2157h4.365l-10.109 23.0099h-4.364Z" fill="#F2F2F2"/><path d="M93.7285 55.088h16.0295v-3.6892h-7.982l3.809-4.1174c1.722-1.8446 4.008-4.2821 4.008-7.6748 0-3.4915-2.65-6.9831-7.783-6.9831-4.3721 0-7.5516 2.8657-7.7503 7.3454h4.438c.0662-1.8775 1.2585-3.6562 3.5103-3.6562 1.855 0 3.279 1.3505 3.279 3.3269 0 1.2846-.695 2.6351-1.292 3.5244-.794 1.1858-3.378 4.1174-3.775 4.5786l-6.4915 7.3454ZM121.362 55.5821c4.405 0 8.545-3.9198 8.545-11.4628 0-7.576-4.14-11.4958-8.545-11.4958s-8.545 3.9198-8.545 11.4628c0 7.576 4.14 11.4958 8.545 11.4958Zm0-19.2694c1.855 0 4.239 2.0752 4.239 7.7736 0 5.7314-2.351 7.8066-4.239 7.8066s-4.239-2.0752-4.239-7.8066c0-5.6984 2.384-7.7736 4.239-7.7736ZM131.376 55.088h16.029v-3.6892h-7.981l3.808-4.1174c1.723-1.8446 4.008-4.2821 4.008-7.6748 0-3.4915-2.65-6.9831-7.783-6.9831-4.372 0-7.551 2.8657-7.75 7.3454h4.438c.066-1.8775 1.258-3.6562 3.511-3.6562 1.854 0 3.278 1.3505 3.278 3.3269 0 1.2846-.695 2.6351-1.291 3.5244-.795 1.1858-3.378 4.1174-3.776 4.5786l-6.491 7.3454ZM150.199 55.088h16.03v-3.6892h-7.982l3.809-4.1174c1.722-1.8446 4.007-4.2821 4.007-7.6748 0-3.4915-2.649-6.9831-7.783-6.9831-4.371 0-7.551 2.8657-7.749 7.3454h4.438c.066-1.8775 1.258-3.6562 3.51-3.6562 1.855 0 3.279 1.3505 3.279 3.3269 0 1.2846-.696 2.6351-1.292 3.5244-.795 1.1858-3.378 4.1174-3.775 4.5786l-6.492 7.3454Z" fill="#fff"/><defs><linearGradient id="a" x1="26.0671" y1=".00171" x2="26.0671" y2="36.2504" gradientUnits="userSpaceOnUse"><stop stop-color="#801334"/><stop offset="1" stop-color="#E5231E"/></linearGradient></defs></svg>