<svg width="72" height="16" viewBox="0 0 72 16" fill="none" xmlns="http://www.w3.org/2000/svg">
<g clip-path="url(#clip0_908_4428)">
<path d="M33.6857 6.61489H28.4549C28.1331 6.62945 27.8116 6.58143 27.5098 6.47374C27.2079 6.36605 26.9321 6.20092 26.699 5.98835C26.4659 5.77578 26.2803 5.5202 26.1535 5.23707C26.0267 4.95394 25.9613 4.64916 25.9613 4.34118C25.9613 4.03319 26.0267 3.72841 26.1535 3.44528C26.2803 3.16216 26.4659 2.90657 26.699 2.69401C26.9321 2.48144 27.2079 2.31631 27.5098 2.20862C27.8116 2.10092 28.1331 2.0529 28.4549 2.06747H34.4421C34.7762 2.06567 35.107 2.13143 35.4127 2.26044C35.7184 2.38944 35.9921 2.57878 36.2158 2.81603L37.3877 1.03882C36.5791 0.377527 35.5488 0.0160735 34.4847 0.0203624H28.4283C27.2316 0.0324342 26.0882 0.4954 25.2464 1.3087C24.4047 2.12201 23.9326 3.21996 23.9326 4.36409C23.9389 4.94523 24.0648 5.51949 24.3032 6.0541C24.5417 6.5887 24.8879 7.07317 25.3222 7.47983C25.7565 7.8865 26.2703 8.20741 26.8343 8.42422C27.3983 8.64104 28.0015 8.74952 28.6094 8.74347H33.4726C34.1937 8.74341 34.8859 9.01481 35.3993 9.49895C35.9127 9.98308 36.206 10.641 36.2158 11.3304C36.1937 12.0293 35.8888 12.6928 35.3652 13.181C34.8415 13.6693 34.1401 13.9442 33.4087 13.9478H27.6932C27.2742 13.9452 26.8611 13.8523 26.4848 13.676C26.1086 13.4997 25.7787 13.2444 25.52 12.9293V12.9599L24.3481 14.7371C25.2467 15.5613 26.4481 16.0149 27.6932 16H33.3927C34.6955 16.0028 35.9467 15.5138 36.8743 14.6393C37.802 13.7649 38.331 12.5757 38.3465 11.3304C38.3465 8.57542 35.8003 6.61489 33.6857 6.61489Z" fill="#131414"/>
<path d="M42.0752 5.42329H44.3337V2.23042H53.7938V0.0661926H42.0752V5.42329Z" fill="#131414"/>
<path d="M8.65572 8.71801C11.4682 8.54997 12.949 6.77785 12.949 4.33863C12.9504 3.21173 12.485 2.13015 11.6545 1.33045C10.824 0.530746 9.69597 0.07802 8.51723 0.0712891H-0.00537109V5.4233H2.25844V2.22533H8.41602C9.0325 2.24135 9.61741 2.48953 10.0434 2.91585C10.4694 3.34217 10.702 3.91211 10.6905 4.50159C10.6905 5.62699 9.93944 6.46212 8.48527 6.53851H6.82869H6.32799C4.32518 6.62508 2.75382 7.24125 1.63523 8.38192C0.616608 9.48218 0.0357751 10.8902 -0.00537109 12.359H-0.00537109C-0.00537109 12.5372 -0.00537109 12.6645 -0.00537109 12.7307V15.9134H2.25844V12.5525C2.26537 11.5617 2.6433 10.606 3.32377 9.85869C4.15289 9.11488 5.24961 8.7046 6.38658 8.71292C6.51442 10.5309 7.76085 15.6588 13.6734 15.9134H14.1262V13.7441C10.584 13.7441 8.9913 11.198 8.65572 8.71801Z" fill="#131414"/>
<path d="M44.3496 12.5525C44.354 11.5628 44.7323 10.6079 45.4149 9.86379C46.1766 9.08976 47.3645 8.70274 48.9411 8.70274H50.2835V6.54361H48.9145C46.6773 6.54361 44.9302 7.16996 43.7264 8.4023C42.6252 9.59271 42.0354 11.137 42.0751 12.7257V15.9083H53.7937V13.7441H44.3496V12.5525Z" fill="#131414"/>
<path d="M20.1984 0.0712891H17.8813V15.9287H20.1984V0.0712891Z" fill="#131414"/>
<path d="M70.1781 7.65883C70.7008 7.27143 71.124 6.77513 71.4157 6.20771C71.7074 5.64029 71.8598 5.01672 71.8613 4.38448C71.8588 3.76981 71.7186 3.16278 71.4504 2.60417C71.1821 2.04556 70.7919 1.54829 70.306 1.14578C69.8371 0.760815 69.2944 0.466783 68.708 0.28009C68.3517 0.17426 67.9832 0.110974 67.6107 0.0916748L67.1526 2.12859H67.4669C68.0853 2.19742 68.6642 2.4545 69.1181 2.86188C69.4289 3.17882 69.6348 3.57645 69.71 4.00486C69.7852 4.43327 69.7263 4.87338 69.5409 5.26993C69.3554 5.66649 69.0515 6.00183 68.6673 6.23386C68.2832 6.4659 67.8359 6.58429 67.3817 6.57417H66.1459L65.6505 8.65183H67.11C67.4688 8.65183 67.8242 8.7194 68.1557 8.85068C68.4872 8.98196 68.7885 9.17439 69.0422 9.41697C69.2959 9.65955 69.4972 9.94753 69.6345 10.2645C69.7719 10.5814 69.8426 10.9211 69.8426 11.2642C69.8426 11.6072 69.7719 11.9469 69.6345 12.2639C69.4972 12.5808 69.2959 12.8688 69.0422 13.1114C68.7885 13.354 68.4872 13.5464 68.1557 13.6777C67.8242 13.809 67.4688 13.8765 67.11 13.8765H64.4786L64.0259 15.9134H67.11C68.3919 15.9216 69.625 15.4439 70.5394 14.585C71.4538 13.7261 71.9751 12.5559 71.9892 11.3304C71.9927 10.628 71.8319 9.9338 71.5186 9.29853C71.2052 8.66325 70.7472 8.10302 70.1781 7.65883Z" fill="url(#paint0_linear_908_4428)"/>
<path d="M59.7967 4.38446C59.8037 3.78518 60.0577 3.21272 60.5035 2.79133C60.9492 2.36994 61.5508 2.13362 62.1777 2.13366H65.0222L65.4856 0.0967407H62.1511C60.9609 0.103422 59.8215 0.558381 58.9799 1.36295C58.1383 2.16752 57.6624 3.25683 57.6554 4.39464C57.658 5.02723 57.8114 5.65094 58.104 6.21833C58.3966 6.78572 58.8207 7.28185 59.344 7.66899C58.7964 8.08573 58.3496 8.61092 58.0346 9.20843C57.7195 9.80593 57.5435 10.4616 57.5187 11.1303C57.4939 11.799 57.6208 12.465 57.8909 13.0823C58.1609 13.6997 58.5676 14.2538 59.083 14.7065C59.5397 15.0886 60.0576 15.3981 60.617 15.6232C61.0384 15.7807 61.4817 15.8785 61.9327 15.9134L62.3855 13.902C62.19 13.9003 61.9953 13.8781 61.8049 13.8358C61.2289 13.6474 60.7046 13.3376 60.2708 12.9293C59.869 12.4755 59.6499 11.8995 59.6529 11.3049C59.6515 10.6061 59.939 9.9351 60.4529 9.43813C60.9667 8.94116 61.6652 8.65852 62.3961 8.6518H63.5467L64.0154 6.56905H62.1777C61.8714 6.57581 61.5667 6.52455 61.2812 6.41822C60.9957 6.3119 60.735 6.15261 60.5142 5.94955C60.2934 5.74648 60.1168 5.50365 59.9945 5.23503C59.8723 4.96642 59.8069 4.67734 59.8021 4.38446H59.7967Z" fill="url(#paint1_linear_908_4428)"/>
</g>
<defs>
<linearGradient id="paint0_linear_908_4428" x1="58.601" y1="18.6908" x2="74.0449" y2="14.5629" gradientUnits="userSpaceOnUse">
<stop stop-color="#FF0000"/>
<stop offset="1" stop-color="#800031"/>
</linearGradient>
<linearGradient id="paint1_linear_908_4428" x1="-22903.1" y1="-201060" x2="-22659.6" y2="-201092" gradientUnits="userSpaceOnUse">
<stop stop-color="#FF0000"/>
<stop offset="1" stop-color="#800031"/>
</linearGradient>
<clipPath id="clip0_908_4428">
<rect width="72" height="16" fill="white"/>
</clipPath>
</defs>
</svg>
