<svg width="183" height="32" viewBox="0 0 183 32" fill="none" xmlns="http://www.w3.org/2000/svg">
  <path d="M168.532 10.8254V7.44189L182.098 14.3351V17.3496L168.532 24.2583V20.8622L178.211 15.8431L168.532 10.8254Z" fill="#F2F2F2"/>
  <path d="M18.2856 32L24.3386 0H28.5357L22.5837 31.9986L18.2856 32Z" fill="url(#paint0_linear_1264_5496)"/>
  <path d="M14.4619 20.8619V24.258L0.901367 17.355V14.3334L14.469 7.4458V10.8251L4.79967 15.8428L14.4619 20.8619Z" fill="#F2F2F2"/>
  <path d="M34.147 29.0374V8.94969H37.3453L37.7381 10.9416C38.1869 10.3244 38.7761 9.782 39.5056 9.31441C40.2537 8.84682 41.2169 8.61303 42.3953 8.61303C43.7045 8.61303 44.8735 8.93099 45.9022 9.56691C46.9309 10.2028 47.7445 11.0725 48.343 12.1761C48.9415 13.2796 49.2408 14.5327 49.2408 15.9355C49.2408 17.3383 48.9415 18.5914 48.343 19.6949C47.7445 20.7797 46.9309 21.6401 45.9022 22.276C44.8735 22.8932 43.7045 23.2018 42.3953 23.2018C41.3479 23.2018 40.4314 23.0054 39.6458 22.6127C38.8603 22.2199 38.2244 21.6681 37.7381 20.9574V29.0374H34.147ZM41.6378 20.0596C42.7787 20.0596 43.7232 19.6762 44.4714 18.9094C45.2195 18.1425 45.5936 17.1512 45.5936 15.9355C45.5936 14.7198 45.2195 13.7191 44.4714 12.9336C43.7232 12.148 42.7787 11.7552 41.6378 11.7552C40.4781 11.7552 39.5243 12.148 38.7761 12.9336C38.0467 13.7004 37.682 14.6917 37.682 15.9074C37.682 17.1232 38.0467 18.1238 38.7761 18.9094C39.5243 19.6762 40.4781 20.0596 41.6378 20.0596Z" fill="#F2F2F2"/>
  <path d="M52.0279 22.8652V8.94969H55.2262L55.5629 11.5588C56.0679 10.6611 56.7506 9.95033 57.6109 9.42663C58.49 8.88423 59.5187 8.61303 60.697 8.61303V12.4005H59.687C58.9015 12.4005 58.2001 12.5221 57.5829 12.7652C56.9657 13.0084 56.4794 13.4292 56.124 14.0277C55.7873 14.6262 55.619 15.4585 55.619 16.5246V22.8652H52.0279Z" fill="#F2F2F2"/>
  <path d="M69.1612 23.2018C67.8145 23.2018 66.5988 22.8932 65.514 22.276C64.4479 21.6588 63.5969 20.8078 62.961 19.723C62.3437 18.6195 62.0351 17.3476 62.0351 15.9074C62.0351 14.4673 62.3531 13.2048 62.989 12.12C63.6249 11.0164 64.476 10.1561 65.5421 9.53885C66.6269 8.92164 67.8426 8.61303 69.1893 8.61303C70.5172 8.61303 71.7142 8.92164 72.7803 9.53885C73.8652 10.1561 74.7162 11.0164 75.3334 12.12C75.9693 13.2048 76.2873 14.4673 76.2873 15.9074C76.2873 17.3476 75.9693 18.6195 75.3334 19.723C74.7162 20.8078 73.8652 21.6588 72.7803 22.276C71.6955 22.8932 70.4892 23.2018 69.1612 23.2018ZM69.1612 20.0877C70.0964 20.0877 70.91 19.7417 71.602 19.0496C72.2941 18.3389 72.6401 17.2915 72.6401 15.9074C72.6401 14.5234 72.2941 13.4853 71.602 12.7933C70.91 12.0825 70.1057 11.7272 69.1893 11.7272C68.2354 11.7272 67.4124 12.0825 66.7204 12.7933C66.0471 13.4853 65.7104 14.5234 65.7104 15.9074C65.7104 17.2915 66.0471 18.3389 66.7204 19.0496C67.4124 19.7417 68.226 20.0877 69.1612 20.0877Z" fill="#F2F2F2"/>
  <path d="M85.4739 23.2018C84.1646 23.2018 82.9957 22.8839 81.967 22.2479C80.9383 21.612 80.1246 20.7423 79.5261 19.6388C78.9276 18.5353 78.6284 17.2821 78.6284 15.8794C78.6284 14.4766 78.9276 13.2328 79.5261 12.148C80.1246 11.0445 80.9383 10.1841 81.967 9.56691C82.9957 8.93099 84.1646 8.61303 85.4739 8.61303C86.5213 8.61303 87.4378 8.80941 88.2233 9.20219C89.0089 9.59497 89.6448 10.1467 90.1311 10.8575V2.66528H93.7222V22.8652H90.5238L90.1311 20.8732C89.6822 21.4905 89.0837 22.0329 88.3355 22.5004C87.6061 22.968 86.6522 23.2018 85.4739 23.2018ZM86.2314 20.0596C87.391 20.0596 88.3355 19.6762 89.065 18.9094C89.8131 18.1238 90.1872 17.1232 90.1872 15.9074C90.1872 14.6917 89.8131 13.7004 89.065 12.9336C88.3355 12.148 87.391 11.7552 86.2314 11.7552C85.0905 11.7552 84.1459 12.1387 83.3978 12.9055C82.6496 13.6723 82.2756 14.6636 82.2756 15.8794C82.2756 17.0951 82.6496 18.0958 83.3978 18.8813C84.1459 19.6669 85.0905 20.0596 86.2314 20.0596Z" fill="#F2F2F2"/>
  <path d="M101.756 23.2018C100.559 23.2018 99.5767 23.0148 98.8098 22.6407C98.043 22.2479 97.4725 21.7336 97.0985 21.0977C96.7244 20.4618 96.5373 19.7604 96.5373 18.9935C96.5373 17.703 97.0423 16.6556 98.0523 15.8513C99.0623 15.0471 100.577 14.6449 102.597 14.6449H106.132V14.3083C106.132 13.3544 105.861 12.653 105.319 12.2041C104.776 11.7552 104.103 11.5308 103.299 11.5308C102.569 11.5308 101.933 11.7085 101.391 12.0638C100.849 12.4005 100.512 12.9055 100.381 13.5788H96.874C96.9675 12.5688 97.3042 11.6898 97.884 10.9416C98.4825 10.1935 99.2494 9.62302 100.185 9.23025C101.12 8.81877 102.167 8.61303 103.327 8.61303C105.309 8.61303 106.871 9.10867 108.012 10.1C109.153 11.0913 109.723 12.494 109.723 14.3083V22.8652H106.665L106.329 20.6207C105.917 21.3689 105.337 21.9861 104.589 22.4724C103.86 22.9587 102.915 23.2018 101.756 23.2018ZM102.569 20.3963C103.598 20.3963 104.393 20.0596 104.954 19.3863C105.534 18.713 105.898 17.8807 106.048 16.8894H102.99C102.036 16.8894 101.354 17.0671 100.942 17.4224C100.531 17.7591 100.325 18.1799 100.325 18.6849C100.325 19.2273 100.531 19.6481 100.942 19.9474C101.354 20.2467 101.896 20.3963 102.569 20.3963Z" fill="#F2F2F2"/>
  <path d="M119.547 23.2018C118.125 23.2018 116.872 22.8932 115.788 22.276C114.703 21.6588 113.842 20.7984 113.206 19.6949C112.589 18.5914 112.281 17.3289 112.281 15.9074C112.281 14.486 112.589 13.2235 113.206 12.12C113.842 11.0164 114.703 10.1561 115.788 9.53885C116.872 8.92164 118.125 8.61303 119.547 8.61303C121.324 8.61303 122.82 9.08062 124.036 10.0158C125.252 10.9323 126.028 12.2041 126.364 13.8313H122.577C122.39 13.158 122.016 12.6343 121.455 12.2602C120.912 11.8675 120.267 11.6711 119.519 11.6711C118.528 11.6711 117.686 12.0451 116.994 12.7933C116.302 13.5414 115.956 14.5795 115.956 15.9074C115.956 17.2354 116.302 18.2734 116.994 19.0216C117.686 19.7697 118.528 20.1438 119.519 20.1438C120.267 20.1438 120.912 19.9568 121.455 19.5827C122.016 19.2086 122.39 18.6756 122.577 17.9835H126.364C126.028 19.5546 125.252 20.8171 124.036 21.771C122.82 22.7249 121.324 23.2018 119.547 23.2018Z" fill="#F2F2F2"/>
  <path d="M131.067 6.78943C130.412 6.78943 129.87 6.59304 129.44 6.20026C129.028 5.80749 128.822 5.31184 128.822 4.71333C128.822 4.11481 129.028 3.62852 129.44 3.25445C129.87 2.86167 130.412 2.66528 131.067 2.66528C131.721 2.66528 132.254 2.86167 132.666 3.25445C133.096 3.62852 133.311 4.11481 133.311 4.71333C133.311 5.31184 133.096 5.80749 132.666 6.20026C132.254 6.59304 131.721 6.78943 131.067 6.78943ZM129.271 22.8652V8.94969H132.862V22.8652H129.271Z" fill="#F2F2F2"/>
  <path d="M142.39 22.8652C140.931 22.8652 139.762 22.5098 138.883 21.7991C138.004 21.0883 137.564 19.8258 137.564 18.0116V11.9516H135.18V8.94969H137.564L137.985 5.21832H141.156V8.94969H144.915V11.9516H141.156V18.0396C141.156 18.713 141.296 19.1806 141.576 19.4424C141.876 19.6856 142.381 19.8071 143.091 19.8071H144.831V22.8652H142.39Z" fill="#F2F2F2"/>
  <path d="M149.317 29.0374L152.543 21.9393H151.701L146.287 8.94969H150.186L154.086 18.741L158.154 8.94969H161.97L153.132 29.0374H149.317Z" fill="#F2F2F2"/>
  <defs>
    <linearGradient id="paint0_linear_1264_5496" x1="23.4128" y1="0.00140277" x2="23.4128" y2="32" gradientUnits="userSpaceOnUse">
      <stop stop-color="#801334"/>
      <stop offset="1" stop-color="#E5231E"/>
    </linearGradient>
  </defs>
</svg>
