<svg width="115" height="34" viewBox="0 0 115 34" fill="none" xmlns="http://www.w3.org/2000/svg">
  <path d="M2.15677 25.7613H3.84685L4.22523 26.7751H5.08289L3.4937 22.6736H2.48469L0.895508 26.7751H1.77839L2.15677 25.7613ZM2.96397 23.5262H2.9892L3.5946 25.1852H2.35857L2.96397 23.5262ZM8.66486 26.7751V22.6736H7.85766V24.2174H7.83243C7.78198 24.1483 7.73153 24.0561 7.65586 23.987C7.58018 23.8949 7.47928 23.8257 7.35315 23.7796C7.22703 23.7105 7.07568 23.6875 6.87388 23.6875C6.62162 23.6875 6.36937 23.7566 6.16757 23.8718C5.96577 23.987 5.78919 24.1714 5.66307 24.4018C5.53694 24.6322 5.48649 24.9317 5.48649 25.2774C5.48649 25.623 5.53694 25.8995 5.66307 26.1299C5.78919 26.3604 5.94054 26.5447 6.16757 26.6599C6.36937 26.7751 6.62162 26.8442 6.87388 26.8442C7.07568 26.8442 7.22703 26.8212 7.35315 26.7521C7.47928 26.6829 7.58018 26.6138 7.65586 26.5447C7.73153 26.4525 7.78198 26.3834 7.83243 26.3143H7.88288V26.7982H8.66486V26.7751ZM7.80721 25.7613C7.75676 25.8995 7.65586 26.0378 7.52973 26.1069C7.4036 26.1991 7.27748 26.2221 7.1009 26.2221C6.92433 26.2221 6.77298 26.176 6.67207 26.0838C6.54595 25.9917 6.47027 25.8765 6.3946 25.7382C6.31892 25.6 6.2937 25.4156 6.2937 25.2313C6.2937 25.047 6.31892 24.8626 6.3946 24.7244C6.47027 24.5861 6.54595 24.4709 6.67207 24.3787C6.7982 24.2866 6.94955 24.2635 7.12613 24.2635C7.3027 24.2635 7.42883 24.3096 7.55496 24.3787C7.68108 24.4709 7.75676 24.5631 7.83243 24.7244C7.88288 24.8626 7.93333 25.047 7.93333 25.2313C7.88288 25.4387 7.85766 25.6 7.80721 25.7613ZM10.9099 25.9917H10.8595L10.1027 23.7105H9.24504L10.4559 26.7751H11.3135L12.5243 23.7105H11.6919L10.9099 25.9917ZM13.4576 26.729C13.6342 26.7982 13.8108 26.8442 14.0378 26.8442C14.2144 26.8442 14.3658 26.8212 14.4919 26.7751C14.618 26.729 14.7189 26.6599 14.8198 26.5908C14.8955 26.5217 14.9712 26.4295 15.0216 26.3604H15.0468V26.7751H15.8036V24.7244C15.8036 24.517 15.7531 24.3557 15.6775 24.2174C15.6018 24.0792 15.5009 23.964 15.3495 23.8948C15.2234 23.8257 15.0721 23.7566 14.9207 23.7336C14.7694 23.6875 14.5928 23.6875 14.4414 23.6875C14.2144 23.6875 13.9874 23.7105 13.7856 23.7796C13.5838 23.8488 13.4324 23.9409 13.2811 24.0561C13.1549 24.1714 13.054 24.3327 13.0036 24.517L13.7351 24.6092C13.7856 24.4939 13.8613 24.4018 13.9622 24.3327C14.0631 24.2635 14.2396 24.2174 14.4162 24.2174C14.5928 24.2174 14.7441 24.2635 14.845 24.3327C14.9459 24.4018 14.9964 24.54 14.9964 24.6783V24.7013C14.9964 24.7704 14.9712 24.8165 14.9207 24.8626C14.8703 24.8857 14.7694 24.9087 14.6432 24.9317C14.5171 24.9548 14.3658 24.9548 14.164 24.9778C14.0126 25.0009 13.836 25.0239 13.6847 25.047C13.5333 25.093 13.4072 25.1391 13.2811 25.2083C13.1549 25.2774 13.054 25.3695 13.0036 25.4848C12.9279 25.6 12.9027 25.7382 12.9027 25.9226C12.9027 26.1299 12.9531 26.2912 13.054 26.4295C13.1549 26.5447 13.3063 26.6599 13.4576 26.729ZM13.7604 25.6691C13.8108 25.6 13.8865 25.5539 13.9874 25.5308C14.0883 25.5078 14.1892 25.4848 14.3153 25.4617C14.3658 25.4617 14.4414 25.4387 14.4919 25.4387C14.5423 25.4387 14.6432 25.4156 14.7189 25.4156C14.7946 25.3926 14.8703 25.3926 14.9207 25.3695C14.9712 25.3465 15.0216 25.3465 15.0468 25.3235V25.6921C15.0468 25.8073 15.0216 25.8995 14.9459 26.0147C14.8703 26.1069 14.7946 26.1991 14.6685 26.2451C14.5423 26.2912 14.4162 26.3373 14.2649 26.3373C14.0883 26.3373 13.9622 26.3143 13.8613 26.2451C13.7604 26.176 13.7099 26.0839 13.7099 25.9456C13.6847 25.8073 13.7099 25.7382 13.7604 25.6691ZM17.418 24.9778C17.418 24.8396 17.4432 24.7013 17.5189 24.6092C17.5694 24.4939 17.6703 24.4248 17.7712 24.3787C17.8721 24.3326 17.9982 24.2866 18.1495 24.2866C18.3513 24.2866 18.5027 24.3557 18.6288 24.4709C18.7549 24.5861 18.8054 24.7474 18.8054 24.9548V26.7982H19.5874V24.8396C19.5874 24.5861 19.5369 24.3787 19.436 24.2174C19.3351 24.0561 19.209 23.9179 19.0324 23.8257C18.8558 23.7336 18.654 23.6875 18.427 23.6875C18.1748 23.6875 17.973 23.7336 17.7964 23.8488C17.6198 23.9409 17.4937 24.0792 17.418 24.2635H17.3676V23.7336H16.6108V26.7982H17.418V24.9778ZM22.5135 25.7152C22.4883 25.8304 22.4378 25.9226 22.3874 25.9917C22.3369 26.0608 22.236 26.1299 22.1603 26.176C22.0594 26.2221 21.9585 26.2451 21.8576 26.2451C21.6811 26.2451 21.5549 26.1991 21.4288 26.1299C21.3027 26.0608 21.2018 25.9226 21.1513 25.7843C21.0757 25.623 21.0504 25.4617 21.0504 25.2543C21.0504 25.047 21.0757 24.8626 21.1513 24.7244C21.227 24.5861 21.3027 24.4709 21.4288 24.3787C21.5549 24.3096 21.7063 24.2635 21.8576 24.2635C22.0594 24.2635 22.2108 24.3096 22.3117 24.4018C22.4378 24.4939 22.4883 24.6322 22.5387 24.7705H23.2955C23.2702 24.54 23.1946 24.3557 23.0684 24.1944C22.9423 24.0331 22.7657 23.8948 22.5639 23.8027C22.3621 23.7105 22.1099 23.6644 21.8324 23.6644C21.5045 23.6644 21.227 23.7336 20.9748 23.8718C20.7225 24.0101 20.5459 24.1944 20.4198 24.4248C20.2937 24.6552 20.218 24.9317 20.218 25.2543C20.218 25.5539 20.2937 25.8304 20.4198 26.0838C20.5459 26.3143 20.7225 26.4986 20.9748 26.6369C21.227 26.7751 21.5045 26.8442 21.8324 26.8442C22.1099 26.8442 22.3621 26.7982 22.5639 26.706C22.7657 26.6138 22.9423 26.4756 23.0684 26.3143C23.1946 26.153 23.2702 25.9456 23.2702 25.7382H22.5135V25.7152ZM24.5567 26.6369C24.809 26.7751 25.0865 26.8212 25.4396 26.8212C25.6919 26.8212 25.9441 26.7751 26.1459 26.706C26.3477 26.6369 26.5243 26.5217 26.6504 26.4064C26.7765 26.2682 26.8774 26.1069 26.9279 25.9456L26.1964 25.8765C26.1711 25.9686 26.1207 26.0378 26.045 26.0838C25.9693 26.153 25.8937 26.176 25.7928 26.2221C25.6919 26.2451 25.591 26.2682 25.4901 26.2682C25.3135 26.2682 25.1621 26.2451 25.036 26.176C24.9099 26.1069 24.809 26.0147 24.7333 25.8765C24.6576 25.7613 24.6324 25.6 24.6324 25.4387H26.9783V25.2083C26.9783 24.9317 26.9279 24.7013 26.8522 24.517C26.7765 24.3327 26.6504 24.1714 26.5243 24.0331C26.3729 23.9179 26.2216 23.8027 26.045 23.7566C25.8684 23.6875 25.6666 23.6644 25.4648 23.6644C25.1369 23.6644 24.8594 23.7336 24.6324 23.8718C24.4054 24.0101 24.2036 24.1944 24.0775 24.4248C23.9513 24.6552 23.8757 24.9317 23.8757 25.2543C23.8757 25.5769 23.9513 25.8534 24.0775 26.0838C24.1279 26.3373 24.3045 26.5217 24.5567 26.6369ZM24.9603 24.3327C25.0865 24.2635 25.2378 24.2174 25.3892 24.2174C25.5405 24.2174 25.6666 24.2405 25.7928 24.3096C25.9189 24.3787 25.9946 24.4479 26.0702 24.5631C26.1459 24.6783 26.1711 24.7935 26.1711 24.9317H24.582C24.582 24.8165 24.6072 24.7013 24.6829 24.5861C24.7585 24.4939 24.8342 24.4018 24.9603 24.3327ZM28.1387 26.6369C28.3405 26.7521 28.5928 26.8212 28.845 26.8212C29.0468 26.8212 29.1982 26.7982 29.3243 26.729C29.4504 26.6599 29.5513 26.5908 29.627 26.5217C29.7027 26.4295 29.7531 26.3604 29.8036 26.2912H29.854V26.7751H30.636V22.6736H29.8288V24.2174H29.8036C29.7531 24.1483 29.7027 24.0561 29.627 23.987C29.5513 23.8949 29.4504 23.8257 29.3243 23.7796C29.1982 23.7105 29.0468 23.6875 28.845 23.6875C28.5928 23.6875 28.3405 23.7566 28.1387 23.8718C27.9369 23.987 27.7603 24.1714 27.6342 24.4018C27.5081 24.6322 27.4576 24.9317 27.4576 25.2774C27.4576 25.623 27.5081 25.8995 27.6342 26.1299C27.7603 26.3373 27.9117 26.5217 28.1387 26.6369ZM28.3405 24.7244C28.391 24.5861 28.4919 24.4709 28.618 24.3787C28.7441 24.2866 28.8955 24.2635 29.072 24.2635C29.2486 24.2635 29.3747 24.3096 29.5009 24.3787C29.627 24.4709 29.7027 24.5631 29.7783 24.7244C29.8288 24.8626 29.8792 25.047 29.8792 25.2313C29.8792 25.4387 29.854 25.6 29.7783 25.7613C29.7279 25.8995 29.627 26.0378 29.5009 26.1069C29.3747 26.1991 29.2486 26.2221 29.072 26.2221C28.8955 26.2221 28.7441 26.176 28.6432 26.0838C28.5171 25.9917 28.4414 25.8765 28.3657 25.7382C28.2901 25.6 28.2648 25.4156 28.2648 25.2313C28.2648 25.047 28.2901 24.8857 28.3405 24.7244ZM35.7063 26.6369C35.9333 26.5447 36.1099 26.4064 36.2108 26.2451C36.3117 26.0839 36.3873 25.8765 36.3873 25.6691C36.3873 25.4617 36.3369 25.2774 36.236 25.1391C36.1351 25.0009 36.0342 24.8857 35.8828 24.7935C35.7315 24.7013 35.5801 24.6783 35.4288 24.6552V24.6092C35.5801 24.5861 35.7063 24.517 35.8324 24.4479C35.9585 24.3787 36.0342 24.2866 36.1099 24.1714C36.1855 24.0561 36.2108 23.9179 36.2108 23.7336C36.2108 23.5262 36.1603 23.3418 36.0594 23.1805C35.9585 23.0193 35.7819 22.904 35.5801 22.8119C35.3783 22.7197 35.1009 22.6736 34.7729 22.6736H33.0576V26.7751H34.8738C35.2018 26.7751 35.4792 26.729 35.7063 26.6369ZM33.8648 23.2958H34.6973C34.9243 23.2958 35.1261 23.3418 35.227 23.457C35.3531 23.5492 35.4036 23.6875 35.4036 23.8488C35.4036 23.964 35.3783 24.0792 35.3027 24.1714C35.227 24.2635 35.1513 24.3326 35.0252 24.3787C34.9243 24.4248 34.7982 24.4479 34.6468 24.4479H33.8396V23.2958H33.8648ZM33.8648 26.153V24.9548H34.7729C34.9495 24.9548 35.0756 24.9778 35.2018 25.047C35.3279 25.1161 35.4288 25.1852 35.4792 25.2774C35.5549 25.3695 35.5801 25.4848 35.5801 25.6C35.5801 25.7613 35.5045 25.8995 35.3783 25.9917C35.2522 26.0838 35.0252 26.153 34.7477 26.153H33.8648ZM39.3639 23.8718C39.2378 23.8027 39.0864 23.7336 38.9351 23.7105C38.7837 23.6644 38.6072 23.6644 38.4558 23.6644C38.2288 23.6644 38.0018 23.6875 37.8 23.7566C37.5982 23.8257 37.4468 23.9179 37.2954 24.0331C37.1693 24.1483 37.0684 24.3096 37.018 24.4939L37.7495 24.5861C37.8 24.4709 37.8756 24.3787 37.9765 24.3096C38.0774 24.2405 38.254 24.1944 38.4306 24.1944C38.6072 24.1944 38.7585 24.2405 38.8594 24.3096C38.9603 24.3787 39.0108 24.517 39.0108 24.6552V24.6783C39.0108 24.7474 38.9855 24.7935 38.9351 24.8396C38.8846 24.8626 38.7837 24.8857 38.6576 24.9087C38.5315 24.9317 38.3801 24.9317 38.1783 24.9548C38.027 24.9778 37.8504 25.0009 37.699 25.0239C37.5477 25.07 37.4216 25.1161 37.2954 25.1852C37.1693 25.2543 37.0684 25.3465 37.018 25.4617C36.9423 25.5769 36.9171 25.7152 36.9171 25.8995C36.9171 26.1069 36.9675 26.2682 37.0684 26.4064C37.1693 26.5447 37.2954 26.6369 37.472 26.729C37.6486 26.7982 37.8252 26.8442 38.0522 26.8442C38.2288 26.8442 38.3801 26.8212 38.5063 26.7751C38.6324 26.729 38.7333 26.6599 38.8342 26.5908C38.9099 26.5217 38.9855 26.4295 39.036 26.3604H39.0612V26.7751H39.818V24.7244C39.818 24.517 39.7675 24.3557 39.6918 24.2174C39.6162 24.0792 39.49 23.964 39.3639 23.8718ZM39.0108 25.6691C39.0108 25.7843 38.9855 25.8765 38.9099 25.9917C38.8342 26.0838 38.7585 26.176 38.6324 26.2221C38.5063 26.2912 38.3801 26.3143 38.2288 26.3143C38.0522 26.3143 37.9261 26.2912 37.8252 26.2221C37.7243 26.153 37.6738 26.0608 37.6738 25.9226C37.6738 25.8304 37.6991 25.7613 37.7495 25.6921C37.8 25.623 37.8756 25.5769 37.9765 25.5539C38.0774 25.5308 38.1783 25.5078 38.3045 25.4848C38.3549 25.4848 38.4306 25.4617 38.481 25.4617C38.5315 25.4617 38.6324 25.4387 38.7081 25.4387C38.7837 25.4156 38.8594 25.4156 38.9099 25.3926C38.9603 25.3695 39.0108 25.3695 39.036 25.3465V25.6691H39.0108ZM40.827 25.9686C40.827 26.153 40.8774 26.3143 40.9531 26.4525C41.054 26.5908 41.1801 26.6829 41.3315 26.729C41.4828 26.7982 41.6594 26.8212 41.8612 26.8212C41.9621 26.8212 42.063 26.7982 42.1387 26.7982C42.2144 26.7751 42.2648 26.7751 42.3153 26.7521L42.1891 26.176C42.1639 26.176 42.1387 26.176 42.0882 26.1991H41.9621C41.8864 26.1991 41.836 26.1991 41.7855 26.176C41.7351 26.153 41.6846 26.1299 41.6594 26.0608C41.6342 26.0147 41.609 25.9456 41.609 25.8304V24.2405H42.2648V23.6875H41.6342V22.9501H40.8522V23.6875H40.3729V24.2405H40.8522V25.9686H40.827ZM44.4594 26.1991H44.3333C44.2576 26.1991 44.2071 26.1991 44.1567 26.176C44.1062 26.153 44.0558 26.1299 44.0306 26.0608C44.0053 26.0147 43.9801 25.9456 43.9801 25.8304V24.2405H44.636V23.6875H43.9801V22.9501H43.1981V23.6875H42.7189V24.2405H43.1981V25.9456C43.1981 26.1299 43.2486 26.2912 43.3243 26.4295C43.4252 26.5677 43.5513 26.6599 43.7026 26.706C43.854 26.7751 44.0306 26.7982 44.2324 26.7982C44.3333 26.7982 44.4342 26.7751 44.5098 26.7751C44.5855 26.7521 44.636 26.7521 44.6864 26.729L44.5603 26.153C44.5351 26.176 44.5098 26.176 44.4594 26.1991ZM45.2918 22.6736H46.0738V26.7751H45.2918V22.6736ZM47.5116 26.6369C47.7639 26.7751 48.0414 26.8212 48.3945 26.8212C48.6468 26.8212 48.899 26.7751 49.1008 26.706C49.3026 26.6369 49.4792 26.5217 49.6053 26.4064C49.7315 26.2682 49.8324 26.1069 49.8828 25.9456L49.1513 25.8765C49.1261 25.9686 49.0756 26.0378 48.9999 26.0838C48.9243 26.153 48.8486 26.176 48.7477 26.2221C48.6468 26.2451 48.5459 26.2682 48.445 26.2682C48.2684 26.2682 48.1171 26.2451 47.9909 26.176C47.8648 26.1069 47.7639 26.0147 47.6882 25.8765C47.6125 25.7613 47.5873 25.6 47.5873 25.4387H49.9333V25.2083C49.9333 24.9317 49.8828 24.7013 49.8071 24.517C49.7315 24.3327 49.6053 24.1714 49.4792 24.0331C49.3279 23.9179 49.1765 23.8027 48.9999 23.7566C48.8234 23.6875 48.6216 23.6644 48.4198 23.6644C48.0918 23.6644 47.8144 23.7336 47.5873 23.8718C47.3603 24.0101 47.1585 24.1944 47.0324 24.4248C46.9062 24.6552 46.8306 24.9317 46.8306 25.2543C46.8306 25.5769 46.9062 25.8534 47.0324 26.0838C47.0828 26.3373 47.2846 26.5217 47.5116 26.6369ZM47.9405 24.3327C48.0666 24.2635 48.218 24.2174 48.3693 24.2174C48.5207 24.2174 48.6468 24.2405 48.7729 24.3096C48.899 24.3787 48.9747 24.4479 49.0504 24.5631C49.1261 24.6783 49.1513 24.7935 49.1513 24.9317H47.5621C47.5621 24.8165 47.5873 24.7013 47.663 24.5861C47.7134 24.4939 47.8144 24.4018 47.9405 24.3327ZM52.9098 23.9409H52.9351L54.1963 26.7521H54.7765L56.0125 23.964H56.0378V26.7751H56.8197V22.6736H55.836L54.499 25.646H54.4486L53.1116 22.6736H52.1279V26.7751H52.9098V23.9409ZM58.081 26.729C58.2576 26.7982 58.4342 26.8442 58.6612 26.8442C58.8378 26.8442 58.9891 26.8212 59.1152 26.7751C59.2414 26.729 59.3423 26.6599 59.4432 26.5908C59.5188 26.5217 59.5945 26.4295 59.645 26.3604H59.6702V26.7751H60.4269V24.7244C60.4269 24.517 60.3765 24.3557 60.3008 24.2174C60.2251 24.0792 60.1242 23.964 59.9729 23.8948C59.8468 23.8257 59.6954 23.7566 59.5441 23.7336C59.3927 23.6875 59.2161 23.6875 59.0648 23.6875C58.8378 23.6875 58.6107 23.7105 58.4089 23.7796C58.2071 23.8488 58.0558 23.9409 57.9044 24.0561C57.7783 24.1714 57.6774 24.3327 57.6269 24.517L58.3585 24.6092C58.4089 24.4939 58.4846 24.4018 58.5855 24.3327C58.6864 24.2635 58.863 24.2174 59.0396 24.2174C59.2161 24.2174 59.3675 24.2635 59.4684 24.3327C59.5693 24.4018 59.6197 24.54 59.6197 24.6783V24.7013C59.6197 24.7704 59.5945 24.8165 59.5441 24.8626C59.4936 24.8857 59.3927 24.9087 59.2666 24.9317C59.1405 24.9548 58.9891 24.9548 58.7873 24.9778C58.636 25.0009 58.4594 25.0239 58.308 25.047C58.1567 25.093 58.0305 25.1391 57.9044 25.2083C57.7783 25.2774 57.6774 25.3695 57.6269 25.4848C57.5513 25.6 57.526 25.7382 57.526 25.9226C57.526 26.1299 57.5765 26.2912 57.6774 26.4295C57.7783 26.5447 57.9044 26.6599 58.081 26.729ZM58.3585 25.6691C58.4089 25.6 58.4846 25.5539 58.5855 25.5308C58.6864 25.5078 58.7873 25.4848 58.9134 25.4617C58.9639 25.4617 59.0396 25.4387 59.09 25.4387C59.1657 25.4387 59.2414 25.4156 59.317 25.4156C59.3927 25.3926 59.4684 25.3926 59.5188 25.3695C59.5693 25.3465 59.6197 25.3465 59.645 25.3235V25.6921C59.645 25.8073 59.6197 25.8995 59.5441 26.0147C59.4684 26.1069 59.3927 26.1991 59.2666 26.2451C59.1405 26.3143 59.0143 26.3373 58.863 26.3373C58.6864 26.3373 58.5603 26.3143 58.4594 26.2451C58.3585 26.176 58.308 26.0839 58.308 25.9456C58.2828 25.8073 58.308 25.7382 58.3585 25.6691ZM62.3693 24.3557C62.4702 24.3096 62.5963 24.2635 62.7477 24.2635C62.9495 24.2635 63.1008 24.3327 63.2269 24.4479C63.3531 24.5631 63.4035 24.7244 63.4035 24.9317V26.7751H64.1855V24.8165C64.1855 24.5631 64.135 24.3557 64.0341 24.1944C63.9332 24.0331 63.8071 23.8948 63.6305 23.8027C63.454 23.7105 63.2522 23.6644 63.0251 23.6644C62.7729 23.6644 62.5711 23.7105 62.3945 23.8257C62.2179 23.9179 62.0918 24.0561 62.0161 24.2405H61.9657V23.7105H61.2089V26.7751H61.9909V24.9778C61.9909 24.8396 62.0161 24.7013 62.0918 24.6092C62.1675 24.4939 62.2432 24.4018 62.3693 24.3557ZM67.2882 23.8718C67.1621 23.8027 67.0107 23.7336 66.8594 23.7105C66.708 23.6644 66.5314 23.6644 66.3801 23.6644C66.1531 23.6644 65.926 23.6875 65.7242 23.7566C65.5224 23.8257 65.3711 23.9179 65.2197 24.0331C65.0936 24.1483 64.9927 24.3096 64.9422 24.4939L65.6738 24.5861C65.7242 24.4709 65.7999 24.3787 65.9008 24.3096C66.0017 24.2405 66.1783 24.1944 66.3549 24.1944C66.5314 24.1944 66.6828 24.2405 66.7837 24.3096C66.8846 24.3787 66.935 24.517 66.935 24.6552V24.6783C66.935 24.7474 66.9098 24.7935 66.8594 24.8396C66.8089 24.8626 66.708 24.8857 66.5819 24.9087C66.4558 24.9317 66.3044 24.9317 66.1026 24.9548C65.9513 24.9778 65.7747 25.0009 65.6233 25.0239C65.472 25.07 65.3458 25.1161 65.2197 25.1852C65.0936 25.2543 64.9927 25.3465 64.9422 25.4617C64.8666 25.5769 64.8413 25.7152 64.8413 25.8995C64.8413 26.1069 64.8918 26.2682 64.9927 26.4064C65.0936 26.5447 65.2197 26.6369 65.3963 26.729C65.5729 26.7982 65.7495 26.8442 65.9765 26.8442C66.1531 26.8442 66.3044 26.8212 66.4305 26.7751C66.5567 26.729 66.6576 26.6599 66.7585 26.5908C66.8341 26.5217 66.9098 26.4295 66.9603 26.3604H66.9855V26.7751H67.7422V24.7244C67.7422 24.517 67.6918 24.3557 67.6161 24.2174C67.5152 24.0792 67.4143 23.964 67.2882 23.8718ZM66.935 25.6691C66.935 25.7843 66.9098 25.8765 66.8341 25.9917C66.7585 26.0838 66.6828 26.176 66.5567 26.2221C66.4305 26.2912 66.3044 26.3143 66.1531 26.3143C65.9765 26.3143 65.8504 26.2912 65.7495 26.2221C65.6486 26.153 65.5981 26.0608 65.5981 25.9226C65.5981 25.8304 65.6233 25.7613 65.6738 25.6921C65.7242 25.623 65.7999 25.5769 65.9008 25.5539C66.0017 25.5308 66.1026 25.5078 66.2287 25.4848C66.2792 25.4848 66.3549 25.4617 66.4053 25.4617C66.4558 25.4617 66.5567 25.4387 66.6323 25.4387C66.708 25.4156 66.7837 25.4156 66.8341 25.3926C66.8846 25.3695 66.935 25.3695 66.9603 25.3465V25.6691H66.935ZM69.0792 26.5677C69.281 26.6829 69.5332 26.729 69.7855 26.729C69.9873 26.729 70.1386 26.706 70.2648 26.6599C70.3909 26.6138 70.4918 26.5447 70.5675 26.4525C70.6431 26.3834 70.6936 26.2912 70.744 26.2221H70.7945V26.7982C70.7945 27.0286 70.7188 27.1899 70.5675 27.282C70.4161 27.3742 70.2395 27.4203 70.0125 27.4203C69.8612 27.4203 69.7098 27.3972 69.6089 27.3512C69.508 27.3051 69.4323 27.259 69.3567 27.2129C69.3062 27.1438 69.2558 27.0977 69.2053 27.0286L68.499 27.1899C68.5494 27.3281 68.6251 27.4664 68.7513 27.5816C68.8774 27.6968 69.0287 27.789 69.2558 27.8581C69.4828 27.9272 69.7098 27.9733 69.9873 27.9733C70.29 27.9733 70.5675 27.9272 70.7945 27.835C71.0215 27.7429 71.2233 27.6277 71.3494 27.4433C71.4756 27.282 71.5512 27.0516 71.5512 26.7982V23.6644H70.7693V24.1714H70.7188C70.6684 24.1022 70.6179 24.0101 70.5422 23.9409C70.4666 23.8488 70.3657 23.7796 70.2395 23.7336C70.1134 23.6644 69.9368 23.6414 69.7603 23.6414C69.508 23.6414 69.2558 23.7105 69.054 23.8257C68.8522 23.9409 68.6756 24.1253 68.5495 24.3557C68.4233 24.5861 68.3729 24.8626 68.3729 25.2083C68.3729 25.5539 68.4233 25.8304 68.5495 26.0378C68.7008 26.2912 68.8521 26.4525 69.0792 26.5677ZM69.281 24.7244C69.3314 24.5861 69.4323 24.4709 69.5585 24.3787C69.6846 24.2866 69.8359 24.2635 70.0125 24.2635C70.1891 24.2635 70.3152 24.3096 70.4413 24.3787C70.5675 24.4709 70.6431 24.5631 70.7188 24.7244C70.7945 24.8857 70.8197 25.047 70.8197 25.2313C70.8197 25.4387 70.7945 25.6 70.7188 25.7382C70.6684 25.8765 70.5675 25.9917 70.4413 26.0608C70.3152 26.1299 70.1891 26.176 70.0125 26.176C69.8359 26.176 69.6846 26.1299 69.5837 26.0608C69.4576 25.9917 69.3819 25.8765 69.3062 25.7382C69.2558 25.6 69.2053 25.4387 69.2053 25.2543C69.2053 25.047 69.2305 24.8626 69.281 24.7244ZM72.9891 26.6369C73.2413 26.7751 73.5188 26.8212 73.872 26.8212C74.1242 26.8212 74.3765 26.7751 74.5783 26.706C74.7801 26.6369 74.9566 26.5217 75.0828 26.4064C75.2089 26.2682 75.3098 26.1069 75.3603 25.9456L74.6287 25.8765C74.6035 25.9686 74.553 26.0378 74.4774 26.0838C74.4017 26.153 74.326 26.176 74.2251 26.2221C74.1242 26.2451 74.0233 26.2682 73.9224 26.2682C73.7458 26.2682 73.5945 26.2451 73.4684 26.176C73.3422 26.1069 73.2413 26.0147 73.1657 25.8765C73.09 25.7613 73.0648 25.6 73.0648 25.4387H75.4107V25.2083C75.4107 24.9317 75.3602 24.7013 75.2846 24.517C75.2089 24.3327 75.0828 24.1714 74.9566 24.0331C74.8053 23.9179 74.6539 23.8027 74.4774 23.7566C74.3008 23.6875 74.099 23.6644 73.8972 23.6644C73.5693 23.6644 73.2918 23.7336 73.0648 23.8718C72.8377 24.0101 72.6359 24.1944 72.5098 24.4248C72.3837 24.6552 72.308 24.9317 72.308 25.2543C72.308 25.5769 72.3837 25.8534 72.5098 26.0838C72.5602 26.3373 72.7621 26.5217 72.9891 26.6369ZM73.4179 24.3327C73.544 24.2635 73.6954 24.2174 73.8467 24.2174C73.9981 24.2174 74.1242 24.2405 74.2503 24.3096C74.3765 24.3787 74.4521 24.4479 74.5278 24.5631C74.6035 24.6783 74.6287 24.7935 74.6287 24.9317H73.0395C73.0395 24.8165 73.0648 24.7013 73.1404 24.5861C73.1909 24.4939 73.2918 24.4018 73.4179 24.3327ZM79.7242 23.6644C79.472 23.6644 79.2701 23.7105 79.0936 23.8257C78.917 23.9409 78.7909 24.0561 78.7152 24.2405H78.69C78.6143 24.0561 78.5134 23.9409 78.362 23.8257C78.2107 23.7336 78.0089 23.6644 77.7819 23.6644C77.5548 23.6644 77.353 23.7105 77.2017 23.8027C77.0503 23.8948 76.9242 24.0331 76.8485 24.2174H76.7981V23.6875H76.0413V26.7521H76.8233V24.9087C76.8233 24.7705 76.8485 24.6783 76.899 24.5861C76.9494 24.4939 77.0251 24.4248 77.126 24.3557C77.2269 24.3096 77.3278 24.2866 77.4287 24.2866C77.6053 24.2866 77.7314 24.3327 77.8323 24.4248C77.9332 24.517 77.9837 24.6552 77.9837 24.7935V26.7751H78.7657V24.8626C78.7657 24.6783 78.8161 24.54 78.917 24.4479C79.0179 24.3327 79.1693 24.2866 79.3711 24.2866C79.5224 24.2866 79.6738 24.3327 79.7747 24.4248C79.8756 24.517 79.9512 24.6552 79.9512 24.8396V26.7982H80.7584V24.7244C80.7584 24.3787 80.6575 24.1253 80.4557 23.9409C80.2792 23.7566 80.0269 23.6644 79.7242 23.6644ZM83.7602 26.729C83.962 26.6599 84.1386 26.5447 84.2647 26.4295C84.3909 26.2912 84.4918 26.1299 84.5422 25.9686L83.8107 25.8995C83.7855 25.9917 83.735 26.0608 83.6593 26.1069C83.5837 26.176 83.508 26.1991 83.4071 26.2451C83.3062 26.2682 83.2053 26.2912 83.1044 26.2912C82.9278 26.2912 82.7765 26.2682 82.6503 26.1991C82.5242 26.1299 82.4233 26.0378 82.3476 25.8995C82.2719 25.7843 82.2467 25.623 82.2467 25.4617H84.5927V25.2313C84.5927 24.9548 84.5422 24.7244 84.4665 24.54C84.3909 24.3557 84.2647 24.1944 84.1386 24.0561C83.9873 23.9409 83.8359 23.8257 83.6593 23.7796C83.4828 23.7105 83.281 23.6875 83.0792 23.6875C82.7512 23.6875 82.4737 23.7566 82.2467 23.8948C82.0197 24.0331 81.8179 24.2174 81.6918 24.4479C81.5656 24.6783 81.49 24.9548 81.49 25.2774C81.49 25.6 81.5656 25.8765 81.6918 26.1069C81.8179 26.3373 82.0197 26.5216 82.2467 26.6599C82.499 26.7982 82.7765 26.8442 83.1296 26.8442C83.3314 26.8212 83.5584 26.7982 83.7602 26.729ZM82.5999 24.3327C82.726 24.2635 82.8774 24.2174 83.0287 24.2174C83.1801 24.2174 83.3062 24.2405 83.4323 24.3096C83.5584 24.3787 83.6341 24.4479 83.7098 24.5631C83.7855 24.6783 83.8107 24.7935 83.8107 24.9317H82.2215C82.2215 24.8165 82.2467 24.7013 82.3224 24.5861C82.3981 24.4939 82.4737 24.4018 82.5999 24.3327ZM87.6449 23.8027C87.4683 23.7105 87.2665 23.6644 87.0395 23.6644C86.7873 23.6644 86.5855 23.7105 86.4089 23.8257C86.2323 23.9179 86.1062 24.0561 86.0305 24.2405H85.98V23.7105H85.2233V26.7751H86.0053V24.9778C86.0053 24.8396 86.0305 24.7013 86.1062 24.6092C86.1566 24.4939 86.2575 24.4248 86.3584 24.3787C86.4593 24.3326 86.5854 24.2866 86.7368 24.2866C86.9386 24.2866 87.09 24.3557 87.2161 24.4709C87.3422 24.5861 87.3927 24.7474 87.3927 24.9548V26.7982H88.1746V24.8396C88.1746 24.5861 88.1242 24.3787 88.0233 24.2174C87.9476 24.0101 87.8215 23.8948 87.6449 23.8027ZM90.2683 26.8212C90.3692 26.8212 90.4701 26.7982 90.5458 26.7982C90.6215 26.7751 90.6719 26.7751 90.7224 26.7521L90.5963 26.176C90.571 26.176 90.5458 26.176 90.4954 26.1991H90.3692C90.2936 26.1991 90.2431 26.1991 90.1927 26.176C90.1422 26.153 90.0918 26.1299 90.0665 26.0608C90.0413 26.0147 90.0161 25.9456 90.0161 25.8304V24.2405H90.6719V23.6875H90.0161V22.9501H89.2341V23.6875H88.7548V24.2405H89.2341V25.9456C89.2341 26.1299 89.2846 26.2912 89.3602 26.4295C89.4611 26.5677 89.5873 26.6599 89.7386 26.706C89.89 26.7982 90.0665 26.8212 90.2683 26.8212ZM95.9692 26.2451C96.0953 26.0608 96.171 25.8534 96.171 25.623C96.171 25.4387 96.1458 25.3004 96.0701 25.1622C95.9944 25.0239 95.8935 24.9087 95.7674 24.8165C95.6413 24.7244 95.4899 24.6552 95.3386 24.5861C95.1872 24.517 95.0107 24.4709 94.8593 24.4479L94.4305 24.3557C94.3296 24.3326 94.2539 24.3096 94.153 24.2866C94.0521 24.2635 93.9764 24.2174 93.9008 24.1714C93.8251 24.1253 93.7746 24.0792 93.7242 24.0101C93.6737 23.9409 93.6485 23.8718 93.6485 23.7796C93.6485 23.6875 93.6737 23.5953 93.7494 23.5031C93.8251 23.434 93.9008 23.3649 94.0269 23.3188C94.153 23.2727 94.3044 23.2497 94.4557 23.2497C94.708 23.2497 94.8845 23.2958 95.0359 23.3879C95.1872 23.4801 95.2629 23.6183 95.2881 23.8027H96.0701C96.0701 23.5723 95.9944 23.3649 95.8683 23.1805C95.7422 22.9962 95.5404 22.858 95.3134 22.7658C95.0611 22.6736 94.7836 22.6045 94.4809 22.6045C94.1782 22.6045 93.8755 22.6506 93.6485 22.7658C93.3963 22.858 93.1945 22.9962 93.0683 23.1805C92.917 23.3649 92.8413 23.5723 92.8413 23.8257C92.8413 24.1253 92.9422 24.3557 93.1692 24.54C93.371 24.7244 93.6737 24.8396 94.0521 24.9317L94.5566 25.047C94.708 25.093 94.8593 25.1161 94.9854 25.1852C95.1116 25.2543 95.1872 25.3004 95.2629 25.3695C95.3386 25.4387 95.3638 25.5308 95.3638 25.646C95.3638 25.7613 95.3134 25.8765 95.2377 25.9456C95.162 26.0378 95.0611 26.1069 94.935 26.153C94.8089 26.1991 94.6575 26.2221 94.4809 26.2221C94.3044 26.2221 94.153 26.1991 94.0269 26.153C93.9008 26.1069 93.7746 26.0378 93.699 25.9456C93.6233 25.8534 93.5728 25.7382 93.5476 25.6H92.7404C92.7404 25.8765 92.8413 26.1069 92.9674 26.2912C93.1188 26.4756 93.3206 26.6138 93.5728 26.729C93.8251 26.8212 94.1278 26.8673 94.4809 26.8673C94.8341 26.8673 95.1368 26.8212 95.389 26.706C95.6413 26.5677 95.8431 26.4295 95.9692 26.2451ZM99.0215 23.7105L98.2395 26.0378H98.2143L97.4323 23.7105H96.5999L97.8107 26.8442L97.735 27.0055C97.6845 27.1207 97.6341 27.2129 97.5584 27.259C97.4827 27.3051 97.4071 27.3281 97.3062 27.3281C97.2053 27.3281 97.1044 27.3051 97.0035 27.282L96.8269 27.835C96.8773 27.8581 96.953 27.8811 97.0539 27.8811C97.1548 27.9042 97.2557 27.9042 97.3566 27.9042C97.5584 27.9042 97.735 27.8811 97.8863 27.812C98.0377 27.7429 98.1638 27.6507 98.2647 27.5355C98.3656 27.4203 98.4413 27.282 98.517 27.1207L99.8539 23.6644H99.0215V23.7105ZM102.2 25.0239L101.62 24.9087C101.443 24.8626 101.317 24.8165 101.241 24.7705C101.166 24.7244 101.14 24.6322 101.14 24.5631C101.14 24.4479 101.191 24.3787 101.317 24.3096C101.418 24.2405 101.569 24.2174 101.721 24.2174C101.847 24.2174 101.948 24.2405 102.023 24.2635C102.099 24.3096 102.175 24.3557 102.225 24.4018C102.276 24.4709 102.301 24.517 102.326 24.5861L103.058 24.517C103.007 24.2635 102.856 24.0561 102.629 23.8948C102.402 23.7336 102.099 23.6644 101.695 23.6644C101.418 23.6644 101.191 23.7105 100.989 23.7796C100.787 23.8488 100.636 23.964 100.51 24.1022C100.384 24.2405 100.333 24.4018 100.333 24.5861C100.333 24.8165 100.409 25.0009 100.56 25.1391C100.712 25.2774 100.964 25.3926 101.267 25.4617L101.847 25.5769C101.998 25.6 102.124 25.646 102.2 25.7152C102.276 25.7613 102.301 25.8534 102.301 25.9226C102.301 26.0378 102.25 26.1069 102.124 26.176C101.998 26.2451 101.847 26.2912 101.67 26.2912C101.494 26.2912 101.342 26.2451 101.216 26.176C101.09 26.1069 101.039 25.9917 100.989 25.8534L100.207 25.9226C100.258 26.1991 100.409 26.4295 100.661 26.5908C100.913 26.7521 101.241 26.8212 101.645 26.8212C101.922 26.8212 102.175 26.7751 102.402 26.706C102.629 26.6138 102.78 26.4986 102.906 26.3604C103.032 26.2221 103.083 26.0378 103.083 25.8534C103.083 25.623 103.007 25.4617 102.856 25.3235C102.755 25.1852 102.528 25.093 102.2 25.0239ZM105.328 26.1991H105.202C105.126 26.1991 105.076 26.1991 105.025 26.176C104.975 26.153 104.924 26.1299 104.899 26.0608C104.874 26.0147 104.848 25.9456 104.848 25.8304V24.2405H105.504V23.6875H104.848V22.9501H104.067V23.6875H103.587V24.2405H104.067V25.9456C104.067 26.1299 104.117 26.2912 104.193 26.4295C104.294 26.5677 104.42 26.6599 104.571 26.706C104.722 26.7751 104.899 26.7982 105.101 26.7982C105.202 26.7982 105.303 26.7751 105.378 26.7751C105.454 26.7521 105.504 26.7521 105.555 26.729L105.429 26.153C105.403 26.176 105.353 26.176 105.328 26.1991ZM108.355 25.8765C108.33 25.9686 108.279 26.0378 108.203 26.0838C108.128 26.153 108.052 26.176 107.951 26.2221C107.85 26.2451 107.749 26.2682 107.648 26.2682C107.472 26.2682 107.321 26.2451 107.194 26.176C107.068 26.1069 106.967 26.0147 106.892 25.8765C106.816 25.7613 106.791 25.6 106.791 25.4387H109.137V25.2083C109.137 24.9317 109.086 24.7013 109.011 24.517C108.935 24.3327 108.809 24.1714 108.683 24.0331C108.531 23.9179 108.38 23.8027 108.203 23.7566C108.027 23.6875 107.825 23.6644 107.623 23.6644C107.295 23.6644 107.018 23.7336 106.791 23.8718C106.564 24.0101 106.362 24.1944 106.236 24.4248C106.11 24.6552 106.034 24.9317 106.034 25.2543C106.034 25.5769 106.11 25.8534 106.236 26.0838C106.362 26.3143 106.564 26.4986 106.791 26.6369C107.043 26.7751 107.321 26.8212 107.674 26.8212C107.926 26.8212 108.178 26.7751 108.38 26.706C108.582 26.6369 108.758 26.5217 108.885 26.4064C109.011 26.2682 109.112 26.1069 109.162 25.9456L108.355 25.8765ZM107.194 24.3327C107.321 24.2635 107.472 24.2174 107.623 24.2174C107.775 24.2174 107.901 24.2405 108.027 24.3096C108.153 24.3787 108.229 24.4479 108.304 24.5631C108.38 24.6783 108.405 24.7935 108.405 24.9317H106.816C106.816 24.8165 106.841 24.7013 106.917 24.5861C106.967 24.4939 107.068 24.4018 107.194 24.3327ZM114.257 23.9179C114.056 23.7336 113.803 23.6414 113.501 23.6414C113.248 23.6414 113.047 23.6875 112.87 23.8027C112.694 23.9179 112.567 24.0331 112.492 24.2174H112.466C112.391 24.0331 112.29 23.9179 112.139 23.8027C111.987 23.7105 111.785 23.6414 111.558 23.6414C111.331 23.6414 111.13 23.6875 110.978 23.7796C110.827 23.8718 110.701 24.0101 110.625 24.1944H110.575V23.6644H109.818V26.729H110.6V24.9087C110.6 24.7705 110.625 24.6783 110.676 24.5861C110.726 24.4939 110.802 24.4248 110.903 24.3557C111.003 24.3096 111.104 24.2866 111.205 24.2866C111.382 24.2866 111.508 24.3327 111.609 24.4248C111.71 24.517 111.76 24.6552 111.76 24.7935V26.7751H112.542V24.8626C112.542 24.6783 112.593 24.54 112.694 24.4479C112.794 24.3327 112.946 24.2866 113.148 24.2866C113.299 24.2866 113.45 24.3327 113.551 24.4248C113.652 24.517 113.728 24.6552 113.728 24.8396V26.7982H114.535V24.7244C114.535 24.3557 114.434 24.1022 114.257 23.9179ZM2.76217 29.6784C2.9892 29.5402 3.21622 29.4941 3.51893 29.4941C3.67028 29.4941 3.82163 29.5171 3.97298 29.5632C4.09911 29.6093 4.22523 29.6554 4.35136 29.7475C4.45226 29.8167 4.55316 29.9088 4.62883 30.024C4.70451 30.1393 4.75496 30.2545 4.78019 30.3927H5.71352C5.66307 30.1393 5.58739 29.8858 5.46127 29.7015C5.33514 29.4941 5.18379 29.3328 4.98199 29.1715C4.78019 29.0332 4.57838 28.918 4.32613 28.8489C4.07388 28.7798 3.82163 28.7337 3.51893 28.7337C3.06487 28.7337 2.66127 28.8259 2.30812 29.0102C1.95497 29.1945 1.67749 29.471 1.47569 29.8397C1.27389 30.2084 1.17298 30.6462 1.17298 31.1531C1.17298 31.66 1.27389 32.0978 1.47569 32.4435C1.67749 32.8121 1.95497 33.0887 2.30812 33.273C2.66127 33.4573 3.06487 33.5495 3.51893 33.5495C3.82163 33.5495 4.09911 33.5034 4.35136 33.4343C4.60361 33.3421 4.83064 33.2269 5.00721 33.0886C5.18379 32.9504 5.33514 32.7661 5.46127 32.5817C5.58739 32.3743 5.66307 32.167 5.68829 31.9596H4.75496C4.72974 32.0978 4.67929 32.213 4.60361 32.3283C4.52793 32.4435 4.42703 32.5356 4.32613 32.6048C4.22523 32.6739 4.09911 32.743 3.97298 32.7661C3.84685 32.8121 3.6955 32.8121 3.54415 32.8121C3.26667 32.8121 3.01442 32.743 2.81262 32.6278C2.5856 32.5126 2.43424 32.3283 2.30812 32.0748C2.18199 31.8213 2.13154 31.5218 2.13154 31.1762C2.13154 30.8305 2.18199 30.531 2.30812 30.2775C2.43424 30.0241 2.56037 29.8167 2.76217 29.6784ZM6.4955 28.7798H7.4036V33.4804H6.4955V28.7798ZM11.0108 30.1393C10.7333 29.978 10.4054 29.9088 10.027 29.9088C9.64865 29.9088 9.32072 29.978 9.04324 30.1393C8.76576 30.3006 8.56396 30.5079 8.41261 30.7844C8.26126 31.0609 8.18559 31.3835 8.18559 31.7522C8.18559 32.1209 8.26126 32.4435 8.41261 32.72C8.56396 32.9965 8.79099 33.2039 9.04324 33.3652C9.29549 33.5264 9.64865 33.5956 10.027 33.5956C10.4054 33.5956 10.7333 33.5264 11.0108 33.3652C11.2883 33.2039 11.4901 32.9965 11.6414 32.72C11.7928 32.4435 11.8685 32.1209 11.8685 31.7522C11.8685 31.3835 11.7928 31.0609 11.6414 30.7844C11.5153 30.5079 11.2883 30.3006 11.0108 30.1393ZM10.8595 32.3283C10.7838 32.5126 10.6829 32.6509 10.5568 32.743C10.4306 32.8352 10.2541 32.9043 10.0522 32.9043C9.85045 32.9043 9.67387 32.8582 9.52252 32.743C9.39639 32.6509 9.27027 32.4896 9.21982 32.3283C9.14414 32.1439 9.11892 31.9596 9.11892 31.7522C9.11892 31.5448 9.14414 31.3374 9.21982 31.1762C9.29549 30.9918 9.39639 30.8536 9.52252 30.7614C9.64865 30.6462 9.82522 30.6001 10.0522 30.6001C10.2541 30.6001 10.4306 30.6462 10.5568 30.7614C10.6829 30.8766 10.809 31.0149 10.8595 31.1762C10.9351 31.3605 10.9604 31.5448 10.9604 31.7522C10.9604 31.9596 10.9351 32.1439 10.8595 32.3283ZM15.1225 32.0057C15.1225 32.19 15.0721 32.3283 14.9964 32.4435C14.9207 32.5587 14.8198 32.6508 14.6937 32.72C14.5676 32.7891 14.4414 32.8121 14.3153 32.8121C14.0883 32.8121 13.9117 32.743 13.7856 32.6048C13.6595 32.4665 13.5838 32.3052 13.5838 32.0748V29.978H12.6757V32.2361C12.6757 32.5126 12.7261 32.7661 12.827 32.9504C12.9279 33.1578 13.0793 33.296 13.2811 33.4112C13.4829 33.5034 13.7099 33.5725 13.9622 33.5725C14.2649 33.5725 14.4919 33.5034 14.6937 33.3882C14.8955 33.273 15.0468 33.1117 15.1225 32.9043H15.1477V33.5264H16.0306V29.978H15.1225V32.0057ZM19.5369 30.554H19.5117C19.4612 30.4619 19.4108 30.3697 19.3099 30.2775C19.2342 30.1853 19.1081 30.0932 18.9567 30.024C18.8054 29.9549 18.6288 29.9088 18.4018 29.9088C18.0991 29.9088 17.8468 29.978 17.5946 30.1162C17.3423 30.2545 17.1658 30.4619 17.0144 30.7384C16.863 31.0149 16.8126 31.3375 16.8126 31.7292C16.8126 32.1209 16.8883 32.4435 17.0144 32.72C17.1658 32.9965 17.3423 33.2039 17.5946 33.3421C17.8468 33.4804 18.0991 33.5495 18.4018 33.5495C18.6288 33.5495 18.8054 33.5265 18.9567 33.4573C19.1081 33.3882 19.209 33.3191 19.3099 33.2039C19.4108 33.1117 19.4612 33.0195 19.5117 32.9274H19.5621V33.4804H20.4702V28.7798H19.5621V30.554H19.5369ZM19.4612 32.3283C19.3856 32.4896 19.2847 32.6278 19.1585 32.72C19.0324 32.8121 18.8558 32.8582 18.654 32.8582C18.4522 32.8582 18.2757 32.8121 18.1495 32.72C18.0234 32.6278 17.8973 32.4896 17.8468 32.3052C17.7964 32.1209 17.7459 31.9365 17.7459 31.7061C17.7459 31.4757 17.7712 31.2914 17.8468 31.1301C17.9225 30.9688 18.0234 30.8305 18.1495 30.7384C18.2757 30.6462 18.4522 30.6001 18.654 30.6001C18.8558 30.6001 19.0072 30.6462 19.1585 30.7384C19.2847 30.8305 19.3856 30.9688 19.4612 31.1301C19.5369 31.2914 19.5621 31.4987 19.5621 31.7292C19.5621 31.9596 19.5369 32.167 19.4612 32.3283ZM26.4991 31.2222C26.3225 31.1301 26.1459 31.084 25.9693 31.0609V31.0149C26.1459 30.9688 26.2973 30.9227 26.4234 30.8305C26.5495 30.7384 26.6756 30.6462 26.7513 30.5079C26.827 30.3697 26.8774 30.2084 26.8774 30.024C26.8774 29.7936 26.827 29.5862 26.7009 29.4019C26.5747 29.2176 26.3982 29.0793 26.1459 28.9641C25.8937 28.8489 25.591 28.8028 25.2126 28.8028H23.245V33.5034H25.3387C25.7423 33.5034 26.0702 33.4573 26.3225 33.3421C26.5747 33.2269 26.7765 33.0887 26.9027 32.8813C27.0288 32.6969 27.1045 32.4665 27.1045 32.2361C27.1045 32.0057 27.054 31.7983 26.9531 31.614C26.8018 31.4296 26.6756 31.3144 26.4991 31.2222ZM24.1784 29.4941H25.1117C25.3892 29.4941 25.591 29.5632 25.7423 29.6784C25.8937 29.7936 25.9441 29.9549 25.9441 30.1393C25.9441 30.2775 25.9189 30.3927 25.8432 30.5079C25.7675 30.6001 25.6666 30.6923 25.5405 30.7384C25.4144 30.7844 25.263 30.8305 25.1117 30.8305H24.1784V29.4941ZM25.9189 32.6048C25.7675 32.72 25.5153 32.7891 25.1874 32.7891H24.1784V31.4066H25.2126C25.4144 31.4066 25.5657 31.4296 25.7171 31.4987C25.8684 31.5679 25.9693 31.66 26.045 31.7753C26.1207 31.8905 26.1459 32.0057 26.1459 32.1439C26.1207 32.3283 26.045 32.4896 25.9189 32.6048ZM30.5099 30.1853C30.3585 30.0932 30.1819 30.0241 30.0054 29.978C29.8288 29.9319 29.627 29.9088 29.4504 29.9088C29.1729 29.9088 28.9459 29.9549 28.7189 30.024C28.4919 30.0932 28.3153 30.2084 28.1639 30.3466C28.0126 30.4849 27.8865 30.6692 27.836 30.8766L28.6937 30.9918C28.7441 30.8766 28.8198 30.7614 28.9459 30.6692C29.072 30.5771 29.2486 30.531 29.4756 30.531C29.6774 30.531 29.854 30.5771 29.9549 30.6692C30.0558 30.7614 30.1315 30.8996 30.1315 31.0609V31.084C30.1315 31.1531 30.1063 31.2222 30.0306 31.2683C29.9549 31.3144 29.854 31.3375 29.7279 31.3605C29.5765 31.3835 29.4 31.4066 29.1729 31.4296C28.9964 31.4527 28.7946 31.4757 28.618 31.5218C28.4414 31.5679 28.2901 31.614 28.1387 31.7061C27.9874 31.7753 27.8865 31.8905 27.8108 32.0287C27.7351 32.167 27.6847 32.3283 27.6847 32.5126C27.6847 32.743 27.7351 32.9274 27.8612 33.0886C27.9621 33.2499 28.1387 33.3652 28.3153 33.4573C28.5171 33.5265 28.7189 33.5725 28.9711 33.5725C29.1729 33.5725 29.3495 33.5495 29.5009 33.5034C29.6522 33.4573 29.7783 33.3882 29.8792 33.296C29.9801 33.2039 30.0558 33.1117 30.1063 33.0195H30.1315V33.5034H31.0144V31.1301C31.0144 30.8996 30.9639 30.6923 30.863 30.554C30.7874 30.3927 30.6612 30.2775 30.5099 30.1853ZM30.1063 32.2361C30.1063 32.3743 30.081 32.4896 30.0054 32.6048C29.9297 32.72 29.8288 32.8121 29.7027 32.8813C29.5765 32.9504 29.4 32.9734 29.2234 32.9734C29.0216 32.9734 28.8702 32.9274 28.7441 32.8582C28.618 32.7891 28.5675 32.6739 28.5675 32.5126C28.5675 32.3974 28.5928 32.3283 28.6684 32.2591C28.7189 32.19 28.8198 32.1439 28.9207 32.0978C29.0216 32.0518 29.1477 32.0287 29.2738 32.0057C29.3243 32.0057 29.4 31.9826 29.4756 31.9826C29.5513 31.9826 29.6522 31.9596 29.7279 31.9365C29.8036 31.9135 29.8792 31.9135 29.9549 31.8905C30.0306 31.8674 30.081 31.8444 30.1063 31.8213V32.2361ZM33.9657 31.4757L33.3099 31.3605C33.1081 31.3144 32.9819 31.2683 32.881 31.1992C32.8054 31.1301 32.7549 31.0609 32.7549 30.9457C32.7549 30.8305 32.8054 30.7384 32.9567 30.6462C33.0828 30.5771 33.2342 30.531 33.436 30.531C33.5873 30.531 33.6882 30.554 33.7891 30.6001C33.89 30.6462 33.9657 30.6923 34.0162 30.7614C34.0666 30.8305 34.1171 30.8997 34.1423 30.9688L34.9747 30.8766C34.9243 30.5771 34.7477 30.3466 34.4955 30.1623C34.2432 29.978 33.8648 29.9088 33.436 29.9088C33.1333 29.9088 32.8558 29.9549 32.6288 30.0471C32.4018 30.1393 32.2 30.2545 32.0738 30.4158C31.9477 30.5771 31.872 30.7614 31.872 30.9918C31.872 31.2453 31.9477 31.4527 32.1243 31.637C32.3009 31.7983 32.5783 31.9135 32.9567 32.0057L33.6126 32.1209C33.7891 32.167 33.9153 32.213 34.0162 32.2822C34.0919 32.3513 34.1423 32.4204 34.1423 32.5356C34.1423 32.6509 34.0666 32.7661 33.9405 32.8352C33.8144 32.9274 33.6378 32.9504 33.4108 32.9504C33.209 32.9504 33.0324 32.9043 32.9063 32.8352C32.7801 32.743 32.6792 32.6278 32.654 32.4665L31.7711 32.5356C31.8216 32.8582 31.9982 33.1117 32.2756 33.296C32.5531 33.4804 32.9567 33.5725 33.4108 33.5725C33.7387 33.5725 34.0162 33.5265 34.2684 33.4343C34.5207 33.3421 34.7225 33.2039 34.8486 33.0426C35 32.8813 35.0504 32.6739 35.0504 32.4665C35.0504 32.2131 34.9495 32.0057 34.7729 31.8444C34.6216 31.66 34.3441 31.5679 33.9657 31.4757ZM38.7333 30.3466C38.5819 30.2084 38.3801 30.0932 38.1783 30.024C37.9765 29.9549 37.7495 29.9088 37.4972 29.9088C37.1189 29.9088 36.8162 29.978 36.5387 30.1393C36.2612 30.3006 36.0594 30.5079 35.9081 30.7844C35.7567 31.0609 35.681 31.3835 35.681 31.7522C35.681 32.1209 35.7567 32.4435 35.9081 32.72C36.0594 32.9965 36.2864 33.2039 36.5639 33.3421C36.8414 33.4804 37.1693 33.5725 37.5729 33.5725C37.8756 33.5725 38.1279 33.5265 38.3801 33.4573C38.6072 33.3652 38.809 33.2499 38.9603 33.1117C39.1117 32.9504 39.2126 32.7891 39.263 32.5817L38.4054 32.4896C38.3549 32.5817 38.3045 32.6739 38.2288 32.743C38.1531 32.8121 38.0522 32.8582 37.9513 32.9043C37.8504 32.9274 37.7243 32.9504 37.5981 32.9504C37.3963 32.9504 37.2198 32.9043 37.0684 32.8352C36.9171 32.7661 36.8162 32.6508 36.7153 32.4896C36.6396 32.3513 36.5891 32.19 36.5891 31.9826H39.2882V31.7292C39.2882 31.4296 39.2378 31.1531 39.1369 30.9227C39.0108 30.6692 38.8846 30.4849 38.7333 30.3466ZM36.5639 31.4066C36.5639 31.2683 36.6144 31.1301 36.69 31.0149C36.7657 30.8766 36.8666 30.7844 37.018 30.6923C37.1693 30.6001 37.3207 30.5771 37.4972 30.5771C37.6738 30.5771 37.8252 30.6231 37.9513 30.6923C38.0774 30.7614 38.1783 30.8536 38.254 30.9918C38.3297 31.107 38.3549 31.2683 38.3549 31.4296H36.5639V31.4066ZM42.5927 30.554H42.5675C42.5171 30.4619 42.4666 30.3697 42.3657 30.2775C42.29 30.1853 42.1639 30.0932 42.0126 30.024C41.8612 29.9549 41.6846 29.9088 41.4576 29.9088C41.1549 29.9088 40.9026 29.978 40.6504 30.1162C40.3981 30.2545 40.2216 30.4619 40.0702 30.7384C39.9189 31.0149 39.8684 31.3375 39.8684 31.7292C39.8684 32.1209 39.9441 32.4435 40.0702 32.72C40.2216 32.9965 40.3981 33.2039 40.6504 33.3421C40.9026 33.4804 41.1549 33.5495 41.4576 33.5495C41.6846 33.5495 41.8612 33.5265 42.0126 33.4573C42.1639 33.3882 42.2648 33.3191 42.3657 33.2039C42.4666 33.1117 42.5171 33.0195 42.5675 32.9274H42.618V33.4804H43.5261V28.7798H42.618V30.554H42.5927ZM42.5171 32.3283C42.4414 32.4896 42.3405 32.6278 42.2144 32.72C42.0882 32.8121 41.9117 32.8582 41.7099 32.8582C41.5081 32.8582 41.3315 32.8121 41.2054 32.72C41.0792 32.6278 40.9531 32.4896 40.9026 32.3052C40.827 32.1439 40.8017 31.9365 40.8017 31.7061C40.8017 31.4757 40.827 31.2914 40.9026 31.1301C40.9783 30.9688 41.0792 30.8305 41.2054 30.7384C41.3315 30.6462 41.5081 30.6001 41.7099 30.6001C41.9117 30.6001 42.063 30.6462 42.2144 30.7384C42.3405 30.8305 42.4414 30.9688 42.5171 31.1301C42.5927 31.2914 42.618 31.4987 42.618 31.7292C42.618 31.9596 42.5927 32.167 42.5171 32.3283ZM47.7891 29.6784C48.0161 29.5402 48.2432 29.4941 48.5459 29.4941C48.6972 29.4941 48.8486 29.5171 48.9999 29.5632C49.1513 29.6093 49.2522 29.6554 49.3783 29.7475C49.4792 29.8167 49.5801 29.9088 49.6558 30.024C49.7315 30.1393 49.7819 30.2545 49.8071 30.3927H50.7405C50.69 30.1393 50.6143 29.8858 50.4882 29.7015C50.3621 29.4941 50.2107 29.3328 50.0089 29.1715C49.8071 29.0332 49.6053 28.918 49.3531 28.8489C49.1008 28.7798 48.8486 28.7337 48.5459 28.7337C48.0918 28.7337 47.6882 28.8259 47.3351 29.0102C46.9819 29.1945 46.7044 29.471 46.5026 29.8397C46.3008 30.2084 46.1999 30.6462 46.1999 31.1531C46.1999 31.66 46.3008 32.0978 46.5026 32.4435C46.7044 32.8121 46.9819 33.0887 47.3351 33.273C47.6882 33.4573 48.0918 33.5495 48.5459 33.5495C48.8486 33.5495 49.1261 33.5034 49.3783 33.4343C49.6306 33.3421 49.8576 33.2269 50.0342 33.0886C50.2107 32.9504 50.3621 32.7661 50.4882 32.5817C50.6143 32.3743 50.69 32.167 50.7152 31.9596H49.7819C49.7567 32.0978 49.7062 32.213 49.6306 32.3283C49.5549 32.4435 49.454 32.5356 49.3531 32.6048C49.2522 32.6739 49.1261 32.743 48.9999 32.7661C48.8738 32.8121 48.7225 32.8121 48.5711 32.8121C48.2936 32.8121 48.0414 32.743 47.8396 32.6278C47.6125 32.5126 47.4612 32.3283 47.3351 32.0748C47.2089 31.8213 47.1585 31.5218 47.1585 31.1762C47.1585 30.8305 47.2089 30.531 47.3351 30.2775C47.4612 30.0241 47.5621 29.8167 47.7891 29.6784ZM54.1963 30.1393C53.9188 29.978 53.5909 29.9088 53.2125 29.9088C52.8342 29.9088 52.5062 29.978 52.2288 30.1393C51.9513 30.3006 51.7495 30.5079 51.5981 30.7844C51.4468 31.0609 51.3711 31.3835 51.3711 31.7522C51.3711 32.1209 51.4468 32.4435 51.5981 32.72C51.7495 32.9965 51.9765 33.2039 52.2288 33.3652C52.481 33.5264 52.8342 33.5956 53.2125 33.5956C53.5909 33.5956 53.9188 33.5264 54.1963 33.3652C54.4738 33.2039 54.6756 32.9965 54.827 32.72C54.9783 32.4435 55.054 32.1209 55.054 31.7522C55.054 31.3835 54.9783 31.0609 54.827 30.7844C54.6756 30.5079 54.4738 30.3006 54.1963 30.1393ZM54.0197 32.3283C53.9441 32.5126 53.8432 32.6509 53.717 32.743C53.5909 32.8352 53.4143 32.9043 53.2125 32.9043C53.0107 32.9043 52.8342 32.8582 52.6828 32.743C52.5567 32.6509 52.4306 32.4896 52.3801 32.3283C52.3297 32.167 52.2792 31.9596 52.2792 31.7522C52.2792 31.5448 52.3044 31.3374 52.3801 31.1762C52.4558 30.9918 52.5567 30.8536 52.6828 30.7614C52.8089 30.6462 52.9855 30.6001 53.2125 30.6001C53.4143 30.6001 53.5909 30.6462 53.717 30.7614C53.8432 30.8766 53.9693 31.0149 54.0197 31.1762C54.0954 31.3605 54.1206 31.5448 54.1206 31.7522C54.1206 31.9596 54.0954 32.1439 54.0197 32.3283ZM60.0486 29.9319C59.7711 29.9319 59.5188 30.001 59.317 30.1162C59.1152 30.2314 58.9639 30.3927 58.8882 30.5771H58.8378C58.7621 30.3697 58.636 30.2314 58.4594 30.0932C58.2828 29.978 58.0558 29.9088 57.8035 29.9088C57.5513 29.9088 57.3242 29.9549 57.1477 30.0701C56.9711 30.1853 56.8197 30.3466 56.7441 30.554H56.6936V29.978H55.8107V33.5034H56.7188V31.3605C56.7188 31.2222 56.7441 31.084 56.8197 30.9688C56.8954 30.8536 56.9711 30.7844 57.072 30.7153C57.1729 30.6462 57.299 30.6231 57.4251 30.6231C57.6269 30.6231 57.7783 30.6692 57.9044 30.7844C58.0305 30.8996 58.081 31.0379 58.081 31.2222V33.5034H58.9639V31.2914C58.9639 31.084 59.0143 30.9227 59.1405 30.8075C59.2666 30.6923 59.4432 30.6231 59.645 30.6231C59.8215 30.6231 59.9981 30.6692 60.1242 30.7844C60.2504 30.8766 60.326 31.0379 60.326 31.2683V33.5034H61.2341V31.1301C61.2341 30.7384 61.1332 30.4388 60.9062 30.2314C60.7044 30.0241 60.4017 29.9319 60.0486 29.9319ZM66.4305 29.9319C66.1531 29.9319 65.9008 30.001 65.699 30.1162C65.4972 30.2314 65.3458 30.3927 65.2702 30.5771H65.2197C65.1441 30.3697 65.0179 30.2314 64.8413 30.0932C64.6648 29.978 64.4377 29.9088 64.1855 29.9088C63.9332 29.9088 63.7062 29.9549 63.5296 30.0701C63.3531 30.1853 63.2017 30.3466 63.126 30.554H63.0756V29.978H62.1927V33.5034H63.1008V31.3605C63.1008 31.2222 63.126 31.084 63.2017 30.9688C63.2774 30.8536 63.3531 30.7844 63.454 30.7153C63.5549 30.6462 63.681 30.6231 63.8071 30.6231C64.0089 30.6231 64.1603 30.6692 64.2864 30.7844C64.4125 30.8996 64.463 31.0379 64.463 31.2222V33.5034H65.3458V31.2914C65.3458 31.084 65.3963 30.9227 65.5224 30.8075C65.6486 30.6923 65.8251 30.6231 66.0269 30.6231C66.2035 30.6231 66.3801 30.6692 66.5062 30.7844C66.6323 30.8996 66.708 31.0379 66.708 31.2683V33.5034H67.6161V31.1301C67.6161 30.7384 67.5152 30.4388 67.2882 30.2314C67.0612 30.0241 66.7837 29.9319 66.4305 29.9319ZM71.1981 30.1853C71.0467 30.0932 70.8702 30.0241 70.6936 29.978C70.517 29.9319 70.3152 29.9088 70.1386 29.9088C69.8612 29.9088 69.6341 29.9549 69.4071 30.024C69.1801 30.0932 69.0035 30.2084 68.8521 30.3466C68.7008 30.4849 68.5747 30.6692 68.5242 30.8766L69.3819 30.9918C69.4323 30.8766 69.508 30.7614 69.6341 30.6692C69.7603 30.5771 69.9368 30.531 70.1639 30.531C70.3657 30.531 70.5422 30.5771 70.6431 30.6692C70.744 30.7614 70.8197 30.8996 70.8197 31.0609V31.084C70.8197 31.1531 70.7945 31.2222 70.7188 31.2683C70.6431 31.3144 70.5422 31.3375 70.4161 31.3605C70.2648 31.3835 70.0882 31.4066 69.8612 31.4296C69.6846 31.4527 69.4828 31.4757 69.3062 31.5218C69.1296 31.5679 68.9783 31.614 68.8269 31.7061C68.6756 31.7753 68.5747 31.8905 68.499 32.0287C68.4233 32.167 68.3729 32.3283 68.3729 32.5126C68.3729 32.743 68.4233 32.9274 68.5495 33.0886C68.6504 33.2499 68.8269 33.3652 69.0035 33.4573C69.2053 33.5265 69.4071 33.5725 69.6594 33.5725C69.8612 33.5725 70.0377 33.5495 70.1891 33.5034C70.3404 33.4573 70.4666 33.3882 70.5675 33.296C70.6684 33.2039 70.744 33.1117 70.7945 33.0195H70.8197V33.5034H71.7026V31.1301C71.7026 30.8996 71.6521 30.6923 71.5512 30.554C71.4756 30.3927 71.3494 30.2775 71.1981 30.1853ZM70.7945 32.2361C70.7945 32.3743 70.7693 32.4896 70.6936 32.6048C70.6179 32.72 70.517 32.8121 70.3909 32.8813C70.2648 32.9504 70.0882 32.9734 69.9116 32.9734C69.7098 32.9734 69.5585 32.9274 69.4323 32.8582C69.3062 32.7891 69.2558 32.6739 69.2558 32.5126C69.2558 32.3974 69.281 32.3283 69.3567 32.2591C69.4071 32.19 69.508 32.1439 69.6089 32.0978C69.7098 32.0518 69.8359 32.0287 69.9621 32.0057C70.0125 32.0057 70.0882 31.9826 70.1639 31.9826C70.2395 31.9826 70.3404 31.9596 70.4161 31.9365C70.4918 31.9135 70.5675 31.9135 70.6431 31.8905C70.7188 31.8674 70.7693 31.8444 70.7945 31.8213V32.2361ZM75.3855 30.0701C75.1837 29.9549 74.9566 29.9088 74.6792 29.9088C74.4017 29.9088 74.1494 29.978 73.9476 30.0932C73.7458 30.2084 73.6197 30.3697 73.5188 30.554H73.4684V29.978H72.5855V33.5034H73.4936V31.4296C73.4936 31.2683 73.5188 31.107 73.5945 30.9918C73.6702 30.8766 73.7711 30.7844 73.872 30.7153C73.9981 30.6462 74.1242 30.6231 74.3008 30.6231C74.5278 30.6231 74.7296 30.6923 74.8558 30.8305C74.9819 30.9688 75.0575 31.1531 75.0575 31.3835V33.5034H75.9657V31.2453C75.9657 30.9688 75.9152 30.7153 75.8143 30.531C75.7386 30.3236 75.5873 30.1853 75.3855 30.0701ZM79.5224 30.554H79.4972C79.4467 30.4619 79.3963 30.3697 79.2954 30.2775C79.2197 30.1853 79.0936 30.0932 78.9422 30.024C78.7909 29.9549 78.6143 29.9088 78.3873 29.9088C78.0846 29.9088 77.8323 29.978 77.5801 30.1162C77.3278 30.2545 77.1512 30.4619 76.9999 30.7384C76.8485 31.0149 76.7981 31.3375 76.7981 31.7292C76.7981 32.1209 76.8738 32.4435 76.9999 32.72C77.1512 32.9965 77.3278 33.2039 77.5801 33.3421C77.8323 33.4804 78.0846 33.5495 78.3873 33.5495C78.6143 33.5495 78.7909 33.5265 78.9422 33.4573C79.0936 33.3882 79.1945 33.3191 79.2954 33.2039C79.3963 33.1117 79.4467 33.0195 79.4972 32.9274H79.5476V33.4804H80.4557V28.7798H79.5476V30.554H79.5224ZM79.4467 32.3283C79.371 32.4896 79.2702 32.6278 79.144 32.72C79.0179 32.8121 78.8413 32.8582 78.6395 32.8582C78.4377 32.8582 78.2611 32.8121 78.135 32.72C78.0089 32.6278 77.8828 32.4896 77.8323 32.3052C77.7566 32.1439 77.7314 31.9365 77.7314 31.7061C77.7314 31.4757 77.7566 31.2914 77.8323 31.1301C77.908 30.9688 78.0089 30.8305 78.135 30.7384C78.2611 30.6462 78.4377 30.6001 78.6395 30.6001C78.8413 30.6001 78.9927 30.6462 79.144 30.7384C79.2702 30.8305 79.371 30.9688 79.4467 31.1301C79.5224 31.2914 79.5476 31.4987 79.5476 31.7292C79.5476 31.9596 79.5224 32.167 79.4467 32.3283ZM86.6611 32.6048C86.7873 32.4435 86.8629 32.2591 86.9386 32.0518C87.0143 31.8213 87.0395 31.5679 87.0395 31.2683H86.2575C86.2575 31.4987 86.2071 31.7292 86.1314 31.9135C86.1062 31.9596 86.081 32.0287 86.0305 32.0748L85.0972 31.0609L85.4251 30.8536C85.6521 30.7153 85.8035 30.554 85.9296 30.3697C86.0557 30.1853 86.1062 30.001 86.1062 29.7706C86.1062 29.5863 86.0557 29.4019 85.9548 29.2406C85.8539 29.0793 85.7026 28.9411 85.5008 28.8489C85.299 28.7567 85.0719 28.7106 84.7945 28.7106C84.517 28.7106 84.29 28.7567 84.0882 28.8719C83.8864 28.9641 83.735 29.1024 83.6089 29.2867C83.508 29.471 83.4323 29.6554 83.4323 29.8858C83.4323 30.0932 83.4828 30.2545 83.5584 30.4388C83.6341 30.6001 83.7602 30.7614 83.8864 30.9227C83.9116 30.9457 83.9368 30.9688 83.9368 30.9918C83.7602 31.107 83.5837 31.2222 83.4575 31.3374C83.3062 31.4527 83.1801 31.5909 83.1044 31.7522C83.0287 31.8905 82.9783 32.0748 82.9783 32.2591C82.9783 32.5126 83.0539 32.743 83.1801 32.9274C83.3062 33.1117 83.508 33.273 83.7602 33.4112C84.0125 33.5264 84.3152 33.5956 84.6683 33.5956C84.8954 33.5956 85.1476 33.5495 85.3746 33.4804C85.6017 33.4112 85.8035 33.3191 85.98 33.1808L86.308 33.5264H87.2918L86.535 32.72C86.6107 32.6508 86.6359 32.6508 86.6611 32.6048ZM84.3404 29.6784C84.3909 29.6093 84.4413 29.5402 84.5422 29.4941C84.6179 29.448 84.7188 29.425 84.8197 29.425C84.971 29.425 85.1224 29.471 85.1981 29.5632C85.299 29.6554 85.3494 29.7475 85.3494 29.8397C85.3494 29.9549 85.3242 30.0701 85.2485 30.1623C85.1728 30.2545 85.0719 30.3466 84.9458 30.4158L84.6431 30.6001C84.6431 30.6001 84.6179 30.5771 84.6179 30.554C84.517 30.4388 84.4413 30.3236 84.3656 30.2314C84.29 30.1393 84.2647 30.024 84.2647 29.9088C84.2647 29.8167 84.29 29.7475 84.3404 29.6784ZM85.299 32.7661C85.1224 32.8352 84.9458 32.8813 84.744 32.8813C84.5674 32.8813 84.4413 32.8582 84.3152 32.7891C84.1891 32.72 84.0882 32.6509 84.0125 32.5356C83.9368 32.4204 83.9116 32.3283 83.9116 32.19C83.9116 32.0978 83.9368 32.0057 84.0125 31.8905C84.0882 31.7753 84.2143 31.66 84.3909 31.5448L84.4665 31.4987L85.526 32.6278C85.4503 32.6969 85.3746 32.743 85.299 32.7661ZM91.1764 29.6784C91.4035 29.5402 91.6305 29.4941 91.9332 29.4941C92.0845 29.4941 92.2359 29.5171 92.3873 29.5632C92.5134 29.6093 92.6395 29.6554 92.7656 29.7475C92.8665 29.8167 92.9674 29.9088 93.0431 30.024C93.1188 30.1393 93.1692 30.2545 93.1945 30.3927H94.1278C94.0773 30.1393 94.0017 29.8858 93.8755 29.7015C93.7494 29.4941 93.5981 29.3328 93.3963 29.1715C93.1945 29.0332 92.9927 28.918 92.7404 28.8489C92.4882 28.7798 92.2359 28.7337 91.9332 28.7337C91.4791 28.7337 91.0755 28.8259 90.7224 29.0102C90.3692 29.1945 90.0918 29.471 89.89 29.8397C89.6881 30.2084 89.5873 30.6462 89.5873 31.1531C89.5873 31.66 89.6881 32.0978 89.89 32.4435C90.0918 32.8121 90.3692 33.0887 90.7224 33.273C91.0755 33.4573 91.4791 33.5495 91.9332 33.5495C92.2359 33.5495 92.5134 33.5034 92.7656 33.4343C93.0179 33.3421 93.2449 33.2269 93.4215 33.0886C93.5981 32.9504 93.7494 32.7661 93.8755 32.5817C94.0017 32.3743 94.0773 32.167 94.1026 31.9596H93.1692C93.144 32.0978 93.0936 32.213 93.0179 32.3283C92.9422 32.4435 92.8413 32.5356 92.7404 32.6048C92.6395 32.6739 92.5134 32.743 92.3873 32.7661C92.2611 32.8121 92.1098 32.8121 91.9584 32.8121C91.6809 32.8121 91.4287 32.743 91.2269 32.6278C90.9999 32.5126 90.8485 32.3283 90.7224 32.0748C90.5963 31.8213 90.5458 31.5218 90.5458 31.1762C90.5458 30.8305 90.5963 30.531 90.7224 30.2775C90.7981 30.001 90.9494 29.8167 91.1764 29.6784ZM97.5584 30.1393C97.2809 29.978 96.953 29.9088 96.5746 29.9088C96.1963 29.9088 95.8683 29.978 95.5908 30.1393C95.3134 30.3006 95.1116 30.5079 94.9602 30.7844C94.8089 31.0609 94.7332 31.3835 94.7332 31.7522C94.7332 32.1209 94.8089 32.4435 94.9602 32.72C95.1116 32.9965 95.3386 33.2039 95.5908 33.3652C95.8431 33.5264 96.1963 33.5956 96.5746 33.5956C96.953 33.5956 97.2809 33.5264 97.5584 33.3652C97.8359 33.2039 98.0377 32.9965 98.189 32.72C98.3404 32.4435 98.4161 32.1209 98.4161 31.7522C98.4161 31.3835 98.3404 31.0609 98.189 30.7844C98.0629 30.5079 97.8359 30.3006 97.5584 30.1393ZM97.4071 32.3283C97.3314 32.5126 97.2305 32.6509 97.1044 32.743C96.9782 32.8352 96.8017 32.9043 96.5999 32.9043C96.398 32.9043 96.2215 32.8582 96.0701 32.743C95.944 32.6509 95.8179 32.4896 95.7674 32.3283C95.717 32.167 95.6665 31.9596 95.6665 31.7522C95.6665 31.5448 95.6917 31.3374 95.7674 31.1762C95.8431 30.9918 95.944 30.8536 96.0701 30.7614C96.1963 30.6462 96.3728 30.6001 96.5999 30.6001C96.8017 30.6001 96.9782 30.6462 97.1044 30.7614C97.2305 30.8766 97.3566 31.0149 97.4071 31.1762C97.4827 31.3605 97.508 31.5448 97.508 31.7522C97.508 31.9596 97.4827 32.1439 97.4071 32.3283ZM101.973 30.0701C101.771 29.9549 101.544 29.9088 101.267 29.9088C100.989 29.9088 100.737 29.978 100.535 30.0932C100.333 30.2084 100.207 30.3697 100.106 30.554H100.056V29.978H99.1728V33.5034H100.081V31.4296C100.081 31.2683 100.106 31.107 100.182 30.9918C100.258 30.8766 100.358 30.7844 100.459 30.7153C100.585 30.6462 100.712 30.6231 100.888 30.6231C101.115 30.6231 101.317 30.6923 101.443 30.8305C101.569 30.9688 101.645 31.1531 101.645 31.3835V33.5034H102.553V31.2453C102.553 30.9688 102.503 30.7153 102.402 30.531C102.326 30.3236 102.175 30.1853 101.973 30.0701ZM105.277 32.8352H105.126C105.05 32.8352 104.975 32.8352 104.924 32.8121C104.874 32.7891 104.823 32.743 104.773 32.6969C104.748 32.6278 104.722 32.5587 104.722 32.4435V30.6231H105.479V29.978H104.722V29.1254H103.814V29.978H103.259V30.6231H103.814V32.5817C103.814 32.8121 103.865 32.9965 103.966 33.1347C104.067 33.273 104.218 33.3882 104.394 33.4573C104.571 33.5265 104.773 33.5495 105 33.5495C105.126 33.5495 105.227 33.5264 105.328 33.5264C105.429 33.5034 105.479 33.4804 105.53 33.4804L105.378 32.8352C105.353 32.8121 105.328 32.8352 105.277 32.8352ZM108.103 29.9088C107.876 29.9088 107.674 29.9549 107.522 30.0701C107.346 30.1853 107.22 30.3466 107.169 30.554H107.119V29.978H106.236V33.5034H107.144V31.4296C107.144 31.2683 107.169 31.1531 107.245 31.0379C107.321 30.9227 107.421 30.8305 107.548 30.7614C107.674 30.6923 107.825 30.6692 108.002 30.6692C108.077 30.6692 108.153 30.6692 108.254 30.6923C108.33 30.6923 108.405 30.7153 108.43 30.7153V29.9549C108.38 29.9549 108.33 29.9319 108.279 29.9319C108.203 29.9088 108.153 29.9088 108.103 29.9088ZM111.71 30.1393C111.432 29.978 111.104 29.9088 110.726 29.9088C110.348 29.9088 110.02 29.978 109.742 30.1393C109.465 30.3006 109.263 30.5079 109.112 30.7844C108.96 31.0609 108.885 31.3835 108.885 31.7522C108.885 32.1209 108.96 32.4435 109.112 32.72C109.263 32.9965 109.49 33.2039 109.742 33.3652C109.994 33.5264 110.348 33.5956 110.726 33.5956C111.104 33.5956 111.432 33.5264 111.71 33.3652C111.987 33.2039 112.189 32.9965 112.34 32.72C112.492 32.4435 112.567 32.1209 112.567 31.7522C112.567 31.3835 112.492 31.0609 112.34 30.7844C112.189 30.5079 111.987 30.3006 111.71 30.1393ZM111.558 32.3283C111.483 32.5126 111.382 32.6509 111.256 32.743C111.13 32.8352 110.953 32.9043 110.751 32.9043C110.549 32.9043 110.373 32.8582 110.221 32.743C110.095 32.6509 109.969 32.4896 109.919 32.3283C109.868 32.167 109.818 31.9596 109.818 31.7522C109.818 31.5448 109.843 31.3374 109.919 31.1762C109.994 30.9918 110.095 30.8536 110.221 30.7614C110.348 30.6462 110.524 30.6001 110.751 30.6001C110.953 30.6001 111.13 30.6462 111.256 30.7614C111.382 30.8766 111.508 31.0149 111.558 31.1762C111.634 31.3605 111.659 31.5448 111.659 31.7522C111.659 31.9596 111.609 32.1439 111.558 32.3283ZM113.349 28.7798H114.257V33.4804H113.349V28.7798Z" fill="black"/>
  <path d="M107.497 14.1248C112.189 10.4611 113.879 7.90344 113.879 5.11535C113.879 2.35029 111.256 0.0230421 107.346 0.0230421H100.283C97.382 0.0230421 94.809 1.03689 92.9928 2.69593C92.2865 1.58991 91.0252 0.852558 89.6378 0.55301C88.9568 0.414758 87.9478 0.345632 86.5856 0.345632H80.4307V2.23508L80.355 2.16596C78.4379 0.691263 76.2937 0.0230421 73.6451 0.0230421C68.146 0.0230421 63.7568 4.2167 63.7568 8.87121C63.7568 11.5211 64.6397 13.7561 66.7082 15.5995C68.6757 17.3737 71.1982 18.2263 73.8721 18.2263C76.3442 18.2263 78.6397 17.4429 80.4054 16.0373V17.9037H86.7874C89.8144 17.9037 90.7982 17.6963 92.3117 16.7286C92.7153 16.4751 93.0433 16.1756 93.346 15.853C95.0613 17.3277 97.382 18.2493 100.056 18.2493H114.005V14.1248H107.497ZM80.4307 11.3367H78.4631C77.4541 13.2953 75.7892 14.3091 73.8469 14.3091C70.8199 14.3091 68.6757 11.9358 68.6757 9.10163C68.6757 6.38266 70.7442 3.98628 73.8217 3.98628C75.8145 3.98628 77.6307 5.11535 78.4631 7.05088H80.4307V11.3367ZM85.1225 4.28583H87.0901C88.3009 4.28583 88.9315 4.67755 88.9315 5.62227C88.9315 6.54396 88.2757 7.02784 87.0649 7.02784H85.1225V4.28583ZM87.6451 13.9635H85.1225V10.7607H87.6703C89.1333 10.7607 89.8649 11.2676 89.8649 12.2814C89.8649 13.4105 89.0072 13.9635 87.6451 13.9635ZM100.989 14.1018C100.787 14.217 100.535 14.2861 100.283 14.2861C97.2054 14.2861 95.1117 11.8667 95.1117 9.07859C95.1117 6.31354 97.2306 3.96324 100.258 3.96324C100.434 3.96324 100.611 3.96324 100.787 3.98628L107.169 3.96324C108.229 3.96324 108.986 4.6545 108.986 5.66836C108.986 7.02784 107.8 8.82513 105.605 10.8298C104.622 11.7515 103.083 12.8345 100.989 14.1018ZM61.3604 8.41037C60.7802 8.11082 60.0992 7.81127 59.292 7.48868C57.1983 6.65917 56.164 6.17528 56.164 5.13839C56.164 4.35496 56.946 3.75586 57.8541 3.75586C58.8127 3.75586 59.3929 4.21671 59.5947 5.46098H61.9658C62.3442 4.378 62.8992 3.36415 63.5802 2.46551C63.0757 1.7512 62.3442 1.19819 61.3856 0.737347C60.3766 0.253463 59.2667 0 57.9802 0C55.2055 0 52.683 1.33644 51.6992 3.36415V0.345632H46.8559L39.6163 10.0003H39.5659V0.345632H34.7226L27.4073 10.0694C26.8776 9.35509 26.0704 8.80208 24.9857 8.47949C26.4488 7.74215 27.2055 6.4057 27.2055 4.93101C27.2055 2.55767 25.3893 1.01385 23.2199 0.576053C22.5389 0.4378 21.5299 0.368674 20.1677 0.368674H13.9623L0.769531 17.9037H6.67222L8.36231 15.3691H13.9119V17.9037H20.3695C20.7983 17.9037 21.1767 17.9037 21.5299 17.8807V17.9037H27.1551L34.5965 7.4426H34.647V17.9037H38.7334L46.755 7.4426H46.8055V17.9037H51.6992V15.4152C52.7839 17.2816 55.0037 18.2263 57.9046 18.2263C60.6289 18.2263 62.6469 17.3737 63.7316 15.8299C62.1929 13.8713 61.3604 11.5441 61.3604 9.07859C61.3352 8.87121 61.3352 8.64079 61.3604 8.41037ZM13.9119 11.7976H10.683L13.8614 6.93567H13.9119V11.7976ZM18.8055 4.28583H20.647C21.8578 4.28583 22.4884 4.67755 22.4884 5.62227C22.4884 6.54396 21.8326 7.02784 20.6217 7.02784H18.8055V4.28583ZM21.2019 13.9635H18.8055V10.7607H21.2272C22.6902 10.7607 23.4217 11.2676 23.4217 12.2814C23.4217 13.4105 22.5641 13.9635 21.2019 13.9635ZM57.8541 14.4935C56.6433 14.4935 55.8613 13.5488 55.8361 12.0971H51.674V7.09697C52.3046 8.36428 53.6415 9.35509 55.8361 10.1385C57.5766 10.7837 59.6956 11.4058 59.6956 12.7884C59.6956 13.7561 58.8631 14.4935 57.8541 14.4935Z" fill="black"/>
</svg>
