<svg viewBox="0 0 32 64" fill="none" xmlns="http://www.w3.org/2000/svg"><path d="M24.722 30.61a16.957 16.957 0 0 0 4.973-5.87 16.29 16.29 0 0 0 1.791-7.375 16.876 16.876 0 0 0-1.651-7.202 17.501 17.501 0 0 0-4.6-5.9 19.343 19.343 0 0 0-6.42-3.5A18.813 18.813 0 0 0 14.405 0l-1.84 8.24h1.262a11.87 11.87 0 0 1 6.636 2.966 8.795 8.795 0 0 1 2.378 4.623 8.614 8.614 0 0 1-.68 5.117 9.029 9.029 0 0 1-3.51 3.9 9.542 9.542 0 0 1-5.166 1.376H8.519l-1.99 8.404h5.864c1.442 0 2.87.273 4.202.805a11.018 11.018 0 0 1 3.563 2.29 10.55 10.55 0 0 1 2.38 3.428c.552 1.282.836 2.657.836 4.044 0 1.388-.284 2.762-.836 4.044a10.55 10.55 0 0 1-2.38 3.428c-1.02.981-2.23 1.76-3.563 2.29-1.332.532-2.76.805-4.202.805H1.82L0 64h12.393c5.151.033 10.107-1.9 13.781-5.374 3.675-3.474 5.77-8.208 5.826-13.165a18.456 18.456 0 0 0-1.891-8.219 19.178 19.178 0 0 0-5.387-6.633Z" fill="#fff"/></svg>
