<svg width="40" height="36" viewBox="0 0 40 36" fill="none" xmlns="http://www.w3.org/2000/svg">
  <g clip-path="url(#clip0_908_4709)">
    <path d="M30.4805 21.1696H33.3161C33.9892 21.1676 34.6552 21.0368 35.2753 20.7847C35.8954 20.5326 36.4573 20.1643 36.9283 19.7011C37.3994 19.238 37.7701 18.6892 38.019 18.0868C38.2678 17.4845 38.3899 16.8404 38.378 16.1922C38.3781 14.8849 37.8435 13.6303 36.8899 12.7001C35.9364 11.7699 34.6407 11.2392 33.2836 11.2226V11.1131C33.2836 8.47842 32.1976 5.95155 30.2642 4.08782C28.3308 2.2241 25.7083 1.17602 22.973 1.17395C20.9192 1.17617 18.9127 1.7687 17.2105 2.87569C15.5083 3.98269 14.1878 5.55378 13.418 7.38786H13.1661C11.4062 7.38675 9.70743 8.01022 8.39448 9.13919C7.08153 10.2681 6.2464 11.8234 6.04863 13.5079C5.52581 13.5079 5.0081 13.607 4.52507 13.7998C4.04204 13.9925 3.60315 14.275 3.23346 14.6311C2.86377 14.9872 2.57051 15.4099 2.37043 15.8752C2.17036 16.3404 2.06738 16.839 2.06738 17.3426C2.06738 17.8463 2.17036 18.3449 2.37043 18.8102C2.57051 19.2755 2.86377 19.6981 3.23346 20.0542C3.60315 20.4103 4.04204 20.6928 4.52507 20.8855C5.0081 21.0783 5.52581 21.1774 6.04863 21.1774H9.29863" stroke="#C9C9C9" stroke-width="2" stroke-linecap="round" stroke-linejoin="round"/>
    <path d="M15.2132 17.2644V25.2627H9.63135" stroke="#C9C9C9" stroke-width="2" stroke-linecap="round" stroke-linejoin="round"/>
    <path d="M17.9111 17.2174V25.2157H23.5011" stroke="#C9C9C9" stroke-width="2" stroke-linecap="round" stroke-linejoin="round"/>
    <path d="M7.08844 29.2601C8.87496 29.2601 10.3878 27.8559 10.3878 26.0453C10.3878 24.2348 8.87496 22.8306 7.08844 22.8306C5.30191 22.8306 3.78906 24.2348 3.78906 26.0453C3.78906 27.8559 5.30191 29.2601 7.08844 29.2601Z" stroke="#FC0000" stroke-width="2" stroke-linecap="round" stroke-linejoin="round"/>
    <path d="M11.0209 35.3407C11.2865 35.3407 11.5411 35.235 11.7287 35.0471C11.9163 34.8591 12.0214 34.6042 12.0209 34.3386C12.0182 33.0557 11.4875 31.8341 10.5582 30.9388L10.5581 30.9387C9.62987 30.0448 8.37944 29.5476 7.08222 29.545L7.0763 29.5451C5.78051 29.5502 4.5321 30.0479 3.60482 30.941L3.60478 30.9411C2.67634 31.8355 2.1451 33.055 2.13966 34.3364C2.13853 34.6024 2.24338 34.8578 2.43104 35.0463C2.6187 35.2348 2.8737 35.3407 3.13965 35.3407H11.0209Z" stroke="#FC0000" stroke-width="2" stroke-linecap="round" stroke-linejoin="round"/>
    <path d="M13.1904 14.3999V32.8773" stroke="#C9C9C9" stroke-width="2" stroke-linecap="round" stroke-linejoin="round" stroke-dasharray="4 4"/>
    <path d="M32.1055 16.4191V34.8965" stroke="#C9C9C9" stroke-width="2" stroke-linecap="round" stroke-linejoin="round" stroke-dasharray="4 4"/>
    <path d="M20.2266 8.02173V32.8774" stroke="#C9C9C9" stroke-width="2" stroke-linecap="round" stroke-linejoin="round" stroke-dasharray="4 4"/>
    <mask id="path-9-outside-1_908_4709" maskUnits="userSpaceOnUse" x="20.0059" y="21.8306" width="12" height="15" fill="black">
      <rect fill="white" x="20.0059" y="21.8306" width="12" height="15"/>
      <path fill-rule="evenodd" clip-rule="evenodd" d="M28.2455 26.0453C28.2455 27.2686 27.216 28.2601 25.9461 28.2601C24.6762 28.2601 23.6467 27.2686 23.6467 26.0453C23.6467 24.8221 24.6762 23.8306 25.9461 23.8306C27.216 23.8306 28.2455 24.8221 28.2455 26.0453ZM28.7253 31.6618C29.4621 32.373 29.8769 33.336 29.879 34.3407H22.0059C22.0081 33.3346 22.4239 32.3704 23.1625 31.659C23.9009 30.9477 24.902 30.5471 25.9465 30.545C26.9896 30.5492 27.9885 30.9507 28.7253 31.6618Z"/>
    </mask>
    <path d="M29.879 34.3407V36.3407C30.4101 36.3407 30.9195 36.1294 31.2947 35.7534C31.6699 35.3774 31.8801 34.8676 31.879 34.3365L29.879 34.3407ZM28.7253 31.6618L30.1143 30.2228L28.7253 31.6618ZM22.0059 34.3407L20.0059 34.3363C20.0047 34.8675 20.2149 35.3773 20.5901 35.7533C20.9653 36.1294 21.4747 36.3407 22.0059 36.3407V34.3407ZM23.1625 31.659L24.5499 33.0995L23.1625 31.659ZM25.9465 30.545L25.9544 28.545L25.9426 28.545L25.9465 30.545ZM25.9461 30.2601C28.2493 30.2601 30.2455 28.4431 30.2455 26.0453H26.2455C26.2455 26.0801 26.234 26.1234 26.1845 26.171C26.1338 26.2199 26.0535 26.2601 25.9461 26.2601V30.2601ZM21.6467 26.0453C21.6467 28.4431 23.6429 30.2601 25.9461 30.2601V26.2601C25.8387 26.2601 25.7584 26.2199 25.7077 26.171C25.6582 26.1234 25.6467 26.0801 25.6467 26.0453H21.6467ZM25.9461 21.8306C23.6429 21.8306 21.6467 23.6476 21.6467 26.0453H25.6467C25.6467 26.0106 25.6582 25.9673 25.7077 25.9197C25.7584 25.8708 25.8387 25.8306 25.9461 25.8306V21.8306ZM30.2455 26.0453C30.2455 23.6476 28.2493 21.8306 25.9461 21.8306V25.8306C26.0535 25.8306 26.1338 25.8708 26.1845 25.9197C26.234 25.9673 26.2455 26.0106 26.2455 26.0453H30.2455ZM31.879 34.3365C31.8757 32.7788 31.232 31.3016 30.1143 30.2228L27.3363 33.1008C27.6922 33.4443 27.878 33.8931 27.879 34.3449L31.879 34.3365ZM22.0059 36.3407H29.879V32.3407H22.0059V36.3407ZM21.775 30.2185C20.6545 31.2977 20.0093 32.7768 20.0059 34.3363L24.0059 34.345C24.0068 33.8925 24.1932 33.443 24.5499 33.0995L21.775 30.2185ZM25.9426 28.545C24.3926 28.548 22.8928 29.1419 21.775 30.2185L24.5499 33.0995C24.9091 32.7535 25.4114 32.5461 25.9504 32.545L25.9426 28.545ZM30.1143 30.2228C28.999 29.1463 27.5022 28.5512 25.9544 28.545L25.9385 32.545C26.4769 32.5472 26.9781 32.755 27.3363 33.1008L30.1143 30.2228Z" fill="#FC0000" mask="url(#path-9-outside-1_908_4709)"/>
  </g>
  <defs>
    <clipPath id="clip0_908_4709">
      <rect width="39" height="36" fill="white" transform="translate(0.848633)"/>
    </clipPath>
  </defs>
</svg>
